<?xml version="1.0" encoding="utf-8"?>
<!-- Generator: Adobe Illustrator 28.0.0, SVG Export Plug-In . SVG Version: 6.00 Build 0)  -->
<svg version="1.1" id="Icons" xmlns="http://www.w3.org/2000/svg" xmlns:xlink="http://www.w3.org/1999/xlink" x="0px" y="0px"
	 viewBox="0 0 275.53 269.63" style="enable-background:new 0 0 275.53 269.63;" xml:space="preserve">
<style type="text/css">
	.st0{fill:none;stroke:#00AAB4;stroke-width:4;stroke-linecap:round;stroke-linejoin:round;stroke-miterlimit:10;}
	.st1{fill:none;stroke:#00AAB4;stroke-width:4;stroke-linecap:round;stroke-linejoin:round;stroke-miterlimit:9.9999;}
</style>
<g id="Icon_19_00000178179711732769903320000016286459874700764077_">
	<path class="st0" d="M145.23,259.98h-14.19c-13.38,0-24.22-10.84-24.22-24.22v-24.01h62.63v24.02
		C169.45,249.14,158.61,259.98,145.23,259.98z"/>
	<path class="st0" d="M169.45,211.75v-13.66c0-14.14,4.89-27.82,15.23-38.17c8.75-8.75,17.83-22.49,17.83-41.79
		c0-37.24-29.9-64.36-64.75-64.36s-64.75,27.12-64.75,64.36c0,19.3,9.08,33.04,17.83,41.79c10.34,10.35,15.98,24.02,15.98,38.17
		v13.66"/>
	<line class="st0" x1="49.74" y1="52.18" x2="66.66" y2="69.1"/>
	<line class="st0" x1="27.23" y1="140.21" x2="51.16" y2="140.21"/>
	<line class="st0" x1="248.3" y1="140.21" x2="224.37" y2="140.21"/>
	<line class="st0" x1="225.79" y1="52.18" x2="208.87" y2="69.1"/>
	<line class="st0" x1="137.76" y1="9.63" x2="137.76" y2="33.57"/>
	<g>
		<ellipse class="st1" cx="137.76" cy="121.85" rx="11.89" ry="11.89"/>
		<path class="st0" d="M177.75,115.05h-7.04c-0.87-4.26-2.55-8.22-4.87-11.72l4.98-4.98c1.04-1.04,1.04-2.74,0-3.78l-5.8-5.8
			c-1.04-1.05-2.74-1.05-3.78,0l-4.98,4.98c-3.51-2.31-7.47-3.99-11.72-4.86v-7.03c0-1.48-1.2-2.68-2.68-2.68h-8.21
			c-1.48,0-2.68,1.2-2.68,2.68v7.04c-4.26,0.87-8.22,2.55-11.72,4.87l-4.98-4.98c-1.04-1.04-2.74-1.04-3.78,0l-5.8,5.8
			c-1.04,1.04-1.04,2.74,0,3.78l4.98,4.98c-2.31,3.51-3.99,7.47-4.86,11.72h-7.03c-1.48,0-2.68,1.2-2.68,2.68v8.21
			c0,1.48,1.2,2.68,2.68,2.68h7.04c0.87,4.26,2.55,8.22,4.87,11.72l-4.98,4.98c-1.05,1.04-1.05,2.74,0,3.78l5.8,5.8
			c1.04,1.04,2.74,1.04,3.78,0l4.98-4.98c3.51,2.31,7.47,3.99,11.72,4.86v7.03c0,1.48,1.2,2.68,2.68,2.68h8.21
			c1.48,0,2.68-1.2,2.68-2.68v-7.04c4.26-0.87,8.22-2.55,11.72-4.87l4.98,4.98c1.05,1.04,2.74,1.04,3.78,0l5.8-5.8
			c1.05-1.04,1.05-2.74,0-3.78l-4.98-4.98c2.31-3.51,3.99-7.47,4.86-11.72h7.03c1.48,0,2.68-1.2,2.68-2.68v-8.21
			C180.43,116.25,179.23,115.05,177.75,115.05z"/>
	</g>
</g>
</svg>
