<?xml version="1.0" encoding="utf-8"?>
<!-- Generator: Adobe Illustrator 28.0.0, SVG Export Plug-In . SVG Version: 6.00 Build 0)  -->
<svg version="1.1" id="Icons" xmlns="http://www.w3.org/2000/svg" xmlns:xlink="http://www.w3.org/1999/xlink" x="0px" y="0px"
	 viewBox="0 0 538.47 618.92" style="enable-background:new 0 0 538.47 618.92;" xml:space="preserve">
<style type="text/css">
	.st0{fill:#353535;}
</style>
<g>
	<g>
		<path class="st0" d="M327.05,324.65l-54.24,32.55l54.24,32.55h23.63v-65.1L327.05,324.65L327.05,324.65z M344.3,383.35h-15.49
			l-1.56-0.92l-32.62-19.58l-9.43-5.65l9.43-5.65l32.62-19.58l1.56-0.92h15.49V383.35z M211.4,324.65h-23.65v65.1h23.65l54.24-32.55
			L211.4,324.65z M211.2,382.43l-1.56,0.92h-15.49v-52.31h15.49l1.56,0.92l32.62,19.58l9.41,5.65l-9.41,5.65L211.2,382.43z"/>
	</g>
	<g>
		<polygon class="st0" points="265.58,604.45 262.32,610.01 119.29,495.61 119.29,456.91 79.16,436.84 103.8,382.95 109.6,385.61 
			90.17,428.1 87.53,433.88 93.22,436.73 125.66,452.98 125.66,492.54 128.15,494.51 251.84,593.48 		"/>
		<polygon class="st0" points="269.22,607.39 274.34,611.48 269.25,615.55 264.13,611.46 		"/>
		<polygon class="st0" points="459.53,436.73 422.83,455.09 419.18,456.91 419.18,495.59 275.95,610.18 272.76,604.56 
			286.92,593.24 410.34,494.51 412.81,492.54 412.81,452.98 444.59,437.06 450.74,433.99 447.42,427.99 429.44,395.37 
			435.03,392.29 		"/>
		<polygon class="st0" points="531.84,387 460.08,615.92 453.99,614.01 522.23,396.29 524.01,390.6 518.52,388.25 422.67,347.5 
			417.33,345.22 414.39,350.23 277.09,584.78 269.18,598.27 261.71,585.06 126.54,346.84 123.58,341.61 118.1,344.08 19.75,388.14 
			14.41,390.54 16.17,396.12 84.48,614.01 78.39,615.92 6.63,387.02 126.26,333.42 263.64,575.55 269.27,585.5 275.05,575.63 
			414.65,337.15 		"/>
	</g>
	<g>
		<path class="st0" d="M417.47,118.8c2.57-2.51,3.6-5.56,2.77-8.13c-0.84-2.62-3.47-4.46-7.03-4.99l-85.36-12.4
			c-3.96-0.59-8.92-4.2-10.68-7.76L283,16.3l-0.29,0.55l-0.44,0.86l-0.73,0.77l-3.03,3.19l32.92,66.7
			c2.68,5.43,9.47,10.35,15.47,11.23l74.77,10.88l13.23,1.91l-9.58,9.34l-54.09,52.73c-4.35,4.22-6.95,12.22-5.91,18.2l12.77,74.48
			l2.26,13.16l-11.82-6.22l-66.9-35.16c-2.62-1.38-6-2.13-9.56-2.13s-6.95,0.75-9.56,2.13l-66.88,35.16l-11.82,6.22l2.24-13.16
			l12.77-74.48c1.03-5.98-1.56-13.96-5.89-18.18l-54.13-52.77l-9.56-9.32l13.21-1.93l74.81-10.86c5.98-0.88,12.77-5.8,15.45-11.23
			l33.45-67.78l1.82-3.67l-2.88-1.43l5.8-11.85l7.63,3.71C276.94,4.6,274.56,3,272.08,3c-2.73,0-5.32,1.93-6.9,5.16l-38.2,77.38
			c-1.74,3.54-6.73,7.16-10.64,7.74l-85.38,12.4c-3.63,0.53-6.18,2.35-7.03,4.99c-0.86,2.57,0.2,5.63,2.77,8.13l61.78,60.24
			c2.84,2.75,4.75,8.59,4.07,12.53l-14.57,85.03c-0.62,3.54,0.33,6.62,2.55,8.22c1.08,0.79,2.35,1.19,3.8,1.19
			c1.52,0,3.19-0.46,4.79-1.3l76.37-40.15c2.15-1.14,4.77-1.38,6.59-1.38c1.8,0,4.42,0.24,6.59,1.38l76.35,40.15
			c1.63,0.84,3.27,1.3,4.79,1.3c1.47,0,2.75-0.4,3.82-1.19c2.24-1.63,3.16-4.62,2.55-8.22l-14.57-85.03
			c-0.68-3.91,1.23-9.76,4.07-12.53L417.47,118.8z"/>
	</g>
	<path class="st0" d="M243.05,66.3l23.47-44.88l5.91-12l5.91,12l19.08,38.66c2.33-0.22,4.62-0.42,6.81-0.62l-24.94-50.5
		c-1.58-3.23-4.18-5.14-6.88-5.14c-2.75-0.02-5.32,1.93-6.92,5.14L236.7,67.33C239.33,67,240.56,66.63,243.05,66.3z"/>
</g>
</svg>
