<?xml version="1.0" encoding="utf-8"?>
<!-- Generator: Adobe Illustrator 28.0.0, SVG Export Plug-In . SVG Version: 6.00 Build 0)  -->
<svg version="1.1" id="Icons" xmlns="http://www.w3.org/2000/svg" xmlns:xlink="http://www.w3.org/1999/xlink" x="0px" y="0px"
	 viewBox="0 0 258.46 252.92" style="enable-background:new 0 0 258.46 252.92;" xml:space="preserve">
<style type="text/css">
	.st0{fill:#01ABB4;}
	.st1{fill:none;stroke:#00AAB4;stroke-width:4;stroke-linecap:round;stroke-linejoin:round;stroke-miterlimit:10;}
</style>
<g>
	<g>
		<g>
			<g>
				<path class="st0" d="M59.54,231.77v14.05c0,0.73-0.59,1.32-1.32,1.32c-0.73,0-1.32-0.59-1.32-1.32v-14.05
					c0-7.71-6.27-13.97-13.97-13.97H22.05c-7.7,0-13.97,6.27-13.97,13.97v14.05c0,0.73-0.6,1.32-1.32,1.32
					c-0.73,0-1.32-0.59-1.32-1.32v-14.05c0-9.16,7.45-16.62,16.61-16.62h20.88C52.09,215.15,59.54,222.61,59.54,231.77z"/>
			</g>
			<g>
				<path class="st0" d="M124.03,231.77v14.05c0,0.73-0.59,1.32-1.32,1.32s-1.32-0.59-1.32-1.32v-14.05
					c0-7.71-6.27-13.97-13.97-13.97H86.54c-7.71,0-13.97,6.27-13.97,13.97v14.05c0,0.73-0.59,1.32-1.32,1.32s-1.32-0.59-1.32-1.32
					v-14.05c0-9.16,7.46-16.62,16.62-16.62h20.88C116.58,215.15,124.03,222.61,124.03,231.77z"/>
			</g>
			<g>
				<path class="st0" d="M188.52,231.77v14.05c0,0.73-0.59,1.32-1.32,1.32s-1.32-0.59-1.32-1.32v-14.05
					c0-7.71-6.27-13.97-13.97-13.97h-20.88c-7.71,0-13.97,6.27-13.97,13.97v14.05c0,0.73-0.59,1.32-1.32,1.32s-1.32-0.59-1.32-1.32
					v-14.05c0-9.16,7.45-16.62,16.62-16.62h20.88C181.07,215.15,188.52,222.61,188.52,231.77z"/>
			</g>
			<g>
				<path class="st0" d="M253.02,231.77v14.05c0,0.73-0.59,1.32-1.32,1.32s-1.32-0.59-1.32-1.32v-14.05
					c0-7.71-6.27-13.97-13.97-13.97h-20.88c-7.71,0-13.97,6.27-13.97,13.97v14.05c0,0.73-0.59,1.32-1.32,1.32s-1.32-0.59-1.32-1.32
					v-14.05c0-9.16,7.45-16.62,16.62-16.62h20.88C245.56,215.15,253.02,222.61,253.02,231.77z"/>
			</g>
			<g>
				<g>
					<path class="st0" d="M100.55,196.42v6.46c0,0.73-0.59,1.32-1.32,1.32s-1.32-0.59-1.32-1.32v-6.46c0-5.46-4.45-9.91-9.91-9.91
						H72.66c-5.46,0-9.91,4.45-9.91,9.91v6.46c0,0.73-0.59,1.32-1.32,1.32c-0.73,0-1.32-0.59-1.32-1.32v-6.46
						c0-6.92,5.63-12.56,12.56-12.56h15.34C94.92,183.86,100.55,189.5,100.55,196.42z"/>
				</g>
				<g>
					<path class="st0" d="M52.19,196.42v6.46c0,0.73-0.6,1.32-1.32,1.32c-0.73,0-1.32-0.59-1.32-1.32v-6.46
						c0-5.46-4.45-9.91-9.92-9.91H24.29c-5.47,0-9.91,4.45-9.91,9.91v6.46c0,0.73-0.6,1.32-1.32,1.32c-0.73,0-1.32-0.59-1.32-1.32
						v-6.46c0-6.92,5.63-12.56,12.56-12.56h15.34C46.55,183.86,52.19,189.5,52.19,196.42z"/>
				</g>
				<g>
					<path class="st0" d="M148.92,196.42v6.46c0,0.73-0.59,1.32-1.32,1.32s-1.32-0.59-1.32-1.32v-6.46c0-5.46-4.45-9.91-9.92-9.91
						h-15.34c-5.47,0-9.91,4.45-9.91,9.91v6.46c0,0.73-0.59,1.32-1.32,1.32s-1.32-0.59-1.32-1.32v-6.46
						c0-6.92,5.63-12.56,12.56-12.56h15.34C143.29,183.86,148.92,189.5,148.92,196.42z"/>
				</g>
				<g>
					<path class="st0" d="M197.29,196.42v6.46c0,0.73-0.59,1.32-1.32,1.32s-1.32-0.59-1.32-1.32v-6.46c0-5.46-4.45-9.91-9.91-9.91
						h-15.35c-5.47,0-9.92,4.45-9.92,9.91v6.46c0,0.73-0.59,1.32-1.32,1.32s-1.32-0.59-1.32-1.32v-6.46
						c0-6.92,5.63-12.56,12.56-12.56h15.34C191.66,183.86,197.29,189.5,197.29,196.42z"/>
				</g>
				<g>
					<path class="st0" d="M245.66,196.42v6.46c0,0.73-0.59,1.32-1.32,1.32s-1.32-0.59-1.32-1.32v-6.46c0-5.46-4.45-9.91-9.92-9.91
						h-15.34c-5.46,0-9.91,4.45-9.91,9.91v6.46c0,0.73-0.59,1.32-1.32,1.32s-1.32-0.59-1.32-1.32v-6.46
						c0-6.92,5.63-12.56,12.56-12.56h15.34C240.03,183.86,245.66,189.5,245.66,196.42z"/>
				</g>
			</g>
			<g>
				<g>
					<path class="st0" d="M82.54,7.23c-0.07,0.68-1.84,16.86-10.31,37.41c-7.38,17.89-21.37,42.29-46.63,59.69
						c-1.54,1.07-3.14,2.11-4.77,3.12c-0.1,0.06-0.19,0.1-0.29,0.13c-0.13,0.05-0.27,0.07-0.41,0.07H6.85
						c-0.73,0-1.32-0.59-1.32-1.32s0.59-1.32,1.32-1.32h9.06c0.34-0.53,0.89-1.42,1.62-2.64h1.46c0.89-0.57,1.77-1.14,2.63-1.72
						c-1.04,1.84-1.92,3.3-2.59,4.37h0.72l0.65-0.41c1.09-0.69,2.15-1.39,3.2-2.1c0,0,0.01,0,0.01-0.01c1.72-1.17,3.39-2.37,5-3.61
						c21.86-16.7,34.31-38.68,41.07-55C78,23.8,79.84,7.66,79.91,6.98c0.05-0.47,0.32-0.76,0.49-0.89c0.16-0.13,0.49-0.33,0.97-0.29
						C82.09,5.86,82.61,6.51,82.54,7.23z"/>
					<path class="st0" d="M19.52,98.86c-0.76,1.37-1.43,2.54-2,3.5c-0.72,1.23-1.28,2.12-1.62,2.64h3.14
						c0.67-1.07,1.55-2.53,2.59-4.37c0.86-1.51,1.83-3.28,2.88-5.28C22.9,96.55,21.24,97.72,19.52,98.86z"/>
				</g>
				<g>
					<path class="st0" d="M39.46,169.57c-0.73,0.1-1.39-0.43-1.48-1.14c-3.45-26.77-15.71-48.39-15.84-48.6
						c-0.36-0.63-0.14-1.44,0.49-1.8c0.21-0.12,0.43-0.17,0.66-0.17c0.46,0,0.9,0.24,1.15,0.67c0.52,0.89,12.64,22.29,16.16,49.58
						C40.7,168.81,40.18,169.48,39.46,169.57z"/>
				</g>
				<g>
					<path class="st0" d="M21.62,100.63c-1.04,1.84-1.92,3.3-2.59,4.37h0.72l0.65-0.41c1.09-0.69,2.15-1.39,3.2-2.1
						c-1.36,2.37-2.43,4.09-3.07,5.09c-0.13,0.05-0.27,0.07-0.41,0.07h-7.25c-0.3-0.84-0.31-1.78,0.01-2.64h3.02
						c0.34-0.53,0.89-1.42,1.62-2.64c0.57-0.96,1.25-2.13,2-3.5c7.4-13.31,22.66-45.23,24.81-85.3c0.02-0.35,0.17-0.68,0.43-0.92
						c0.24-0.22,0.55-0.33,0.88-0.33h0.08c0.48,0.03,0.77,0.29,0.91,0.44c0.14,0.15,0.36,0.48,0.34,0.95
						C44.99,50.57,32.51,79.97,24.5,95.36C23.45,97.35,22.49,99.12,21.62,100.63z"/>
					<path class="st0" d="M23.61,102.48C23.61,102.49,23.6,102.49,23.61,102.48c-1.05,0.71-2.12,1.42-3.21,2.11L19.75,105h-0.72
						c-0.73,1.17-1.2,1.87-1.33,2.06c-0.39,0.58-1.24,0.76-1.84,0.35c-0.6-0.41-0.76-1.23-0.35-1.84c0.02-0.03,0.15-0.22,0.38-0.58
						h-5.76c-0.18,0.88-0.17,1.78,0.01,2.64h9.98c0.14,0,0.28-0.02,0.41-0.07c0.1-0.03,0.2-0.07,0.29-0.13
						c1.63-1.01,3.22-2.05,4.77-3.12c0.89-1.53,1.91-3.36,3.02-5.46C27,100.11,25.33,101.32,23.61,102.48z"/>
				</g>
				<g>
					<path class="st0" d="M12.66,119.28v30.15c0,0.73-0.59,1.32-1.32,1.32c-0.73,0-1.32-0.59-1.32-1.32v-30.15
						c0-0.73,0.59-1.32,1.32-1.32S12.66,118.55,12.66,119.28z"/>
				</g>
				<g>
					<path class="st0" d="M11.59,68.33c-0.18,0.85-0.37,1.71-0.57,2.58c-0.16,0.69-0.89,1.15-1.59,0.99
						c-0.71-0.16-1.16-0.87-0.99-1.58c0.2-0.86,0.38-1.7,0.56-2.54c0.14-0.62,0.69-1.05,1.3-1.05c0.09,0,0.18,0.01,0.28,0.03
						C11.28,66.91,11.74,67.61,11.59,68.33z"/>
				</g>
				<g>
					<path class="st0" d="M18.25,18.75c-0.32,23.9-4.37,37.76-4.55,38.34c-0.2,0.68-0.95,1.09-1.64,0.89
						c-0.7-0.21-1.1-0.95-0.89-1.66c0.04-0.14,4.13-14.3,4.44-37.6c0.01-0.48,0.25-0.79,0.4-0.93c0.14-0.14,0.45-0.38,0.92-0.38
						h0.02c0.48,0.01,0.79,0.25,0.93,0.4C18.03,17.96,18.27,18.28,18.25,18.75z"/>
				</g>
			</g>
			<g>
				<g>
					<path class="st0" d="M245.18,106.57c-0.04,0.2-0.16,0.58-0.56,0.85c-0.28,0.19-0.55,0.23-0.74,0.23h-3.52
						c-0.14,0-0.28-0.02-0.41-0.07c-0.1-0.03-0.2-0.07-0.29-0.13c-1.54-0.95-3.14-1.99-4.78-3.13
						c-15.03-10.38-33.82-28.66-46.57-59.68c-8.45-20.55-10.19-36.73-10.27-37.41c-0.05-0.47,0.16-0.81,0.29-0.97
						s0.42-0.43,0.89-0.48c0.05-0.01,0.1-0.01,0.14-0.01c0.39,0,0.68,0.18,0.82,0.3c0.16,0.13,0.43,0.42,0.49,0.9
						c0.07,0.67,1.87,16.79,10.18,36.9c6.74,16.32,19.17,38.31,41.02,55c1.61,1.24,3.28,2.44,5,3.61c0,0.01,0.01,0.01,0.01,0.01
						c1.05,0.71,2.11,1.41,3.2,2.1l0.65,0.41h0.72c-0.66-1.07-1.54-2.53-2.58-4.36c0.86,0.58,1.74,1.16,2.63,1.72h1.47
						c0.73,1.22,1.29,2.11,1.63,2.64c0.23,0.36,0.36,0.56,0.38,0.58C245.25,105.98,245.22,106.37,245.18,106.57z"/>
					<path class="st0" d="M242.97,102.36c-0.58-0.96-1.26-2.14-2.02-3.51c-1.7-1.13-3.35-2.3-4.95-3.49c1.04,2,2.01,3.77,2.87,5.28
						v0.01c1.04,1.83,1.92,3.3,2.58,4.36h3.14C244.26,104.47,243.7,103.58,242.97,102.36z"/>
				</g>
				<g>
					<path class="st0" d="M238.35,119.82c-0.12,0.22-12.39,21.9-15.84,48.6c-0.09,0.71-0.73,1.24-1.48,1.14
						c-0.47-0.06-0.75-0.34-0.87-0.5c-0.13-0.16-0.33-0.5-0.26-0.98c3.52-27.28,15.65-48.68,16.16-49.58
						c0.24-0.41,0.6-0.57,0.8-0.62c0.08-0.03,0.21-0.05,0.35-0.05c0.19,0,0.42,0.04,0.66,0.17
						C238.5,118.38,238.72,119.19,238.35,119.82z"/>
				</g>
				<g>
					<path class="st0" d="M245.18,106.57c-0.04,0.2-0.16,0.58-0.56,0.85c-0.28,0.19-0.55,0.23-0.74,0.23h-3.52
						c-0.14,0-0.28-0.02-0.41-0.07c-0.64-1-1.71-2.71-3.07-5.09c1.05,0.71,2.11,1.41,3.2,2.1l0.65,0.41h0.72
						c-0.66-1.07-1.54-2.53-2.58-4.36v-0.01c-0.86-1.51-1.83-3.27-2.87-5.28c-8.02-15.39-20.5-44.8-22.48-81.65
						c-0.04-0.73,0.52-1.35,1.24-1.39h0.07c0.7,0,1.29,0.54,1.33,1.25c2.16,40.19,17.38,72,24.79,85.29
						c0.76,1.37,1.44,2.55,2.02,3.51c0.73,1.22,1.29,2.11,1.63,2.64c0.23,0.36,0.36,0.56,0.38,0.58
						C245.25,105.98,245.22,106.37,245.18,106.57z"/>
					<path class="st0" d="M242.79,107.07c-0.13-0.19-0.59-0.89-1.33-2.06h-0.72l-0.65-0.41c-1.09-0.69-2.15-1.39-3.2-2.1
						c0,0-0.01,0-0.01-0.01c-1.72-1.17-3.39-2.37-5-3.61c1.11,2.09,2.12,3.91,3,5.44c1.64,1.14,3.24,2.18,4.78,3.13
						c0.09,0.06,0.19,0.1,0.29,0.13c0.13,0.05,0.27,0.07,0.41,0.07h3.52C243.44,107.65,243.03,107.43,242.79,107.07z"/>
				</g>
				<g>
					<path class="st0" d="M250.68,119.28v30.15c0,0.73-0.59,1.32-1.32,1.32s-1.32-0.59-1.32-1.32v-30.15c0-0.73,0.59-1.32,1.32-1.32
						S250.68,118.55,250.68,119.28z"/>
				</g>
				<g>
					<path class="st0" d="M251.06,71.9c-0.69,0.16-1.42-0.3-1.58-0.99c-0.2-0.87-0.39-1.72-0.57-2.58c-0.1-0.47,0.07-0.83,0.18-0.99
						c0.11-0.17,0.37-0.48,0.83-0.58c0.1-0.02,0.19-0.03,0.28-0.03c0.61,0,1.16,0.42,1.3,1.04c0.18,0.85,0.37,1.69,0.56,2.55
						C252.22,71.02,251.78,71.74,251.06,71.9z"/>
				</g>
				<g>
					<path class="st0" d="M248.44,57.95c-0.27,0.08-0.37,0.08-0.38,0.08c-0.58,0-1.09-0.39-1.26-0.94
						c-0.04-0.14-4.24-14.43-4.55-38.44c-0.01-0.39,0.15-0.78,0.44-1.07c0.17-0.17,0.45-0.38,0.83-0.38h0.05
						c0.69,0,1.31,0.66,1.32,1.41c0.31,23.48,4.4,37.53,4.44,37.66C249.54,56.98,249.13,57.74,248.44,57.95z"/>
				</g>
			</g>
		</g>
	</g>
	<g id="Interaction_00000104690741393852718240000015781895054700569216_">
		<g>
			<circle class="st1" cx="98.04" cy="120.96" r="9.83"/>
			<path class="st1" d="M131.08,115.35h-5.82c-0.72-3.52-2.11-6.79-4.02-9.69l4.12-4.12c0.86-0.86,0.86-2.26,0-3.13l-4.79-4.79
				c-0.86-0.86-2.26-0.86-3.13,0l-4.12,4.12c-2.9-1.91-6.17-3.3-9.69-4.02v-5.81c0-1.22-0.99-2.21-2.21-2.21h-6.78
				c-1.22,0-2.21,0.99-2.21,2.21v5.82c-3.52,0.72-6.79,2.11-9.69,4.02l-4.12-4.12c-0.86-0.86-2.26-0.86-3.13,0l-4.79,4.79
				c-0.86,0.86-0.86,2.26,0,3.13l4.12,4.12c-1.91,2.9-3.3,6.17-4.02,9.69h-5.81c-1.22,0-2.21,0.99-2.21,2.21v6.78
				c0,1.22,0.99,2.21,2.21,2.21h5.82c0.72,3.52,2.11,6.79,4.02,9.69l-4.12,4.12c-0.86,0.86-0.86,2.26,0,3.13l4.79,4.79
				c0.86,0.86,2.26,0.86,3.13,0l4.12-4.12c2.9,1.91,6.17,3.3,9.69,4.02V154c0,1.22,0.99,2.21,2.21,2.21h6.78
				c1.22,0,2.21-0.99,2.21-2.21v-5.82c3.52-0.72,6.79-2.11,9.69-4.02l4.12,4.12c0.86,0.86,2.26,0.86,3.13,0l4.79-4.79
				c0.86-0.86,0.86-2.26,0-3.13l-4.12-4.12c1.91-2.9,3.3-6.17,4.02-9.69h5.81c1.22,0,2.21-0.99,2.21-2.21v-6.78
				C133.29,116.34,132.3,115.35,131.08,115.35z"/>
		</g>
		<g>
			<path class="st1" d="M158.27,76.14c0,3.97-3.22,7.2-7.2,7.2s-7.2-3.22-7.2-7.2c0-3.97,3.22-7.2,7.2-7.2
				S158.27,72.16,158.27,76.14z"/>
			<path class="st1" d="M175.28,72.03h-4.26c-0.53-2.58-1.55-4.97-2.95-7.09l3.01-3.01c0.63-0.63,0.63-1.66,0-2.29l-3.51-3.51
				c-0.63-0.63-1.66-0.63-2.29,0l-3.02,3.02c-2.12-1.4-4.52-2.42-7.1-2.94v-4.26c0-0.89-0.73-1.62-1.62-1.62h-4.97
				c-0.89,0-1.62,0.73-1.62,1.62v4.26c-2.58,0.53-4.97,1.55-7.09,2.95l-3.01-3.01c-0.63-0.63-1.66-0.63-2.29,0l-3.51,3.51
				c-0.63,0.63-0.63,1.66,0,2.29l3.02,3.02c-1.4,2.12-2.42,4.52-2.94,7.1h-4.26c-0.89,0-1.62,0.72-1.62,1.62v4.97
				c0,0.89,0.73,1.62,1.62,1.62h4.26c0.53,2.58,1.55,4.97,2.95,7.09l-3.01,3.01c-0.63,0.63-0.63,1.66,0,2.29l3.51,3.51
				c0.63,0.63,1.66,0.63,2.29,0l3.02-3.02c2.12,1.4,4.52,2.42,7.1,2.94v4.26c0,0.89,0.73,1.62,1.62,1.62h4.97
				c0.89,0,1.62-0.73,1.62-1.62V96.1c2.58-0.53,4.97-1.55,7.09-2.95l3.01,3.01c0.63,0.63,1.66,0.63,2.29,0l3.51-3.51
				c0.63-0.63,0.63-1.66,0-2.29l-3.02-3.02c1.4-2.12,2.42-4.52,2.94-7.1h4.26c0.89,0,1.62-0.73,1.62-1.62v-4.97
				C176.89,72.76,176.17,72.03,175.28,72.03z"/>
		</g>
	</g>
</g>
</svg>
