<?xml version="1.0" encoding="utf-8"?>
<!-- Generator: Adobe Illustrator 28.0.0, SVG Export Plug-In . SVG Version: 6.00 Build 0)  -->
<svg version="1.1" id="Layer_1" xmlns="http://www.w3.org/2000/svg" xmlns:xlink="http://www.w3.org/1999/xlink" x="0px" y="0px"
	 viewBox="0 0 556 250" style="enable-background:new 0 0 556 250;" xml:space="preserve">
<style type="text/css">
	.st0{fill:#05AAB4;}
	.st1{enable-background:new    ;}
	.st2{fill:#FFFFFF;}
</style>
<g>
	<g>
		<polygon class="st0" points="225.59,53.84 217.54,61.9 206.56,50.92 225.59,31.89 256.03,62.34 286.46,31.92 327.82,73.28 
			316.84,84.25 286.46,53.88 256.08,84.25 		"/>
		<polygon class="st0" points="164.75,31.88 134.38,62.26 104,31.88 93.02,42.86 134.38,84.22 164.8,53.8 195.22,84.22 
			214.11,65.34 203.14,54.35 195.22,62.26 		"/>
	</g>
	<g class="st1">
		<path class="st2" d="M138.06,154.59l-11.83-39.32l-11.75,39.32h-8.77l-12.77-54.05h9.71l8.3,38.62L122,100.54h8.38l11.28,38.85
			l8.3-38.85h9.71l-12.77,54.05H138.06z"/>
		<path class="st2" d="M165.47,152.08c-2.46-2.14-3.68-5.14-3.68-9.01c0-3.86,1.27-6.76,3.8-8.7c2.53-1.93,6.12-2.9,10.77-2.9h8.46
			v-3.29c0-2.45-0.55-4.11-1.65-4.97c-1.1-0.86-3.13-1.29-6.11-1.29c-2.3,0-4.02,0.24-5.17,0.71c-1.15,0.47-2.17,1.41-3.06,2.82
			l-6.03-4.23c1.41-2.3,3.26-3.96,5.56-4.97c2.3-1.02,5.38-1.53,9.24-1.53c5.38,0,9.29,1.03,11.75,3.09
			c2.45,2.06,3.68,5.55,3.68,10.46v26.32h-8.23v-3.6c-0.94,1.57-2.1,2.68-3.49,3.33c-1.38,0.65-3.25,0.98-5.6,0.98
			C171.35,155.29,167.93,154.22,165.47,152.08z M184.82,139.78v-1.88h-7.83c-4.65,0-6.97,1.72-6.97,5.17c0,3.4,2.22,5.09,6.66,5.09
			c2.87,0,4.95-0.61,6.23-1.84C184.18,145.1,184.82,142.91,184.82,139.78z"/>
		<path class="st2" d="M203.86,122.63h-5.01v-7.21h5.01v-8.62h8.3v8.62h8.3v7.21h-8.3v17.94c0,2.46,0.34,4.15,1.02,5.09
			c0.68,0.94,2.04,1.41,4.07,1.41h3.21v7.52h-3.84c-4.7,0-8-0.93-9.91-2.78c-1.91-1.85-2.86-5.08-2.86-9.67V122.63z"/>
		<path class="st2" d="M250.62,144.25l6.27,4.39c-2.56,4.44-7.23,6.66-14.02,6.66c-5.43,0-9.65-1.59-12.65-4.78
			c-3-3.19-4.5-7.49-4.5-12.93v-5.33c0-5.74,1.36-10.11,4.07-13.08c2.71-2.98,6.66-4.47,11.83-4.47c10.55,0,15.82,6.01,15.82,18.02
			v4.31h-23.42v0.16c0,3.4,0.71,6.06,2.12,7.99c1.41,1.93,3.55,2.9,6.42,2.9c2.14,0,3.81-0.3,5.01-0.9
			C248.77,146.58,249.79,145.61,250.62,144.25z M241.61,122c-4.6,0-7.1,2.87-7.52,8.62h14.96C248.74,124.87,246.26,122,241.61,122z"
			/>
		<path class="st2" d="M293.39,120.51l-6.66,4.7c-1.41-2.04-3.29-3.05-5.64-3.05c-2.19,0-3.94,0.77-5.25,2.31
			c-1.31,1.54-1.96,3.7-1.96,6.46v23.66h-8.38v-39.17h8.23v3.53c1.77-2.82,4.7-4.23,8.77-4.23
			C287.31,114.71,290.94,116.65,293.39,120.51z"/>
		<path class="st2" d="M305.46,154.59h-8.38v-39.17h8.22v3.53c1.88-2.82,4.94-4.23,9.17-4.23c5.07,0,8.8,1.88,11.2,5.64
			c2.71-3.76,6.53-5.64,11.44-5.64c4.28,0,7.61,1.32,9.99,3.96c2.38,2.64,3.56,6.44,3.56,11.4v24.52h-8.38v-23.58
			c0-5.9-2.32-8.85-6.97-8.85c-2.14,0-3.88,0.76-5.21,2.27c-1.33,1.52-2.02,3.55-2.08,6.11v24.05h-8.3v-23.58
			c0-5.9-2.3-8.85-6.89-8.85c-2.19,0-3.97,0.8-5.33,2.39c-1.36,1.59-2.04,3.72-2.04,6.39V154.59z"/>
		<path class="st2" d="M361.31,152.08c-2.46-2.14-3.68-5.14-3.68-9.01c0-3.86,1.27-6.76,3.8-8.7c2.53-1.93,6.12-2.9,10.77-2.9h8.46
			v-3.29c0-2.45-0.55-4.11-1.65-4.97c-1.1-0.86-3.13-1.29-6.11-1.29c-2.3,0-4.02,0.24-5.17,0.71c-1.15,0.47-2.17,1.41-3.05,2.82
			l-6.03-4.23c1.41-2.3,3.26-3.96,5.56-4.97c2.3-1.02,5.38-1.53,9.24-1.53c5.38,0,9.29,1.03,11.75,3.09
			c2.45,2.06,3.68,5.55,3.68,10.46v26.32h-8.22v-3.6c-0.94,1.57-2.1,2.68-3.49,3.33c-1.38,0.65-3.25,0.98-5.6,0.98
			C367.18,155.29,363.76,154.22,361.31,152.08z M380.66,139.78v-1.88h-7.83c-4.65,0-6.97,1.72-6.97,5.17c0,3.4,2.22,5.09,6.66,5.09
			c2.87,0,4.95-0.61,6.23-1.84S380.66,142.91,380.66,139.78z"/>
		<path class="st2" d="M425.7,120.51l-6.66,4.7c-1.41-2.04-3.29-3.05-5.64-3.05c-2.19,0-3.94,0.77-5.25,2.31
			c-1.3,1.54-1.96,3.7-1.96,6.46v23.66h-8.38v-39.17h8.23v3.53c1.77-2.82,4.7-4.23,8.77-4.23
			C419.62,114.71,423.24,116.65,425.7,120.51z"/>
		<path class="st2" d="M437.76,130.69l13.08-15.27h10.26l-14.96,16.84l17.31,22.32h-10.11l-12.92-15.82l-2.66,2.98v12.85h-8.38
			v-54.05h8.38V130.69z"/>
	</g>
	<g class="st1">
		<path class="st2" d="M117.05,188.4v2.72H99.42v1.12c0,2.84,0.69,5.06,2.08,6.66s3.39,2.4,6.02,2.4c3.2,0,5.5-1.08,6.92-3.25
			l2.34,1.65c-1.85,2.88-4.88,4.31-9.11,4.31c-3.55,0-6.3-1.04-8.26-3.12c-1.95-2.08-2.93-4.96-2.93-8.66v-3.83
			c0-3.76,0.88-6.65,2.64-8.66c1.76-2.01,4.31-3.01,7.64-3.01c3.34,0,5.89,1,7.64,3.01C116.17,181.75,117.05,184.64,117.05,188.4z
			 M99.42,188.4v0.05h14.7v-0.05c0-2.91-0.62-5.13-1.86-6.66c-1.24-1.53-3.07-2.29-5.49-2.29c-2.42,0-4.24,0.76-5.49,2.29
			C100.04,183.27,99.42,185.49,99.42,188.4z"/>
		<path class="st2" d="M132.28,190.05l9.53,13.64h-3.52l-7.72-11.08l-7.78,11.08h-3.46l9.53-13.64l-8.73-13h3.46l6.98,10.49
			l6.92-10.49h3.52L132.28,190.05z"/>
		<path class="st2" d="M167.7,188.4v3.83c0,3.76-0.89,6.67-2.66,8.71c-1.78,2.04-4.35,3.06-7.72,3.06c-3.91,0-6.59-1.15-8.04-3.46
			v13.26h-2.93v-36.75h2.93v3.36c1.53-2.45,4.21-3.67,8.04-3.67c3.3,0,5.86,1.01,7.67,3.04C166.8,181.8,167.7,184.67,167.7,188.4z
			 M157.1,201.29c2.49,0,4.39-0.79,5.7-2.37c1.31-1.58,1.97-3.81,1.97-6.68v-3.83c0-2.91-0.65-5.13-1.94-6.66
			c-1.3-1.53-3.21-2.29-5.73-2.29c-5.22,0-7.83,2.88-7.83,8.63v4.63C149.34,198.44,151.95,201.29,157.1,201.29z"/>
		<path class="st2" d="M193.06,188.4v2.72h-17.63v1.12c0,2.84,0.69,5.06,2.08,6.66s3.39,2.4,6.02,2.4c3.2,0,5.5-1.08,6.92-3.25
			l2.34,1.65c-1.85,2.88-4.88,4.31-9.11,4.31c-3.55,0-6.3-1.04-8.26-3.12c-1.95-2.08-2.93-4.96-2.93-8.66v-3.83
			c0-3.76,0.88-6.65,2.64-8.66c1.76-2.01,4.31-3.01,7.64-3.01c3.34,0,5.89,1,7.64,3.01C192.18,181.75,193.06,184.64,193.06,188.4z
			 M175.43,188.4v0.05h14.7v-0.05c0-2.91-0.62-5.13-1.86-6.66c-1.24-1.53-3.07-2.29-5.49-2.29c-2.42,0-4.24,0.76-5.49,2.29
			C176.05,183.27,175.43,185.49,175.43,188.4z"/>
		<path class="st2" d="M208.98,179.51c-2.02,0-3.6,0.74-4.74,2.21c-1.14,1.47-1.7,3.45-1.7,5.94v16.03h-2.93v-26.63h2.93v3.62
			c1.24-2.63,3.48-3.94,6.71-3.94c3.16,0,5.66,1.22,7.51,3.67l-2.45,1.81C212.92,180.41,211.15,179.51,208.98,179.51z"/>
		<path class="st2" d="M224.27,170.51h-3.57v-3.57h3.57V170.51z M223.95,203.69h-2.93v-26.63h2.93V203.69z"/>
		<path class="st2" d="M251.43,188.4v2.72H233.8v1.12c0,2.84,0.69,5.06,2.08,6.66s3.39,2.4,6.02,2.4c3.2,0,5.5-1.08,6.92-3.25
			l2.34,1.65c-1.85,2.88-4.88,4.31-9.11,4.31c-3.55,0-6.3-1.04-8.26-3.12c-1.95-2.08-2.93-4.96-2.93-8.66v-3.83
			c0-3.76,0.88-6.65,2.64-8.66c1.76-2.01,4.31-3.01,7.64-3.01c3.34,0,5.89,1,7.64,3.01C250.55,181.75,251.43,184.64,251.43,188.4z
			 M233.8,188.4v0.05h14.7v-0.05c0-2.91-0.62-5.13-1.86-6.66c-1.24-1.53-3.07-2.29-5.49-2.29c-2.42,0-4.24,0.76-5.49,2.29
			C234.42,183.27,233.8,185.49,233.8,188.4z"/>
		<path class="st2" d="M260.91,203.69h-2.93v-26.63h2.93v3.62c1.46-2.63,4.07-3.94,7.83-3.94c3.09,0,5.49,0.96,7.22,2.88
			c1.72,1.92,2.58,4.69,2.58,8.31v15.77h-2.93v-15.71c0-2.84-0.63-4.96-1.89-6.37c-1.26-1.4-3.03-2.1-5.3-2.1
			c-2.42,0-4.27,0.73-5.57,2.18c-1.3,1.46-1.94,3.46-1.94,6.02V203.69z"/>
		<path class="st2" d="M302.62,198.04l2.34,1.65c-1.78,2.88-4.79,4.31-9.05,4.31c-3.59,0-6.36-1.02-8.31-3.06
			c-1.95-2.04-2.93-4.94-2.93-8.71v-3.83c0-3.73,0.99-6.6,2.96-8.63c1.97-2.02,4.73-3.04,8.28-3.04c4.01,0,7.01,1.37,9,4.1
			l-2.34,1.6c-1.46-1.99-3.68-2.98-6.66-2.98c-2.63,0-4.67,0.77-6.12,2.32c-1.46,1.54-2.18,3.75-2.18,6.63v3.83
			c0,2.84,0.7,5.06,2.1,6.66s3.47,2.4,6.21,2.4C299,201.29,301.23,200.21,302.62,198.04z"/>
		<path class="st2" d="M328.82,188.4v2.72h-17.63v1.12c0,2.84,0.69,5.06,2.08,6.66s3.39,2.4,6.02,2.4c3.2,0,5.5-1.08,6.92-3.25
			l2.34,1.65c-1.85,2.88-4.88,4.31-9.11,4.31c-3.55,0-6.3-1.04-8.26-3.12c-1.95-2.08-2.93-4.96-2.93-8.66v-3.83
			c0-3.76,0.88-6.65,2.64-8.66c1.76-2.01,4.3-3.01,7.64-3.01s5.89,1,7.64,3.01C327.95,181.75,328.82,184.64,328.82,188.4z
			 M311.19,188.4v0.05h14.7v-0.05c0-2.91-0.62-5.13-1.87-6.66s-3.07-2.29-5.49-2.29c-2.41,0-4.24,0.76-5.49,2.29
			C311.81,183.27,311.19,185.49,311.19,188.4z"/>
	</g>
</g>
</svg>
