<?xml version="1.0" encoding="utf-8"?>
<!-- Generator: Adobe Illustrator 28.0.0, SVG Export Plug-In . SVG Version: 6.00 Build 0)  -->
<svg version="1.1" id="Icons" xmlns="http://www.w3.org/2000/svg" xmlns:xlink="http://www.w3.org/1999/xlink" x="0px" y="0px"
	 viewBox="0 0 271.53 246.71" style="enable-background:new 0 0 271.53 246.71;" xml:space="preserve">
<style type="text/css">
	.st0{fill:#00AAB4;}
</style>
<g>
	<g>
		<g>
			<g>
				<path class="st0" d="M135.71,124.74c-17.37,0-31.51,14.14-31.51,31.51c0,17.38,14.14,31.51,31.51,31.51s31.51-14.13,31.51-31.51
					C167.22,138.88,153.09,124.74,135.71,124.74z M135.71,184.83c-15.75,0-28.57-12.82-28.57-28.57s12.82-28.57,28.57-28.57
					s28.56,12.82,28.56,28.57C164.28,172.01,151.46,184.83,135.71,184.83z"/>
				<path d="M135.71,194.96v0.14c1.09,0,2.18-0.05,3.25-0.14H135.71z"/>
			</g>
		</g>
		<g>
			<g>
				<path class="st0" d="M132.05,198.62v2.95h-20.72c-7.55,0-13.9,5.26-15.56,12.31h-3.01c1.71-8.68,9.38-15.26,18.56-15.26H132.05z
					"/>
				<path d="M138.96,194.96h0.42v-0.04C139.24,194.94,139.1,194.95,138.96,194.96z M135.71,194.96v0.14c1.09,0,2.18-0.05,3.25-0.14
					H135.71z M132.05,194.92v0.04h0.42C132.32,194.95,132.18,194.94,132.05,194.92z"/>
			</g>
		</g>
		<g>
			<g>
				<path class="st0" d="M135.71,194.96h3.25c-1.07,0.09-2.16,0.14-3.25,0.14V194.96z"/>
				<path class="st0" d="M178.65,213.88h-3.01c-1.66-7.05-8-12.31-15.55-12.31h-20.71v-2.95h20.71
					C169.27,198.62,176.94,205.2,178.65,213.88z"/>
				<path d="M138.96,194.96h0.42v-0.04C139.24,194.94,139.1,194.95,138.96,194.96z M135.71,194.96v0.14c1.09,0,2.18-0.05,3.25-0.14
					H135.71z M132.05,194.92v0.04h0.42C132.32,194.95,132.18,194.94,132.05,194.92z"/>
			</g>
		</g>
	</g>
	<g>
		<g>
			<g>
				<path class="st0" d="M226.02,148.18c-17.38,0-31.51,14.13-31.51,31.51c0,17.37,14.13,31.51,31.51,31.51
					c17.37,0,31.51-14.14,31.51-31.51C257.54,162.31,243.4,148.18,226.02,148.18z M226.02,208.26c-15.76,0-28.57-12.81-28.57-28.56
					s12.81-28.57,28.57-28.57c15.75,0,28.56,12.82,28.56,28.57S241.78,208.26,226.02,208.26z"/>
			</g>
		</g>
		<g>
			<g>
				<path class="st0" d="M201.65,222.06h20.71V225h-20.71c-7.55,0-13.9,5.27-15.56,12.32h-3.01
					C184.79,228.64,192.47,222.06,201.65,222.06z"/>
				<path d="M229.27,218.4h0.42v-0.04C229.55,218.38,229.41,218.39,229.27,218.4z M222.36,218.36v0.04h0.42
					C222.64,218.39,222.5,218.38,222.36,218.36z"/>
			</g>
		</g>
		<g>
			<g>
				<path class="st0" d="M268.96,237.32h-3.01c-1.66-7.05-8.01-12.32-15.56-12.32h-20.7v-2.94h20.7
					C259.57,222.06,267.25,228.64,268.96,237.32z"/>
				<path d="M229.27,218.4h0.42v-0.04C229.55,218.38,229.41,218.39,229.27,218.4z M222.36,218.36v0.04h0.42
					C222.64,218.39,222.5,218.38,222.36,218.36z"/>
			</g>
		</g>
	</g>
	<g>
		<g>
			<g>
				<path class="st0" d="M45.51,148.18c-17.37,0-31.51,14.13-31.51,31.51c0,17.37,14.14,31.51,31.51,31.51s31.51-14.14,31.51-31.51
					C77.02,162.31,62.88,148.18,45.51,148.18z M45.51,208.26c-15.75,0-28.56-12.81-28.56-28.56s12.81-28.57,28.56-28.57
					s28.57,12.82,28.57,28.57S61.26,208.26,45.51,208.26z"/>
			</g>
		</g>
		<g>
			<g>
				<path class="st0" d="M41.84,222.06V225H21.13c-7.55,0-13.9,5.27-15.55,12.32H2.57c1.71-8.68,9.38-15.26,18.56-15.26H41.84z"/>
				<path d="M48.76,218.4h0.42v-0.04C49.03,218.38,48.89,218.39,48.76,218.4z M41.84,218.36v0.04h0.42
					C42.12,218.39,41.98,218.38,41.84,218.36z"/>
			</g>
		</g>
		<g>
			<g>
				<path class="st0" d="M88.45,237.32h-3.01C83.78,230.27,77.43,225,69.88,225H49.17v-2.94h20.71
					C79.06,222.06,86.74,228.64,88.45,237.32z"/>
				<path d="M48.76,218.4h0.42v-0.04C49.03,218.38,48.89,218.39,48.76,218.4z M41.84,218.36v0.04h0.42
					C42.12,218.39,41.98,218.38,41.84,218.36z"/>
			</g>
		</g>
	</g>
	<g>
		<g>
			<g>
				<path class="st0" d="M120.34,92.34c-1.26-3.64-0.63-7.76,1.68-11.03c6.97-9.84,8.64-22.46,4.47-33.77
					c-5.46-14.8-19.19-23.9-34.02-23.9c-4.03,0-8.14,0.67-12.19,2.08C61.27,32.33,51.19,53.17,57.8,72.17
					c3.91,11.25,13.09,19.89,24.57,23.14c3.62,1.02,6.55,3.84,7.83,7.52l3.09,8.89c0.93,2.67,3.45,4.46,6.28,4.46
					c0.74,0,1.47-0.13,2.17-0.37l17.62-6.13c1.67-0.58,3.02-1.78,3.79-3.38c0.77-1.6,0.88-3.39,0.3-5.07L120.34,92.34z
					 M121.16,105.35c-0.52,1.07-1.42,1.87-2.54,2.25L101,113.73c-0.48,0.16-0.97,0.24-1.46,0.24c-1.83,0-3.56-1.15-4.19-2.98
					l-3.09-8.89c-1.52-4.37-4.99-7.7-9.3-8.92C72.18,90.13,63.55,82,59.87,71.44C53.66,53.58,63.14,33.99,81,27.78
					c3.71-1.29,7.57-1.95,11.44-1.95c14.4,0,26.95,8.82,31.98,22.46c3.92,10.62,2.35,22.48-4.2,31.73
					c-2.73,3.85-3.46,8.71-1.96,13.03l3.1,8.9C121.76,103.08,121.68,104.29,121.16,105.35z"/>
			</g>
		</g>
		<g>
			<g>
				<path class="st0" d="M109.55,52.68l-2.08,0.77c-0.99-1.92-2.24-3.67-3.75-5.22c-2.8-2.89-6.36-4.94-10.24-5.94l0.28-2.2
					c4.37,1.07,8.39,3.36,11.53,6.6C107.02,48.47,108.45,50.48,109.55,52.68z"/>
			</g>
		</g>
		<g>
			<g>
				
					<rect x="74.09" y="8.61" transform="matrix(0.945 -0.3271 0.3271 0.945 0.5199 25.2013)" class="st0" width="2.2" height="4.9"/>
			</g>
		</g>
		<g>
			<g>
				
					<rect x="44.22" y="35.98" transform="matrix(0.4372 -0.8994 0.8994 0.4372 -9.0608 62.3836)" class="st0" width="2.2" height="4.9"/>
			</g>
		</g>
		<g>
			<g>
				
					<rect x="41.13" y="77.76" transform="matrix(0.9446 -0.3281 0.3281 0.9446 -23.4634 18.6649)" class="st0" width="4.9" height="2.2"/>
			</g>
		</g>
		<g>
			<g>
				
					<rect x="68.5" y="107.59" transform="matrix(0.4347 -0.9006 0.9006 0.4347 -57.7778 125.3453)" class="st0" width="4.9" height="2.2"/>
			</g>
		</g>
		<g>
			<g>
				
					<rect x="140.16" y="80.65" transform="matrix(0.4362 -0.8999 0.8999 0.4362 4.8659 173.9741)" class="st0" width="2.21" height="4.91"/>
			</g>
		</g>
		<g>
			<g>
				
					<rect x="140.54" y="41.55" transform="matrix(0.9446 -0.3282 0.3282 0.9446 -6.0756 49.293)" class="st0" width="4.9" height="2.2"/>
			</g>
		</g>
		<g>
			<g>
				
					<rect x="113.17" y="11.7" transform="matrix(0.4357 -0.9001 0.9001 0.4357 53.7237 111.2982)" class="st0" width="4.91" height="2.2"/>
			</g>
		</g>
	</g>
	<g>
		<g>
			<g>
				<path class="st0" d="M204.06,57.83c-4.1-1.99-8.51-2.98-12.94-2.98c-3.31,0-6.63,0.55-9.85,1.67c-7.53,2.62-13.59,8-17.05,15.16
					c-4.24,8.76-3.93,19.06,0.82,27.57c1.46,2.6,1.52,5.82,0.17,8.61l-3.33,6.88c-1.34,2.78-0.17,6.13,2.6,7.47l13.63,6.59
					c0.76,0.37,1.58,0.55,2.42,0.55c2.14,0,4.12-1.24,5.04-3.15l3.34-6.88c1.33-2.75,4-4.72,7.14-5.26
					c9.71-1.66,17.98-7.98,22.1-16.93C225.03,82.25,218.84,64.98,204.06,57.83z M216.16,96.23c-3.82,8.28-11.47,14.15-20.47,15.68
					c-3.84,0.65-7.11,3.07-8.75,6.46l-3.32,6.88c-0.59,1.21-1.81,1.92-3.07,1.92c-0.49,0-0.99-0.11-1.46-0.33l-13.64-6.61
					c-1.68-0.82-2.39-2.84-1.58-4.52l3.33-6.88c1.67-3.44,1.58-7.42-0.23-10.65c-4.41-7.88-4.7-17.43-0.77-25.54
					c4.59-9.47,14.36-15.59,24.91-15.59c4.18,0,8.21,0.93,11.99,2.76C216.79,66.43,222.53,82.43,216.16,96.23z"/>
			</g>
		</g>
		<g>
			<g>
				<path class="st0" d="M206.51,84.42c-0.03,1.86-0.32,3.69-0.86,5.46l-2.02-0.93c0.43-1.49,0.66-3.01,0.68-4.56
					c0.05-3.04-0.71-6.05-2.16-8.7l1.76-1.37C205.65,77.38,206.57,80.88,206.51,84.42z"/>
			</g>
		</g>
		<g>
			<g>
				
					<rect x="207.98" y="45.59" transform="matrix(0.4356 -0.9001 0.9001 0.4356 76.1838 214.8928)" class="st0" width="2.95" height="2.2"/>
			</g>
		</g>
		<g>
			<g>
				<polygon class="st0" points="178.15,46.29 176.08,47.01 175.11,44.22 177.18,43.51 				"/>
			</g>
		</g>
		<g>
			<g>
				
					<rect x="151.29" y="65.99" transform="matrix(0.4372 -0.8994 0.8994 0.4372 25.0873 175.0151)" class="st0" width="2.2" height="2.95"/>
			</g>
		</g>
		<g>
			<g>
				
					<rect x="149.5" y="99.16" transform="matrix(0.9444 -0.3287 0.3287 0.9444 -24.5672 55.1996)" class="st0" width="2.95" height="2.2"/>
			</g>
		</g>
		<g>
			<g>
				
					<rect x="204.94" y="124.46" transform="matrix(0.9442 -0.3295 0.3295 0.9442 -29.987 74.9197)" class="st0" width="2.2" height="2.95"/>
			</g>
		</g>
		<g>
			<g>
				
					<rect x="229.14" y="102.28" transform="matrix(0.435 -0.9004 0.9004 0.435 36.6581 265.9395)" class="st0" width="2.2" height="2.95"/>
			</g>
		</g>
		<g>
			<g>
				<polygon class="st0" points="233.42,71.46 230.63,72.42 229.91,70.34 232.7,69.37 				"/>
			</g>
		</g>
	</g>
</g>
</svg>
