<?xml version="1.0" encoding="utf-8"?>
<!-- Generator: Adobe Illustrator 28.0.0, SVG Export Plug-In . SVG Version: 6.00 Build 0)  -->
<svg version="1.1" id="Layer_1" xmlns="http://www.w3.org/2000/svg" xmlns:xlink="http://www.w3.org/1999/xlink" x="0px" y="0px"
	 viewBox="0 0 113 67" style="enable-background:new 0 0 113 67;" xml:space="preserve">
<style type="text/css">
	.st0{fill:#00AAB5;}
	.st1{fill:#FFFFFF;}
	.st2{fill:#CCCCCC;}
	.st3{stroke:#000000;stroke-width:0.75;stroke-miterlimit:10;}
	.st4{clip-path:url(#SVGID_00000000210810498785869840000004382851433699212716_);}
	.st5{clip-path:url(#SVGID_00000094577426239360206910000005097908419146702978_);}
	.st6{fill:#EDEDED;}
	.st7{fill:#F2F2F2;stroke:#F2F2F2;stroke-width:0.75;stroke-miterlimit:10;}
	.st8{fill:#232323;}
	.st9{fill:#A5A5A5;}
	.st10{fill:#05AAB4;}
	.st11{opacity:0.4;}
	.st12{clip-path:url(#SVGID_00000101101245713797107380000017972300402900896899_);}
	.st13{fill:#333333;stroke:#333333;stroke-miterlimit:10;}
	.st14{fill:none;stroke:#151616;stroke-miterlimit:10;stroke-dasharray:9;}
	.st15{fill:#C6C6C6;}
	.st16{stroke:#000000;stroke-miterlimit:10;}
	.st17{fill:#0A0A0A;}
	.st18{fill:#4D4D50;}
	.st19{fill:#09A8B3;}
	.st20{fill:#D6D6D6;}
	.st21{fill:#005E60;stroke:#005E60;stroke-width:3;stroke-miterlimit:10;}
	.st22{clip-path:url(#SVGID_00000151507562612939649450000009411790760758762391_);}
	.st23{fill:#F4F4F4;}
	.st24{fill:#474648;}
	.st25{stroke:#000000;stroke-width:0.5;stroke-miterlimit:10;}
	.st26{fill:#00BAF3;}
	.st27{fill:#8DC63F;}
	.st28{fill:#FFC20E;}
	.st29{fill:#BE1E2D;}
	.st30{fill:#D8D8D8;}
	.st31{fill:#1CB78D;}
	.st32{stroke:#191919;stroke-miterlimit:10;stroke-dasharray:5,5,3,0;}
	.st33{fill:#EC008C;stroke:#EC008C;stroke-miterlimit:10;}
	.st34{fill:#005E60;stroke:#005E60;stroke-width:2;stroke-miterlimit:10;}
	.st35{fill:#F2F2F2;}
	.st36{clip-path:url(#SVGID_00000065068341719027107910000008646584973282256014_);}
	.st37{clip-path:url(#SVGID_00000099647839711545354060000017015680432280765071_);}
	.st38{clip-path:url(#SVGID_00000091697859137307734910000012879245191676707476_);}
	.st39{opacity:0.65;}
	.st40{clip-path:url(#SVGID_00000124119951438978582940000005988128559568253119_);}
	.st41{clip-path:url(#SVGID_00000049910935357056586800000000502864170575715505_);}
	.st42{clip-path:url(#SVGID_00000085935075580104524790000004789883137687099297_);}
	.st43{clip-path:url(#SVGID_00000000193963671475895010000007795719934099411331_);}
	.st44{fill:#048487;}
	.st45{clip-path:url(#SVGID_00000171692157799894404350000016949983664757558204_);}
	.st46{opacity:0.65;clip-path:url(#SVGID_00000055693901075792323670000011749952274370938519_);}
	.st47{fill:#F7F7F7;}
	.st48{fill:#E8E8E8;}
	.st49{fill:#D3D3D3;}
	.st50{opacity:0.41;}
	.st51{clip-path:url(#SVGID_00000104706160468369143410000014445317802627681696_);}
	.st52{clip-path:url(#SVGID_00000125564169243568935610000000485075083899208880_);}
	.st53{fill:#D3EEEF;}
	.st54{fill:#BAE5E3;}
	.st55{fill:#AAD6D3;}
	.st56{fill:#78CECE;}
	.st57{fill:#FFF6E6;}
	.st58{fill:#FFE6BB;}
	.st59{fill:#FCD381;}
	.st60{fill:#FFD2DC;}
	.st61{fill:#FF8A9E;}
	.st62{fill:#E05162;}
	.st63{fill:#D7F7EA;}
	.st64{fill:#A3E2CB;}
	.st65{fill:#54D3AC;}
	.st66{fill:#BABABA;}
	.st67{fill:#727272;}
	.st68{fill:#D6F8FC;}
	.st69{fill:#E4EFEE;}
	.st70{fill:#FFFCF8;}
	.st71{fill:#F2E7E9;}
	.st72{fill:#F3FFFA;}
	.st73{fill:#E8EAE9;}
	.st74{fill:#EEFEFF;}
	.st75{fill:#9DE8F4;}
	.st76{fill:#57D9F7;}
	.st77{fill:#4BB9BC;}
	.st78{fill:#03898C;}
	.st79{fill:#D19500;}
	.st80{fill:#991A2A;}
	.st81{fill:#1B8967;}
	.st82{fill:#058EAD;}
	.st83{fill:#7F7F7F;}
	.st84{clip-path:url(#SVGID_00000145762313813874554450000002358242351035902142_);}
	.st85{clip-path:url(#SVGID_00000125597088053948936160000009678931030387420822_);}
	.st86{clip-path:url(#SVGID_00000116220247603229634840000006952409975739341204_);}
	.st87{fill:#088F99;}
	.st88{opacity:0.45;}
	.st89{clip-path:url(#SVGID_00000081629388229927328410000011905606644996657085_);}
	.st90{fill:#DBDBDB;}
	.st91{opacity:0.55;clip-path:url(#SVGID_00000016782995152978330530000000643313474406376350_);}
	.st92{opacity:0.55;}
	.st93{clip-path:url(#SVGID_00000025440374015601999090000002398271165553195436_);}
	.st94{opacity:0.55;clip-path:url(#SVGID_00000050659722357846757690000018186001671193060496_);}
	.st95{clip-path:url(#SVGID_00000173139650331205643860000010728730711160308622_);}
	.st96{clip-path:url(#SVGID_00000050659722357846757690000018186001671193060496_);}
	.st97{fill:#BCBCBC;}
	.st98{fill:#FFFFFF;stroke:#FFFFFF;stroke-width:0.75;stroke-miterlimit:10;}
	.st99{fill:#D3EEEF;stroke:#D3EEEF;stroke-width:0.75;stroke-miterlimit:10;}
	.st100{fill:#A5A5A5;stroke:#A5A5A5;stroke-width:0.75;stroke-miterlimit:10;}
	.st101{fill:#A3A3A3;}
	.st102{fill:none;}
	.st103{clip-path:url(#SVGID_00000157279184738086930340000010660122166443044229_);}
	.st104{fill:#DDDDDD;}
	.st105{clip-path:url(#SVGID_00000087383616289724991110000012866538460913615793_);}
	.st106{clip-path:url(#SVGID_00000138572328080048665840000015543358700473314706_);}
	.st107{clip-path:url(#SVGID_00000072278787980775823760000001761077964098637995_);}
	.st108{clip-path:url(#SVGID_00000065769901288125223530000018027354827744461232_);}
	.st109{clip-path:url(#SVGID_00000025440810425332993800000000163289111894419367_);}
	.st110{opacity:0.35;}
	.st111{clip-path:url(#SVGID_00000045616623346148987240000005181668031484254343_);}
	.st112{clip-path:url(#SVGID_00000148646228198451544770000006738172655246813577_);}
	.st113{clip-path:url(#SVGID_00000176007781135223115340000002288571525219522485_);}
	.st114{clip-path:url(#SVGID_00000103974935387723449600000002118916471619399065_);}
	.st115{clip-path:url(#SVGID_00000044175378751291167030000000135601927614429076_);}
	.st116{fill:#F2F2F2;stroke:#F2F2F2;stroke-miterlimit:10;}
	.st117{fill:none;stroke:#333333;stroke-width:0.75;stroke-miterlimit:10;}
	.st118{clip-path:url(#SVGID_00000040553078536998358760000010655717467489701009_);}
	.st119{fill:none;stroke:#000000;stroke-width:5;stroke-miterlimit:10;}
	.st120{fill:#191919;stroke:#191919;stroke-width:0.7;stroke-miterlimit:10;}
	.st121{clip-path:url(#SVGID_00000086666408837772874860000017410704816071808955_);}
	.st122{fill:#DFDFDF;}
	.st123{fill:#008487;}
	.st124{fill:#71D1D3;}
	.st125{fill:#434343;}
	.st126{clip-path:url(#SVGID_00000111151406964569703910000004455696241256177799_);}
	.st127{fill:#C9C9C9;}
	.st128{fill:#323335;}
</style>
<path class="st127" d="M94.09,19.29C93.95,19.1,93.72,19,93.39,19l-14.01-0.05c1.14,0.28,2.22,0.65,3.24,1.12
	c2.63,1.21,4.66,2.87,6.09,4.98c1.29,1.91,2,4.07,2.12,6.46l3.38-11.44C94.27,19.74,94.23,19.48,94.09,19.29z M81.59,60.68
	c-0.19-0.19-0.29-0.42-0.29-0.7v-2.63c0-0.16-0.05-0.26-0.16-0.29c-0.12-0.02-0.22,0.02-0.33,0.13c-1.65,1.82-3.76,3.08-6.33,3.78
	h6.81c0.21,0,0.39-0.04,0.54-0.11C81.74,60.82,81.65,60.76,81.59,60.68z M80.89,42.21h-6.91c-2.91,0-5.2,0.55-6.87,1.64
	c-1.68,1.1-2.52,2.67-2.52,4.7c0,1.75,0.65,3.11,1.94,4.07c1.29,0.96,2.95,1.44,4.98,1.44c2.68,0,4.99-0.71,6.91-2.14
	s2.88-3.24,2.88-5.43v-3.87C81.3,42.35,81.15,42.21,80.89,42.21z M79.4,28.26c-1.26-1.18-3.16-1.77-5.68-1.77
	c-2.09,0-3.77,0.37-5.06,1.11c-1.29,0.74-2.1,1.77-2.43,3.09c-0.16,0.66-0.55,0.93-1.15,0.82l-7.98-0.99
	c-0.28-0.05-0.51-0.15-0.7-0.29c-0.2-0.13-0.26-0.31-0.21-0.53c0.44-3.35,2.24-6.09,5.39-8.23c1.74-1.18,3.73-2.04,5.97-2.57
	l-15.91-0.06c-0.6,0-0.98,0.27-1.15,0.82l-7.32,27.49c-0.06,0.16-0.14,0.24-0.25,0.24c-0.11,0-0.19-0.08-0.25-0.24l-7.32-27.49
	c-0.17-0.55-0.55-0.82-1.15-0.82h-6.83c-0.61,0-0.99,0.27-1.15,0.82l-7.16,27.49c-0.06,0.16-0.14,0.24-0.25,0.24
	c-0.11,0-0.19-0.08-0.25-0.24l-5.83-23.47L8.03,40.72l5.69,19.43c0.16,0.55,0.54,0.82,1.15,0.82h7.82c0.6,0,0.98-0.27,1.15-0.82
	l6.66-25.1c0.06-0.17,0.14-0.25,0.25-0.25s0.19,0.08,0.25,0.25l7.24,25.1c0.16,0.55,0.55,0.82,1.15,0.82h24.54
	c-1.87-0.51-3.53-1.34-4.97-2.47c-2.66-2.08-3.99-5.18-3.99-9.3c0-4.28,1.49-7.61,4.48-10c2.99-2.38,7.2-3.58,12.63-3.58h8.81
	c0.27,0,0.41-0.13,0.41-0.41v-1.97C81.3,31.1,80.67,29.44,79.4,28.26z"/>
<path class="st127" d="M98.33,11.51c-1.1-1.1-1.65-2.5-1.65-4.2c0-1.7,0.55-3.1,1.65-4.2c1.1-1.1,2.5-1.65,4.2-1.65
	c1.7,0,3.1,0.55,4.2,1.65c1.1,1.1,1.65,2.5,1.65,4.2c0,1.7-0.55,3.1-1.65,4.2c-1.1,1.1-2.5,1.65-4.2,1.65
	C100.83,13.16,99.43,12.61,98.33,11.51z M97.88,60.68c-0.19-0.19-0.29-0.42-0.29-0.7V19.82c0-0.27,0.1-0.51,0.29-0.7
	c0.19-0.19,0.42-0.29,0.7-0.29h7.57c0.27,0,0.51,0.1,0.7,0.29c0.19,0.19,0.29,0.43,0.29,0.7v40.16c0,0.28-0.1,0.51-0.29,0.7
	c-0.19,0.19-0.43,0.29-0.7,0.29h-7.57C98.3,60.97,98.07,60.88,97.88,60.68z"/>
</svg>
