<?xml version="1.0" encoding="utf-8"?>
<!-- Generator: Adobe Illustrator 28.3.0, SVG Export Plug-In . SVG Version: 6.00 Build 0)  -->
<svg version="1.1" id="Layer_1" xmlns="http://www.w3.org/2000/svg" xmlns:xlink="http://www.w3.org/1999/xlink" x="0px" y="0px"
	 viewBox="0 0 2500 764" style="enable-background:new 0 0 2500 764;" xml:space="preserve">
<style type="text/css">
	.st0{fill-rule:evenodd;clip-rule:evenodd;fill:#939598;}
</style>
<g>
	<path class="st0" d="M359.9,4.8c64.9-3.1,141.7,10.8,155.9,56.6c23.4,75-95.4,184.4-198.9,238.1c-25.4,13.2-40.8,16.8-47.2,15.9
		c-6.1-0.8-7.1-6.9-5.1-11.1c3.7-7.9,20.4-24,42.7-41.4C424,171.7,461.9,105,439.9,77.9c-14.1-17.3-73.2-29.4-134.5-29.4
		c-16.7,0-60.4,3.8-64.9-11.6C236.8,24.3,295.5,7.8,359.9,4.8 M222.7,348.8c55.6-3.3,123.2,6.5,161.2,35.5
		c21.8,16.7,31.4,44.9,24.5,71.4C386.4,542.1,304.7,646.6,123,727c-57.8,25.5-103.2,35.3-112.7,28.4C0,748.1,29.8,691,38.8,672.1
		c29-61.3,65.2-120.9,100.6-175.6c13-20.1,33.1-55,51.3-52.2c16.3,2.5-2.8,39.6-15.3,63.1c-21.1,39.5-79.2,149.4-60,155.9
		c42.3,14.5,241-136.6,211.7-220.8c-13.6-39.1-99.8-42.8-154.2-42.8c-24.7,0-78.7,5.8-81.6-13.1C88,369.3,173.2,351.8,222.7,348.8"
		/>
	<path class="st0" d="M652.3,256.3c33.4,6,60.6,10.7,66.9,24.8c7,16-29.4,16.9-47.7,17.3c-87.8,1.7-140.8,3.4-143.5,33.3
		c-3.4,38.4,37.5,77.1,78,131.3c37,49.5,79,98.4,66.9,143.9c-15.1,56.7-84.7,68.7-150.9,68.8c-63.5,0-123.6-10.1-148.8-15.1
		c-31.5-6.2-26.8-21.7-18.4-26.7c9.4-5.6,62.8-5.7,100-7.9c30.6-1.8,119.4-1.7,133.3-24.5c17-27.8-24.6-75.5-62.8-125.5
		c-47.6-62.3-100-126.6-72.3-173.6C488.9,241.5,593.7,245.7,652.3,256.3 M2021.4,426.6c70.6,0,97.7-24.1,108.9-79.9l16.7-86.9
		c1.1-5.8-2.4-7.6-6.8-7.6h-34.1l-9.4,50l-5.4,26.6l-4.5,23.1c-6.2,31.5-26.6,45.7-61.2,45.7c-38,0-48.2-13.8-42.2-45.7
		c0,0,1.5-7.9,2-10.3l7.9-39.4l9.4-50h-34.1c-4.4,0-8.6,1.7-9.7,7.6l-16.8,86.9C1930.7,408,1961.2,426.7,2021.4,426.6L2021.4,426.6z
		 M823.2,520.9c-5.1,24,13.7,35.6,51.8,59.3c41.7,25.9,51.2,27.8,47.4,41.5c-3.1,11-14,11.4-32.8,11.4h-74.3
		c-8.4,0-13.3,3.5-14.8,11l-3,15.2h93.7c42.9,0,69.7-2.7,79.5-28.8c4.7-12.8,4.7-26-6.9-39c-5.9-6.6-14.6-12.5-26.6-19.2
		c-53.5-30.3-67.5-33.8-64.1-48.4c1.9-8.2,7.6-8.6,27.7-8.6h62.8c8.5,0,13.4-3.5,14.8-11l3.1-15.9H902
		C857,488.3,830,488.6,823.2,520.9L823.2,520.9z M1236.2,520.9c-5.1,24,13.7,35.6,51.8,59.3c41.7,25.9,51.3,27.8,47.4,41.5
		c-3.1,11-14,11.4-32.8,11.4h-74.3c-8.4,0-13.4,3.5-14.8,11l-3,15.2h93.7c42.9,0,69.7-2.7,79.5-28.8c4.8-12.8,4.8-26-6.8-39
		c-5.9-6.6-14.6-12.5-26.6-19.2c-53.5-30.3-67.5-33.8-64.1-48.4c1.9-8.2,7.6-8.6,27.7-8.6h62.8c8.4,0,13.4-3.5,14.8-11l3.1-15.9
		h-79.5C1270.1,488.3,1243.1,488.6,1236.2,520.9L1236.2,520.9z M2283.1,520.9c-5.1,24,13.7,35.6,51.8,59.3
		c41.8,25.9,51.3,27.8,47.4,41.5c-3,11-14,11.4-32.7,11.4h-74.3c-8.4,0-13.4,3.5-14.8,11l-2.9,15.2h93.7c42.8,0,69.7-2.7,79.5-28.8
		c4.8-12.8,4.7-26-6.9-39c-5.9-6.6-14.6-12.5-26.6-19.2c-53.5-30.3-67.5-33.8-64.1-48.4c1.9-8.2,7.6-8.6,27.7-8.6h62.8
		c8.4,0,13.3-3.5,14.8-11l3.1-15.9H2362C2317,488.3,2289.9,488.6,2283.1,520.9z M1664.9,394c4.8-12.8,4.7-26-6.9-39
		c-5.9-6.7-14.6-12.5-26.6-19.3c-53.5-30.3-67.5-33.7-64.1-48.4c1.9-8.2,7.6-8.6,27.8-8.6h62.8c8.5,0,13.4-3.4,14.8-11l3.1-16h-79.5
		c-45,0-72,0.3-78.9,32.6c-5.1,24,13.7,35.6,51.8,59.3c41.7,25.9,51.2,27.8,47.4,41.5c-3.1,11-14,11.4-32.8,11.4h-74.3
		c-8.5,0-13.4,3.5-14.8,11l-2.9,15.2h93.7C1628.3,422.8,1655.2,420.2,1664.9,394L1664.9,394z M1465.4,394c4.7-12.8,4.7-26-6.9-39
		c-5.9-6.7-14.6-12.5-26.6-19.3c-53.6-30.3-67.5-33.7-64.1-48.4c1.9-8.2,7.6-8.6,27.8-8.6h62.7c8.5,0,13.4-3.4,14.8-11l3.1-16h-79.5
		c-45,0-72,0.3-78.9,32.6c-5.1,24,13.7,35.6,51.8,59.3c41.7,25.9,51.3,27.8,47.4,41.5c-3.1,11-14,11.4-32.8,11.4H1310
		c-8.5,0-13.4,3.5-14.9,11l-3,15.2h93.7C1428.8,422.8,1455.6,420.2,1465.4,394L1465.4,394z M2336.5,252.3c-8.5,0-13.2,2.9-14.5,9.3
		l-3.4,17.2h67.2l-28,144.1h30.1c8.5,0,13.4-3.5,15.1-12.1l25.7-132h56.1c7.9,0,10.7-3.5,12.1-10.4l3.1-16h-163.5V252.3z
		 M873.2,299.7c-4.2,0-7.4,2.9-8,5.8l-22.8,117.4h101c56.6,0,95.8-21,108.1-86.4c9.1-48.7-12-84.2-69.6-84.2H859.7l-0.5,2.2
		c-2.7,11.5-1.3,24.1,18,24.1H966c42.7,0,48.8,21.4,40.3,59c-8.4,37-23,56-55.1,58.9h-60.8l18.8-96.8H873.2z M2312.6,406.9
		c1.5-7.5-1.2-10.4-8-10.4h-91.5L2240,258c0.5-2.9-1.6-5.8-5.2-5.8h-36.5l-33.2,170.6h144.3L2312.6,406.9z M2040.1,488.8h-38.6
		l-74.8,66.5l-48.9-66.5h-38.6c-6.3,0-9.8,4-11.1,11l-31,159.6h32.8c6.9,0,10.7-3.4,12-9.8l23.2-119.4l37.7,53.8
		c1.8,3.3,5.3,5.3,9,5.2h17c4.2-0.2,8.2-2.1,11-5.2l58.6-53.8L1975,649.5c-1.2,6.4,1.3,9.8,8.2,9.8h32.8l31.1-159.5
		C2048.3,492.8,2046.5,488.8,2040.1,488.8L2040.1,488.8z M1631.5,499.7l-31,159.6h157.6l3.3-17.1c1.4-6.9-0.3-9.3-8.3-9.3h-104.7
		l8.9-45.8h92.5c2.4,0.1,4.6-1.6,5-4.1l3.5-18.2c0.4-2.3-0.8-4.1-3.4-4.1h-92.6l8.9-45.7h101c4.8,0,9.5,0,10.8-6.4l3.9-20.1h-142.2
		C1637.3,488.8,1632.9,492.2,1631.5,499.7L1631.5,499.7z M2099.4,499.7l-31,159.6h157.7l3.3-17.1c1.4-6.9-0.3-9.3-8.2-9.3h-104.7
		l8.9-45.8h92.5c2.4,0.1,4.6-1.6,5-4.1l3.5-18.2c0.5-2.3-0.8-4.1-3.4-4.1h-92.6l8.9-45.7h101.1c4.8,0,9.5,0,10.7-6.4l3.9-20.1
		h-142.2C2105.2,488.8,2100.9,492.2,2099.4,499.7L2099.4,499.7z M1154.2,494.5l-15.1,77.6c-26.4,8.1-94.9,23-84.2-31.9l10-51.4h-36
		c-4.2,0-7.4,2.8-8,5.8l-9.1,46.8c-17.3,89.1,67,76.9,121.6,60.1l-11.3,57.8h30.1c8.5,0,13.4-3.4,15.1-12.1l30.8-158.4h-36.5
		C1158,488.8,1154.7,491.6,1154.2,494.5L1154.2,494.5z M1604.4,504.8l3.1-16h-163.4c-8.5,0-13.3,2.9-14.5,9.2l-3.4,17.2h67.2
		l-28,144.1h30.1c8.5,0,13.4-3.4,15.1-12.1l25.6-132h56.1C1600.3,515.2,1603.1,511.7,1604.4,504.8L1604.4,504.8z M1134.5,324
		c6.4-33.2,25.8-45.3,60.3-45.3c36.5,0,46.1,13.7,40.2,45.3c0,0-1.5,7.9-2,10.3c-0.7,3.5-2.3,12.7-11.8,12.7H1130L1134.5,324z
		 M1083,422.8h32.3l9.4-49.6h100.5l-9.4,49.6h32.3c4.2,0,8.3-1.7,9.4-7.5l16.8-86.1c12.3-65.3-24.6-79.2-74.3-79.2
		c-59.6,0-93.6,15-106.6,79.2l-16.8,86.1C1075.4,421.1,1078.7,422.8,1083,422.8L1083,422.8z M1761.2,324
		c6.4-33.2,25.8-45.3,60.3-45.3c36.6,0,46.1,13.7,40.2,45.3c0,0-1.5,7.9-2,10.3c-0.7,3.5-2.3,12.7-11.8,12.7h-91.2L1761.2,324z
		 M1709.7,422.8h32.2l9.4-49.6h100.5l-9.4,49.6h32.3c4.2,0,8.3-1.7,9.4-7.5l16.8-86.1c12.3-65.3-24.6-79.2-74.3-79.2
		c-59.6,0-93.6,15-106.6,79.2l-16.7,86.1C1702.1,421.1,1705.5,422.8,1709.7,422.8z"/>
</g>
</svg>
