<?xml version="1.0" encoding="utf-8"?>
<!-- Generator: Adobe Illustrator 28.3.0, SVG Export Plug-In . SVG Version: 6.00 Build 0)  -->
<svg version="1.1" id="Layer_1" xmlns="http://www.w3.org/2000/svg" xmlns:xlink="http://www.w3.org/1999/xlink" x="0px" y="0px"
	 viewBox="0 0 264.3 140.9" style="enable-background:new 0 0 264.3 140.9;" xml:space="preserve">
<style type="text/css">
	.st0{fill:#939598;}
</style>
<path class="st0" d="M184.2,86.3L160.3,1.9h-53.6v22.6C99.7,11,82.9,2.8,59.4,2.8c-27.6,0-52.3,13-53.6,43.4h35.3
	c1.1-9.4,7.9-14.1,17.1-14.1c7.7,0,15.4,3.2,15.4,11.8c0,12.4-13,13.5-23.3,13.5v23.1c9.4,0,24.4,1.3,24.4,14.7
	c0,7.7-6,15.4-17.5,15.4c-12.2,0-18.8-7.3-18.8-19.5H1.6c0,32.5,22.7,48.8,53.6,48.8c24,0,42.1-7.3,51.5-21.4v18.6h39.8V91.2
	c0-10.9-1.5-29.1-2.8-41h0.4l24.6,86.8h30.8l24.6-86.8h0.4c-1.7,15.6-2.8,30.3-2.8,45.5v41.4h39.8V1.9H208L184.2,86.3z M106.7,74
	c-3.1-3.4-7-6.2-11.8-8.1c5.5-2.7,9.3-6.3,11.8-10.8V74z"/>
</svg>
