<?xml version="1.0" encoding="utf-8"?>
<!-- Generator: Adobe Illustrator 28.3.0, SVG Export Plug-In . SVG Version: 6.00 Build 0)  -->
<svg version="1.1" id="layer" xmlns="http://www.w3.org/2000/svg" xmlns:xlink="http://www.w3.org/1999/xlink" x="0px" y="0px"
	 viewBox="0 0 607 340" style="enable-background:new 0 0 607 340;" xml:space="preserve">
<style type="text/css">
	.st0{fill:#4A4A4A;}
	.st1{fill:#8F8F8F;}
	.st2{fill:#D3D3D3;}
	.st3{fill:#565656;}
</style>
<path class="st0" d="M54.8,290H43.6v40.8h11.2c13,0,21.4-8,21.4-20.4S67.8,290,54.8,290 M51.3,297.4h3.2c8.9,0,13.8,4.6,13.8,13
	s-4.9,13-13.8,13h-3.2V297.4z"/>
<rect x="84.7" y="290" class="st0" width="7.8" height="40.8"/>
<polygon class="st0" points="99.8,297.4 111.2,297.4 111.2,330.8 118.9,330.8 118.9,297.4 130.2,297.4 130.2,290 99.8,290 "/>
<polygon class="st0" points="160.3,290 150.9,306.3 141.4,290 132.6,290 147,314.6 147,330.8 154.7,330.8 154.7,314.6 168.9,290 "/>
<path class="st0" d="M250.1,309.2c1.9-1.9,2.9-4.5,2.9-7.7c0-7-4.9-11.5-12.6-11.5H226v40.8h15.2c8.3,0,13.6-4.8,13.6-12.2
	C254.8,314.5,253.2,311.2,250.1,309.2 M240.1,297.3c3.5,0,5.2,1.4,5.2,4.4s-1.4,4.4-4.6,4.4h-7v-8.8H240.1z M233.8,313.3h7
	c4.1,0,6.3,1.7,6.3,5.1s-2,5.1-6.2,5.1h-7.1L233.8,313.3L233.8,313.3z"/>
<rect x="263.2" y="290" class="st0" width="7.8" height="40.8"/>
<path class="st0" d="M309.1,303c0-7.8-5.7-13-14.3-13h-13v40.8h7.7v-14.9h4.9l9.2,14.9h8.9l-10.3-16.5
	C306.6,312.2,309.1,308.2,309.1,303 M289.4,297.4h5.1c4.5,0,6.7,1.9,6.7,5.7c0,2.4-0.7,5.5-6.7,5.5h-5.1V297.4z"/>
<polygon class="st0" points="326,290 318.2,290 318.2,330.8 342.9,330.8 342.9,323.5 326,323.5 "/>
<path class="st0" d="M424.3,315.9h11v5.2c-2.3,1.7-5.3,2.5-9,2.5c-7.7,0-13.3-5.6-13.3-13.4s5.3-13.4,12.7-13.4c5.4,0,8,2.1,9.8,4.1
	l1.4,1.6l5.5-5.2l-1.4-1.5c-3.9-4.3-8.9-6.4-15.3-6.4c-11.6,0-20.7,9.1-20.7,20.8c0,11.9,9.1,20.8,21.2,20.8
	c6.5,0,11.5-1.8,15.9-5.6l0.7-0.6v-16.2h-18.6L424.3,315.9"/>
<path class="st0" d="M479.1,302.8c0-7.8-5.7-13-14.3-13h-13v40.8h7.7v-14.9h4.9l9.2,14.9h8.9l-10.3-16.5
	C476.6,312,479.1,307.9,479.1,302.8 M459.5,297.1h5.1c4.5,0,6.6,1.9,6.6,5.7c0,2.4-0.7,5.5-6.6,5.5h-5.1V297.1z"/>
<path class="st0" d="M506.7,289.4c-11.7,0-20.8,9.1-20.8,20.8S495,331,506.7,331s20.9-9.1,20.9-20.8S518.4,289.4,506.7,289.4
	 M506.7,323.6c-7.5,0-13-5.6-13-13.4s5.5-13.4,13-13.4s13,5.6,13,13.4S514.2,323.6,506.7,323.6"/>
<path class="st0" d="M557.7,315.8c0,5.2-2.5,7.8-7.3,7.8s-7.3-2.7-7.3-7.8v-26h-7.7V316c0,9.1,5.9,14.9,15,14.9s15-5.9,15-14.9
	v-26.2h-7.7V315.8"/>
<path class="st0" d="M588.5,289.8h-12.9v40.8h7.7V316h5.1c8.7,0,14.3-5.1,14.3-13.1C602.8,295,597.2,289.8,588.5,289.8 M583.4,297.1
	h4.9c4.5,0,6.6,1.9,6.6,5.8s-2.2,5.7-6.6,5.7h-4.9V297.1z"/>
<path class="st0" d="M2.8,330.7h7.6l3.4-8.4h12.8l3.4,8.4h7.7l-17.4-42.2L2.8,330.7z M16.6,315.4l3.6-8.9l3.6,8.9H16.6z"/>
<path class="st0" d="M166.1,330.8h7.6l3.3-8.4h12.8l3.4,8.4h7.7l-17.4-42.2L166.1,330.8z M179.8,315.6l3.6-8.9l3.6,8.9H179.8z"/>
<path class="st0" d="M347.8,330.7h7.6l3.4-8.4h12.8l3.4,8.4h7.7l-17.4-42.2L347.8,330.7z M361.5,315.4l3.6-8.9l3.6,8.9H361.5z"/>
<polygon class="st0" points="510.9,163.6 454.7,189.5 393,112.6 461.9,0.3 510.9,0.3 "/>
<polygon class="st1" points="510.9,259.5 510.9,163.6 454.7,189.5 "/>
<polygon class="st1" points="393,112.6 302.8,0.3 461.9,0.3 "/>
<path class="st2" d="M368.2,153l24.7-40.3L302.8,0.4v134.5h0.6C327.2,134.8,349.4,141.5,368.2,153"/>
<path class="st0" d="M303.4,134.8h-0.6v124.7L368.2,153C349.3,141.5,327.2,134.8,303.4,134.8"/>
<path class="st1" d="M416.6,207.1l38.1-17.6L393,112.6L368.2,153C389.2,165.8,406.1,184.6,416.6,207.1"/>
<path class="st3" d="M368.2,153l-65.4,106.6l113.8-52.5C406.1,184.6,389.2,165.8,368.2,153"/>
<path class="st2" d="M454.7,189.5l-38.1,17.6c7.4,15.9,11.6,33.7,11.6,52.5h82.7L454.7,189.5"/>
<path class="st0" d="M302.8,259.5h125.3c0-18.7-4.1-36.5-11.5-52.5L302.8,259.5"/>
<polygon class="st0" points="94.8,163.6 151,189.5 212.7,112.6 143.8,0.3 94.8,0.3 "/>
<polygon class="st1" points="94.8,259.5 94.8,163.6 151,189.5 "/>
<polygon class="st1" points="212.7,112.6 302.8,0.3 143.8,0.3 "/>
<path class="st3" d="M237.4,153l-24.7-40.3L302.8,0.4v134.5h-0.6C278.5,134.8,256.3,141.5,237.4,153"/>
<path class="st1" d="M302.2,134.8h0.6v124.7L237.5,153C256.3,141.5,278.5,134.8,302.2,134.8"/>
<path class="st1" d="M189.1,207.1L151,189.5l61.7-76.9l24.7,40.3C216.4,165.8,199.5,184.6,189.1,207.1"/>
<path class="st3" d="M237.4,153l65.4,106.6l-113.7-52.5C199.5,184.6,216.4,165.8,237.4,153"/>
<path class="st2" d="M151,189.5l38.1,17.6c-7.4,15.9-11.6,33.7-11.6,52.5H94.8L151,189.5"/>
<path class="st0" d="M302.8,259.5H177.5c0-18.7,4.1-36.5,11.6-52.5L302.8,259.5"/>
</svg>
