<?xml version="1.0" encoding="utf-8"?>
<!-- Generator: Adobe Illustrator 28.3.0, SVG Export Plug-In . SVG Version: 6.00 Build 0)  -->
<svg version="1.1" id="Layer_1" xmlns="http://www.w3.org/2000/svg" xmlns:xlink="http://www.w3.org/1999/xlink" x="0px" y="0px"
	 viewBox="0 0 378.3 93.9" style="enable-background:new 0 0 378.3 93.9;" xml:space="preserve">
<style type="text/css">
	.st0{fill-rule:evenodd;clip-rule:evenodd;fill:#939598;}
</style>
<g>
	<path class="st0" d="M147.3,65.8l-5.1,23.7h-11.7l19.4-85.9h13.9L182,89.5h-11.9l-5-23.7H147.3L147.3,65.8L147.3,65.8z M163.8,56.3
		l-4-20.5c-1.1-5.9-2.3-13.5-3.2-19.6h-0.5c-0.9,6.2-2.2,14.1-3.3,19.6l-4.1,20.5H163.8L163.8,56.3z"/>
	<path class="st0" d="M226.8,1.3v72.3c0,4.7,0.3,11.6,0.5,15.9H217l-0.8-7.5h-0.4c-2,4.3-6.8,8.5-13,8.5
		c-11.5,0-18.5-12.5-18.5-31.7c0-21.9,9.3-32.2,19.1-32.2c5,0,8.9,2.3,11.1,7h0.3V1.4L226.8,1.3L226.8,1.3L226.8,1.3z M214.8,51.2
		c0-1.1,0-2.5-0.1-3.8c-0.6-5.6-3.8-10.5-8.2-10.5c-7.5,0-10.1,10.5-10.1,21.9c0,12.7,3.3,21.7,9.7,21.7c2.7,0,6.2-1.4,8.3-8.8
		c0.3-1,0.4-2.5,0.4-4L214.8,51.2L214.8,51.2z"/>
	<path class="st0" d="M255.3,90.6C242.9,90.6,234,80,234,58.7c0-22.6,10.6-32.1,21.9-32.1c12.2,0,21,11,21,31.9
		c0,24.6-12.1,32.1-21.5,32.1H255.3L255.3,90.6L255.3,90.6z M255.7,81.1c7.4,0,9-13.1,9-22.6c0-9.3-1.7-22.6-9.3-22.6
		c-7.9,0-9.4,13.3-9.4,22.6C246,68.8,247.8,81.1,255.7,81.1L255.7,81.1L255.7,81.1z"/>
	<path class="st0" d="M284.2,1.3h12v33.3h0.3c3.2-5.6,7.5-8,13-8c10.6,0,17.2,12,17.2,31c0,22.2-9,33-19.2,33
		c-6.1,0-9.6-3.3-12.2-8.8h-0.5l-0.6,7.8h-10.3c0.3-4.2,0.5-11.2,0.5-15.9V1.3H284.2L284.2,1.3z M296.2,67.6c0,1.4,0.1,2.8,0.5,3.8
		c1.9,7.5,5.6,9,8,9c7.1,0,9.8-9.4,9.8-22.2c0-11.9-2.8-21.4-9.9-21.4c-4,0-7.1,4.7-8,9.2c-0.3,1.3-0.4,2.9-0.4,4.2V67.6L296.2,67.6
		z"/>
	<path class="st0" d="M344.3,61c0.1,15.9,7,19.9,14.3,19.9c4.3,0,8-1,10.7-2.3l1.8,8.7c-3.7,1.9-9.3,2.9-14.8,2.9
		c-15.5,0-23.7-11.7-23.7-30.8c0-20.3,9.3-32.8,22.2-32.8c12.9,0,18.9,12.4,18.9,27.9c0,3.1-0.1,5-0.3,6.6L344.3,61L344.3,61
		L344.3,61z M362.3,52.4c0.1-11-3.7-16.8-8.4-16.8c-6.2,0-9,9-9.4,16.8H362.3L362.3,52.4z"/>
	<polygon class="st0" points="63,3.9 98.8,3.9 98.8,89.5 	"/>
	<polygon class="st0" points="37.8,3.9 2,3.9 2,89.5 	"/>
	<polygon class="st0" points="50.4,35.4 73.2,89.5 58.2,89.5 51.4,72.3 34.7,72.3 	"/>
	<path class="st0" d="M372.6,26.4c1.5,0,2.7,1.2,2.7,2.8c0,1.6-1.2,2.8-2.7,2.8s-2.7-1.2-2.7-2.8S371.1,26.4,372.6,26.4L372.6,26.4
		L372.6,26.4L372.6,26.4z M372.6,26.8c-1.2,0-2.2,1-2.2,2.3s1,2.3,2.2,2.3s2.2-1,2.2-2.3C374.8,27.9,373.8,26.8,372.6,26.8
		L372.6,26.8L372.6,26.8L372.6,26.8z M372.1,30.8h-0.5v-3.1c0.3,0,0.5-0.1,0.9-0.1c0.5,0,0.8,0.1,1,0.2s0.3,0.3,0.3,0.6
		c0,0.4-0.3,0.6-0.6,0.7l0,0c0.3,0,0.5,0.3,0.5,0.7c0.1,0.5,0.1,0.7,0.2,0.8h-0.5c-0.1-0.1-0.1-0.4-0.2-0.8s-0.3-0.5-0.7-0.5h-0.3
		L372.1,30.8L372.1,30.8L372.1,30.8z M372.1,29.1h0.4c0.4,0,0.7-0.1,0.7-0.5c0-0.3-0.2-0.5-0.7-0.5c-0.2,0-0.3,0-0.4,0V29.1
		L372.1,29.1z"/>
	<path class="st0" d="M103.5,3.9c1.5,0,2.7,1.2,2.7,2.8c0,1.6-1.2,2.8-2.7,2.8s-2.7-1.2-2.7-2.8S102,3.9,103.5,3.9L103.5,3.9
		L103.5,3.9L103.5,3.9z M103.5,4.3c-1.2,0-2.2,1-2.2,2.3s1,2.3,2.2,2.3s2.2-1,2.2-2.3S104.7,4.3,103.5,4.3L103.5,4.3L103.5,4.3
		L103.5,4.3z M103,8.2h-0.5V5.1c0.3,0,0.5-0.1,0.9-0.1c0.5,0,0.8,0.1,1,0.2s0.3,0.3,0.3,0.6c0,0.4-0.3,0.6-0.6,0.7l0,0
		c0.3,0,0.5,0.3,0.5,0.7c0.1,0.5,0.1,0.7,0.2,0.8h-0.5c-0.1-0.1-0.1-0.4-0.2-0.8c-0.1-0.4-0.3-0.5-0.7-0.5H103V8.2L103,8.2L103,8.2z
		 M103,6.5h0.4c0.4,0,0.7-0.1,0.7-0.5c0-0.3-0.2-0.5-0.7-0.5c-0.2,0-0.3,0-0.4,0V6.5L103,6.5z"/>
</g>
</svg>
