<?xml version="1.0" encoding="utf-8"?>
<!-- Generator: Adobe Illustrator 28.3.0, SVG Export Plug-In . SVG Version: 6.00 Build 0)  -->
<svg version="1.1" id="Layer_1" xmlns="http://www.w3.org/2000/svg" xmlns:xlink="http://www.w3.org/1999/xlink" x="0px" y="0px"
	 viewBox="0 0 339.3 125.9" style="enable-background:new 0 0 339.3 125.9;" xml:space="preserve">
<style type="text/css">
	.st0{fill:#939598;}
</style>
<g id="_x37_qUDjC_00000160183840862971782250000011062140449903197882_">
	<g>
		<path class="st0" d="M124.6,62.6c-0.3,36.1-29.8,58.8-56.9,60.3c-36.2,2-63.7-27-64.5-58.6C2.3,30,29.7,2.9,61.8,1.8
			C95.1,0.7,124.6,27.3,124.6,62.6z M63.7,114.1c28.9-0.1,51.4-23.4,51.9-51c0.5-27.3-22.4-51.4-49.8-52.2
			c-28.1-0.8-52.3,20.7-53.4,49.4C11.3,89.9,33.8,113.3,63.7,114.1z"/>
		<path class="st0" d="M329.5,68.2c2.3,3.4,4.6,6.7,6.7,9.9c0.5,0.7,1,2,0.7,2.4c-0.5,0.6-1.7,0.8-2.6,1c-4.3,0.8-7.5-0.6-9.3-4.7
			c-0.6-1.5-2-2.6-2.6-4.1c-1.3-3.3-3.9-3.5-6.8-3.2c-1.2,0.1-1.6,0.5-1.6,1.7c0,2.6,0,5.3,0,7.9c0.1,1.8-0.7,2.5-2.5,2.5
			c-7.6,0-6.1,0.4-6.2-5.9c-0.1-8.3,0-16.5,0-24.8c0-4.6,2.4-7.2,7-7.4c4.2-0.1,8.5-0.1,12.7,0.1c6.1,0.4,10.5,4,11.7,8.9
			c1.5,6.5-0.7,11.6-6.4,14.9C330.2,67.7,330,67.9,329.5,68.2z M319.5,61.9c1.7-0.1,3.4-0.1,5.1-0.5c2.4-0.5,3.9-2.6,3.8-4.9
			s-1.3-4.1-3.8-4.6c-1.9-0.4-3.8-0.4-5.7-0.4c-4.8-0.1-4.8,0-4.8,4.8C314,62.4,313.6,61.7,319.5,61.9z"/>
		<path class="st0" d="M254.3,62.6c0,5.5,0,11,0,16.5c0,1.8-0.6,2.5-2.4,2.5c-7.4,0-6.3,0.4-6.4-6.1c0-2.4-0.1-4.8,0-7.2
			c0-1.4-0.5-1.9-1.9-1.9c-3.6,0.1-7.3,0.1-10.9,0c-1.6,0-1.9,0.6-1.9,2.1c0.1,3.5,0,7,0,10.4c0,1.8-0.7,2.7-2.6,2.7
			c-7.2,0-6.3,0.5-6.3-6.1c0-9.6,0-19.2,0-28.7c0-3,0.2-3.3,3.3-3.2c5.9,0,5.6-0.5,5.6,5.4c0,2.5,0.1,4.9,0,7.4
			c0,1.4,0.3,2.1,1.9,2.1c3.6-0.1,7.3-0.1,10.9,0c1.4,0,1.9-0.5,1.9-1.9c-0.1-3.5,0-7,0-10.4c0-1.9,0.7-2.6,2.6-2.6
			c7.4,0.1,6-0.6,6.1,5.9C254.4,53.8,254.3,58.2,254.3,62.6z"/>
		<path class="st0" d="M174.9,81.6c-2.4,0.6-3.8-0.7-4.7-3.3c-1.9-5.1-2-5.1-7.6-5.1c-2.6,0-5.3,0.1-7.9,0c-1.5-0.1-2.5,0.3-2.9,1.9
			c-0.2,0.8-0.6,1.6-0.9,2.4c-1.7,4.1-4.1,5.3-8.4,4.1c-1.9-0.5-1.4-1.9-0.9-3.2c2-4.8,4.1-9.7,6.2-14.5c2.1-4.9,4.1-9.8,6.2-14.7
			c0.5-1.3,1.2-2.6,2-3.6c2.4-3,6.7-3,8.9,0.2c1.1,1.5,1.8,3.2,2.5,4.9c3.7,8.7,7.4,17.3,11.1,26C180.5,81.3,180.3,81.6,174.9,81.6z
			 M165,65.2c-1.5-3.7-2.9-7-4.3-10.3c-0.2,0-0.4,0-0.6,0c-1.4,3.4-2.7,6.7-4.2,10.3C159,65.2,161.7,65.2,165,65.2z"/>
		<path class="st0" d="M266,62.5c0-4,0-8,0-12.1c0-3.9,2.2-6.7,6.1-6.8c6.9-0.2,13.9-0.1,20.9-0.1c0.3,0,0.7,0,0.9,0.2
			c1.9,1.8,0.8,4.1,0.8,6.1c0,0.5-1.5,1.5-2.3,1.5c-4.8,0.1-9.6,0.1-14.4,0.1c-2.9,0-3.3,0.4-3.3,3.4c0,5.3,0.1,10.7,0,16
			c0,2.2,0.8,3.1,3,3c4.9-0.1,9.7,0.1,14.6-0.1c2.3-0.1,2.9,0.8,2.9,3c-0.1,4.9,0,4.9-5,4.9c-5.3,0-10.5,0-15.8,0
			c-6.1,0-8.3-2.3-8.4-8.4C266,69.6,266,66,266,62.5z"/>
		<path class="st0" d="M197.2,43.5c4.4,0,8.8,0,13.2,0c1.9,0,2.6,0.7,2.6,2.6c-0.1,5.9,0.6,5.5-5.3,5.5c-1.2,0-2.5,0.1-3.7,0
			c-2.1-0.2-2.6,0.7-2.6,2.6c0.1,8,0,16.1,0,24.1c0,3.2-0.1,3.3-3.2,3.3c-6.3,0-5.4,0.3-5.5-5.5c0-7.4-0.1-14.8,0-22.2
			c0-1.8-0.6-2.4-2.4-2.3c-2.3,0.1-4.6,0-6.9,0c-1.4,0-2.1-0.5-2.1-2.1c0.1-6.8-0.8-5.9,5.6-6C190.4,43.5,193.8,43.5,197.2,43.5z"/>
		<path class="st0" d="M285.7,58.5c1,0,2-0.1,3,0c2,0.1,3.5,1.6,3.7,3.5s-1.1,3.9-3,4.1c-2.5,0.2-5.1,0.2-7.6,0
			c-1.9-0.2-3.2-2.1-3-4c0.1-2,1.5-3.5,3.6-3.6C283.4,58.5,284.5,58.5,285.7,58.5z"/>
		<path class="st0" d="M91,76.5c0,4.4-3.2,8.7-8.2,9.8c-4.9,1.1-10.4-1.6-12.6-6.4c-0.7-1.6-1.4-3.3-1.7-5
			c-1.2-7.2-4.8-13.1-10-18.1c-3.2-3.1-5.5-6.7-4.8-11.5c0.8-5.2,3.8-8.5,8.6-9.3c4.6-0.8,9.6,1.7,11.8,6c0.9,1.8,1.7,3.8,2.1,5.9
			c1.2,6.9,4.6,12.5,9.6,17.4C88.5,68,90.9,71.3,91,76.5z"/>
		<path class="st0" d="M37,75.9c0-6.1,4.6-10.8,10.6-10.8S58.4,70,58.4,75.9c0,5.8-4.9,10.7-10.6,10.8C41.8,86.7,37,82,37,75.9z"/>
	</g>
</g>
</svg>
