<?xml version="1.0" encoding="utf-8"?>
<!-- Generator: Adobe Illustrator 28.3.0, SVG Export Plug-In . SVG Version: 6.00 Build 0)  -->
<svg version="1.1" id="Layer_1" xmlns="http://www.w3.org/2000/svg" xmlns:xlink="http://www.w3.org/1999/xlink" x="0px" y="0px"
	 viewBox="0 0 408.7 71.2" style="enable-background:new 0 0 408.7 71.2;" xml:space="preserve">
<style type="text/css">
	.st0{fill-rule:evenodd;clip-rule:evenodd;fill:#939598;}
	.st1{fill:#939598;}
	.st2{fill:url(#SVGID_1_);}
	.st3{fill:url(#SVGID_00000009574316565975196570000012359283849800143016_);}
	.st4{fill:url(#SVGID_00000069369250052812843140000012273245871516442530_);}
</style>
<g>
	<g>
		<path class="st0" d="M247.1,53c0-13.1,0-26.3,0-40c9.1,0.5,18.4-1.8,26.9,3.5c7,4.4,10.3,12.4,8.7,21.1c-1.4,7.3-8.5,14.5-16,15.2
			C260.2,53.4,253.7,53,247.1,53z M254.4,19.4c0,9.5,0,18.4,0,27.4c3.6,0,7.1,0.4,10.4-0.1c6.8-1,11.4-6.9,11.3-13.6
			c-0.1-7-4.5-12.1-11.6-13.2C261.2,19.5,258,19.6,254.4,19.4z"/>
		<path class="st0" d="M196.9,32.9c0.4-11.6,10.1-20.9,21.2-20.5c11.5,0.4,21.1,10.2,20.5,21.3c-0.7,12.8-10.1,20.6-21.2,20.5
			C205.8,53.9,196.5,44,196.9,32.9z M204,32.8c-0.2,8,5.6,14.6,13.3,14.9c7.6,0.3,13.9-5.9,14.2-14c0.3-7.9-5.7-14.6-13.3-14.8
			C210.6,18.6,204.3,24.8,204,32.8z"/>
		<path class="st0" d="M319.2,46.8c0,2.4,0,4.3,0,6.4c-9.6,0-18.9,0-28.6,0c0-13.3,0-26.6,0-40.2c9.5,0,19,0,28.6,0c0,2,0,3.9,0,6.2
			c-7,0-14,0-21.3,0c0,3.6,0,6.8,0,10.5c4.5,0,8.9,0,13.5,0c0,2.3,0,4.1,0,6.3c-4.5,0-9,0-13.6,0c0,3.7,0,7.1,0,10.8
			C304.9,46.8,311.9,46.8,319.2,46.8z"/>
	</g>
</g>
<g>
	<path class="st1" d="M378,31.9c5.5-6,12-13,17.9-19.5h-9.2l-17.5,18.2c0-6.1,0-12.1,0-18.2c-2.4,0-4.5,0-6.9,0
		c0,13.6,0,26.9,0,40.2c2.4,0,4.5,0,7,0c0-6.6,0-13.1,0-20.2c0,0,12.6,12.8,19.1,20.2h9.5C391.5,45.9,383.5,37.6,378,31.9z"/>
</g>
<g>
	<path class="st1" d="M99.3,12.4l-6.8,0.1L74.7,52.9h7.8l4-9.7h18.8l4.1,9.7h7.7L99.3,12.4z M89.1,36.8l6.6-16l6.8,16H89.1z"/>
</g>
<g>
	<polygon class="st1" points="162.8,18.6 175.7,18.6 175.7,52.7 182.3,52.7 182.3,18.6 193,18.6 195.7,12.4 162.8,12.4 	"/>
</g>
<g>
	<path class="st1" d="M341.2,29.5c-9.4-2.7-8.3-6.7-7.8-7.8s2.1-3.1,8.1-3.1s10.2,2.5,10.2,2.5l2.6-5.3c-0.2-0.3-5-3.2-13-3.3
		c-8-0.2-15.1,4.4-15.1,10.8s3.9,9.4,11.4,11.6c8.6,2.5,11.2,4.7,11.2,7.9s-1.8,5.5-8,5.5c-5.3,0-11.8-4.2-13.4-5.4l-2.5,5.4
		c2.1,1.4,9.7,5.7,16.3,5.7c7.6,0,13.9-3.7,14.1-11.4C355.7,34.6,349.7,31.9,341.2,29.5z"/>
</g>
<g>
	<path class="st1" d="M147.5,36.4c0,5.6-4.5,10.1-10.1,10.1s-10.1-4.5-10.1-10.1v-24h-7.5v23.4c0,9.7,7.9,17.5,17.5,17.5
		c9.7,0,17.5-7.9,17.5-17.5V12.4h-7.3V36.4z"/>
</g>
<g>
	<path class="st1" d="M406.7,50.1c0,1.4-1.1,2.6-2.6,2.6s-2.6-1.1-2.6-2.6c0-1.4,1.2-2.5,2.6-2.5C405.6,47.6,406.7,48.7,406.7,50.1z
		 M402.2,50.1c0,1.1,0.8,2,2,2c1.1,0,1.9-0.9,1.9-2s-0.8-2-1.9-2C403,48.1,402.2,49,402.2,50.1z M403.7,51.4h-0.6v-2.5
		c0.2,0,0.6-0.1,1-0.1c0.5,0,0.7,0.1,0.9,0.2c0.1,0.1,0.2,0.3,0.2,0.6s-0.2,0.5-0.5,0.6l0,0c0.2,0.1,0.4,0.3,0.5,0.6
		c0.1,0.4,0.1,0.5,0.2,0.6h-0.6c-0.1-0.1-0.1-0.3-0.2-0.6c0-0.3-0.2-0.4-0.5-0.4h-0.3v1H403.7z M403.8,50h0.3c0.3,0,0.6-0.1,0.6-0.4
		c0-0.2-0.2-0.4-0.5-0.4c-0.2,0-0.3,0-0.3,0V50H403.8z"/>
</g>
<g>
	
		<linearGradient id="SVGID_1_" gradientUnits="userSpaceOnUse" x1="17.5269" y1="746.0141" x2="17.5269" y2="789.4008" gradientTransform="matrix(1 0 0 1 0 -738)">
		<stop  offset="0" style="stop-color:#3E3E3E"/>
		<stop  offset="7.272768e-02" style="stop-color:#4A4A4A"/>
		<stop  offset="0.2821" style="stop-color:#676767"/>
		<stop  offset="0.4849" style="stop-color:#7F7F7F"/>
		<stop  offset="0.6768" style="stop-color:#909090"/>
		<stop  offset="0.8534" style="stop-color:#9A9A9A"/>
		<stop  offset="1" style="stop-color:#9D9D9D"/>
	</linearGradient>
	<path class="st2" d="M23.4,1.7c-1.7,0.1-2.5,1.1-2.5,1.2l0,0l0,0L2.1,47.4c0,0,0,0.1-0.1,0.2c-0.4,1.1-0.3,2.1,0,2.8l0.2,0.4
		c0.8,1.3,2.4,1.9,3.3,1.9c0.7,0,6.5,0,13.5,0l14.4-33.4c-3.6-8.5-6.3-14.9-6.7-15.7C25.9,2,24.4,1.6,23.4,1.7z"/>
	
		<linearGradient id="SVGID_00000050632891536599918770000000278896027680295045_" gradientUnits="userSpaceOnUse" x1="9.8716" y1="798.5932" x2="32.1338" y2="788.8891" gradientTransform="matrix(1 0 0 1 0 -738)">
		<stop  offset="0" style="stop-color:#565656"/>
		<stop  offset="0.2771" style="stop-color:#777777"/>
		<stop  offset="0.5357" style="stop-color:#939393"/>
	</linearGradient>
	<path style="fill:url(#SVGID_00000050632891536599918770000000278896027680295045_);" d="M5.6,52.7c-0.9,0-2.5-0.7-3.3-1.9l5.3,9.8
		l4.3,7.9c0.9,1.7,3.3,1.9,3.3,1.9c2.5,0.2,7-2.1,7.9-2.6s21.6-13.3,24.3-15c-2.9,0-17.2,0-28.2,0C12.1,52.7,6.4,52.7,5.6,52.7z"/>
	<path d="M2.3,50.8l-0.2-0.4C2.1,50.5,2.2,50.6,2.3,50.8z"/>
	<path d="M20.8,2.9L20.8,2.9L20.8,2.9z"/>
	<path d="M20.8,2.9L20.8,2.9L20.8,2.9z"/>
	<path d="M20.8,2.9L20.8,2.9L20.8,2.9L20.8,2.9z"/>
	
		<linearGradient id="SVGID_00000130629465388780479850000002948146427840201898_" gradientUnits="userSpaceOnUse" x1="34.5305" y1="743.9115" x2="61.9298" y2="807.843" gradientTransform="matrix(1 0 0 1 0 -738)">
		<stop  offset="0" style="stop-color:#7D7D7D"/>
		<stop  offset="0.9439" style="stop-color:#4E4E4E"/>
	</linearGradient>
	<path style="fill:url(#SVGID_00000130629465388780479850000002948146427840201898_);" d="M45.9,3.2c0,0-0.5-1.7-2.9-1.7
		c0,0-3.3,0-7.1,0c-5.5,0-12.2,0-12.6,0c-1.2,0.1-2.1,0.9-2.5,1.4c0.1-0.1,0.8-1.1,2.5-1.2c1-0.1,2.5,0.3,3.3,1.9
		c0.4,0.8,3.1,7.2,6.7,15.7c7.8,18.6,19.9,47.4,21.5,51.1h19.4L45.9,3.2z"/>
</g>
</svg>
