<?xml version="1.0" encoding="utf-8"?>
<!-- Generator: Adobe Illustrator 28.3.0, SVG Export Plug-In . SVG Version: 6.00 Build 0)  -->
<svg version="1.1" id="Layer_1" xmlns="http://www.w3.org/2000/svg" xmlns:xlink="http://www.w3.org/1999/xlink" x="0px" y="0px"
	 viewBox="0 0 458.3 133.9" style="enable-background:new 0 0 458.3 133.9;" xml:space="preserve">
<style type="text/css">
	.st0{fill-rule:evenodd;clip-rule:evenodd;fill:#939598;}
</style>
<g>
	<polygon class="st0" points="380.1,68.7 410.9,68.7 415.9,81.1 374.3,81.1 367.6,95.2 349.3,95.2 394.8,1.9 407.5,1.9 453.1,95.2 
		434.7,95.2 401.2,23.2 	"/>
	<polygon class="st0" points="32.5,69.4 63.3,69.4 68.3,81.7 26.7,81.7 20.1,95.9 1.7,95.9 47.2,2.6 59.9,2.6 105.5,95.9 87.1,95.9 
		53.6,23.8 	"/>
	<polygon class="st0" points="205.6,69.4 236.4,69.4 241.4,81.7 199.8,81.7 193.2,95.9 174.8,95.9 220.4,2.6 233.1,2.6 278.6,95.9 
		260.3,95.9 226.7,23.8 	"/>
	<polygon class="st0" points="88.3,2.3 133.8,95.6 134.6,95.6 145.8,95.6 146.5,95.6 192.1,2.3 173.7,2.3 140.2,75.7 106.6,2.3 	"/>
	<polygon class="st0" points="304,130.6 366.9,2.3 348.6,2.3 313.6,77.1 281.5,2.3 263.1,2.3 304.5,95.6 286.5,130.6 	"/>
</g>
</svg>
