<?xml version="1.0" encoding="utf-8"?>
<!-- Generator: Adobe Illustrator 28.3.0, SVG Export Plug-In . SVG Version: 6.00 Build 0)  -->
<svg version="1.1" id="Layer_1" xmlns="http://www.w3.org/2000/svg" xmlns:xlink="http://www.w3.org/1999/xlink" x="0px" y="0px"
	 viewBox="0 0 335.3 204" style="enable-background:new 0 0 335.3 204;" xml:space="preserve">
<style type="text/css">
	.st0{fill:#939598;}
	.st1{fill-rule:evenodd;clip-rule:evenodd;fill:#939598;}
</style>
<g>
	<path class="st0" d="M95.7,73.6c0,4.1,0.4,7.4,1.2,9.8s2,5.1,3.5,7.9c0.5,0.9,0.8,1.7,0.8,2.5c0,1.2-0.7,2.2-2.1,3.3l-6.9,4.6
		c-1,0.6-2,1-2.9,1c-1.2,0-2.2-0.5-3.3-1.5c-1.5-1.5-2.8-3.2-3.9-5.1c-1.1-1.9-2.2-4-3.4-6.4c-8.6,10.1-19.3,15.2-32.2,15.2
		c-9.2,0-16.5-2.6-21.9-7.9c-5.4-5.2-8.1-12.3-8.1-21.1c0-9.3,3.3-16.9,10-22.5c6.6-5.7,15.6-8.5,26.9-8.5c3.7,0,7.6,0.3,11.6,0.9
		s8.2,1.4,12.6,2.4v-8.1c0-8.3-1.7-14.2-5.2-17.6s-9.4-5.1-17.8-5.1c-3.8,0-7.8,0.5-11.8,1.4c-4,1-8,2.2-11.8,3.7
		c-1.8,0.8-3.1,1.2-3.8,1.4c-0.8,0.2-1.3,0.3-1.7,0.3c-1.5,0-2.3-1.2-2.3-3.5v-5.4c0-1.8,0.3-3.1,0.8-3.8c0.5-0.8,1.5-1.5,3.1-2.3
		c3.8-1.9,8.4-3.6,13.8-5C46.3,2.8,52,2.1,58,2.1c13,0,22.6,3,28.7,8.9c6.1,5.9,9.1,14.9,9.1,27v35.6L95.7,73.6L95.7,73.6z
		 M51.1,90.3c3.6,0,7.4-0.7,11.3-2c4-1.3,7.4-3.7,10.4-7c1.8-2,3-4.4,3.7-7s1.1-5.8,1.1-9.5v-4.6c-3.2-0.8-6.6-1.4-10.1-1.8
		s-6.9-0.7-10.3-0.7c-7.3,0-12.7,1.5-16.3,4.4s-5.4,7.2-5.4,12.7c0,5.1,1.3,9,4,11.6C42.3,89,46.1,90.3,51.1,90.3z M139.2,102.2
		c-1.9,0-3.3-0.4-4.2-1.1c-0.9-0.7-1.7-2.1-2.3-4.3L107,12c-0.6-2.2-1-3.6-1-4.4c0-1.8,0.9-2.7,2.7-2.7h10.7c2,0,3.5,0.4,4.3,1.1
		s1.6,2.1,2.2,4.3l18.4,72.5l17.1-72.5c0.5-2.2,1.2-3.6,2.1-4.3c0.9-0.7,2.4-1.1,4.4-1.1h8.8c2,0,3.5,0.4,4.4,1.1s1.6,2.1,2.1,4.3
		l17.3,73.5l19-73.5c0.6-2.2,1.4-3.6,2.2-4.3c0.8-0.7,2.3-1.1,4.3-1.1h10.2c1.8,0,2.7,0.9,2.7,2.7c0,0.5-0.1,1.1-0.2,1.7
		s-0.4,1.5-0.8,2.7l-26.5,84.8c-0.6,2.2-1.4,3.6-2.3,4.3c-0.9,0.7-2.3,1.1-4.2,1.1h-9.4c-2,0-3.5-0.4-4.4-1.2
		c-0.9-0.8-1.6-2.2-2.1-4.4L172,26l-16.9,70.6c-0.5,2.2-1.2,3.6-2.1,4.4s-2.4,1.2-4.4,1.2H139.2z M280.1,105.1
		c-5.8,0-11.4-0.6-16.9-1.9s-9.7-2.7-12.7-4.4c-1.8-1-2.9-2-3.4-3.1c-0.4-1-0.7-2-0.7-3.1V87c0-2.3,0.8-3.5,2.5-3.5
		c0.6,0,1.3,0.1,2,0.4s1.6,0.6,2.8,1.2c3.7,1.7,7.7,2.9,12.1,3.8c4.3,0.9,8.7,1.3,13,1.3c6.9,0,12.2-1.2,16-3.6s5.7-5.9,5.7-10.4
		c0-3.1-1-5.6-3-7.7c-2-2-5.7-4-11-5.8l-15.9-5c-8.1-2.6-13.9-6.3-17.6-11.1c-3.6-4.9-5.5-10.2-5.5-15.9c0-4.6,1-8.7,3-12.2
		s4.6-6.5,7.9-9s7.1-4.4,11.4-5.7c4.3-1.3,9-1.9,13.8-1.9c2.4,0,4.9,0.2,7.4,0.5s4.9,0.7,7.1,1.2s4.3,1.1,6.2,1.7
		c1.9,0.6,3.5,1.3,4.6,1.9c1.5,0.9,2.6,1.8,3.3,2.7c0.6,0.9,1,2.1,1,3.6v5.2c0,2.3-0.8,3.5-2.5,3.5c-0.9,0-2.3-0.4-4.2-1.3
		c-6.3-2.8-13.3-4.2-21.1-4.2c-6.3,0-11.1,1-14.6,3.1c-3.5,2-5.2,5.3-5.2,9.8c0,3.1,1.1,5.7,3.3,7.8c2.2,2.1,6.2,4.1,12.1,6l15.5,5
		c7.9,2.6,13.6,6.1,17,10.6s5.1,9.6,5.1,15.4c0,4.7-1,9-2.9,12.8s-4.6,7-8,9.7s-7.5,4.7-12.2,6.1
		C290.9,104.4,285.7,105.1,280.1,105.1z"/>
	<g>
		<path class="st1" d="M300.8,159.1c-36.1,26.6-88.4,40.8-133.5,40.8c-63.2,0-120.1-23.3-163.1-62.2c-3.4-3.1-0.4-7.2,3.7-4.9
			c46.4,27,103.9,43.3,163.2,43.3c40,0,84-8.3,124.5-25.5C301.7,148.1,306.8,154.7,300.8,159.1z"/>
		<path class="st1" d="M315.8,141.9c-4.6-5.9-30.5-2.8-42.2-1.4c-3.5,0.4-4.1-2.7-0.9-4.9c20.7-14.5,54.5-10.3,58.5-5.5
			c4,4.9-1,38.9-20.4,55.1c-3,2.5-5.8,1.2-4.5-2.1C310.7,172.2,320.5,147.9,315.8,141.9z"/>
	</g>
</g>
</svg>
