<?xml version="1.0" encoding="utf-8"?>
<!-- Generator: Adobe Illustrator 28.3.0, SVG Export Plug-In . SVG Version: 6.00 Build 0)  -->
<svg version="1.1" id="Layer_1" xmlns="http://www.w3.org/2000/svg" xmlns:xlink="http://www.w3.org/1999/xlink" x="0px" y="0px"
	 viewBox="0 0 489.4 96.8" style="enable-background:new 0 0 489.4 96.8;" xml:space="preserve">
<style type="text/css">
	.st0{fill-rule:evenodd;clip-rule:evenodd;fill:#939598;}
	.st1{fill-rule:evenodd;clip-rule:evenodd;fill:#3E3E3E;}
	.st2{fill-rule:evenodd;clip-rule:evenodd;fill:#FFFFFF;}
	.st3{fill-rule:evenodd;clip-rule:evenodd;fill:#DCDCDC;}
	.st4{fill-rule:evenodd;clip-rule:evenodd;fill:#777777;}
	.st5{fill-rule:evenodd;clip-rule:evenodd;fill:#AAAAAA;}
</style>
<g>
	<polygon class="st0" points="99.2,87.6 99.2,2.7 2.4,2.7 2.4,87.6 	"/>
	<path class="st1" d="M65.3,55c-2,0.2-5.9,0.6-7.8,0.8C55.8,56,53.9,56,52,56.1c-1.8,0.1-3.5,0.1-5.4,0.1c-1.8,0-3.7,0-5.5-0.2
		c-3.8-0.5-4.6-1-5.6-1.1c-2.1-0.3-3.7-0.7-5.4-1c-1.5-0.3-2.9-0.7-3.8-0.7c-0.1-0.1-0.4-0.7-0.5-0.8c-1-2.3-1-2-1.9-5.3
		c-0.5-1.6-1.1-5-1.4-7.1c-0.3-1.8-0.6-2.2-0.8-2.7c-0.5-1.6-0.3-2.7-0.4-4.5s-0.2-6.2-0.1-8c0.1-2.9,0.3-3.2,0.7-5
		c0.5-1.8,1.3-3.6,2.1-5.3c0.7-1.4,1-2.7,2-4c1.1-1.4,1.4-2.1,1.9-2.6c0.1-0.1,0.5-0.2,0.5-0.2c1.4-0.5,2.7-0.6,3.3-0.8
		c0.2,0,0.9,0.1,1.1,0.1c0.3,0,2.3,0.1,5.2,0.1c1.5,0.1,3.3,0.2,5.3,0.2c1.8,0.1,3.6,0.1,5.5,0.1c1.8,0,3.6-0.1,5.4-0.1
		c1.6,0.1,3.3,0.2,4.9,0.2c1.8,0,3.5-0.1,5-0.1c1.8,0,3.4-0.1,4.9-0.2c2.2-0.1,3.8-0.1,4.8-0.2c1.7-0.3,3-0.5,4.1-0.5
		c0.3,0.1,0.4,0.2,0.7,0.3c1,0.5,2.3,1.5,2.3,1.5c0,0.6-0.2,4.7,0.1,7.6c0.2,1.6,0.5,3.5,0.7,5.4c0.2,1.8,0.3,3.2,0.6,5
		c0.2,1.8,0.9,4.2,1.1,5.7c0.4,2.5,0.5,1.1,0.8,3.3c0.5,2.8,0.2,2.5,0.5,5.7c0.2,1.8-0.1,5.6-0.4,7.4c-0.3,1.9-1.1,3.3-1.7,3.6
		c-1.2,0.6-5.3,1.1-4.5,1c-2,0.3-1.9,0.1-3.1,0.3c-3.3,0.6-4,0.5-6.2,0.7c-2,0.2-0.5,0.4-2.9,0.7C65.8,54.7,65.5,54.9,65.3,55
		L65.3,55z"/>
	<path class="st2" d="M31.3,11c0.7-1.6,1.4-1.5,2.9-1.6c0.9-0.1,1.9,0.2,3.4,0.4c1,0.1,1-0.2,2.2,0.2c0.9,0.3,1.1,0.2,2.5,0.5
		c1.1,0.2,4.6,0.9,5.9,1.1c1.2,0.1,2.5,0.7,3.8,0.8c1.2,0.1,2.5,0.2,3.7,0.2c1.2,0.1,2.5,0.1,3.7,0.2c1.3,0,2.6-0.2,3.7-0.3
		c1.4,0,2.5-0.2,3.6-0.3c1.5-0.1,2.7-0.3,3.5-0.5c1.5-0.4,2.7-0.4,3.7-0.2c1.4,0.2,2.3,0.8,2.8,2c0.5,1,0.2,1.9,0.5,3.5
		c0.1,0.9-0.3,2.2-0.3,3.9c0,1.1,0.1,2.4,0.1,3.7c0,1.2,0.2,2.5,0.2,3.8s0,2.5,0.1,3.8c0,1.3,0.1,2.6,0.1,3.8
		c0.1,1.4,0.1,2.6,0.1,3.6c0.1,2.2,0.4,1.6,0.2,3.6c-0.2,1.8,0.5,2.1-1.3,3.5c-0.7,0.6-1.8,1.2-3.3,1.4c-0.5,0-1.6,0.4-3.4,0.9
		c-1,0.2-2.1,0.5-3.5,0.8c-1,0.2-2.3,0.4-3.5,0.6c-1.1,0.2-2.3,0.3-3.5,0.6c-1.1,0.2-2.3,0.2-3.5,0.3c-1.1,0.2-2.3,0.1-3.4,0.1
		c-1.1,0.1-2.2,0.2-3.2,0.3c-0.9,0,0,0.3-0.5,0.5c-1.1,0.3-1.4,0.2-3.5,0.2c-1,0-2.1,0-3.4-0.1c-1.1-0.1-2.3-0.2-3.5-0.3
		c-1.2-0.2-2.3-0.5-3.4-0.7c-1.2-0.2-2.5-0.2-3.4-0.6c-1.2-0.4-2.3-1-2.7-1.8c-0.3-0.6-0.5-2.2-0.6-3.7c-0.1-1,0-2.2,0-3.5
		c-0.1-1.1-0.2-2.3-0.2-3.5c0.1-1.1,0.1-2.3,0.1-3.6c0.1-1.1,0.1-2.3,0.2-3.5s0.5-2.3,0.5-3.5c0.1-1.1,0.3-2.3,0.5-3.4
		c0.1-1.2,0.1-2.3,0.2-3.4c0.1-1.2,0.4-2.3,0.6-3.3c0.2-1.3,0.1-2.5,0.2-3.4C30.5,12.2,31.1,11.2,31.3,11L31.3,11z"/>
	<path class="st1" d="M90.6,77.1c-0.8,0.3-3.5,1-5.9,0.9c-1.2-0.1-3,0.1-5.3,0.2c-1.6,0.1-3.2-0.2-5.2-0.1c-1.6,0.1-3.3,0.1-5.1,0.2
		c-1.8,0.1-3.6,0.3-5.5,0.5c-1.7,0.1-2.7-0.1-4.5,0.1c-1.8,0.1-3.2-0.5-5.1-0.3c-1.7,0.2-4.6,0.2-6.2,0.4c-1.8,0.2-3.7,0.8-5.4,1
		c-1.8,0.2-3.2,0.1-4.8,0.3c-1.8,0.2-3.7,0.8-5.4,1.1c-1.7,0.2-3.3,0.5-4.9,0.8s-3.2,0.5-4.6,0.8c-1.3,0.3-2.4,0.7-3.5,1
		c-2.4,0.8-4.4,1.2-5.9,1.4c-3.2,0.5-4.6-0.2-5.5-1.5c-0.7-1.2-1-3-1.2-4.6c-0.2-2-0.2-1.1-0.5-2.8c-0.5-2.7-0.9-4.3,0.7-6
		c0.8-0.8,2.3-1.9,4-2.6c2.4-1.3,1.4-1.1,4.9-2.5c1.4-0.6,3.1-1.1,5-1.8c1.5-0.5,3.3-0.9,5.3-1.4c1.6-0.4,3.3-0.8,5.2-1.3
		c1.6-0.3,3.4-0.8,5.3-1.2c1.7-0.3,3.5-0.6,5.3-0.9s3.7-0.5,5.7-0.8c1.8-0.2,3.6-0.4,5.5-0.6c1.7-0.2,3.4-0.5,5.2-0.7
		c1.8-0.2,4.1,0.1,6-0.1c1.6-0.1,2.7-0.4,4.5-0.5c1.6-0.1,3.4-0.1,5.2-0.2c1.8-0.1,3.5-0.1,5.3-0.1c1.5-0.1,3.1-0.1,4.6-0.1
		c2.5,0,5,0.1,6.3,1c1.9,1.2,1.7,2,1.8,4.4c0.1,2.7-0.2,1.4,0.2,4.1c0.5,2.9,0.6,5.5,0.7,8C92.9,74.6,92.1,75.8,90.6,77.1L90.6,77.1
		z"/>
	<path class="st2" d="M20.3,72.7c0.9,0,1.6-0.7,1.6-1.7s-0.7-1.9-1.6-1.9s-1.5,0.8-1.5,1.9C18.8,72,19.4,72.7,20.3,72.7L20.3,72.7z"
		/>
	<path class="st2" d="M30.2,77.6c0.9,0.2,1.7-0.8,1.7-1.7c0-0.9-0.7-1.5-1.7-1.5c-0.9,0-1.6,0.6-1.6,1.5
		C28.5,78.1,29.8,77.5,30.2,77.6L30.2,77.6z"/>
	<path class="st2" d="M24.6,78.8c0.9,0,1.7-0.9,1.7-1.8s-0.8-1.6-1.7-1.6c-0.9,0-1.5,0.7-1.5,1.6S23.7,78.8,24.6,78.8L24.6,78.8z"/>
	<path class="st2" d="M46.3,71.8c1,0,1.8-0.8,1.8-1.8c0-0.9-0.8-1.5-1.8-1.5c-0.9,0-2,0.3-1.6,1.6C45,70.9,45.4,71.8,46.3,71.8
		L46.3,71.8z"/>
	<path class="st2" d="M36.9,73.7c0.8,0,1.5-0.6,1.5-1.6c0-0.9-0.7-1.5-1.5-1.5c-0.7,0-1.4,0.6-1.4,1.5
		C35.5,73.1,36.2,73.7,36.9,73.7L36.9,73.7z"/>
	<path class="st2" d="M32.5,72.5c0.9,0.2,1.6-0.8,1.6-1.7c0-0.9-0.7-1.6-1.6-1.6s-1.6,0.7-1.6,1.6C30.8,71.7,30.8,72.2,32.5,72.5
		L32.5,72.5z"/>
	<path class="st2" d="M42.3,66.6c0.9,0,1.6-0.2,1.6-1.1s-0.8-1.6-1.8-1.6c-0.9,0-1.8,0.7-1.8,1.6C40.4,66.3,41.4,66.6,42.3,66.6
		L42.3,66.6z"/>
	<path class="st2" d="M47,64.1c0.9,0,1.8-0.7,1.8-1.6S47.9,61,47,61s-1.7,0.6-1.7,1.5C45.3,63.4,46.1,64.1,47,64.1L47,64.1z"/>
	<path class="st3" d="M18.9,78.9c0.7,0,1.2-0.5,1.2-1.2s-0.5-1.4-1.2-1.4s-1.1,0.6-1.1,1.4C17.8,78.4,18.2,78.9,18.9,78.9L18.9,78.9
		z"/>
	<path class="st3" d="M33.2,65.8c0.6,0,1.2-0.6,1.2-1.3c0-0.6-0.6-1.1-1.2-1.1c-0.7,0-1.1,0.5-1.1,1.1C32,65.2,32.5,65.8,33.2,65.8
		L33.2,65.8z"/>
	<path class="st3" d="M27.6,71.5c0.6,0,1.2-0.2,1.2-0.8c0-0.7-0.7-1.2-1.3-1.2c-0.7,0-1.2,0.5-1.2,1.2
		C26.2,71.3,26.9,71.5,27.6,71.5L27.6,71.5z"/>
	<path class="st3" d="M42.1,74.4c0.7,0,1.2-0.6,1.2-1.2c0-0.7-0.6-1.1-1.2-1.1c-0.7,0-1.2,0.5-1.2,1.1
		C40.9,73.9,41.4,74.4,42.1,74.4L42.1,74.4z"/>
	<path class="st3" d="M65.8,75c1.2,0,2.3-1.1,2.3-2.4c0-1.2-1.1-2.4-2.4-2.4s-2.2,1.1-2.2,2.4C63.6,73.9,64.5,75,65.8,75L65.8,75z"
		/>
	<path class="st3" d="M63,67.1c1.3,0,2.4-1.1,2.4-2.4s-1.2-2.3-2.4-2.3c-1.2,0-2.2,1-2.2,2.3C60.8,65.9,61.7,67.1,63,67.1L63,67.1z"
		/>
	<path class="st3" d="M76.6,67.7c1.3,0,2.3-1,2.3-2.2c0-1.3-1-2.1-2.3-2.1c-1.2,0-2.1,0.8-2.1,2.1C74.5,66.7,75.3,67.7,76.6,67.7
		L76.6,67.7z"/>
	<path class="st3" d="M71.8,72.2c1.2,0,2.3-1.2,2.3-2.5c0-1.2-1.1-2-2.3-2c-1.2,0-2.5,0.8-2.5,2C69.3,71,70.5,72.2,71.8,72.2
		L71.8,72.2z"/>
	<path class="st1" d="M42.7,22v-2.9h-2.9V22H42.7L42.7,22z M43.4,22.7h-4.3v-4.3h4.3V22.7L43.4,22.7z"/>
	<path class="st1" d="M69.9,19.1v-2.9h-3v2.9H69.9L69.9,19.1z M70.6,19.8h-4.2v-4.3h4.2V19.8L70.6,19.8z"/>
	<path class="st1" d="M75,35.7v-2.9h-2.9v2.9H75L75,35.7z M75.7,36.3h-4.3v-4.2h4.3V36.3L75.7,36.3z"/>
	<path class="st1" d="M58.8,39.4v-2.9h-2.9v2.9H58.8L58.8,39.4z M59.5,40.1h-4.3v-4.2h4.3V40.1L59.5,40.1z"/>
	<path class="st1" d="M50.8,38.5v-3h-2.9v3H50.8L50.8,38.5z M51.5,39.1h-4.3v-4.2h4.3V39.1L51.5,39.1z"/>
	<path class="st1" d="M34.5,43.2l1.4-2.6l-2.7-1.4l-1.3,2.6L34.5,43.2L34.5,43.2z M35,43.8l-0.2,0.3l-0.3-0.2l-3.2-1.6L31,42.2
		l0.1-0.3l1.7-3.2l0.1-0.3l0.3,0.2l3.2,1.6l0.3,0.2l-0.2,0.3L35,43.8L35,43.8z"/>
	<polygon class="st1" points="40.9,25.5 36.3,36.2 49.5,31.8 68.1,21.2 68.1,19.4 68.8,19.4 68.8,21.6 68.6,21.6 49.7,32.3 
		49.7,32.4 35.8,37 35.1,37.2 35.4,36.6 40.2,25.3 	"/>
	<polygon class="st1" points="41.5,24.2 54.4,26.2 68.1,21.6 68.3,21.6 68.4,21.7 73.9,28.3 74.2,28.8 73.6,28.9 66.2,30.3 66,29.6 
		73,28.3 68,22.4 54.6,26.8 54.4,26.8 41.4,24.8 	"/>
	<polygon class="st1" points="65.8,29.8 56.8,34.3 56.5,34.5 56.4,34.1 54.3,28.2 55,28 56.9,33.5 65.4,29.2 	"/>
	<polygon class="st1" points="50.1,32.3 56.7,32.8 56.6,33.5 50,33 	"/>
	<polygon class="st1" points="56.5,33.4 41,24.7 40.9,24.6 40.9,22.5 41.5,22.5 41.5,24.3 56.8,32.9 	"/>
	<polygon class="st1" points="68.6,21.2 66.4,28.2 65.8,28.1 68,21 	"/>
	<polygon class="st1" points="73.8,30.8 73.7,32.4 73.1,32.3 73.1,30.8 	"/>
	<polygon class="st1" points="35.5,38.7 34.7,40 34.2,39.6 34.9,38.3 	"/>
	<polygon class="st1" points="49.6,34.1 49.6,35.2 49,35.2 49,34.1 	"/>
	<polygon class="st1" points="57.5,35.1 57.5,36.3 56.9,36.3 56.9,35.1 	"/>
	<path class="st4" d="M68.3,24.2c1,0,1.7-0.7,1.7-1.7c0-0.9-0.7-1.7-1.7-1.7c-0.9,0-1.7,0.8-1.7,1.7C66.6,23.4,67.3,24.2,68.3,24.2
		L68.3,24.2z"/>
	<path class="st4" d="M49.4,34.4c1,0,1.8-0.8,1.8-1.8s-0.9-1.8-1.8-1.8c-1,0-1.8,0.8-1.8,1.8S48.4,34.4,49.4,34.4L49.4,34.4z"/>
	<path class="st4" d="M54.6,28.6c1,0,1.7-0.7,1.7-1.7c0-0.9-0.7-1.7-1.7-1.7c-0.9,0-1.7,0.8-1.7,1.7C52.9,27.9,53.7,28.6,54.6,28.6
		L54.6,28.6z"/>
	<path class="st5" d="M35.9,38.9c0.9,0,1.6-0.8,1.6-1.7c0-0.9-0.7-1.7-1.6-1.7c-1,0-1.7,0.8-1.7,1.7C34.2,38.1,35,38.9,35.9,38.9
		L35.9,38.9z"/>
	<path class="st5" d="M66.1,31.2c0.9,0,1.7-0.7,1.7-1.7c0-0.9-0.8-1.7-1.7-1.7c-1,0-1.7,0.8-1.7,1.7C64.4,30.5,65.1,31.2,66.1,31.2
		L66.1,31.2z"/>
	<path class="st3" d="M41.1,26.7c0.9,0,1.7-0.7,1.7-1.6c0-1-0.8-1.7-1.7-1.7c-1,0-1.7,0.7-1.7,1.7C39.4,25.9,40.2,26.7,41.1,26.7
		L41.1,26.7z"/>
	<path class="st3" d="M73.2,31.1c1,0,1.7-0.7,1.7-1.6c0-1-0.7-1.7-1.7-1.7c-0.9,0-1.7,0.7-1.7,1.7C71.5,30.3,72.3,31.1,73.2,31.1
		L73.2,31.1z"/>
	<path class="st3" d="M57.3,35.3c0.9,0,1.6-0.8,1.6-1.7c0-0.9-0.7-1.7-1.6-1.7c-1,0-1.7,0.8-1.7,1.7S56.3,35.3,57.3,35.3L57.3,35.3z
		"/>
	<path class="st0" d="M150.9,20.1h-1c-2.1-7.9-6.9-13.3-15.4-13.3c-9.4,0-16.2,7.3-16.2,22.5c0,15.6,9.4,20.4,17.3,20.4
		c7.5,0,11.2-3.5,15.4-9.6l1,0.8c-4.2,7.7-10,11.9-19.2,11.9c-13.3-0.2-22.5-10.2-22.5-23.3c0-13.7,9.6-25,23.7-25
		c3.7,0,6.7,0.8,10,2.3c0.4,0.4,1.2,0.8,1.9,0.8c1.7,0,2.5-1.9,2.7-3.3h1.3L150.9,20.1L150.9,20.1z"/>
	<path class="st0" d="M179.5,32.4v-9.8c0-4.6,0-5.8-5-5.8v-1h15.2v1c-5,0-5,1.2-5,5.8v22.1c0,4.6,0,6,5,6v0.8h-15.2v-0.8
		c5,0,5-1.5,5-6V34.5h-16.7v10.2c0,4.6,0,6,5.2,6v0.8h-15.4v-0.8c5.2,0,5.2-1.5,5.2-6V22.6c0-4.6,0-5.8-5.2-5.8v-1H168v1
		c-5.2,0-5.2,1.2-5.2,5.8v9.8H179.5L179.5,32.4z"/>
	<path class="st0" d="M201.9,32h7.3c4.2,0,5.8-0.4,6.2-5.2h0.8v12.5h-0.8c-0.4-4.8-1.9-5.4-6.2-5.4h-7.3V47c0,2.3,0.6,2.7,2.9,2.7
		h7.3c4.8,0,6.5-2.3,9.4-7.1h1l-3.1,9h-27.7v-0.8c5.2,0,5.2-1.5,5.2-6V22.7c0-4.6,0-5.8-5.2-5.8v-1h27.5l0.4,7.9h-1
		c-1-5.4-2.5-5.8-7.5-5.8h-9.2L201.9,32L201.9,32z"/>
	<path class="st0" d="M255,27.2h-0.8c-1.7-6.2-5.2-10.4-12.1-10.4c-7.1,0-12.5,5.6-12.5,17.5c0,12.1,7.3,15.8,13.5,15.8
		c5.6,0,8.5-2.7,11.9-7.3l0.8,0.4c-3.3,6-7.7,9.2-14.8,9.2c-10.4,0-17.5-7.9-17.5-17.9c0-10.6,7.5-19.4,18.3-19.4
		c2.9,0,5.2,0.6,7.7,1.9c0.4,0.2,1,0.4,1.7,0.4c1,0,1.9-1.2,2.1-2.5h0.8L255,27.2L255,27.2z"/>
	<path class="st0" d="M284.6,44.5c2.9,2.9,6.2,6,10.6,6.2v0.8h-17.1v-0.8c1,0,2.9-0.4,2.9-1.7c0-1.5-1.5-2.7-2.3-3.5l-12.1-11.7
		v10.8c0,4.6,0,6,5.2,6v0.8h-15.4v-0.8c5.2,0,5.2-1.5,5.2-6V22.5c0-4.6,0-5.8-5.2-5.8v-1h15.4v1c-5.2,0-5.2,1.2-5.2,5.8v10.4l9-8.1
		c1.5-1.5,5-5.2,5-6.5c0-1.7-1.5-1.7-3.3-1.7v-1h13.3v1c-3.7,0-7.1,3.3-9.6,5.6l-9.2,9.4L284.6,44.5L284.6,44.5z"/>
	<path class="st0" d="M320.4,8.9c1.7-0.4,3.3-0.6,4.8-0.6c6,0,9.6,4.6,9.6,10.4c0,5-3.1,10-7.7,10c-2.1,0-4.6-0.2-6.7-0.6L320.4,8.9
		L320.4,8.9z M320.4,29.9c2.7,0.6,5.2,1,7.9,1c12.3,0,14.4-9,14.4-12.7c0-6.9-5.6-12.9-16.5-12.9h-18.9v1.2c6.7,0,6.7,1.9,6.7,7.7
		v28.5c0,5.8,0,7.5-6.7,7.5v1.2h19.8v-1.2c-6.7,0-6.7-1.7-6.7-7.5V29.9L320.4,29.9z"/>
	<path class="st0" d="M360.2,50.5c-8.7,0-11.5-8.7-11.5-16.9c0-7.9,2.7-16.7,11.5-16.7c9,0,11.5,8.7,11.5,16.7
		C371.7,41.8,369.2,50.5,360.2,50.5L360.2,50.5z M360.2,52.4c10.6,0,17.5-8.7,17.5-18.7S370.8,15,360.2,15s-17.5,8.7-17.5,18.7
		C342.7,43.6,349.6,52.4,360.2,52.4L360.2,52.4z"/>
	<path class="st0" d="M391.2,44.7c0,4.6,0,6,5.2,6v0.8H381v-0.8c5.2,0,5.2-1.5,5.2-6V22.6c0-4.6,0-5.8-5.2-5.8v-1h15.4v1
		c-5.2,0-5.2,1.2-5.2,5.8V44.7L391.2,44.7z"/>
	<path class="st0" d="M407.7,44.7c0,4.6,0,6,5,6v0.8h-12.5v-0.8c5.2,0,5.2-1.5,5.2-6V20.5c-2.1-2.5-3.5-3.7-7.1-3.7v-1h9.6
		l21.9,26.9h0.2v-20c0-4.6,0-5.8-5.2-5.8v-1h12.5v1c-5,0-5,1.2-5,5.8v29.6h-1l-23.5-28.7l0,0v21.1L407.7,44.7L407.7,44.7z"/>
	<path class="st0" d="M456,44.7c0,4.6,0,6,5,6v0.8h-15.2v-0.8c5,0,5-1.5,5-6V18h-5.4c-4.4,0-5.8,2.7-6,6h-1l0.4-8.3h29.3l0.4,8.3h-1
		c-0.4-3.3-1.7-6-6.2-6h-5.2v26.7H456z"/>
	<path class="st0" d="M123.9,71.8h-0.6c-0.2-3.7-2.5-6.7-6.5-6.7c-1.9,0-4,1.5-4,3.5c0,4.8,12.7,5.6,12.7,12.5
		c0,3.7-2.9,6.7-7.5,6.7c-1.5,0-2.7-0.2-3.5-0.6c-1-0.2-1.7-0.6-2.5-0.6s-1,0.6-1,1.2h-0.6v-7.9h0.6c0.4,5.6,4.8,6.7,6.9,6.7
		c2.3,0,4.6-1.2,4.6-3.7c0-5.4-12.3-6-12.3-12.9c0-3.5,3.1-6.2,6.9-6.2c1.2,0,2.3,0.4,3.1,0.6c0.8,0.4,1.5,0.8,2.1,0.8
		c0.8,0,1-0.6,1-1.5h0.6V71.8L123.9,71.8z"/>
	<path class="st0" d="M134.7,72.4c4,0,5,5.2,5,8.3c0,2.3-0.6,5.8-3.7,5.8c-4,0-5-5.4-5-8.3C130.9,73.6,133,72.4,134.7,72.4
		L134.7,72.4z M135.3,71.1c-4.6,0-7.5,4.2-7.5,8.5c0,4.2,2.9,8.1,7.3,8.1c5.6,0,7.7-5,7.7-8.5C142.8,74.9,139.7,71.1,135.3,71.1
		L135.3,71.1z"/>
	<path class="st0" d="M149.9,82.8c0,2.7,0,4,2.9,4v0.6h-8.7v-0.6c2.9,0,2.9-1.3,2.9-4V73h-2.9v-1.2h2.9v-1.5c0-4,2.3-7.3,6.7-7.3
		c1.5,0,4.2,1.2,4.2,2.9c0,0.8-0.6,1.5-1.5,1.5c-1.9,0-1.7-2.9-4.2-2.9c-2.3,0-2.3,2.7-2.3,4.4v2.9h4V73h-4L149.9,82.8L149.9,82.8z"
		/>
	<path class="st0" d="M163.4,71.8V73h-3.5v9.6c0,1.5,0,2.9,1.7,2.9c0.6,0,1.5-0.6,1.7-1.2h0.8c-0.6,1.7-2.1,3.3-4,3.3
		c-1.2,0-3.1-0.8-3.1-3.7V73.1h-2.5v-0.8c2.1-0.6,3.5-2.3,4.8-5.6h0.6v5.2h3.5V71.8z"/>
	<path class="st0" d="M185.3,75.1c0-0.4,0.4-1.2,0.4-1.9c0-0.8-1-0.8-1.7-0.8v-0.6h5v0.6c-1.2,0-1.9,1.2-2.5,2.3l-5,13.1h-0.6l-4-10
		l-4.6,10h-0.6l-4.8-12.7c-0.6-1.5-0.8-2.5-2.7-2.7v-0.6h6.7v0.6c-0.8,0-1.5,0-1.5,1c0,0.4,0.2,1,0.4,1.7l3.1,8.5l3.3-7.3l-0.6-1.9
		c-0.6-1.5-1-2.1-2.7-2.1v-0.6h7.5v0.6c-0.8,0-2.1,0-2.1,1.2c0,0.4,0.2,0.6,0.2,1L182,83L185.3,75.1L185.3,75.1z"/>
	<path class="st0" d="M197.8,84.3c-0.8,0.6-2.3,1.7-3.3,1.7c-1.7,0-2.5-1.5-2.5-2.9c0-2.7,3.3-4,5.8-4.8V84.3L197.8,84.3z
		 M200.5,75.5c0-1,0-4.4-5-4.4c-4.8,0-5.8,3.1-5.8,4c0,1,0.4,1.7,1.5,1.7c1,0,1.5-0.8,1.5-2.5c0-1.2,1-2.1,2.3-2.1
		c2.7,0,2.9,2.3,2.9,5c-2.9,1.2-8.7,2.7-8.7,6.7c0,2.3,1.2,4,3.7,4c2.1,0,3.3-1.2,5-2.5c0,1.2,0.2,2.5,1.9,2.5
		c1.5,0,2.7-1.5,3.5-2.5v-1c-0.4,0.4-1.2,1.5-1.9,1.5c-0.8,0-0.8-1.2-0.8-2.7L200.5,75.5L200.5,75.5z"/>
	<path class="st0" d="M209,74.7L209,74.7c0.8-1.5,2.3-3.5,4-3.5c1,0,2.3,0.8,2.3,2.1c0,0.6-0.6,1.5-1.5,1.5c-1.2,0-1.7-1-2.5-1
		s-1.9,1.9-2.3,2.5V83c0,2.7,0,4,2.9,4v0.6h-8.1V87c1.7,0,2.5-0.4,2.5-2.3v-8.5c0-2.5-0.8-2.5-1.3-2.5c-0.4,0-0.8,0.2-1.2,0.2
		l-0.2-0.4l4.6-2.1h0.8L209,74.7L209,74.7z"/>
	<path class="st0" d="M217.1,76.5c0.2-2.1,1.7-4,3.7-4c2.5,0,3.5,1.9,3.5,4H217.1L217.1,76.5z M228,77.6c0-3.7-2.3-6.5-5.8-6.5
		c-5,0-7.3,4.2-7.3,8.5c0,5,2.9,8.1,6.7,8.1c3.5,0,5.8-2.9,6.5-6.2l-0.4-0.2c-0.8,2.3-2.3,3.7-4.8,3.7c-3.7,0-5.6-4-5.6-7.5H228
		L228,77.6L228,77.6z"/>
	<path class="st0" d="M246.1,82.8c0,3.1,0,4,3.1,4v0.6h-9.8v-0.6c3.3,0,3.3-0.8,3.3-3.8V65.7h-3.5c-2.9,0-3.7,1.7-4,4h-0.6l0.2-5.4
		h18.9l0.2,5.4h-0.6c-0.2-2.3-1-4-4-4h-3.2V82.8L246.1,82.8z"/>
	<path class="st0" d="M252.3,76.5c0.2-2.1,1.7-4,3.7-4c2.5,0,3.5,1.9,3.5,4H252.3L252.3,76.5z M263.2,77.6c0-3.7-2.5-6.5-6-6.5
		c-5,0-7.3,4.2-7.3,8.5c0,5,3.1,8.1,6.9,8.1c3.5,0,5.8-2.9,6.5-6.2l-0.6-0.2c-0.8,2.3-2.1,3.7-4.6,3.7c-3.7,0-5.6-4-5.6-7.5h10.7
		V77.6z"/>
	<path class="st0" d="M278.6,81.3c-0.6,3.3-2.9,6.5-6.5,6.5c-4,0-6.7-3.5-6.7-8.3c0-5,3.5-8.3,7.5-8.3c2.1,0,5.2,1.5,5.2,4
		c0,0.8-0.6,1.2-1.5,1.2c-1.5,0-1.9-0.6-2.1-1.9c0-1.5-0.8-2.1-2.3-2.1c-2.9,0-4.2,3.1-4.2,5.6c0,3.1,1.5,7.1,5.2,7.1
		c2.5,0,4-1.7,4.8-4L278.6,81.3L278.6,81.3z"/>
	<path class="st0" d="M294,84.5c0,1.9,0.8,2.3,2.5,2.3v0.6h-7.7v-0.6c1.7,0,2.3-0.4,2.3-2.3v-7.3c0-3.5-1.2-4-2.3-4
		c-1.7,0-2.9,1.2-4,2.3v9c0,1.9,0.8,2.3,2.3,2.3v0.6h-7.7v-0.6c1.7,0,2.5-0.4,2.5-2.3V67.6c0-2.3-0.6-2.3-1.2-2.3
		c-0.4,0-0.8,0.2-1.2,0.2l-0.2-0.4l4.8-2.1h0.8v11.5c1.9-2.1,3.3-3.3,5.2-3.3c2.9,0,4,2.7,4,5.4L294,84.5L294,84.5z"/>
	<path class="st0" d="M302.3,74.5c1.9-2.1,3.1-3.3,5.2-3.3c2.9,0,4,2.7,4,5.4v7.9c0,1.9,0.8,2.3,2.5,2.3v0.6h-7.7v-0.6
		c1.7,0,2.3-0.4,2.3-2.3v-7.3c0-3.5-1.5-4-2.5-4c-1.5,0-2.7,1.2-3.7,2.3v9c0,1.9,0.6,2.3,2.3,2.3v0.6H297v-0.6
		c1.7,0,2.5-0.4,2.5-2.3V76c0-2.5-0.8-2.5-1.2-2.5c-0.4,0-0.8,0.2-1.3,0.2l-0.2-0.4l4.8-2.1h0.8L302.3,74.5L302.3,74.5z"/>
	<path class="st0" d="M321.5,72.4c4,0,5,5.2,5,8.3c0,2.3-0.6,5.8-3.7,5.8c-4,0-5-5.4-5-8.3C317.7,73.6,319.8,72.4,321.5,72.4
		L321.5,72.4z M322.1,71.1c-4.6,0-7.5,4.2-7.5,8.5c0,4.2,2.9,8.1,7.3,8.1c5.4,0,7.7-5,7.7-8.5C329.6,74.9,326.5,71.1,322.1,71.1
		L322.1,71.1z"/>
	<path class="st0" d="M336.5,84.5c0,1.9,0.8,2.3,2.5,2.3v0.6h-7.7v-0.6c1.7,0,2.5-0.4,2.5-2.3V67.8c0-2.5-0.8-2.5-1.2-2.5
		c-0.4,0-0.8,0.2-1.2,0.2l-0.2-0.4L336,63h0.6L336.5,84.5L336.5,84.5z"/>
	<path class="st0" d="M347.3,72.4c4,0,5,5.2,5,8.3c0,2.3-0.6,5.8-3.7,5.8c-4,0-5-5.4-5-8.3C343.5,73.6,345.6,72.4,347.3,72.4
		L347.3,72.4z M347.9,71.1c-4.6,0-7.5,4.2-7.5,8.5c0,4.2,2.7,8.1,7.3,8.1c5.4,0,7.7-5,7.7-8.5C355.4,74.9,352.3,71.1,347.9,71.1
		L347.9,71.1z"/>
	<path class="st0" d="M364.8,72c2.5,0,3.3,3.1,3.3,5.4c0,0.6,0,4.2-2.9,4.2c-2.7,0-3.3-3.3-3.3-5.4C361.9,72.6,363.7,72,364.8,72
		L364.8,72z M369,72.4c-1-0.8-2.5-1.2-3.7-1.2c-4.6,0-6.5,3.3-6.5,5.8c0,2.1,1.2,3.7,3.1,4.6c-1,1-2.9,2.3-2.9,3.7
		c0,1,1,1.5,1.9,1.9l-0.8,0.8c-0.8,0.8-2.5,2.5-2.5,3.5c0,2.5,4.6,3.3,6.9,3.3c5.8,0,8.7-3.7,8.7-5.8c0-2.7-1.5-4-5.6-4
		c-5.4,0-6.2-0.2-6.2-1s0.8-1.7,1.5-2.1c0.6,0.2,1.5,0.4,2.1,0.4c4.4,0,6.5-2.7,6.5-5.4c0-0.8-0.4-2.3-0.8-3.1h2.3
		c0.6,0,0.8-0.2,0.8-0.8c0-0.4-0.2-0.6-0.8-0.6L369,72.4L369,72.4z M361.7,87.4c1.2,0.2,4.8,0.4,5.8,0.4c1.7,0,4.4,0,4.4,1.7
		c0,1.5-1.7,3.3-6,3.3c-3.3,0-5.6-1-5.6-2.5C360.2,89.3,361,88.2,361.7,87.4L361.7,87.4z"/>
	<path class="st0" d="M379.8,84.5c0,1.9,0.8,2.3,2.5,2.3v0.6h-7.7v-0.6c1.7,0,2.5-0.4,2.5-2.3V76c0-2.5-0.8-2.5-1.2-2.5
		c-0.4,0-0.8,0.2-1.3,0.2l-0.2-0.4l4.6-2.1h0.8L379.8,84.5L379.8,84.5z M378.3,63c1,0,1.9,0.8,1.9,1.9c0,0.8-0.8,1.7-1.9,1.7
		c-0.8,0-1.7-0.8-1.7-1.7C376.7,63.8,377.5,63,378.3,63L378.3,63z"/>
	<path class="st0" d="M386.7,77.6c0,3.5,1.9,7.5,5.6,7.5c2.5,0,4-1.5,4.8-3.7l0.4,0.2c-0.6,3.3-2.9,6.2-6.5,6.2
		c-3.7,0-6.7-3.1-6.7-8.1c0-4.4,2.3-8.5,7.1-8.5c3.7,0,6,2.7,6,6.5h-10.7L386.7,77.6L386.7,77.6z M393.9,76.5c0-2.1-1-4-3.5-4
		c-2.1,0-3.5,1.9-3.7,4H393.9L393.9,76.5z"/>
	<path class="st0" d="M409.1,76.5h-0.6c-0.4-2.3-1.5-4.4-4.2-4.4c-1.2,0-2.7,0.8-2.7,2.3c0,3.7,8.7,3.3,8.7,8.7
		c0,2.9-2.7,4.6-5.4,4.6c-1,0-2.1-0.2-3.1-0.4c-0.2-0.2-0.6-0.2-0.8-0.2c-0.4,0-0.6,0.2-0.6,0.4h-0.6v-5.6h0.6
		c0.2,2.5,2.1,4.8,4.8,4.8c1.5,0,2.7-0.8,2.7-2.3c0-4.2-8.1-3.5-8.1-8.5c0-2.9,2.1-4.8,4.8-4.8c0.8,0,1.2,0.2,2.1,0.4
		c0.4,0.2,0.8,0.2,1.2,0.2c0.4,0,0.6-0.2,0.6-0.6h0.6V76.5L409.1,76.5z"/>
	<path class="st0" d="M427.5,82.8c0,1.7,0,3.1,1.7,3.1h5.2c2.7,0,4.4-1.2,5.8-5l0.6,0.2l-1.9,6.2H421v-0.6c3.1,0,3.1-0.8,3.1-3.8
		V68.5c0-2.9,0-3.7-3.1-3.7v-0.6h10.4v0.6c-4,0-4,1-4,4.2L427.5,82.8L427.5,82.8z"/>
	<path class="st0" d="M450.2,71.8V73h-3.7v9.6c0,1.5,0,2.9,1.7,2.9c0.8,0,1.7-0.6,1.9-1.2h0.6c-0.6,1.7-2.1,3.3-4,3.3
		c-1,0-2.9-0.8-2.9-3.7V73.1h-2.5v-0.8c1.9-0.6,3.5-2.3,4.8-5.6h0.4v5.2h3.7V71.8z"/>
	<path class="st0" d="M463.5,84.5c-0.8,0.8-1.9,1.5-2.9,1.5c-2.7,0-4.8-2.7-4.8-7.1c0-5.4,2.9-6.7,4.2-6.7c2.3,0,3.5,2.5,3.5,4.6
		V84.5L463.5,84.5z M463.5,72.6c-0.8-1-2.3-1.5-3.5-1.5c-4.4,0-7.5,4.8-7.5,9c0,3.7,2.3,7.7,6.5,7.7c1.9,0,3.3-0.8,4.6-2.3v2.3h0.8
		l4.6-1.9l-0.2-0.6c-0.2,0.2-0.8,0.2-1,0.2c-0.6,0-1.3,0-1.3-2.3V63h-0.8l-4.8,2.1l0.2,0.4c0.4,0,0.8-0.2,1.2-0.2s1.2,0,1.2,2.3
		V72.6L463.5,72.6z"/>
	<path class="st0" d="M470.6,85.9c0-1,0.8-1.9,1.9-1.9c1,0,1.9,0.8,1.9,1.9c0,1-0.8,1.9-1.9,1.9S470.6,87,470.6,85.9L470.6,85.9z"/>
	<path class="st0" d="M473.7,16.8h1c0.6,0,1,0.4,1,1h0.2l-0.2-1.5h-5.2v1.5h0.2c0-0.6,0.2-1,1-1h1v4.6c0,0.8,0,1-1,1v0.2h2.7v-0.2
		c-0.8,0-0.8-0.2-0.8-1L473.7,16.8L473.7,16.8z"/>
	<path class="st0" d="M477.7,17.4L477.7,17.4v4c0,0.8,0,1,1,1v0.2h-2.3v-0.2c0.8,0,0.8-0.2,0.8-1v-4c0-0.6,0-1-0.8-1l0,0h1.9l2.3,5
		l2.3-5h1.7l0,0c-0.8,0-0.8,0.4-0.8,1v4c0,0.8,0,1,0.8,1v0.2h-2.7v-0.2c1,0,1-0.2,1-1v-4l0,0l-2.5,5.2h-0.2L477.7,17.4L477.7,17.4z"
		/>
</g>
</svg>
