<?xml version="1.0" encoding="utf-8"?>
<!-- Generator: Adobe Illustrator 28.3.0, SVG Export Plug-In . SVG Version: 6.00 Build 0)  -->
<svg version="1.1" id="Layer_1" xmlns="http://www.w3.org/2000/svg" xmlns:xlink="http://www.w3.org/1999/xlink" x="0px" y="0px"
	 viewBox="0 0 531 284" style="enable-background:new 0 0 531 284;" xml:space="preserve">
<style type="text/css">
	.st0{fill:#939598;}
</style>
<g id="Hilfslinien">
</g>
<g id="Vordergrund">
	<polygon class="st0" points="514.5,266.7 514.5,268.2 510.5,268.2 510.5,278.7 508.8,278.7 508.8,268.2 504.7,268.2 504.7,266.7 	
		"/>
	<polygon class="st0" points="515.4,266.7 518,266.7 521.6,276.6 521.7,276.6 525.1,266.7 527.7,266.7 527.7,278.7 526,278.7 
		526,268.9 525.9,268.9 522.3,278.7 520.7,278.7 517.2,268.9 517.1,268.9 517.1,278.7 515.4,278.7 	"/>
	<rect x="152" y="187.7" class="st0" width="23" height="91"/>
	<path class="st0" d="M360.2,213.8c-0.9-0.5-8.3-4.9-19.3-4.9c-14.8,0-25.1,10.4-25.1,24.3c0,13.5,9.9,24.3,25.1,24.3
		c10.8,0,18.4-4.3,19.3-4.8v24.4c-2.9,0.8-10.7,3.2-20.9,3.2c-25.8,0-48.5-17.8-48.5-47.1c0-27.2,20.5-47.1,48.5-47.1
		c10.8,0,18.8,2.6,20.9,3.3V213.8z"/>
	<path class="st0" d="M120.4,213.8c-0.9-0.5-8.3-4.9-19.3-4.9c-14.9,0-25.2,10.4-25.2,24.3c0,13.5,9.9,24.3,25.2,24.3
		c10.8,0,18.3-4.3,19.3-4.8v24.4c-2.9,0.8-10.7,3.2-21,3.2c-25.8,0-48.5-17.8-48.5-47.1c0-27.2,20.5-47.1,48.5-47.1
		c10.8,0,18.8,2.6,21,3.3V213.8z"/>
	<path class="st0" d="M480.5,233.2c0,26-20.1,47.1-48.1,47.1s-48.1-21.1-48.1-47.1s20.1-47.1,48.1-47.1S480.5,207.2,480.5,233.2z
		 M432.4,209.3c-13.6,0-23.8,10.7-23.8,23.9s10.1,24,23.8,24c13.6,0,23.7-10.7,23.7-24C456.2,220,446,209.3,432.4,209.3z"/>
	<path class="st0" d="M262.1,208.4c-0.3-0.1-10-2.8-18-2.8c-9.2,0-14.2,3.1-14.2,7.4c0,5.6,6.8,7.5,10.5,8.7l6.4,2
		c14.9,4.7,21.7,15,21.7,26c0,22.9-20.1,30.6-37.7,30.6c-12.2,0-23.7-2.2-24.8-2.5v-20.9c2.1,0.5,11.7,3.4,21.7,3.4
		c11.4,0,16.7-3.3,16.7-8.5c0-4.6-4.6-7.3-10.3-9.1c-1.4-0.5-3.5-1.1-4.9-1.6c-12.8-4-23.5-11.5-23.5-26.6c0-17,12.8-28.5,33.9-28.5
		c11.2,0,21.7,2.7,22.4,2.9v19.5L262.1,208.4L262.1,208.4z"/>
	<path class="st0" d="M26.6,89.8c0-6.3-5.1-11.3-11.4-11.3S3.8,83.6,3.8,89.8v23.9c0,6.3,5.1,11.4,11.4,11.4s11.4-5.1,11.4-11.4
		V89.8z"/>
	<path class="st0" d="M89.3,58.5c0-6.3-5.1-11.4-11.4-11.4s-11.4,5.1-11.4,11.4v55.3c0,6.3,5.1,11.4,11.4,11.4s11.4-5.1,11.4-11.4
		V58.5z"/>
	<path class="st0" d="M151.9,15.6c0-6.3-5.1-11.4-11.4-11.4c-6.3,0-11.4,5.1-11.4,11.4v120.9c0,6.3,5.1,11.4,11.4,11.4
		c6.3,0,11.4-5.1,11.4-11.4V15.6z"/>
	<path class="st0" d="M214.5,58.5c0-6.3-5.1-11.4-11.4-11.4c-6.3,0-11.4,5.1-11.4,11.4v55.3c0,6.3,5.1,11.4,11.4,11.4
		c6.3,0,11.4-5.1,11.4-11.4V58.5z"/>
	<path class="st0" d="M277.1,89.8c0-6.3-5.1-11.3-11.3-11.3c-6.3,0-11.4,5.1-11.4,11.3v23.9c0,6.3,5.1,11.4,11.4,11.4
		c6.2,0,11.3-5.1,11.3-11.4V89.8z"/>
	<path class="st0" d="M339.8,58.5c0-6.3-5.1-11.4-11.4-11.4s-11.3,5.1-11.3,11.4v55.3c0,6.3,5.1,11.4,11.3,11.4
		c6.3,0,11.4-5.1,11.4-11.4V58.5z"/>
	<path class="st0" d="M402.5,15.6c0-6.3-5.1-11.4-11.4-11.4s-11.4,5.1-11.4,11.4v120.9c0,6.3,5.1,11.4,11.4,11.4s11.4-5.1,11.4-11.4
		V15.6z"/>
	<path class="st0" d="M465.1,58.5c0-6.3-5.1-11.4-11.5-11.4c-6.3,0-11.3,5.1-11.3,11.4v55.3c0,6.3,5.1,11.4,11.3,11.4
		c6.4,0,11.5-5.1,11.5-11.4V58.5z"/>
	<path class="st0" d="M527.7,89.8c0-6.3-5.1-11.3-11.3-11.3c-6.3,0-11.4,5.1-11.4,11.3v23.9c0,6.3,5.1,11.4,11.4,11.4
		c6.3,0,11.3-5.1,11.3-11.4V89.8z"/>
</g>
</svg>
