<?xml version="1.0" encoding="utf-8"?>
<!-- Generator: Adobe Illustrator 28.3.0, SVG Export Plug-In . SVG Version: 6.00 Build 0)  -->
<svg version="1.1" id="Layer_1" xmlns="http://www.w3.org/2000/svg" xmlns:xlink="http://www.w3.org/1999/xlink" x="0px" y="0px"
	 viewBox="0 0 2447.1 988.2" style="enable-background:new 0 0 2447.1 988.2;" xml:space="preserve">
<style type="text/css">
	.st0{fill-rule:evenodd;clip-rule:evenodd;fill:#939598;}
</style>
<g>
	<path class="st0" d="M719.7,236v134.9h117.7v381.5h154.1V370.9h117.7V236H719.7z M1441.6,546.7c59.2-20.1,96.4-75.2,96.4-146.2
		c0-48.1-14.4-86.9-42.9-115.4c-32.1-32.1-80.9-49.1-141-49.1H1151v516.5h154.9V598.1l98.4,154.3h195.2L1441.6,546.7L1441.6,546.7z
		 M1305.9,362c20,0.1,46.9,2.2,60.8,16.1c7,7,10.4,16.9,10.4,30.2c0,32.4-20.8,45.8-71.2,46.2L1305.9,362L1305.9,362z M1777.4,752.4
		V235.7h-153.5v516.7H1777.4z M2190.8,473.7l170.9-237.4h-190l-70.9,109.4l-61.3-109.4H1850l158.7,236.5l-206.8,279.6h187.4
		l109.1-152.1l86.2,152.1h185.6L2190.8,473.7L2190.8,473.7z M522.9,235.7v516.7h154.9V235.7H522.9z"/>
	<path class="st0" d="M600.3,204.4c53.7,0,97.2-43.5,97.2-97.2S654,10,600.3,10l0,0c-53.7,0-97.2,43.5-97.2,97.2
		C503.2,160.9,546.7,204.4,600.3,204.4z M1701.4,978.1c53.7,0,97.2-43.4,97.2-97.1s-43.4-97.2-97.1-97.2h-0.1
		c-53.7,0-97.1,43.6-97.1,97.2C1604.3,934.7,1647.8,978.1,1701.4,978.1z"/>
	<path class="st0" d="M394.4,549.4c-23,38-68,62.5-113.6,62.5c-65.1,0-112.8-52.7-112.8-117.8c0-65.1,47.7-117.8,112.8-117.8
		c45.6,0,90.7,24.5,113.6,62.5L475.8,307c-49.2-51.3-118.3-83.4-195.1-83.4c-149.4,0-270.5,121.1-270.5,270.5
		s121.1,270.5,270.5,270.5c76.7,0,145.8-32.1,195.1-83.4L394.4,549.4L394.4,549.4z M2395.2,256.5c0-11.5,9.3-20.8,20.8-20.7
		c11.4,0,20.7,9.3,20.7,20.7c-0.4,11.5-10,20.5-21.5,20.1C2404.3,276.2,2395.6,267.4,2395.2,256.5z M2416,274.5c9.9,0,18-8.1,18-18
		s-8.1-18-18-18s-18,8.1-18,18C2398,266.5,2406,274.5,2416,274.5z M2419.7,257.2c2.6-0.4,5.6-1.7,5.6-5.6c0-5.4-4.9-6.6-9.8-6.6
		h-7.7v22.8h3.7v-9h4c4.2,0,5.7,1.3,5.7,6.1c0,1.3,0.1,2,0.3,2.9h3.7c-0.3-0.5-0.4-2.2-0.4-3.8
		C2424.9,260,2423.1,257.9,2419.7,257.2L2419.7,257.2z M2411.6,256.1v-8.3h4c3.6,0,5.8,1.3,5.8,3.9c0,3-2,4.5-5.8,4.5h-4V256.1z"/>
</g>
</svg>
