<?xml version="1.0" encoding="utf-8"?>
<!-- Generator: Adobe Illustrator 28.3.0, SVG Export Plug-In . SVG Version: 6.00 Build 0)  -->
<svg version="1.1" id="Layer_1" xmlns="http://www.w3.org/2000/svg" xmlns:xlink="http://www.w3.org/1999/xlink" x="0px" y="0px"
	 viewBox="0 0 535.3 65.9" style="enable-background:new 0 0 535.3 65.9;" xml:space="preserve">
<style type="text/css">
	.st0{fill-rule:evenodd;clip-rule:evenodd;fill:#939598;}
</style>
<g>
	<polygon class="st0" points="112.3,54.8 112.3,52.3 113.3,52.3 113.3,52 111,52 111,52.3 112,52.3 112,54.8 	"/>
	<polygon class="st0" points="116.2,54.8 116.5,54.8 116.5,52 115.9,52 115.1,54.3 114.3,52 113.7,52 113.7,54.8 114,54.8 114,52.3 
		115,54.8 115.3,54.8 116.2,52.3 	"/>
	<path class="st0" d="M71.5,44.7c-6.8,0-14.5-0.5-19.5-6.2c-0.4-0.5,0.2-1.1,0.7-0.7c8.5,7.7,31.6,4.8,36.8-3.3
		c4.3-6.6,1.6-11.9-3.3-16.7c-5.3-5.1-13.4-9.4-29.5-14c-0.6-0.2-0.5-0.8,0-0.9c0.8-0.1,2-0.4,3.8-0.5C119-0.8,108.3,44.7,71.5,44.7
		L71.5,44.7L71.5,44.7z"/>
	<path class="st0" d="M9.8,17.9C21.9,3.6,45.1,3.7,62.9,9.1c17.4,5.3,31.3,16.6,21.9,25.1c-3.5,3.2-8.2,6.3-19.9,5.7
		c-0.7,0-0.6-1,0-1c17.8,0,23.2-11.7,12.9-17.7c-9.2-5.4-19.7-6.9-30.3-7C36.2,14,24.9,15.5,9.2,20.5c-0.4,0.1-0.8-0.2-0.6-0.6
		c0.1-0.2,0.2-0.5,0.3-0.8C9.1,18.8,9.4,18.4,9.8,17.9L9.8,17.9L9.8,17.9z"/>
	<path class="st0" d="M10,48.9C-8.3,36,4.3,25.3,22.1,20.1c18-5.3,42.9-5.6,51.9,2.5c3.5,3.1,6.7,7.1-0.5,12.4
		c-0.5,0.4-1.1-0.3-0.6-0.8c7.7-6.8-6.5-16.2-24.1-14.3c-13.7,1.5-21.4,5.4-26.9,10c-5.8,4.9-9,10.7-8.5,20c0,0.4-0.3,0.6-0.7,0.5
		c-0.3-0.1-0.7-0.3-1.2-0.5C11.1,49.6,10.6,49.3,10,48.9L10,48.9L10,48.9z"/>
	<path class="st0" d="M49.9,21.8c6.8,0,14.5,0.5,19.5,6.2c0.4,0.5-0.2,1.1-0.7,0.7C60.2,21,37.1,23.9,31.9,32
		c-4.3,6.6-1.6,11.9,3.3,16.7c5.3,5.1,13.4,9.4,29.5,14c0.6,0.2,0.5,0.8,0,0.9c-0.8,0.1-2,0.4-3.8,0.5C2.5,67.4,13.2,21.9,49.9,21.8
		L49.9,21.8L49.9,21.8z"/>
	<path class="st0" d="M111.7,48.6c-12.1,14.3-35.3,14.2-53.1,8.8c-17.4-5.3-31.3-16.6-21.9-25.1c3.5-3.2,8.2-6.3,19.9-5.7
		c0.7,0,0.6,1,0,1c-17.8,0-23.2,11.7-12.9,17.7c9.2,5.4,19.7,6.9,30.3,7c11.3,0.2,22.6-1.3,38.3-6.3c0.4-0.1,0.8,0.2,0.6,0.6
		c-0.1,0.2-0.2,0.5-0.3,0.8C112.4,47.8,112.1,48.2,111.7,48.6L111.7,48.6L111.7,48.6z"/>
	<path class="st0" d="M111.5,17.7c18.3,12.9,5.7,23.6-12.1,28.8c-18,5.3-42.9,5.6-51.9-2.5c-3.5-3.1-6.7-7.1,0.5-12.4
		c0.5-0.4,1.1,0.3,0.6,0.8c-7.7,6.8,6.5,16.2,24.1,14.3c13.7-1.5,21.4-5.4,26.9-10c5.8-4.9,9-10.7,8.5-20c0-0.4,0.3-0.6,0.7-0.5
		c0.3,0.1,0.7,0.3,1.2,0.5C110.4,17,110.9,17.3,111.5,17.7L111.5,17.7L111.5,17.7z"/>
	<path class="st0" d="M165.8,31.1h18c1.9-11.6-6-18.1-23-18.1c-18.1,0-28.9,7.3-31.8,21.4c-3,14,4.7,21.4,22.8,21.4
		c16.2,0,26.6-5.9,30.6-17h-18.2c-1.9,4.4-5.4,6.6-10.2,6.6c-6.7,0-9.6-3.8-8.1-10.9s6-11,12.7-11C163.8,23.4,166.3,26.1,165.8,31.1
		L165.8,31.1L165.8,31.1z"/>
	<path class="st0" d="M202.3,31.6l1.5-7.2h8.8c4.6,0,6.8,0.4,6.2,3.5c-0.6,2.9-3,3.7-7.3,3.7H202.3L202.3,31.6L202.3,31.6z
		 M221,14.1h-30.9l-8.6,40.6h16l2.6-12.4h9.4c3.9,0,5.1,1,4.8,4c-0.3,3.4-1.5,6.4-0.7,8.3H231l0.1-0.6c-1.7-1-1-4.3,0-10.1
		c0.8-4.6,0.7-6.9-3.2-8.7c4.6-1.6,7.9-5.5,8.9-10.3c0.8-3.9-0.1-7-2.8-8.8C231.7,14.6,227.4,14.1,221,14.1L221,14.1L221,14.1z"/>
	<polygon class="st0" points="233.4,54.6 277.8,54.6 280,44.2 251.4,44.2 252.5,38.9 274.6,38.9 276.7,28.8 254.7,28.8 255.7,24 
		282.9,24 285.1,14.1 242.1,14.1 	"/>
	<path class="st0" d="M279.8,42.3c-1.7,8.6,5.3,13.6,20.7,13.6c18.7,0,28.5-4.3,30.7-14.4c1.4-6.7-2.2-10.6-10.9-11.9l-13.9-2
		c-3.9-0.6-5.8-1.1-5.4-2.9c0.3-1.6,2.5-2.7,6.2-2.7c4.9,0,7.2,1.4,7.1,3.9h18.3c1.2-9-6.3-12.9-22.8-12.9c-15.8,0-24.2,3.8-26.1,13
		c-1.5,6.8,2.6,10.9,12.1,12.1l11.4,1.5c3.7,0.4,5.3,1.5,4.9,3.2c-0.4,2-2.8,2.9-7,2.9c-4.3,0-6.5-1.3-6.4-3.4L279.8,42.3
		L279.8,42.3L279.8,42.3z"/>
	<polygon class="st0" points="339.1,54.6 354.8,54.6 361.3,24.4 376,24.4 378.2,14.1 333.1,14.1 330.9,24.4 345.5,24.4 	"/>
	<path class="st0" d="M391.8,31.6l1.5-7.2h8.8c4.6,0,6.8,0.4,6.2,3.5c-0.6,2.9-3,3.7-7.3,3.7H391.8L391.8,31.6L391.8,31.6z
		 M410.5,14.1h-30.9L371,54.7h16l2.6-12.4h9.4c3.9,0,5.1,1,4.8,4c-0.3,3.4-1.5,6.4-0.7,8.3h17.5l0.1-0.6c-1.7-1-1-4.3,0-10.1
		c0.8-4.6,0.7-6.9-3.2-8.7c4.6-1.6,7.9-5.5,8.9-10.3c0.8-3.9-0.1-7-2.8-8.8C421.3,14.6,416.9,14.1,410.5,14.1L410.5,14.1L410.5,14.1
		z"/>
	<path class="st0" d="M423.7,34.4c-3,14,4.7,21.4,22.8,21.4c18.1,0,28.9-7.3,31.8-21.4c3-14-4.7-21.4-22.8-21.4
		C437.5,13,426.7,20.3,423.7,34.4L423.7,34.4L423.7,34.4z M440.1,34.4c1.5-7.1,6-11,12.7-11s9.6,3.9,8.1,11s-6,10.9-12.7,10.9
		C441.4,45.3,438.6,41.4,440.1,34.4L440.1,34.4L440.1,34.4z"/>
	<polygon class="st0" points="475.6,54.6 490.4,54.6 495.4,30.9 507.4,54.6 525.1,54.6 533.7,14.1 518.5,14.1 513.5,37.4 
		502.8,14.1 484.2,14.1 	"/>
</g>
</svg>
