<?xml version="1.0" encoding="utf-8"?>
<!-- Generator: Adobe Illustrator 28.3.0, SVG Export Plug-In . SVG Version: 6.00 Build 0)  -->
<svg version="1.1" id="svg3255" xmlns:svg="http://www.w3.org/2000/svg"
	 xmlns="http://www.w3.org/2000/svg" xmlns:xlink="http://www.w3.org/1999/xlink" x="0px" y="0px" viewBox="0 0 1024 348"
	 style="enable-background:new 0 0 1024 348;" xml:space="preserve">
<style type="text/css">
	.st0{fill:#939598;}
</style>
<path id="path369" class="st0" d="M273.1,338.1l34.5-50H169.1c0,0-5.2,0.6-6.7-4.6c-1.4-5.2,1.5-8.1,1.5-8.1L207,215h-66.9l0,0
	l-50.9,68.6c0,0-9.1,15.3-9.8,28.9c-0.6,13.6,10.2,24.4,23.8,25.7h169.9L273.1,338.1L273.1,338.1z M654.7,337.6L738,215.7h142.3l0,0
	l-39.4,55.2h-76.2l-46.1,66.7L654.7,337.6L654.7,337.6z M804.9,116.3h209.2l-38.5,53.9h-207L804.9,116.3z M563.4,337.6l83.2-121.9
	h62.6l-82,121.9H563.4z M712.7,116.3h65.1L741,170.2h-64.6L712.7,116.3z M554.3,337.6l-15.8-76.9c0,0,32.2-6.8,52.8-24.3
	c15.3-13,37.2-61.8,37.2-61.8s3.6-11.1,4.4-21.7c0.9-10.6-5.4-22.9-7.9-26.5c-8.3-11.7-22.3-9.7-22.3-9.7H450.3l-35,53h133
	c0,0,5.8-0.9,10.2,3.5s4,8.8,4,11s-7.5,15-12.4,20.8c-4.9,5.7-14.2,9.7-17.8,10.6c-3.6,0.9-7.5,0.9-7.5,0.9h-60.7l25.1,121.1H554.3z
	 M299.6,337.6L383,215.7h63.6l-79.5,121.9H299.6z M425.8,116.6l-36.9,53.9H176.1c0,0,11.7-18.3,34.9-35.1s48.9-19.4,48.9-19.4
	L425.8,116.6z"/>
<path id="path371" class="st0" d="M126,74.5c20.2-6.9,28.6-10.6,39.8,1.2c11.1,11.8,16.8,27.2,16.8,27.2s-9.6,9.5-25.1,15.2
	c-10.2,3.7-22.8,5.4-22.8,5.4s3-10.7,6.3-19.6c3.2-8.9,12.8-29.5,12.8-29.5l-9.8-1.1c0,0-11.5,15.4-20.6,36.5
	c-6.9,16.2-11,34.3-11,34.3s35.8-4,56.6-10.7c20.7-6.7,36.1-12.7,40.1-17.1s11.3-14.8,16.1-41.7c4-22.9-3.1-39.1-3.1-39.1
	s-2.6-1.2-13.3,3.5c-2.1,0.9-3.9,1.9-5.6,2.9c-3.5,2.1-8,6.5-10.4,9.8c3.4,7.2,6.8,18.5,4.1,28.5c-11.9-18-22.5-27.5-32.2-30.8
	c-14.2-4.7-21.6-2.4-50.4,10.5c-25.1,11.2-71.1,38-94.5,52.4c-5.9,3.7-9.9,6.1-9.9,6.1S104.3,82,126,74.5z M172.4,46.8
	c0,0,8.4-8.6,24.2-17.3C214.8,19.5,242,9.9,242,9.9s-21.8,4-51.2,17.8c-10.9,5.2-25.2,16.8-25.2,16.8L172.4,46.8z"/>
</svg>
