<?xml version="1.0" encoding="utf-8"?>
<!-- Generator: Adobe Illustrator 28.3.0, SVG Export Plug-In . SVG Version: 6.00 Build 0)  -->
<svg version="1.1" id="Layer_1" xmlns="http://www.w3.org/2000/svg" xmlns:xlink="http://www.w3.org/1999/xlink" x="0px" y="0px"
	 viewBox="0 0 1039.6 140" style="enable-background:new 0 0 1039.6 140;" xml:space="preserve">
<style type="text/css">
	.st0{fill:#939598;}
</style>
<g>
	<path class="st0" d="M404.5,15.2V11l-1.4-1.4h-71.6l-1.4,1.4v4.2l1.4,1.4h30.3l1.4,1.4v87.9l1.4,1.4h5.5l1.4-1.4V18l1.4-1.4h30.3
		L404.5,15.2z M441.6,68.3h-41.3l-1.4-1.4c0-9.8,5.5-23.7,22-23.7s22,13.9,22,23.7L441.6,68.3z M449.8,75.2l1.4-1.4v-4.2
		c0-19.5-11-33.5-30.3-33.5s-30.3,14-30.3,33.5v2.8c0,19.5,9.6,36.3,31.7,36.3c19.3,0,26.1-12.6,27.5-20.9l-1.4-1.4h-5.5l-1.4,1.4
		c-2.7,8.4-8.3,14-19.3,14c-17.9,0-23.4-16.7-23.4-25.1l1.4-1.4L449.8,75.2L449.8,75.2z M465,72.4c0-19.5,9.6-29.3,23.4-29.3
		c13.8,0,19.3,8.4,20.6,16.7l1.4,1.4h5.5l1.4-1.4c-1.4-13.9-12.4-23.7-28.9-23.7c-17.9,0-31.6,11.2-31.6,36.3
		c0,25.1,13.8,36.3,31.6,36.3c16.5,0,27.5-9.8,28.9-23.7l-1.4-1.4h-5.5L509,85c-1.4,8.4-6.9,16.7-20.6,16.7
		C474.6,101.7,465,92,465,72.4 M583.3,105.9V64c0-18.1-9.6-27.9-24.8-27.9c-9.6,0-17.9,4.2-22,11.2h-1.4V11l-1.4-1.4h-5.5l-1.4,1.4
		v94.9l1.4,1.4h5.5l1.4-1.4V68.3c0-15.4,6.9-25.1,22-25.1c11,0,17.9,7,17.9,20.9V106l1.4,1.4h5.5L583.3,105.9z M653.5,105.9V64
		c0-18.1-9.6-27.9-24.8-27.9c-9.6,0-17.9,4.2-22,11.2h-1.4l-1.4-8.4l-1.4-1.4h-4.1l-1.4,1.4v67l1.4,1.4h5.5l1.4-1.4V68.3
		c0-15.4,6.9-25.1,22-25.1c11,0,17.9,7,17.9,20.9V106l1.4,1.4h5.5L653.5,105.9z M693.4,108.7c17.9,0,31.7-12.6,31.7-36.3
		c0-23.7-13.8-36.3-31.7-36.3s-31.7,12.6-31.7,36.3C661.8,96.2,675.5,108.7,693.4,108.7 M693.4,43.2c13.8,0,23.4,11.2,23.4,29.3
		c0,18.1-9.6,29.3-23.4,29.3c-13.8,0-23.4-11.2-23.4-29.3C670,54.3,679.7,43.2,693.4,43.2 M743,105.9V11l-1.4-1.4h-5.5l-1.4,1.4
		v94.9l1.4,1.4h5.5L743,105.9z M784.3,108.7c17.9,0,31.7-12.6,31.7-36.3c0-23.7-13.8-36.3-31.7-36.3s-31.7,12.6-31.7,36.3
		C752.6,96.2,766.4,108.7,784.3,108.7 M784.3,43.2c13.8,0,23.4,11.2,23.4,29.3c0,18.1-9.6,29.3-23.4,29.3
		c-13.8,0-23.4-11.2-23.4-29.3C760.9,54.3,770.5,43.2,784.3,43.2 M873.7,97.6c0,18.1-4.1,32.1-20.6,32.1c-12.4,0-16.5-5.6-17.9-12.6
		l-1.4-1.4h-5.5l-1.4,1.4c1.4,11.2,9.6,19.5,26.1,19.5c17.9,0,28.9-11.2,28.9-39.1V38.9l-1.4-1.4h-4.1l-1.4,1.4l-1.4,8.4h-1.4
		c-2.8-5.6-9.6-11.2-22-11.2c-19.3,0-28.9,15.3-28.9,36.3c0,20.9,9.6,36.3,28.9,36.3c12.4,0,19.3-5.6,22-11.2h1.5L873.7,97.6
		L873.7,97.6z M851.7,101.7c-13.8,0-22-9.8-22-29.3s8.3-29.3,22-29.3c13.8,0,22,9.8,22,29.3C873.7,92,865.5,101.7,851.7,101.7
		 M904,25v-8.4l-1.4-1.4h-5.5l-1.4,1.4V25l1.4,1.4h5.5L904,25z M904,105.9v-67l-1.4-1.4h-5.5l-1.4,1.4v67l1.4,1.4h5.5L904,105.9z
		 M964.6,68.3h-41.3l-1.4-1.4c0-9.8,5.5-23.7,22-23.7s22,13.9,22,23.7L964.6,68.3z M972.8,75.2l1.4-1.4v-4.2
		c0-19.5-11-33.5-30.3-33.5s-30.3,14-30.3,33.5v2.8c0,19.5,9.6,36.3,31.7,36.3c19.3,0,26.1-12.6,27.5-20.9l-1.4-1.4h-5.5l-1.4,1.4
		c-2.8,8.4-8.3,14-19.3,14c-17.9,0-23.4-16.7-23.4-25.1l1.4-1.4L972.8,75.2L972.8,75.2z M1032,89.2c0-12.6-6.9-18.1-20.7-20.9
		c-13.8-2.8-22-4.2-22-14c0-7,5.5-11.2,15.1-11.2c12.4,0,16.5,5.6,16.5,12.6l1.4,1.4h5.5l1.4-1.4c0-13.9-11-19.5-24.8-19.5
		c-15.1,0-23.4,8.4-23.4,18.1c0,11.2,8.3,16.7,22,19.5c13.8,2.8,20.6,4.2,20.6,15.3c0,7-4.1,12.6-17.9,12.6
		c-12.4,0-17.9-7-17.9-15.3l-1.4-1.4h-5.5l-1.4,1.4c0,12.6,9.6,22.3,26.1,22.3C1023.7,108.7,1032,100.4,1032,89.2"/>
	<path class="st0" d="M25.6,87.9V29.1h17.2c14.5,0,26.3,13.2,26.3,29.4S57.3,87.9,42.8,87.9H25.6z M42.8,107.3
		c22.4,0,41.3-15.5,46.6-36.5l54.5,43.2l54.5-43.1v36.4h62.2V87.9h-40.3V9.6h-21.9v36.5l-52.3,41.4l-11.7-9.3l25-19.8l27.2-21.6
		L171,24.5l-52.2,41.4l-11.7-9.3l52.3-41.4L143.8,2.9L89.3,46.1c-5.4-21-24.2-36.5-46.6-36.5H3.6v97.7H42.8z M330.2,87.9v19.4H268
		V9.6h21.9v78.3L330.2,87.9L330.2,87.9z"/>
</g>
</svg>
