<?xml version="1.0" encoding="utf-8"?>
<!-- Generator: Adobe Illustrator 28.3.0, SVG Export Plug-In . SVG Version: 6.00 Build 0)  -->
<svg version="1.1" id="Layer_1" xmlns="http://www.w3.org/2000/svg" xmlns:xlink="http://www.w3.org/1999/xlink" x="0px" y="0px"
	 viewBox="0 0 473.3 77.9" style="enable-background:new 0 0 473.3 77.9;" xml:space="preserve">
<style type="text/css">
	.st0{fill:#939598;}
	.st1{fill:#B5B4B6;}
</style>
<g>
	<path class="st0" d="M57,21.6h0.3l-0.2-0.1l10.4-10.4v-0.2C58.7,3.2,46.6,0.5,35.3,3.8c-11.2,3.4-19.9,12.3-23,23.6
		c0.2-0.1,0.4-0.1,0.6-0.2c3.9-2.6,8.5-4,13.3-4c1.6,0,3.2,0.2,4.8,0.5c0.1,0,0.2-0.1,0.2-0.1C38.1,16.1,49.4,15.3,57,21.6L57,21.6
		L57,21.6z"/>
	<path class="st0" d="M78,27.3c-1.7-6.4-5.3-12.1-10.2-16.5L57.2,21.4c4.5,3.7,7,9.1,6.9,14.9v1.9c12.6,0,12.6,18.8,0,18.8H45.3l0,0
		v15h-0.1l0.1,0.1h18.8c10.8,0.1,20.4-6.9,23.6-17.2C90.9,44.6,86.9,33.4,78,27.3L78,27.3z"/>
	<path class="st0" d="M26.4,72h18.8V57H26.4c-1.3,0-2.7-0.3-3.9-0.8L11.6,67v0.1C15.8,70.3,21,72.1,26.4,72L26.4,72z"/>
	<path class="st1" d="M26.4,23.1C15.9,23.2,6.7,29.9,3.3,39.8C0,49.7,3.3,60.7,11.6,67l10.9-10.9c-6-2.7-7.4-10.6-2.8-15.2
		c4.7-4.7,12.5-3.2,15.2,2.8l10.9-10.9C41.2,26.6,34,23.1,26.4,23.1L26.4,23.1z"/>
	<path class="st0" d="M138.9,61.5c-6.6,0.1-12.9-2.5-17.5-7.2c-4.7-4.5-7.4-10.7-7.3-17.3c-0.1-6.5,2.6-12.8,7.3-17.3
		c4.6-4.7,10.9-7.4,17.5-7.3c6.3-0.1,12.3,2.3,16.7,6.8l-4.7,4.8c-3.2-3.1-7.6-4.8-12-4.8c-4.7-0.1-9.2,1.9-12.4,5.3
		c-3.3,3.3-5.2,7.9-5.1,12.6c0,4.6,1.8,9.1,5.1,12.4c6.8,6.8,17.8,6.9,24.8,0.3c2.1-2.3,3.3-5.2,3.6-8.2H139v-6.8h22.5
		c0.2,1.4,0.3,2.8,0.3,4.1c0.3,5.8-1.8,11.4-5.8,15.6C151.5,59.2,145.3,61.7,138.9,61.5L138.9,61.5z M191.1,57c-6.3,6-16.1,6-22.4,0
		c-3-2.9-4.7-7-4.6-11.2c-0.1-4.2,1.6-8.3,4.6-11.2c6.3-6,16.1-6,22.4,0c3,2.9,4.7,7,4.6,11.2C195.8,50,194.2,54.1,191.1,57
		L191.1,57L191.1,57z M173.7,52.6c3.4,3.6,9.1,3.6,12.5,0c1.8-1.8,2.7-4.3,2.6-6.8c0.1-2.6-0.9-5-2.6-6.9c-3.4-3.6-9.2-3.6-12.6,0
		c-1.8,1.8-2.7,4.3-2.6,6.9C170.9,48.3,171.9,50.8,173.7,52.6L173.7,52.6L173.7,52.6z M225.6,57c-6.3,6-16.2,6-22.4,0
		c-3-2.9-4.7-7-4.6-11.2c-0.1-4.2,1.5-8.3,4.6-11.2c6.3-6,16.2-6,22.4,0c3,2.9,4.7,7,4.6,11.2C230.3,50,228.6,54.1,225.6,57
		L225.6,57z M208.1,52.6c3.4,3.6,9.1,3.6,12.5,0c1.8-1.8,2.7-4.3,2.6-6.8c0.1-2.6-0.9-5-2.6-6.9c-3.4-3.6-9.2-3.6-12.6,0
		c-1.8,1.8-2.7,4.3-2.6,6.9C205.4,48.3,206.3,50.8,208.1,52.6L208.1,52.6L208.1,52.6z M248.2,75.6c-3.2,0.1-6.3-0.9-8.8-2.8
		c-2.2-1.7-4-3.9-5.1-6.5l6-2.5c0.7,1.5,1.7,2.9,3,3.9c1.4,1.1,3.2,1.7,4.9,1.7c2.3,0.1,4.5-0.7,6.2-2.4c1.6-1.9,2.4-4.4,2.2-6.9
		v-2.3h-0.2c-2,2.4-5.1,3.7-8.3,3.6c-4,0-7.9-1.7-10.6-4.6c-3-2.9-4.6-6.9-4.5-11.1c-0.1-4.2,1.6-8.2,4.5-11.2
		c2.7-2.9,6.6-4.6,10.6-4.6c1.7,0,3.3,0.4,4.9,1.1c1.3,0.6,2.5,1.4,3.4,2.5h0.3V31h6.6v28.2c0.3,4.5-1.2,9-4.2,12.3
		C256.1,74.3,252.2,75.8,248.2,75.6L248.2,75.6z M248.7,55.3c2.3,0,4.5-0.9,6-2.6c1.6-1.9,2.5-4.3,2.4-6.8c0.1-2.5-0.8-5-2.4-6.9
		c-1.5-1.7-3.7-2.7-6-2.6c-2.4,0-4.6,0.9-6.2,2.6c-1.8,1.8-2.7,4.3-2.6,6.8c-0.1,2.5,0.9,5,2.6,6.8
		C244.1,54.4,246.4,55.4,248.7,55.3L248.7,55.3z M274.9,60.6H268V14.4h6.9V60.6L274.9,60.6z M293.8,61.5c-4.2,0.1-8.2-1.5-11.1-4.5
		c-3-3-4.6-7-4.5-11.2c-0.2-4.2,1.4-8.3,4.3-11.3c2.8-2.9,6.6-4.5,10.6-4.4c1.8,0,3.6,0.3,5.3,1c1.5,0.6,2.9,1.5,4,2.6
		c1,1,1.9,2,2.6,3.2c0.6,1,1.1,2,1.6,3.1l0.7,1.8l-21.2,8.7c1.3,3,4.3,4.9,7.6,4.8c3.2,0,6.1-1.7,7.8-4.4l5.3,3.6
		c-1.4,1.9-3.1,3.6-5.1,4.8C299.4,60.8,296.7,61.6,293.8,61.5L293.8,61.5z M285,45.3l14.1-5.8c-0.4-1-1.2-1.9-2.2-2.4
		c-1.1-0.6-2.4-0.9-3.6-0.9c-2.2,0.1-4.2,0.9-5.7,2.5C285.8,40.4,284.8,42.8,285,45.3L285,45.3z"/>
	<path class="st0" d="M343.5,61.5c-5.9,0.1-11.7-2.2-15.8-6.4c-4.2-4.2-6.5-9.9-6.3-15.9c-0.1-5.9,2.1-11.7,6.3-15.9
		c4.2-4.2,9.9-6.5,15.8-6.4c6-0.2,11.8,2.4,15.7,7l-3.8,3.7c-2.9-3.6-7.3-5.6-11.9-5.4c-4.4-0.1-8.7,1.6-11.8,4.7
		c-3.2,3.3-5,7.7-4.8,12.3c-0.2,4.6,1.5,9.1,4.8,12.3c3.1,3.1,7.4,4.8,11.8,4.7c5.1,0.1,10-2.2,13.2-6.2l3.8,3.8
		c-2,2.4-4.5,4.3-7.3,5.6C350.2,60.8,346.9,61.6,343.5,61.5L343.5,61.5z"/>
	<polygon class="st0" points="365.4,60.6 370.8,60.6 370.8,17.8 365.4,17.8 	"/>
	<path class="st0" d="M379.8,34.8c6-5.9,15.6-5.9,21.6,0c2.8,3,4.4,7,4.2,11.1c0.1,4.1-1.4,8.1-4.2,11.1c-6,5.9-15.6,5.9-21.6,0
		c-2.8-3-4.4-7-4.2-11.1C375.4,41.8,377,37.8,379.8,34.8L379.8,34.8z M383.9,53.6c3.6,3.8,9.8,3.8,13.4,0c1.9-2.1,3-4.8,2.8-7.7
		c0.1-2.8-0.9-5.6-2.8-7.7c-3.6-3.8-9.8-3.8-13.4,0c-1.9,2.1-2.9,4.8-2.8,7.7C380.9,48.8,382,51.5,383.9,53.6L383.9,53.6L383.9,53.6
		z"/>
	<path class="st0" d="M436,60.6h-5.3v-4.1h-0.2c-0.9,1.5-2.3,2.8-3.9,3.7c-1.7,1-3.5,1.5-5.4,1.5c-3.1,0.2-6.2-1-8.3-3.3
		c-2-2.5-3-5.7-2.8-8.9v-18h5.5v17c0,5.4,2.4,8.2,7.2,8.2c2.2,0.1,4.2-0.9,5.6-2.6c1.4-1.8,2.2-4,2.1-6.3V31.6h5.5L436,60.6
		L436,60.6z"/>
	<path class="st0" d="M454.6,61.5c-3.8,0-7.3-1.6-9.8-4.5c-2.7-3-4.2-7-4.1-11.1c-0.1-4.1,1.4-8.1,4.1-11.1c2.5-2.8,6-4.5,9.8-4.5
		c2.1,0,4.1,0.5,6,1.4c1.6,0.8,3,2,4,3.6h0.2l-0.2-4.1V17.7h5.5v42.7h-5.3v-4.1h-0.2c-1,1.5-2.3,2.8-4,3.6
		C458.7,61,456.6,61.5,454.6,61.5L454.6,61.5z M455.5,56.5c2.5,0,4.9-1,6.6-2.9c1.9-2.1,2.8-4.9,2.6-7.7c0.2-2.8-0.8-5.6-2.6-7.7
		c-3.6-3.9-9.7-3.9-13.2,0c-1.9,2.1-2.8,4.9-2.6,7.7c-0.2,2.8,0.8,5.6,2.6,7.7C450.5,55.5,452.9,56.6,455.5,56.5L455.5,56.5z"/>
</g>
</svg>
