<?xml version="1.0" encoding="utf-8"?>
<!-- Generator: Adobe Illustrator 28.3.0, SVG Export Plug-In . SVG Version: 6.00 Build 0)  -->
<svg version="1.1" id="Layer_1" xmlns:serif="http://www.serif.com/"
	 xmlns="http://www.w3.org/2000/svg" xmlns:xlink="http://www.w3.org/1999/xlink" x="0px" y="0px" viewBox="0 0 588.3 311.9"
	 style="enable-background:new 0 0 588.3 311.9;" xml:space="preserve">
<style type="text/css">
	.st0{fill:#939598;}
</style>
<g transform="matrix(1,0,0,1,-52,-55)">
	<path class="st0" d="M112.9,195.7v35.2H71.6v-35.2H54.9v79.2h16.7V238h41.3v28.4c0,1.8,0.4,3.2,1.1,4.4c0.7,1.1,1.6,2,2.7,2.6
		c1,0.6,2.2,1,3.4,1.2c1.2,0.2,2.3,0.3,3.2,0.3h6.4v-79.2"/>
	<path class="st0" d="M439.8,274.9v-79.2h-16.4l-32.7,58.6l-33.4-58.6h-16.6v79.2h8.5v-61.4l35.1,61.4h4.4L423,214v52.4
		c0,1.8,0.4,3.3,1.1,4.4c0.7,1.1,1.6,1.9,2.7,2.6c1,0.6,2.2,1,3.4,1.2c1.2,0.2,2.2,0.3,3.2,0.3"/>
	<path class="st0" d="M544.7,274.9L502.9,194H498l-42.8,80.9h9.8l13.3-25.2h30.4l-4.2-8.1h-21.9l14.1-26.6l27.6,53.6
		c1.1,2.2,2.4,3.8,4,4.8s3.7,1.5,6.2,1.5"/>
	<path class="st0" d="M631.7,195.7c-0.5,0-0.9,0-1.5,0.1s-1.2,0.3-1.7,0.6c-0.6,0.3-1,0.8-1.4,1.3c-0.4,0.6-0.6,1.4-0.6,2.3v51
		l-55.7-55.4h-10.7v79.2h9.8v-59.7l56.5,57.7c2.3,2.1,5.5,2,8.6,2h1.2v-79.2"/>
	<path class="st0" d="M215.3,164c0,0,19.5-10.9,34.1-17.1c36-15.1,67.6-24,96.8-29.4c23.5-4.4,95.4-15.4,152.3,2.2
		c0.9,13.1-2.7,28.2-10,44.3h23.4c5.8-11.9,9.7-23.4,11.5-34.1c8.8,4.7,16.9,10.5,24,17.4c6.5,6.4,12.8,16.7,12.8,16.7h10.3
		c0,0-4.4-9.8-14.1-19.6c-9-9.1-20.3-16-32.1-21.3c1.8-20.9-5.2-38.5-22.8-50.7C459.2,43.2,375.3,60,298,101
		c-34.6,18.4-66.2,40.7-92.1,63.1h9.4L215.3,164L215.3,164z M455.1,106.7c-37.4-3.1-80,1.3-108.5,7c-34.8,7-67.2,16.7-97.8,30
		c-7,3-13.7,6.3-20.4,9.9c21.1-15.7,45-30.9,70.4-43.7C370.2,74,445.1,60.3,480.4,86.4c9.7,7.2,15.3,16.6,17.3,27.5
		C480.8,109.4,465,107.5,455.1,106.7z"/>
	<path class="st0" d="M193.1,194h-4.9l-42.9,80.9h9.8l31.7-59.8l13.7,26.6h-22l-4.2,8.1h30.5l9.6,18.9c1.1,2.2,2.4,3.8,4,4.8
		s3.7,1.5,6.2,1.5h10.3"/>
	<path class="st0" d="M441,317.3h-6.4c-42.1,17.4-90.8,28.9-139.9,30.8c21.1-7.4,43.5-17.7,65.9-30.8h-21.1
		c-22.2,12.5-44.2,22.2-64.7,28.8c-2.3,0.7-4.5,1.4-6.7,2c-35.7-1.3-64-9.3-83.7-21.5c-4.7-2.9-8.8-6.1-12.5-9.4h-4.3
		c4.4,4.5,9.5,8.7,15.5,12.5c17.4,11.1,41.5,18.9,71.5,21.9c-27.6,6.3-50,5.8-66.6,0.3c-16.5-5.5-28.8-16-33.4-29.8
		c-0.5-1.6-1-3.2-1.3-4.9h-2.7c0.4,2.1,1,4.2,1.6,6.3c5,15.3,18.6,27.1,36.3,33.4c21,7.5,51.4,7.5,89.7-3.6c0.4-0.1,0.8-0.2,1.2-0.4
		C330.8,353.4,388.8,341.5,441,317.3z"/>
	<path class="st0" d="M300.6,268.6l-24.7-29.8h-8.6V275h-16.7v-79.2h30.7c0,0,12.7-0.2,21,3.9s11.8,9.9,11.8,17.2
		c0,7.3-4.4,15.9-20.3,20.3l31.9,37.8H313c0,0-2.7,0-5.8-1C304,272.8,300.6,268.6,300.6,268.6z M267.3,202.7v30h7.7
		c0,0,7.7,0.1,12.7-2.7c5-2.8,8.5-6.8,8.5-12.6c0-5.9-3.8-11.1-9.2-13.1c0,0-3.1-1.5-8.6-1.5"/>
</g>
</svg>
