<?xml version="1.0" encoding="utf-8"?>
<!-- Generator: Adobe Illustrator 28.3.0, SVG Export Plug-In . SVG Version: 6.00 Build 0)  -->
<svg version="1.1" id="Layer_1" xmlns="http://www.w3.org/2000/svg" xmlns:xlink="http://www.w3.org/1999/xlink" x="0px" y="0px"
	 viewBox="0 0 574 382" style="enable-background:new 0 0 574 382;" xml:space="preserve">
<style type="text/css">
	.st0{fill:#939598;}
</style>
<g>
	<path class="st0" d="M272.1,337.2c-112.6,10.4-229.9-6-246.3-93.9c-8-43.4,11.7-89.3,37.9-117.9v-15.3
		C16.5,151.5-9,203.9,5.7,265.8c18.8,79.4,119.5,124.3,273.2,109.4c60.8-5.9,140.4-25.5,195.7-55.9v-43.2
		C424.4,306.1,341.3,330.8,272.1,337.2z M568.6,109.1C541.9-21.2,288.8-29.5,125.7,69.8v11C288.6-3,519.8-2.5,540.8,117.6
		c7.1,39.7-15.3,81.1-55.3,104.9v31.2C533.6,236,582.9,179,568.6,109.1z"/>
	<path class="st0" d="M465.5,90.1H436v131.4c0,15.4,7.4,28.8,29.5,30.9V90.1z"/>
	<path class="st0" d="M114.1,138.1H84.5V224c0,15.5,7.5,28.8,29.6,30.9V138.1z"/>
	<rect x="84.5" y="94.1" class="st0" width="29.5" height="28"/>
	<path class="st0" d="M290.8,253.5c-23.9,0-34-16.6-34-33v-114h29.3V138h22v23.6h-22v57.1c0,6.7,3.2,10.4,10.1,10.4h11.9v24.4H290.8
		"/>
	<path class="st0" d="M344.7,205c0,15,9.4,26,25.9,26c13,0,19.4-3.6,26.9-11l18.1,17.2c-11.6,11.4-23.7,18.4-45.2,18.4
		c-28,0-54.8-15.3-54.8-59.8c0-38.1,23.4-59.6,54.2-59.6c31.2,0,49.2,25.2,49.2,58.3V205H344.7 M368.4,160.3c-10,0-17.7,5.2-21,12.1
		c-1.9,4.2-2.6,7.4-2.8,12.6h45.1C389.2,172.5,383.5,160.3,368.4,160.3z"/>
	<path class="st0" d="M193.6,161.7c8.6,0,12.1,4.2,12.1,11.1v80.9H235v-81c0-16.4-8.7-34.6-34.4-34.6h-60.4v115.6h29.3v-92H193.6z"
		/>
	<g>
		<path class="st0" d="M497.2,113.6c-6.5,0-11.7-5.2-11.7-11.7s5.2-11.7,11.7-11.7s11.8,5.3,11.8,11.7
			C509,108.4,503.7,113.6,497.2,113.6z M497.2,92.1c-5.4,0-9.7,4.4-9.7,9.8s4.3,9.7,9.7,9.7s9.8-4.4,9.8-9.7
			C507,96.5,502.6,92.1,497.2,92.1z M502.4,108.9h-2.2c-0.2,0-0.4-0.1-0.4-0.3l-3-5c-0.1-0.1-0.3-0.2-0.4-0.2c0,0-0.5,0-0.9,0
			c-0.2,0-0.4,0-0.5,0v5c0,0.2-0.2,0.5-0.5,0.5h-2c-0.3,0-0.5-0.3-0.5-0.5V95.7c0-0.7,0.2-1,0.9-1.1s2.6-0.2,3.6-0.2
			c3.7,0,5.8,1.1,5.8,4.5v0.2c0,2.1-1,3.2-2.6,3.8l3.1,5.3c0,0.1,0.1,0.3,0.1,0.4C502.9,108.7,502.8,108.9,502.4,108.9z M499.6,98.8
			c0-1.4-0.9-1.9-2.8-1.9c-0.2,0-0.9,0-1.4,0c-0.2,0-0.4,0-0.5,0v4c0.3,0,1.6,0.1,1.9,0.1c1.9,0,2.8-0.6,2.8-2V98.8z"/>
	</g>
</g>
</svg>
