<?xml version="1.0" encoding="utf-8"?>
<!-- Generator: Adobe Illustrator 28.3.0, SVG Export Plug-In . SVG Version: 6.00 Build 0)  -->
<svg version="1.1" id="Layer_1" xmlns="http://www.w3.org/2000/svg" xmlns:xlink="http://www.w3.org/1999/xlink" x="0px" y="0px"
	 viewBox="0 0 440.3 112.9" style="enable-background:new 0 0 440.3 112.9;" xml:space="preserve">
<style type="text/css">
	.st0{fill:#939598;}
</style>
<g>
	<path class="st0" d="M355.1,54.1c-0.5,0.7-1,1.4-1.6,2.1c-3.4,3.7-7.8,5.1-12.7,4.9c-9.6-0.3-16.6-6-18.8-15.4
		c-1.8-7.7-1.3-15.2,2.8-22.2c4.9-8.3,15.9-11.8,24.3-7.7c2.3,1.1,4.2,3,6.4,4.6c0-1,0.1-2.3,0-3.5c-0.1-1.3,0.5-1.7,1.7-1.7
		s2.5,0.1,3.8,0c1.2-0.1,1.7,0.3,1.7,1.6c0,13.8,0,27.6-0.1,41.4c0,2.3-0.4,4.6-0.9,6.8c-1.6,7.1-5.9,11.6-13,13.2
		c-5.6,1.2-11.1,1.1-16.5-0.9c-4.7-1.7-8.2-4.7-9.2-9.9c-0.3-1.4,0-2.1,1.5-1.9c0.6,0.1,1.3,0,1.9,0c2.2-0.1,4.2-0.4,4.9,2.7
		c0.2,1.1,1.7,2.1,2.9,2.7c4.2,2.2,8.7,2.6,13.1,1c5.2-1.9,7.2-6.4,7.9-11.5c0.3-2,0.2-4.1,0.3-6.2
		C355.4,54.2,355.3,54.1,355.1,54.1z M328.8,37c0.5,3.1,0.8,5.8,1.5,8.3c1.4,5.3,5.3,8.7,10.1,9.1c5.8,0.5,10.3-1.8,12.7-7
		c2.8-6.1,3-12.4,0.6-18.6c-1.9-4.8-5.5-7.6-10.8-7.7c-5.5-0.1-9.9,2.4-11.8,7.3C329.8,31.2,329.4,34.4,328.8,37z"/>
	<path class="st0" d="M209.8,21.1c3.5-4.4,8-6.8,13.6-6.8s10.4,1.4,13.3,7.6c0.4-0.7,0.5-1.1,0.7-1.4c5.9-7.5,16.3-7.3,22.4-4.2
		c3.3,1.7,5,4.6,5.6,8.1c0.2,0.9,0.2,1.9,0.2,2.9c0,10.4,0,20.9,0,31.3c0,1.8-0.6,2.4-2.3,2.2c-1-0.1-2.1,0-3.1,0
		c-2.3,0-2.3,0-2.3-2.4c0-7.6,0-15.3,0-22.9c0-1.6,0-3.2,0-4.8c0-8-4.2-10.7-12-9.2c-5,1-8,4.8-8.2,10.2c-0.2,4-0.1,8.1-0.1,12.1
		c0,4.9,0,9.8,0,14.7c0,2.2,0,2.2-2.3,2.2c-1.1,0-2.3-0.1-3.4,0c-1.5,0.1-2-0.5-2-2c0-9.2,0.1-18.5,0-27.7c0-1.7-0.2-3.5-0.7-5.2
		c-0.8-2.8-2.8-4.3-5.7-4.7c-7.5-1-13.8,4.5-13.8,12.1c0,8.4-0.1,16.9,0,25.3c0,1.7-0.5,2.4-2.2,2.2c-1.4-0.1-2.7,0-4.1,0
		c-0.9,0-1.4-0.4-1.3-1.3c0-0.9,0-1.7,0-2.6c0-13,0-26,0-39c0-2.5,0-2.5,2.6-2.5c1.1,0,2.2,0,3.3,0c1,0,1.4,0.4,1.4,1.4
		c0,1.4,0,2.8,0,4.2C209.4,21,209.6,21,209.8,21.1z"/>
	<path class="st0" d="M304.8,55.5c-1,0.9-1.9,1.7-3,2.4c-6.6,4.4-13.7,4.9-20.9,2.2c-3.8-1.4-6-4.6-6.6-8.7
		c-1.1-7.9,2.6-13.4,10.3-15.2c4.7-1.1,9.5-1.8,14.3-2.7c0.3-0.1,0.7-0.1,1-0.2c3.2-0.9,4.6-2.2,4.7-4.7c0.1-3.3-1.4-5.9-4.4-6.8
		c-4.2-1.3-8.5-1.2-12.6,0.6c-2.4,1-3.6,3-3.9,5.4c-0.2,1.5-0.9,1.9-2.2,1.8c-1.2-0.1-2.5-0.1-3.8,0c-1.5,0.1-1.9-0.5-1.7-1.9
		c0.6-5.9,4.6-10.6,10.6-12.3c5.5-1.5,11.2-1.6,16.8-0.2c5.7,1.5,8.7,5.4,8.8,11.3c0,8.3,0.1,16.7,0.1,25c0,0.3,0,0.6,0,0.9
		c0.2,2.4,0.6,2.8,3,2.6c1.1-0.1,1.6,0.2,1.5,1.3c0,0.3,0,0.7,0,1c0,3.9,0,3.9-3.9,4.3c-4.2,0.4-7.4-1.1-7.9-5.4
		C305,56,304.9,55.8,304.8,55.5z M304.3,38.2c-3.4,0.6-6.6,1.2-9.9,1.7c-3.2,0.5-6.5,0.7-9.3,2.6c-2.4,1.7-3.2,4.1-2.8,6.9
		c0.4,2.7,2.1,4.4,4.7,5c1.6,0.4,3.4,0.5,5.1,0.5C301.6,54.7,306.9,47.3,304.3,38.2z"/>
	<path class="st0" d="M166.4,46.2c-1.1,5.4-3.3,9.6-7.8,12.4c-13.1,8.2-29.6,1-32.7-14.3c-1.3-6.5-1-12.8,2.1-18.8
		c4.1-7.9,12.3-12.3,21-11.2c8.5,1,15,7,17,16c0.6,2.6,0.7,5.3,1.1,7.9c0.2,1.7-0.4,2.2-2.1,2.2c-9.8-0.1-19.6,0-29.4,0
		c-2.4,0-2.5,0-2.2,2.5c1.1,9.7,11.1,15.2,19.9,10.9c2.6-1.3,4.3-3.4,5.1-6.1c0.3-1.1,0.9-1.5,1.9-1.4
		C162.2,46.3,164.1,46.2,166.4,46.2z M133.5,33.3c8.4,0,16.9,0,25.3,0c-0.3-7.5-6.5-12.9-13.9-12.3
		C138.5,21.5,132.9,27.6,133.5,33.3z"/>
	<path class="st0" d="M86.2,21.8c0.6-0.5,0.8-0.7,0.9-0.9c4.1-5.7,9.8-7.3,16.4-6.6c8,0.9,12.1,5,12.8,13c0.4,4.5,0.3,9,0.3,13.5
		c0,5.9,0,11.9,0,17.8c0,1.6-0.5,2.2-2,2.1c-1.2-0.1-2.5-0.1-3.8,0c-1.5,0.1-2-0.5-2-2c0.1-9,0-17.9,0-26.9c0-1.4,0-2.7-0.2-4.1
		c-0.6-3.6-3.2-6.1-6.8-6.7c-8.4-1.3-14.7,3.8-15.2,12.4c-0.2,4.4-0.1,8.8-0.1,13.2c0,4,0,8.1,0,12.1c0,1.4-0.5,2-1.9,1.9
		s-2.7-0.1-4.1,0c-1.3,0.1-1.7-0.5-1.7-1.7c0.1-2.1,0-4.1,0-6.2c0-11.7,0-23.5,0-35.2c0-2.3,0-2.3,2.2-2.3c1.1,0,2.2,0.1,3.3,0
		c1.4-0.1,1.8,0.5,1.7,1.8C86.2,18.5,86.2,20,86.2,21.8z"/>
	<path class="st0" d="M177.4,38.1c0-4.7,0-9.5,0-14.2c0-1.3-0.4-1.9-1.8-1.8c-1.4,0.1-2.9,0-4.3,0c-1.1,0-1.6-0.3-1.7-1.6
		c-0.2-5.2-0.2-5.2,5-5.2c2.7,0,2.7,0,2.7-2.7c0-3,0.1-6,0-9.1c0-1.4,0.5-1.9,1.9-1.9c1.3,0.1,2.6,0.1,3.9,0
		c1.4-0.1,1.9,0.4,1.9,1.9c-0.1,3.4,0,6.7,0,10.1c0,1.3,0.4,1.7,1.7,1.7c1.9-0.1,3.8,0,5.6,0c1.2,0,1.8,0.4,1.7,1.7
		c-0.1,6.1,0.9,5-5,5.1c-4.1,0.1-4.1,0-4.1,4.1c0,7.8,0,15.6,0,23.4c0,3.6,0.6,4.2,4.3,4.4c1,0,2.1,0.1,3.1,0
		c1.1-0.1,1.7,0.3,1.7,1.6c-0.1,6.4,0.9,5.1-5,5.2c-1.9,0-3.8-0.2-5.6-0.4c-3.2-0.4-5.1-2.2-5.6-5.3c-0.4-2.6-0.4-5.2-0.5-7.8
		C177.3,44.1,177.4,41.1,177.4,38.1z"/>
	<path class="st0" d="M48.7,8.5c-15.4,5.3-23.4,15.8-21.8,31.8c1.2,13,9.1,21.2,21.6,24.9c-6.8,1-16.9-2.7-22.7-10.5
		c-7.2-9.7-8.1-20.2-2.9-31C27.5,14,37.5,8.1,48.7,8.5z"/>
	<path class="st0" d="M381.7,37.9c0,6.9,0,13.8,0,20.7c0,1.7-0.5,2.3-2.1,2.1c-1.3-0.1-2.6-0.1-3.9,0c-1.2,0.1-1.6-0.5-1.6-1.6
		c0-14.1,0-28.2,0-42.2c0-1.2,0.5-1.6,1.6-1.6c1.4,0.1,2.9,0.1,4.3,0s1.7,0.5,1.7,1.8C381.7,24,381.7,31,381.7,37.9z"/>
	<path class="st0" d="M55.8,13.3c-11.4,4.5-16.6,12.9-16.3,24.5c0.3,10.9,5.5,18.8,16.3,22.9c-5,0.1-9.1-1.3-12.7-4.3
		c-7.2-6.1-9.7-14-8.5-23.2c0.9-7,4.2-12.7,10.1-16.8C47.9,14.3,52.1,13.1,55.8,13.3z"/>
	<path class="st0" d="M60.3,20.1C46.5,26,46.7,48.4,61,54.3c-5.5-0.3-9.2-2.8-11.6-7c-3.9-6.8-3.8-13.7,0.2-20.5
		C52,22.8,55.5,20.3,60.3,20.1z"/>
	<path class="st0" d="M63.8,25.2c-7.8,5.3-6.7,19.1,0.1,23c-3.3,0.7-7.4-4.1-8.1-9C54.9,32,58.4,25.6,63.8,25.2z"/>
	<path class="st0" d="M64.5,28.8c4.7,1.9,4.8,14.1-0.1,16.2C67.7,39.7,67.8,34.3,64.5,28.8z"/>
	<g>
		<path class="st0" d="M5.4,105.5L12.9,86h2.8l8,19.5h-2.9l-2.3-5.9h-8.1l-2.1,5.9H5.4z M11.1,97.5h6.6l-2-5.4c-0.6-1.6-1.1-3-1.4-4
			c-0.2,1.2-0.6,2.5-1,3.7L11.1,97.5z"/>
		<path class="st0" d="M25.4,105.5V91.4h2.2v2c1-1.5,2.5-2.3,4.5-2.3c0.8,0,1.6,0.2,2.3,0.5c0.7,0.3,1.2,0.7,1.6,1.2
			s0.6,1.1,0.7,1.8c0.1,0.4,0.1,1.2,0.1,2.3v8.7h-2.4V97c0-1-0.1-1.7-0.3-2.2s-0.5-0.9-1-1.2c-0.5-0.3-1-0.4-1.7-0.4
			c-1,0-1.9,0.3-2.6,1c-0.7,0.6-1.1,1.9-1.1,3.7v7.7h-2.3V105.5z"/>
		<path class="st0" d="M48.4,105.5V86H51l10.2,15.3V86h2.5v19.5h-2.6L50.9,90.2v15.3H48.4z"/>
		<path class="st0" d="M73,105.5V88.3h-6.4V86H82v2.3h-6.4v17.2H73z"/>
		<path class="st0" d="M89.6,105.5V88.3h-6.4V86h15.4v2.3h-6.4v17.2H89.6z"/>
		<path class="st0" d="M122.2,98.6l2.6,0.7c-0.5,2.1-1.5,3.7-2.9,4.8c-1.4,1.1-3.1,1.7-5.1,1.7c-2.1,0-3.8-0.4-5.1-1.3
			s-2.3-2.1-3-3.7s-1-3.4-1-5.2c0-2,0.4-3.8,1.2-5.3s1.9-2.7,3.3-3.4s3-1.2,4.7-1.2c1.9,0,3.6,0.5,4.9,1.5s2.3,2.4,2.8,4.2l-2.5,0.6
			c-0.5-1.4-1.1-2.4-2-3.1c-0.9-0.6-1.9-1-3.2-1c-1.5,0-2.7,0.4-3.8,1.1c-1,0.7-1.7,1.7-2.1,2.9s-0.6,2.5-0.6,3.7
			c0,1.7,0.2,3.1,0.7,4.3c0.5,1.2,1.2,2.2,2.2,2.8c1,0.6,2.1,0.9,3.3,0.9c1.4,0,2.7-0.4,3.7-1.2C121.2,101.5,121.8,100.3,122.2,98.6
			z"/>
		<path class="st0" d="M126.7,98.4c0-2.6,0.7-4.5,2.2-5.8c1.2-1,2.7-1.6,4.4-1.6c1.9,0,3.5,0.6,4.8,1.9c1.2,1.3,1.8,3,1.8,5.3
			c0,1.8-0.3,3.2-0.8,4.3c-0.5,1-1.3,1.8-2.4,2.4c-1,0.6-2.2,0.9-3.4,0.9c-2,0-3.6-0.6-4.8-1.9C127.4,102.6,126.7,100.8,126.7,98.4z
			 M129.2,98.4c0,1.8,0.4,3.2,1.2,4.1s1.8,1.3,3,1.3s2.2-0.5,3-1.4s1.2-2.3,1.2-4.1c0-1.7-0.4-3.1-1.2-4s-1.8-1.3-3-1.3
			s-2.2,0.4-3,1.3C129.6,95.3,129.2,96.6,129.2,98.4z"/>
		<path class="st0" d="M142.8,105.5V91.4h2.1v2c0.4-0.7,1-1.2,1.8-1.7c0.7-0.4,1.6-0.6,2.5-0.6c1,0,1.9,0.2,2.6,0.7
			c0.7,0.4,1.1,1,1.4,1.8c1.1-1.6,2.6-2.5,4.4-2.5c1.4,0,2.5,0.4,3.2,1.2s1.1,2,1.1,3.6v9.7h-2.4v-8.9c0-1-0.1-1.6-0.2-2.1
			c-0.2-0.4-0.4-0.8-0.8-1c-0.4-0.3-0.9-0.4-1.4-0.4c-1,0-1.8,0.3-2.5,1s-1,1.7-1,3.2v8.2h-2.4v-9.2c0-1.1-0.2-1.9-0.6-2.4
			c-0.4-0.5-1-0.8-1.9-0.8c-0.7,0-1.3,0.2-1.9,0.5c-0.6,0.4-1,0.9-1.2,1.6c-0.3,0.7-0.4,1.7-0.4,2.9v7.3L142.8,105.5L142.8,105.5z"
			/>
		<path class="st0" d="M165.4,105.5V91.4h2.1v2c0.4-0.7,1-1.2,1.8-1.7c0.7-0.4,1.6-0.6,2.5-0.6c1,0,1.9,0.2,2.6,0.7
			c0.7,0.4,1.1,1,1.4,1.8c1.1-1.6,2.6-2.5,4.4-2.5c1.4,0,2.5,0.4,3.2,1.2s1.1,2,1.1,3.6v9.7h-2.4v-8.9c0-1-0.1-1.6-0.2-2.1
			c-0.2-0.4-0.4-0.8-0.8-1c-0.4-0.3-0.9-0.4-1.4-0.4c-1,0-1.8,0.3-2.5,1s-1,1.7-1,3.2v8.2h-2.4v-9.2c0-1.1-0.2-1.9-0.6-2.4
			c-0.4-0.5-1-0.8-1.9-0.8c-0.7,0-1.3,0.2-1.9,0.5c-0.6,0.4-1,0.9-1.2,1.6c-0.3,0.7-0.4,1.7-0.4,2.9v7.3L165.4,105.5L165.4,105.5z"
			/>
		<path class="st0" d="M197.3,105.5v-2.1c-1.1,1.6-2.6,2.4-4.5,2.4c-0.8,0-1.6-0.2-2.3-0.5c-0.7-0.3-1.3-0.7-1.6-1.2
			c-0.3-0.5-0.6-1.1-0.7-1.8c-0.1-0.5-0.1-1.2-0.1-2.2v-8.7h2.4v7.8c0,1.2,0,2.1,0.1,2.5c0.2,0.6,0.5,1.1,1,1.5s1.1,0.5,1.8,0.5
			s1.4-0.2,2-0.6s1.1-0.9,1.3-1.5c0.3-0.6,0.4-1.6,0.4-2.8v-7.6h2.4v14.1h-2.2V105.5z"/>
		<path class="st0" d="M203.2,105.5V91.4h2.2v2c1-1.5,2.5-2.3,4.5-2.3c0.8,0,1.6,0.2,2.3,0.5c0.7,0.3,1.2,0.7,1.6,1.2
			s0.6,1.1,0.7,1.8c0.1,0.4,0.1,1.2,0.1,2.3v8.7h-2.4V97c0-1-0.1-1.7-0.3-2.2s-0.5-0.9-1-1.2c-0.5-0.3-1-0.4-1.7-0.4
			c-1,0-1.9,0.3-2.6,1c-0.7,0.6-1.1,1.9-1.1,3.7v7.7h-2.3V105.5z"/>
		<path class="st0" d="M218.3,88.7V86h2.4v2.7H218.3z M218.3,105.5V91.4h2.4v14.1H218.3z"/>
		<path class="st0" d="M233.5,100.3l2.3,0.3c-0.3,1.6-0.9,2.9-2,3.8s-2.4,1.4-3.9,1.4c-1.9,0-3.5-0.6-4.7-1.9s-1.8-3.1-1.8-5.4
			c0-1.5,0.3-2.9,0.8-4s1.3-2,2.3-2.6s2.2-0.9,3.4-0.9c1.5,0,2.8,0.4,3.8,1.2s1.6,1.9,1.9,3.3l-2.3,0.4c-0.2-0.9-0.6-1.7-1.2-2.1
			c-0.6-0.5-1.2-0.7-2-0.7c-1.2,0-2.2,0.4-2.9,1.3c-0.8,0.9-1.1,2.2-1.1,4.1s0.4,3.3,1.1,4.1c0.7,0.9,1.7,1.3,2.8,1.3
			c0.9,0,1.7-0.3,2.3-0.9C233,102.4,233.4,101.5,233.5,100.3z"/>
		<path class="st0" d="M247.1,103.7c-0.9,0.8-1.7,1.3-2.6,1.6c-0.8,0.3-1.7,0.5-2.6,0.5c-1.5,0-2.7-0.4-3.6-1.1s-1.2-1.7-1.2-2.9
			c0-0.7,0.2-1.3,0.5-1.9s0.7-1,1.2-1.4c0.5-0.3,1.1-0.6,1.7-0.8c0.5-0.1,1.2-0.2,2.1-0.4c1.9-0.2,3.3-0.5,4.3-0.8
			c0-0.3,0-0.5,0-0.6c0-1-0.2-1.7-0.7-2.1c-0.6-0.5-1.5-0.8-2.7-0.8c-1.1,0-2,0.2-2.5,0.6s-0.9,1.1-1.2,2.1l-2.3-0.3
			c0.2-1,0.6-1.8,1-2.4c0.5-0.6,1.2-1.1,2.1-1.4s2-0.5,3.2-0.5s2.2,0.1,2.9,0.4c0.8,0.3,1.3,0.6,1.7,1.1c0.4,0.4,0.6,1,0.7,1.6
			c0.1,0.4,0.1,1.1,0.1,2.2v3.2c0,2.2,0.1,3.6,0.2,4.2s0.3,1.2,0.6,1.7h-2.5C247.4,105,247.2,104.4,247.1,103.7z M246.9,98.4
			c-0.9,0.4-2.2,0.7-3.9,0.9c-1,0.1-1.7,0.3-2.1,0.5s-0.7,0.4-0.9,0.8c-0.2,0.3-0.3,0.7-0.3,1.1c0,0.6,0.2,1.2,0.7,1.6
			s1.2,0.6,2.1,0.6s1.7-0.2,2.5-0.6c0.7-0.4,1.2-1,1.6-1.7c0.3-0.5,0.4-1.3,0.4-2.4v-0.8H246.9z"/>
		<path class="st0" d="M258.3,103.3l0.3,2.1c-0.7,0.1-1.3,0.2-1.8,0.2c-0.9,0-1.5-0.1-2-0.4s-0.8-0.6-1-1.1s-0.3-1.4-0.3-2.8v-8.1
			h-1.8v-1.9h1.8v-3.5l2.4-1.4v4.9h2.4v1.9h-2.4v8.2c0,0.7,0,1.1,0.1,1.3c0.1,0.2,0.2,0.3,0.4,0.5c0.2,0.1,0.5,0.2,0.8,0.2
			C257.5,103.4,257.8,103.4,258.3,103.3z"/>
		<path class="st0" d="M260.6,88.7V86h2.4v2.7H260.6z M260.6,105.5V91.4h2.4v14.1H260.6z"/>
		<path class="st0" d="M265.8,98.4c0-2.6,0.7-4.5,2.2-5.8c1.2-1,2.7-1.6,4.4-1.6c1.9,0,3.5,0.6,4.8,1.9c1.2,1.3,1.8,3,1.8,5.3
			c0,1.8-0.3,3.2-0.8,4.3c-0.5,1-1.3,1.8-2.4,2.4s-2.2,0.9-3.4,0.9c-2,0-3.6-0.6-4.8-1.9S265.8,100.8,265.8,98.4z M268.2,98.4
			c0,1.8,0.4,3.2,1.2,4.1c0.8,0.9,1.8,1.3,3,1.3s2.2-0.5,3-1.4s1.2-2.3,1.2-4.1c0-1.7-0.4-3.1-1.2-4s-1.8-1.3-3-1.3s-2.2,0.4-3,1.3
			C268.6,95.3,268.2,96.6,268.2,98.4z"/>
		<path class="st0" d="M281.8,105.5V91.4h2.2v2c1-1.5,2.5-2.3,4.5-2.3c0.8,0,1.6,0.2,2.3,0.5c0.7,0.3,1.2,0.7,1.6,1.2
			s0.6,1.1,0.7,1.8c0.1,0.4,0.1,1.2,0.1,2.3v8.7h-2.4V97c0-1-0.1-1.7-0.3-2.2c-0.2-0.5-0.5-0.9-1-1.2c-0.5-0.3-1-0.4-1.7-0.4
			c-1,0-1.9,0.3-2.6,1c-0.7,0.6-1.1,1.9-1.1,3.7v7.7h-2.3V105.5z"/>
		<path class="st0" d="M295.9,101.3l2.4-0.4c0.1,0.9,0.5,1.7,1.1,2.2s1.5,0.8,2.5,0.8c1.1,0,1.9-0.2,2.4-0.7c0.5-0.4,0.8-1,0.8-1.6
			c0-0.5-0.2-1-0.7-1.3c-0.3-0.2-1.1-0.5-2.4-0.8c-1.8-0.4-3-0.8-3.6-1.1c-0.7-0.3-1.2-0.8-1.5-1.3c-0.3-0.6-0.5-1.2-0.5-1.9
			c0-0.6,0.1-1.2,0.4-1.7s0.7-1,1.2-1.3c0.4-0.3,0.9-0.5,1.5-0.7s1.3-0.3,2.1-0.3c1.1,0,2.1,0.2,2.9,0.5s1.5,0.8,1.9,1.3
			s0.7,1.3,0.8,2.2l-2.3,0.3c-0.1-0.7-0.4-1.3-0.9-1.7s-1.2-0.6-2.2-0.6c-1.1,0-1.9,0.2-2.3,0.5c-0.5,0.4-0.7,0.8-0.7,1.3
			c0,0.3,0.1,0.6,0.3,0.8c0.2,0.3,0.5,0.5,0.9,0.6c0.2,0.1,0.9,0.3,2.1,0.6c1.7,0.5,2.9,0.8,3.5,1.1c0.7,0.3,1.2,0.7,1.6,1.3
			s0.6,1.2,0.6,2s-0.2,1.5-0.7,2.3c-0.5,0.7-1.1,1.2-2,1.6s-1.9,0.6-3,0.6c-1.8,0-3.2-0.4-4.2-1.1
			C296.8,103.9,296.2,102.8,295.9,101.3z"/>
		<path class="st0" d="M332.2,98.6l2.6,0.7c-0.5,2.1-1.5,3.7-2.9,4.8c-1.4,1.1-3.1,1.7-5.1,1.7c-2.1,0-3.8-0.4-5.1-1.3
			s-2.3-2.1-3-3.7s-1-3.4-1-5.2c0-2,0.4-3.8,1.2-5.3c0.8-1.5,1.9-2.7,3.3-3.4c1.4-0.8,3-1.2,4.7-1.2c1.9,0,3.6,0.5,4.9,1.5
			s2.3,2.4,2.8,4.2l-2.5,0.6c-0.5-1.4-1.1-2.4-2-3.1c-0.9-0.6-1.9-1-3.2-1c-1.5,0-2.7,0.4-3.8,1.1c-1,0.7-1.7,1.7-2.1,2.9
			s-0.6,2.5-0.6,3.7c0,1.7,0.2,3.1,0.7,4.3c0.5,1.2,1.2,2.2,2.2,2.8s2.1,0.9,3.3,0.9c1.4,0,2.7-0.4,3.7-1.2
			C331.2,101.5,331.9,100.3,332.2,98.6z"/>
		<path class="st0" d="M336.8,98.4c0-2.6,0.7-4.5,2.2-5.8c1.2-1,2.7-1.6,4.4-1.6c1.9,0,3.5,0.6,4.8,1.9c1.2,1.3,1.8,3,1.8,5.3
			c0,1.8-0.3,3.2-0.8,4.3c-0.5,1-1.3,1.8-2.4,2.4s-2.2,0.9-3.4,0.9c-2,0-3.6-0.6-4.8-1.9S336.8,100.8,336.8,98.4z M339.3,98.4
			c0,1.8,0.4,3.2,1.2,4.1c0.8,0.9,1.8,1.3,3,1.3s2.2-0.5,3-1.4s1.2-2.3,1.2-4.1c0-1.7-0.4-3.1-1.2-4s-1.8-1.3-3-1.3s-2.2,0.4-3,1.3
			C339.6,95.3,339.3,96.6,339.3,98.4z"/>
		<path class="st0" d="M352.8,105.5V91.4h2.1v2c0.4-0.7,1-1.2,1.8-1.7c0.7-0.4,1.6-0.6,2.5-0.6c1,0,1.9,0.2,2.6,0.7
			c0.7,0.4,1.1,1,1.4,1.8c1.1-1.6,2.6-2.5,4.4-2.5c1.4,0,2.5,0.4,3.2,1.2c0.8,0.8,1.1,2,1.1,3.6v9.7h-2.4v-8.9c0-1-0.1-1.6-0.2-2.1
			c-0.2-0.4-0.4-0.8-0.8-1c-0.4-0.3-0.9-0.4-1.4-0.4c-1,0-1.8,0.3-2.5,1s-1,1.7-1,3.2v8.2h-2.4v-9.2c0-1.1-0.2-1.9-0.6-2.4
			s-1-0.8-1.9-0.8c-0.7,0-1.3,0.2-1.9,0.5c-0.6,0.4-1,0.9-1.2,1.6s-0.4,1.7-0.4,2.9v7.3L352.8,105.5L352.8,105.5z"/>
		<path class="st0" d="M375.5,110.9V91.4h2.2v1.8c0.5-0.7,1.1-1.3,1.7-1.6s1.4-0.5,2.3-0.5c1.2,0,2.3,0.3,3.2,0.9
			c0.9,0.6,1.6,1.5,2.1,2.6s0.7,2.4,0.7,3.7c0,1.4-0.3,2.7-0.8,3.9c-0.5,1.2-1.3,2-2.3,2.7c-1,0.6-2,0.9-3.1,0.9
			c-0.8,0-1.5-0.2-2.1-0.5s-1.2-0.8-1.6-1.3v6.9H375.5z M377.6,98.5c0,1.8,0.4,3.2,1.1,4c0.7,0.9,1.6,1.3,2.7,1.3s2-0.4,2.7-1.3
			s1.1-2.3,1.1-4.2c0-1.8-0.4-3.1-1.1-4s-1.6-1.3-2.6-1.3s-1.9,0.5-2.7,1.4S377.6,96.7,377.6,98.5z"/>
		<path class="st0" d="M399.8,103.7c-0.9,0.8-1.7,1.3-2.6,1.6c-0.8,0.3-1.7,0.5-2.6,0.5c-1.5,0-2.7-0.4-3.6-1.1s-1.2-1.7-1.2-2.9
			c0-0.7,0.2-1.3,0.5-1.9s0.7-1,1.2-1.4c0.5-0.3,1.1-0.6,1.7-0.8c0.5-0.1,1.2-0.2,2.1-0.4c1.9-0.2,3.3-0.5,4.3-0.8
			c0-0.3,0-0.5,0-0.6c0-1-0.2-1.7-0.7-2.1c-0.6-0.5-1.5-0.8-2.7-0.8c-1.1,0-2,0.2-2.5,0.6s-0.9,1.1-1.2,2.1l-2.3-0.3
			c0.2-1,0.6-1.8,1-2.4c0.5-0.6,1.2-1.1,2.1-1.4s2-0.5,3.2-0.5s2.2,0.1,2.9,0.4c0.8,0.3,1.3,0.6,1.7,1.1c0.4,0.4,0.6,1,0.7,1.6
			c0.1,0.4,0.1,1.1,0.1,2.2v3.2c0,2.2,0.1,3.6,0.2,4.2s0.3,1.2,0.6,1.7h-2.5C400,105,399.9,104.4,399.8,103.7z M399.6,98.4
			c-0.9,0.4-2.2,0.7-3.9,0.9c-1,0.1-1.7,0.3-2.1,0.5s-0.7,0.4-0.9,0.8c-0.2,0.3-0.3,0.7-0.3,1.1c0,0.6,0.2,1.2,0.7,1.6
			s1.2,0.6,2.1,0.6s1.7-0.2,2.5-0.6c0.7-0.4,1.2-1,1.6-1.7c0.3-0.5,0.4-1.3,0.4-2.4v-0.8H399.6z"/>
		<path class="st0" d="M405.7,105.5V91.4h2.2v2c1-1.5,2.5-2.3,4.5-2.3c0.8,0,1.6,0.2,2.3,0.5c0.7,0.3,1.2,0.7,1.6,1.2
			s0.6,1.1,0.7,1.8c0.1,0.4,0.1,1.2,0.1,2.3v8.7h-2.4V97c0-1-0.1-1.7-0.3-2.2c-0.2-0.5-0.5-0.9-1-1.2c-0.5-0.3-1-0.4-1.7-0.4
			c-1,0-1.9,0.3-2.6,1c-0.7,0.6-1.1,1.9-1.1,3.7v7.7h-2.3V105.5z"/>
		<path class="st0" d="M420.7,110.9l-0.3-2.2c0.5,0.1,1,0.2,1.4,0.2c0.5,0,1-0.1,1.3-0.3c0.3-0.2,0.6-0.4,0.8-0.7
			c0.2-0.2,0.4-0.8,0.7-1.8c0-0.1,0.1-0.3,0.2-0.6l-5.4-14.1h2.6l2.9,8.2c0.4,1,0.7,2.1,1,3.3c0.3-1.1,0.6-2.2,1-3.2l3-8.2h2.4
			l-5.4,14.3c-0.6,1.5-1,2.6-1.3,3.2c-0.4,0.8-0.9,1.4-1.5,1.7s-1.2,0.6-2,0.6C421.8,111.2,421.3,111.1,420.7,110.9z"/>
	</g>
	<g>
		<path class="st0" d="M431.8,2.7c1,0,1.9,0.3,2.9,0.8s1.7,1.2,2.2,2.2c0.5,0.9,0.8,1.9,0.8,2.9s-0.3,2-0.8,2.9s-1.2,1.7-2.2,2.2
			c-0.9,0.5-1.9,0.8-2.9,0.8s-2-0.3-2.9-0.8s-1.7-1.2-2.2-2.2c-0.5-0.9-0.8-1.9-0.8-2.9s0.3-2,0.8-2.9s1.3-1.7,2.2-2.2
			S430.8,2.7,431.8,2.7z M431.8,3.7c-0.8,0-1.6,0.2-2.4,0.6s-1.4,1-1.8,1.8s-0.7,1.6-0.7,2.5c0,0.8,0.2,1.7,0.7,2.4s1,1.4,1.8,1.8
			s1.6,0.7,2.4,0.7s1.7-0.2,2.4-0.7c0.8-0.4,1.4-1,1.8-1.8s0.6-1.6,0.6-2.4c0-0.9-0.2-1.7-0.7-2.5c-0.4-0.8-1-1.4-1.8-1.8
			C433.4,3.9,432.6,3.7,431.8,3.7z M429.2,11.8V5.5h2.2c0.7,0,1.3,0.1,1.6,0.2c0.3,0.1,0.6,0.3,0.8,0.6s0.3,0.6,0.3,0.9
			c0,0.5-0.2,0.9-0.5,1.2c-0.3,0.3-0.8,0.5-1.3,0.6c0.2,0.1,0.4,0.2,0.5,0.3c0.3,0.2,0.6,0.7,0.9,1.3l0.8,1.2h-1.2l-0.6-1
			c-0.4-0.8-0.8-1.3-1.1-1.5c-0.2-0.1-0.5-0.2-0.8-0.2h-0.6v2.7L429.2,11.8L429.2,11.8z M430.2,8.3h1.2c0.6,0,1-0.1,1.2-0.3
			c0.2-0.2,0.3-0.4,0.3-0.7c0-0.2-0.1-0.4-0.2-0.5s-0.2-0.3-0.4-0.3c-0.2-0.1-0.5-0.1-1-0.1h-1.2v1.9H430.2z"/>
	</g>
	<path class="st0" d="M35.5,5.6C18.7,11.4,10,22.8,11.7,40.3c1.3,14.2,10,23.1,23.5,27.2c-7.5,1-18.5-2.9-24.7-11.4
		c-7.8-10.6-8.8-22-3.2-33.7C12.3,11.6,23.3,5.2,35.5,5.6z"/>
	<path class="st0" d="M424.7,44.7c-0.2,1.1-0.4,2.4-0.5,3c-0.8,2.7-2.5,4.8-5.1,6.1c-8.8,4.3-18.9-1.2-19.9-10.9
		c-1.4-17.2,5.1-21.3,11.5-21.8c5.7-0.4,10.6,2.5,12.7,7.3h7.9c-2.5-7.9-8.6-13.1-16.5-14c-8.7-1-16.9,3.3-21,11.2
		c-3.1,6-3.4,12.3-2.1,18.8c3,15.2,19.6,22.4,32.7,14.3c4.7-3.2,7.1-8.9,8.4-13.9h-8.1V44.7z"/>
</g>
</svg>
