<?xml version="1.0" encoding="utf-8"?>
<!-- Generator: Adobe Illustrator 28.3.0, SVG Export Plug-In . SVG Version: 6.00 Build 0)  -->
<svg version="1.1" id="Layer_1" xmlns="http://www.w3.org/2000/svg" xmlns:xlink="http://www.w3.org/1999/xlink" x="0px" y="0px"
	 viewBox="0 0 228 92" style="enable-background:new 0 0 228 92;" xml:space="preserve">
<style type="text/css">
	.st0{fill-rule:evenodd;clip-rule:evenodd;fill:#939598;}
</style>
<g id="Background">
</g>
<g id="Guides">
</g>
<g id="Foreground">
	<g>
		<g>
			<path class="st0" d="M179.9,1.7l-3.3,13.6h-1.4c-0.2-5.1-1.3-5.3-3.2-7.6c-1.9-2.3-4.6-3.4-8-3.4c-3.6,0-7.1,1.4-10.7,4.1
				s-6.6,7-9.1,12.7s-3.7,11.7-3.7,18c0,5.4,1.1,9.5,3.3,12.4c2.2,2.8,4.8,4.3,7.8,4.3c1.3,0,2.8-0.4,4.6-1.2l3.8-14.5
				c0.6-2.4,1-4,1-4.8c0-1-0.4-1.6-1.2-2.5c-0.7-0.8-0.5-1.1-2.4-1.1l0.4-1.5h18.5l-0.3,1.5c-1.2,0.5-0.7,0.4-1.4,0.8
				c-0.7,0.4-1.3,1.1-1.7,1.9c-0.2,0.5-0.6,1.8-1.1,4l-4.5,16.9c-5.2,2.2-10.6,3.2-16.3,3.2c-4.4,0-8.2-0.9-11.3-2.6
				c-3.1-1.8-5.6-4.5-7.7-8.4c-2-3.8-3-8.1-3-13c0-10.4,4.2-18.9,12.6-25.7C148.2,3.6,155.7,1,164,1c1.5,0,2.8,0.1,4,0.2
				c0.9,0.1,2.5,0.5,4.8,1.1c1.5,0.4,2.5,0.6,3,0.6c1.1,0,1.9-0.1,2.9-1.4h1.2L179.9,1.7L179.9,1.7z"/>
		</g>
		<path class="st0" d="M102.5,34.8c-0.1-1.1-0.3-2.1-0.3-2.9c-0.1-0.9-0.1-1.7-0.1-2.3c0-4,1.2-7.4,3.7-10c2.5-2.7,5.4-4,8.8-4
			c2.2,0,3.9,0.6,5.2,1.8c1.3,1.2,2,2.7,2,4.4c0,2.2-0.6,4-1.9,5.5c-1.9,2.3-5,4.4-9.2,6.2c1.3,4.3,2.3,7.1,2.8,8.4s1.2,2.6,2,4.1
			c1.1-1.3,2-2.5,2.5-3.7s0.8-2.2,0.8-3c0-0.6-0.2-1.2-0.6-1.7s-1-0.8-1.9-1.1l0.4-1.1h11.6l-0.5,1.1c-1.1,0.3-2,0.7-2.7,1.3
			c-0.7,0.6-2.1,2.3-4.1,5c-1.4,1.9-2.8,3.6-4.3,5.1c1.6,2.2,3.1,3.8,4.4,4.6c0.8,0.6,1.8,0.8,2.9,0.8c0.6,0,1.2-0.1,1.6-0.3
			c0.5-0.2,1-0.6,1.7-1.1h1c-1,2.1-2.2,3.6-3.8,4.7c-1.6,1-3.4,1.6-5.4,1.6c-1.7,0-3.2-0.3-4.6-1c-1.3-0.7-2.8-1.8-4.3-3.4
			c-2.1,1.5-4.2,2.6-6.3,3.3c-2.1,0.7-4.2,1.1-6.3,1.1c-3.1,0-5.6-0.9-7.4-2.6s-2.7-3.8-2.7-6.1c0-1.8,0.4-3.5,1.2-4.9
			c0.8-1.4,2.3-3,4.5-4.6C95.3,38.4,98.5,36.7,102.5,34.8z M110.2,31.3c1.7-1.2,2.9-2.4,3.6-3.6c1.1-1.7,1.6-3.5,1.6-5.5
			c0-1.4-0.3-2.6-0.9-3.3c-0.5-0.6-1.1-0.9-1.8-0.9c-0.9,0-1.6,0.4-2.1,1.1c-0.8,1.1-1.1,2.8-1.1,5c0,1,0.1,2.1,0.2,3.3
			C109.8,28.6,110,29.9,110.2,31.3z M103,37.1c-2.3,1.3-4,2.6-5,3.9s-1.5,3-1.5,4.9c0,2.3,0.7,4.3,2.1,5.8c1.4,1.6,3.1,2.4,4.8,2.4
			c0.8,0,1.6-0.2,2.5-0.5s1.9-0.8,3-1.5c-1.2-1.8-2.4-4.2-3.6-7C104.4,42.3,103.5,39.6,103,37.1z"/>
		<path class="st0" d="M72.5,32.3l-4.6,15.9c-0.6,2.2-1,3.8-1,4.8c0,1.3,0.4,2.3,1.3,2.9c0.8,0.6-0.1,0.2,2.1,1.1l-0.5,1.6H49.2
			l0.5-1.6c1.2-0.6,0.4-0.3,1.4-0.7c1-0.4,1.8-1.2,2.4-2.1c0.5-0.6,1.2-2.6,2.1-5.9l10.6-36.2c0.7-2.4,1.1-4.1,1.1-5.2
			c0-1-0.5-1.9-1.4-2.6s0.2,0.2-1.4-1.2l0.1-1.6H84c6.2,0,10.7,0.8,13.4,2.4c4.2,2.5,6.3,6.2,6.3,11.1c0,4.8-2.1,9-6.3,12.6
			c-4.2,3.6-9.8,5.4-16.9,5.4C78.2,33,75.6,32.8,72.5,32.3z M73.4,29.1c1.8,0.2,3.3,0.3,4.5,0.3c3.9,0,6.9-1.8,9.1-5.3
			s3.3-7.2,3.3-11.1c0-2.6-0.7-4.6-2.1-6.1s-3.4-2.2-5.9-2.2c-0.5,0-1.2,0-2,0.1L73.4,29.1z"/>
	</g>
	<g>
		<path class="st0" d="M12.4,81.6L10.8,87c-0.2,0.8-0.3,1.3-0.3,1.6c0,0.4,0.1,0.8,0.4,1c0.3,0.2,0.9,0.3,1.9,0.4l-0.2,0.5H3.2
			L3.4,90c0.8,0,1.4-0.1,1.7-0.2c0.3-0.2,0.6-0.4,0.8-0.7c0.2-0.2,0.4-0.9,0.7-2l3.6-12.3c0.2-0.8,0.4-1.4,0.4-1.8s-0.2-0.6-0.5-0.9
			c-0.3-0.2-0.9-0.4-1.7-0.4l0.2-0.5h7.7c2.1,0,3.6,0.3,4.5,0.8c1.4,0.8,2.1,2.1,2.1,3.8c0,1.6-0.7,3-2.1,4.3
			c-1.4,1.2-3.3,1.8-5.7,1.8C14.3,81.8,13.4,81.7,12.4,81.6z M12.6,80.5c0.6,0.1,1.1,0.1,1.5,0.1c1.3,0,2.3-0.6,3.1-1.8
			c0.8-1.2,1.1-2.5,1.1-3.8c0-0.9-0.2-1.6-0.7-2.1s-1.2-0.7-2-0.7c-0.2,0-0.4,0-0.7,0L12.6,80.5z"/>
		<path class="st0" d="M28.9,77.3l-2.2,8c1.8-3.9,3.1-6.3,4-7.2c0.5-0.5,1.1-0.8,1.7-0.8c0.4,0,0.7,0.1,1,0.4
			c0.2,0.3,0.4,0.7,0.4,1.2c0,0.9-0.2,1.7-0.7,2.3c-0.3,0.4-0.6,0.6-1,0.6s-0.7-0.2-0.9-0.5c-0.2-0.4-0.3-0.6-0.4-0.6
			c-0.1-0.1-0.2-0.1-0.2-0.1c-0.1,0-0.2,0-0.3,0.1c-0.2,0.1-0.5,0.4-0.8,0.8s-0.7,1.2-1.2,2.2s-0.9,1.9-1.2,2.6s-0.7,2.1-1.2,4.1
			h-3.5l2.4-9.5c0.2-0.7,0.3-1.2,0.3-1.4c0-0.3,0-0.5-0.1-0.6s-0.2-0.2-0.4-0.3c-0.2-0.1-0.5-0.1-1-0.1l0.1-0.4l4.3-0.9L28.9,77.3
			L28.9,77.3z"/>
		<path class="st0" d="M42.9,77.3c0.8,0,1.5,0.2,2.1,0.5c0.7,0.3,1.2,0.8,1.5,1.4s0.5,1.3,0.5,2.1c0,1.5-0.4,3.1-1.3,4.6
			c-0.9,1.5-2,2.8-3.4,3.7c-1.4,0.9-2.8,1.3-4.3,1.3c-1.3,0-2.3-0.4-3-1.2c-0.7-0.8-1.1-1.7-1.1-2.8c0-1.3,0.3-2.6,0.8-3.7
			c0.5-1.2,1.2-2.2,2-3c0.8-0.9,1.8-1.6,2.8-2.1C40.7,77.5,41.8,77.3,42.9,77.3z M42.3,78c-0.5,0-0.9,0.1-1.3,0.4
			c-0.7,0.6-1.4,2-2.3,4.2c-0.8,2.2-1.3,4.2-1.3,6c0,0.4,0.1,0.8,0.4,1.1c0.3,0.3,0.6,0.4,0.9,0.4c0.4,0,0.7-0.1,1-0.3
			c0.4-0.3,0.9-1.1,1.5-2.3c0.6-1.2,1.1-2.5,1.5-4c0.4-1.4,0.6-2.8,0.6-4c0-0.5-0.1-0.9-0.4-1.1C42.9,78.1,42.6,78,42.3,78z"/>
		<path class="st0" d="M58.9,87l0.4,0.4c-0.9,1.1-1.8,1.9-2.7,2.4c-1.2,0.7-2.4,1-3.7,1c-0.9,0-1.6-0.2-2.3-0.5
			c-0.7-0.4-1.1-0.9-1.5-1.5c-0.3-0.7-0.5-1.3-0.5-2c0-1.6,0.4-3.1,1.3-4.6c0.8-1.5,2-2.7,3.4-3.6s2.8-1.3,4.1-1.3
			c1.1,0,1.9,0.2,2.4,0.7s0.8,1.1,0.8,1.8c0,0.6-0.2,1.2-0.6,1.6c-0.4,0.4-0.9,0.7-1.4,0.7c-0.4,0-0.8-0.1-1.1-0.4s-0.4-0.6-0.4-1
			c0-0.5,0.3-1,0.8-1.3c0.4-0.3,0.5-0.5,0.5-0.7s-0.1-0.3-0.2-0.4c-0.2-0.2-0.4-0.2-0.7-0.2c-0.8,0-1.6,0.3-2.3,1
			c-0.9,0.9-1.6,1.9-2.1,3.3c-0.5,1.3-0.7,2.6-0.7,3.7c0,0.9,0.3,1.7,0.8,2.2c0.5,0.6,1.1,0.8,1.8,0.8c0.6,0,1.3-0.2,2-0.5
			C57.6,88.2,58.3,87.7,58.9,87z"/>
		<path class="st0" d="M69.3,73.8l-1.1,3.9h1.9l-0.5,1.6h-1.8l-2.4,8.3c-0.2,0.5-0.2,0.9-0.2,1.2c0,0.1,0,0.2,0.1,0.3
			c0.1,0.1,0.2,0.1,0.3,0.1c0.2,0,0.3-0.1,0.5-0.2c0.4-0.3,0.9-0.9,1.5-1.7l0.5,0.3c-0.7,1.1-1.4,2-2.2,2.5
			c-0.8,0.5-1.6,0.8-2.3,0.8c-0.6,0-1.2-0.2-1.5-0.5c-0.4-0.3-0.5-0.8-0.5-1.3c0-0.6,0.1-1.3,0.4-2.1l2.3-7.7h-1.9l0.3-1.1
			c1.2-0.4,2.2-1,3.1-1.6c0.8-0.6,1.8-1.6,3-2.9h0.5L69.3,73.8L69.3,73.8z"/>
		<path class="st0" d="M73.6,85.1c-0.1,0.6-0.1,1.1-0.1,1.5c0,0.7,0.2,1.3,0.6,1.7c0.4,0.4,1,0.6,1.7,0.6s1.3-0.2,2-0.5
			s1.5-0.9,2.3-1.7l0.4,0.4c-1.1,1.3-2.2,2.3-3.2,2.8c-1,0.6-2.2,0.8-3.4,0.8c-1.6,0-2.7-0.4-3.3-1.1C70,88.8,69.7,88,69.7,87
			c0-1.6,0.5-3.1,1.4-4.7s2.2-2.8,3.7-3.8c1.6-0.9,3.1-1.4,4.7-1.4c0.8,0,1.4,0.2,1.8,0.6s0.6,0.9,0.6,1.4c0,0.7-0.2,1.4-0.6,2
			c-0.6,0.9-1.2,1.6-2.1,2.2c-0.8,0.5-1.8,1-2.8,1.2C75.7,84.9,74.8,85,73.6,85.1z M73.7,84.4c0.8-0.1,1.5-0.3,1.9-0.5
			c0.5-0.2,0.9-0.6,1.4-1c0.4-0.5,0.8-1.1,1.2-1.8c0.3-0.7,0.5-1.4,0.5-2c0-0.3-0.1-0.5-0.2-0.6c-0.1-0.2-0.3-0.2-0.6-0.2
			c-0.5,0-1,0.3-1.5,1C75.3,80.3,74.4,82.1,73.7,84.4z"/>
		<path class="st0" d="M88.9,77.3l-2.2,8c1.8-3.9,3.1-6.3,4-7.2c0.5-0.5,1.1-0.8,1.7-0.8c0.4,0,0.7,0.1,1,0.4
			c0.2,0.3,0.4,0.7,0.4,1.2c0,0.9-0.2,1.7-0.7,2.3c-0.3,0.4-0.6,0.6-1,0.6s-0.7-0.2-0.9-0.5c-0.2-0.4-0.3-0.6-0.4-0.6
			c-0.1-0.1-0.2-0.1-0.2-0.1c-0.1,0-0.2,0-0.3,0.1c-0.2,0.1-0.5,0.4-0.8,0.8s-0.7,1.2-1.2,2.2s-0.9,1.9-1.2,2.6
			c-0.3,0.7-0.7,2.1-1.2,4.1h-3.5l2.4-9.5c0.2-0.7,0.3-1.2,0.3-1.4c0-0.3,0-0.5-0.1-0.6s-0.2-0.2-0.4-0.3c-0.2-0.1-0.5-0.1-1-0.1
			l0.1-0.4l4.3-0.9L88.9,77.3L88.9,77.3z"/>
		<path class="st0" d="M109.1,79.8c-0.1-0.5-0.1-1-0.2-1.4c0-0.4-0.1-0.8-0.1-1.1c0-1.9,0.6-3.5,1.8-4.7c1.2-1.3,2.6-1.9,4.2-1.9
			c1,0,1.9,0.3,2.5,0.9s0.9,1.3,0.9,2.1c0,1-0.3,1.9-0.9,2.6c-0.9,1.1-2.4,2.1-4.3,2.9c0.6,2,1.1,3.4,1.3,4c0.2,0.6,0.6,1.3,1,2
			c0.5-0.6,0.9-1.2,1.2-1.7c0.2-0.6,0.4-1,0.4-1.4c0-0.3-0.1-0.6-0.3-0.8c-0.2-0.2-0.5-0.4-0.9-0.5l0.2-0.5h5.5l-0.2,0.5
			c-0.5,0.1-0.9,0.3-1.3,0.6c-0.4,0.3-1,1.1-2,2.4c-0.7,0.9-1.3,1.7-2,2.4c0.8,1.1,1.5,1.8,2.1,2.2c0.4,0.3,0.9,0.4,1.4,0.4
			c0.3,0,0.6,0,0.8-0.1c0.2-0.1,0.5-0.3,0.8-0.5h0.5c-0.5,1-1.1,1.7-1.8,2.2c-0.8,0.5-1.6,0.7-2.6,0.7c-0.8,0-1.5-0.2-2.2-0.5
			c-0.6-0.3-1.3-0.9-2-1.6c-1,0.7-2,1.2-3,1.6s-2,0.5-3,0.5c-1.5,0-2.6-0.4-3.5-1.2c-0.9-0.8-1.3-1.8-1.3-2.9c0-0.9,0.2-1.7,0.6-2.3
			c0.4-0.7,1.1-1.4,2.1-2.2C105.7,81.5,107.2,80.7,109.1,79.8z M112.8,78.1c0.8-0.6,1.4-1.1,1.7-1.7c0.5-0.8,0.8-1.7,0.8-2.6
			c0-0.7-0.1-1.2-0.4-1.6c-0.2-0.3-0.5-0.4-0.9-0.4s-0.8,0.2-1,0.5c-0.4,0.5-0.5,1.3-0.5,2.4c0,0.5,0,1,0.1,1.6
			C112.6,76.9,112.7,77.5,112.8,78.1z M109.4,80.9c-1.1,0.6-1.9,1.2-2.4,1.9c-0.5,0.6-0.7,1.4-0.7,2.3c0,1.1,0.3,2,1,2.8
			c0.7,0.7,1.4,1.1,2.3,1.1c0.4,0,0.8-0.1,1.2-0.2c0.4-0.2,0.9-0.4,1.4-0.7c-0.6-0.9-1.1-2-1.7-3.3C110,83.3,109.6,82.1,109.4,80.9z
			"/>
		<path class="st0" d="M152.6,70.7l-1.3,6.2h-0.5c-0.1-1.8-0.5-3.1-1.2-3.9s-1.8-1.2-3.1-1.2c-1.4,0-2.7,0.5-4.1,1.5
			s-2.5,2.5-3.5,4.5s-1.4,4.1-1.4,6.3c0,1.9,0.4,3.4,1.3,4.4s1.9,1.5,3,1.5c0.5,0,1.1-0.1,1.8-0.4l1.5-5.1c0.2-0.9,0.4-1.4,0.4-1.7
			c0-0.4-0.2-0.6-0.5-0.9c-0.3-0.2-0.8-0.4-1.5-0.4l0.1-0.5h8.4l-0.1,0.5c-0.5,0-0.9,0.1-1.2,0.3c-0.3,0.2-0.5,0.4-0.7,0.7
			c-0.1,0.2-0.2,0.6-0.4,1.4l-1.8,6c-2,0.8-4.1,1.1-6.3,1.1c-1.7,0-3.2-0.3-4.4-0.9c-1.2-0.6-2.2-1.6-3-2.9s-1.2-2.9-1.2-4.6
			c0-3.7,1.6-6.7,4.9-9c2.5-1.8,5.4-2.8,8.7-2.8c0.6,0,1.1,0,1.6,0.1c0.4,0,1,0.2,1.9,0.4c0.6,0.1,1,0.2,1.2,0.2
			c0.4,0,0.8-0.2,1.2-0.7h0.2V70.7z"/>
		<path class="st0" d="M165.8,77.5L163,87l-0.3,1.2c0,0.1,0,0.2,0,0.3c0,0.1,0,0.2,0.1,0.3c0.1,0.1,0.2,0.1,0.3,0.1
			c0.2,0,0.5-0.2,0.8-0.5c0.1-0.1,0.5-0.6,1-1.3l0.5,0.3c-0.7,1.2-1.4,2.1-2.2,2.7c-0.8,0.6-1.6,0.8-2.5,0.8c-0.5,0-1-0.1-1.2-0.4
			c-0.3-0.3-0.4-0.6-0.4-1.1c0-0.4,0.2-1.1,0.5-2.1l0.3-1.2c-1.1,1.9-2.2,3.2-3.2,4c-0.6,0.5-1.2,0.7-1.9,0.7
			c-0.9,0-1.5-0.4-1.9-1.1s-0.6-1.5-0.6-2.4c0-1.3,0.4-2.9,1.2-4.6c0.8-1.7,1.9-3.1,3.2-4.2c1.1-0.9,2.1-1.3,3.1-1.3
			c0.5,0,1,0.2,1.3,0.5s0.6,0.9,0.7,1.7l0.5-1.8L165.8,77.5z M161.3,80.2c0-0.8-0.1-1.3-0.4-1.7c-0.2-0.2-0.4-0.4-0.7-0.4
			c-0.3,0-0.6,0.1-0.9,0.4c-0.6,0.6-1.3,1.8-2.1,3.6c-0.7,1.8-1.1,3.4-1.1,4.7c0,0.5,0.1,0.9,0.2,1.1c0.2,0.2,0.4,0.3,0.6,0.3
			c0.4,0,0.9-0.2,1.3-0.7c0.6-0.7,1.2-1.6,1.7-2.6C160.8,83.1,161.3,81.6,161.3,80.2z"/>
		<path class="st0" d="M174.2,77.3l-1.8,6.1c1.2-1.9,2.1-3.2,2.7-3.8c0.8-1,1.5-1.6,2-1.9s1.1-0.4,1.6-0.4c0.6,0,1.1,0.2,1.3,0.6
			c0.3,0.4,0.4,0.8,0.4,1.2c0,0.5-0.1,1.2-0.4,2.1l-0.6,2.3c1.2-1.9,2.1-3.2,2.7-3.8c0.8-1,1.6-1.6,2.2-2c0.4-0.2,0.9-0.4,1.4-0.4
			s0.9,0.2,1.3,0.5c0.3,0.3,0.5,0.8,0.5,1.3c0,0.6-0.1,1.4-0.4,2.4l-1.6,5.3c-0.2,0.8-0.4,1.3-0.4,1.5c0,0.1,0,0.1,0.1,0.2
			s0.1,0.1,0.2,0.1s0.2,0,0.3-0.1c0.3-0.3,0.7-0.7,1.1-1.2c0.1-0.1,0.2-0.3,0.4-0.5l0.5,0.3c-0.7,1.2-1.4,2.1-2.2,2.7
			c-0.8,0.6-1.5,0.9-2.2,0.9c-0.6,0-1-0.2-1.4-0.5s-0.5-0.7-0.5-1.1s0.1-1,0.4-1.9l1.6-5.6c0.2-0.8,0.3-1.3,0.3-1.4s0-0.1-0.1-0.2
			s-0.1-0.1-0.2-0.1s-0.2,0-0.4,0.1c-0.2,0.1-0.5,0.3-0.8,0.7c-0.4,0.4-0.9,1.1-1.6,2.2c-0.7,1-1.2,1.8-1.5,2.4s-0.5,1.3-0.8,2.3
			l-0.9,2.9h-3.6l2.7-9.3c0.1-0.5,0.2-0.9,0.2-1s0-0.1-0.1-0.2s-0.1-0.1-0.2-0.1c-0.4,0-0.9,0.5-1.7,1.4c-1.2,1.4-2.2,3.1-3.2,5.2
			l-1.2,4.1h-3.6l2.7-9.2c0.3-0.9,0.4-1.5,0.4-1.9c0-0.2,0-0.3-0.1-0.4s-0.2-0.2-0.4-0.3c-0.2-0.1-0.5-0.1-1-0.1l0.1-0.5l4.9-0.8
			h0.9L174.2,77.3L174.2,77.3z"/>
		<path class="st0" d="M198.4,70.7l-2.5,8.6c0.8-0.8,1.4-1.4,1.9-1.6c0.5-0.3,1.1-0.4,1.6-0.4c1.1,0,2,0.4,2.6,1.2
			c0.6,0.8,0.9,1.8,0.9,2.8c0,2.6-0.9,4.9-2.8,6.9c-1.7,1.8-3.5,2.7-5.7,2.7c-1.6,0-3.2-0.5-5-1.4l4.4-15.1c0.2-0.7,0.3-1.2,0.3-1.5
			c0-0.2-0.1-0.4-0.3-0.5c-0.3-0.2-0.7-0.3-1.2-0.2l0.2-0.6l4.8-0.8h0.8L198.4,70.7L198.4,70.7z M193,89.6c0.4,0.3,0.9,0.4,1.2,0.4
			c0.5,0,0.9-0.1,1.3-0.3c0.5-0.3,1.1-0.9,1.7-1.8c0.6-0.8,1.1-1.9,1.5-3.1s0.6-2.4,0.6-3.6c0-0.7-0.2-1.2-0.5-1.5
			c-0.3-0.4-0.7-0.5-1.1-0.5c-0.7,0-1.2,0.3-1.7,1c-0.3,0.4-0.7,1.3-1.1,2.7L193,89.6z"/>
		<path class="st0" d="M213.1,70.7l-4.7,16.1c-0.3,1-0.4,1.5-0.4,1.8c0,0.1,0,0.2,0.1,0.3c0.1,0.1,0.2,0.1,0.3,0.1
			c0.2,0,0.3-0.1,0.5-0.2c0.5-0.4,1-1,1.5-1.9l0.6,0.3c-0.9,1.4-1.8,2.5-2.7,3.1c-0.6,0.4-1.2,0.6-1.9,0.6c-0.6,0-1.1-0.2-1.5-0.5
			s-0.6-0.8-0.6-1.2c0-0.4,0.1-0.9,0.3-1.7l3.9-13.2c0.2-0.7,0.3-1.2,0.3-1.4c0-0.2-0.1-0.4-0.3-0.5c-0.3-0.2-0.7-0.3-1.2-0.2
			l0.2-0.5l4.8-0.8h0.8L213.1,70.7L213.1,70.7z"/>
		<path class="st0" d="M216.5,85.1c-0.1,0.6-0.1,1.1-0.1,1.5c0,0.7,0.2,1.3,0.6,1.7c0.4,0.4,1,0.6,1.7,0.6s1.3-0.2,2-0.5
			s1.5-0.9,2.3-1.7l0.4,0.4c-1.1,1.3-2.2,2.3-3.2,2.8c-1,0.6-2.2,0.8-3.4,0.8c-1.6,0-2.7-0.4-3.3-1.1c-0.6-0.8-0.9-1.6-0.9-2.6
			c0-1.6,0.5-3.1,1.4-4.7s2.2-2.8,3.7-3.8c1.6-0.9,3.1-1.4,4.7-1.4c0.8,0,1.4,0.2,1.8,0.6s0.6,0.9,0.6,1.4c0,0.7-0.2,1.4-0.6,2
			c-0.6,0.9-1.2,1.6-2.1,2.2c-0.8,0.5-1.8,1-2.8,1.2C218.6,84.9,217.7,85,216.5,85.1z M216.6,84.4c0.8-0.1,1.5-0.3,1.9-0.5
			c0.5-0.2,0.9-0.6,1.4-1c0.4-0.5,0.8-1.1,1.2-1.8c0.3-0.7,0.5-1.4,0.5-2c0-0.3-0.1-0.5-0.2-0.6c-0.1-0.2-0.3-0.2-0.6-0.2
			c-0.5,0-1,0.3-1.5,1C218.2,80.3,217.3,82.1,216.6,84.4z"/>
	</g>
</g>
</svg>
