<?xml version="1.0" encoding="utf-8"?>
<!-- Generator: Adobe Illustrator 28.3.0, SVG Export Plug-In . SVG Version: 6.00 Build 0)  -->
<svg version="1.1" id="Layer_1" xmlns="http://www.w3.org/2000/svg" xmlns:xlink="http://www.w3.org/1999/xlink" x="0px" y="0px"
	 viewBox="0 0 350 138" style="enable-background:new 0 0 350 138;" xml:space="preserve">
<style type="text/css">
	.st0{fill:#939598;}
</style>
<g id="XMLID_42_">
	<g id="XMLID_43_">
		<polygon id="XMLID_41_" class="st0" points="59.8,1.4 1.6,35 1.6,64.7 59.8,30.9 92.5,49.6 86,53.4 59.8,38.3 37,51.5 89.1,81.7 
			118,64.8 118,35 		"/>
		<polygon id="XMLID_38_" class="st0" points="59.8,135.6 118,102.1 118,72.3 59.8,106.2 27.1,87.4 33.6,83.6 59.8,98.7 82.6,85.5 
			30.5,55.3 1.6,72.2 1.6,102.1 		"/>
		<g id="XMLID_47_">
			<path id="XMLID_50_" class="st0" d="M176.1,45.6c5.2-7.7,13-11.5,23.4-11.5c9.4,0,17.1,3.3,22.9,9.8s8.8,14.4,8.8,24
				c0,9.5-2.9,17.5-8.8,24s-13.7,9.8-23.6,9.8s-17.5-3.9-22.8-11.6v36.5h-9.8V35.2h9.8v10.4H176.1z M198.3,43
				c-7.1,0-12.7,2.4-16.8,7.3c-3.9,4.6-5.9,10.5-5.9,17.5c0,7.1,2,12.9,5.9,17.5c4.1,4.9,9.7,7.3,16.8,7.3c7,0,12.7-2.4,17-7.3
				c4.1-4.6,6.2-10.5,6.2-17.5c0-7.1-2.1-12.9-6.2-17.5C210.9,45.4,205.2,43,198.3,43"/>
			<polygon id="XMLID_33_" class="st0" points="251.7,100.6 251.7,43.8 238.3,43.8 238.3,35.1 251.7,35.1 251.7,11.7 261.5,11.7 
				261.5,35.1 276.5,35.1 276.5,43.8 261.5,43.8 261.5,100.6 			"/>
			<path id="XMLID_32_" class="st0" d="M317.9,92.7c4.2,0,7.9-1.2,11.1-3.5c3.2-2.4,5.6-5.4,7.1-9.2h10.6c-2,6.5-5.7,11.7-11,15.6
				c-5.6,4-12.2,6-19.9,6c-9.6,0-17.4-3.3-23.4-9.8c-5.8-6.4-8.8-14.4-8.8-24s2.9-17.6,8.8-24c6-6.5,13.8-9.8,23.4-9.8
				c7.7,0,14.3,2,19.9,6c5.3,3.9,9,9.1,11,15.6h-10.6c-1.5-3.8-3.8-6.8-7.1-9.2c-3.2-2.4-6.9-3.5-11.1-3.5s-7.7,0.7-10.7,2
				c-2.9,1.3-5.4,3.1-7.4,5.4c-4.3,4.7-6.4,10.6-6.4,17.5c0,7,2.1,12.8,6.4,17.5C304.2,90.3,310.2,92.7,317.9,92.7"/>
		</g>
	</g>
</g>
</svg>
