<?xml version="1.0" encoding="utf-8"?>
<!-- Generator: Adobe Illustrator 28.3.0, SVG Export Plug-In . SVG Version: 6.00 Build 0)  -->
<svg version="1.1" id="Layer_1" xmlns="http://www.w3.org/2000/svg" xmlns:xlink="http://www.w3.org/1999/xlink" x="0px" y="0px"
	 viewBox="0 0 354 71.2" style="enable-background:new 0 0 354 71.2;" xml:space="preserve">
<style type="text/css">
	.st0{fill:#939598;}
</style>
<g>
	<path class="st0" d="M233.7,32.4c0-1.8,0-3.5,0.1-5.2s0.2-3.3,0.4-4.9c0.2-1.6,0.5-3.1,0.8-4.6s0.7-2.9,1.2-4.2
		c0.5-1.3,1-2.6,1.7-3.7c0.6-1.2,1.4-2.2,2.2-3.2c0.8-1,1.8-1.8,2.9-2.5s2.3-1.3,3.7-1.7c1.4-0.4,2.9-0.6,4.7-0.6h85.5
		c1.1,0,1.9,0.9,1.9,1.9v8.4c0,1.1-0.9,1.9-1.9,1.9h-74.6c-1.1,0-1.9,0.9-1.9,1.9v32.9c0,1.1,0.9,1.9,1.9,1.9h74.6
		c1.1,0,1.9,0.9,1.9,1.9V61c0,1.1-0.9,1.9-1.9,1.9h-85.5c-1.8,0-3.3-0.2-4.7-0.6c-1.4-0.4-2.6-1-3.7-1.7s-2-1.6-2.9-2.5
		c-0.8-1-1.6-2-2.2-3.2s-1.2-2.4-1.7-3.7c-0.5-1.3-0.9-2.7-1.2-4.2c-0.3-1.5-0.6-3-0.8-4.6c-0.2-1.6-0.3-3.2-0.4-4.9
		C233.7,35.9,233.7,34.2,233.7,32.4"/>
	<path class="st0" d="M120.7,20.2c0-1.4,0.1-2.7,0.2-3.9c0.1-1.2,0.3-2.4,0.6-3.5s0.6-2.1,1-3.1s0.9-1.9,1.4-2.7
		c0.6-0.8,1.2-1.5,1.9-2.2c0.7-0.6,1.5-1.2,2.5-1.6c0.9-0.4,1.9-0.8,3.1-1s2.4-0.4,3.7-0.4h88.4c1.3,0,2.4,1.1,2.4,2.4v7.6
		c0,1.3-1.1,2.4-2.4,2.4h-72.1c-1.1,0-1.9,0.9-1.9,1.9v8.1c0,1.1,0.9,1.9,1.9,1.9h61.2c1.4,0,2.6,0.1,3.7,0.4c1.1,0.2,2.1,0.6,3.1,1
		c0.9,0.4,1.7,1,2.5,1.6c0.7,0.6,1.4,1.4,1.9,2.2c0.6,0.8,1,1.7,1.4,2.7s0.7,2,1,3.1s0.4,2.3,0.6,3.5c0.1,1.2,0.2,2.5,0.2,3.9
		s-0.1,2.7-0.2,3.9c-0.1,1.2-0.3,2.4-0.6,3.5c-0.3,1.1-0.6,2.1-1,3.1s-0.9,1.9-1.4,2.7c-0.6,0.8-1.2,1.5-1.9,2.2
		c-0.7,0.6-1.5,1.2-2.5,1.6c-0.9,0.4-1.9,0.8-3.1,1c-1.1,0.2-2.4,0.4-3.7,0.4H124c-1.3,0-2.4-1.1-2.4-2.4v-7.2
		c0-1.3,1.1-2.4,2.4-2.4h72.1c1.1,0,1.9-0.9,1.9-1.9v-8.6c0-1.1-0.9-1.9-1.9-1.9H135c-1.4,0-2.6-0.1-3.7-0.4c-1.1-0.2-2.1-0.6-3.1-1
		c-0.9-0.4-1.7-1-2.5-1.6c-0.7-0.6-1.4-1.4-1.9-2.2c-0.6-0.8-1-1.7-1.4-2.7s-0.7-2-1-3.1s-0.4-2.3-0.6-3.5
		C120.7,22.9,120.7,21.6,120.7,20.2"/>
	<polygon class="st0" points="345.1,1.8 345.1,2.5 343.6,2.5 343.6,7.6 342.9,7.6 342.9,2.5 341.4,2.5 341.4,1.8 	"/>
	<polygon class="st0" points="347.3,7.6 346.6,7.6 346.6,1.8 347.8,1.8 349.2,6.6 349.2,6.6 350.7,1.8 351.9,1.8 351.9,7.6 
		351.1,7.6 351.1,2.5 351.1,2.5 349.5,7.6 348.8,7.6 347.3,2.5 347.3,2.5 	"/>
	<path class="st0" d="M2.1,32.4c0-1.8,0-3.5,0.2-5.2c0.1-1.7,0.3-3.3,0.5-4.9s0.5-3.1,0.8-4.5c0.3-1.5,0.7-2.8,1.2-4.1
		c0.5-1.3,1-2.5,1.7-3.7c0.6-1.1,1.4-2.2,2.2-3.2s1.8-1.8,2.8-2.5c1.1-0.7,2.3-1.3,3.6-1.7C16.5,2.2,18,1.9,19,1.9h78.3h0.9
		c1.3,0,2.4,0.1,3.5,0.2s2.1,0.4,3.1,0.6c1,0.3,1.9,0.6,2.7,1.1c0.8,0.4,1.6,0.9,2.2,1.5c0.7,0.6,1.2,1.3,1.7,2
		c0.5,0.8,0.9,1.6,1.1,2.6c0.3,1,0.4,2.1,0.4,3.3v38.2c0,1.3-0.2,2.3-0.4,3.3c-0.3,1-0.7,1.9-1.1,2.6c-0.5,0.8-1.1,1.4-1.7,2
		c-0.7,0.6-1.4,1.1-2.2,1.5s-1.7,0.8-2.7,1.1c-1,0.3-2,0.5-3.1,0.6c-0.7,0.1-1.8,0.2-2.6,0.2H88.6c0,0,0,5.7,0,6.2
		c0,1-0.9,0.9-0.9,0.9H68.3c0,0-0.9,0.1-0.9-1c0-0.4,0-6.1,0-6.1l0,0H20c-1.9,0-3.5-0.2-4.8-0.7c-1.4-0.4-2.6-1-3.6-1.7
		c-1.1-0.7-2-1.6-2.8-2.5c-0.8-1-1.6-2-2.2-3.2c-0.6-1.1-1.2-2.4-1.7-3.7c-0.5-1.3-0.9-2.7-1.2-4.1c-0.3-1.5-0.6-3-0.8-4.5
		c-0.2-1.6-0.4-3.2-0.5-4.9C2.2,35.9,2.1,32.4,2.1,32.4 M88.5,50.4h5.6c1.7,0,3.1-1.4,3.1-3.1V16.6c0-1.7-1.4-3.1-3.1-3.1H31.4
		c-1.7,0-3.1,1.4-3.1,3.1v30.7c0,1.7,1.4,3.1,3.1,3.1h36V44c0,0,0-0.8,0.8-0.8h19.6c0,0,0.8,0.1,0.8,0.8L88.5,50.4z"/>
</g>
</svg>
