<?xml version="1.0" encoding="utf-8"?>
<!-- Generator: Adobe Illustrator 28.3.0, SVG Export Plug-In . SVG Version: 6.00 Build 0)  -->
<svg version="1.1" id="Layer_1" xmlns="http://www.w3.org/2000/svg" xmlns:xlink="http://www.w3.org/1999/xlink" x="0px" y="0px"
	 viewBox="0 0 485.3 135.9" style="enable-background:new 0 0 485.3 135.9;" xml:space="preserve">
<style type="text/css">
	.st0{fill:#939598;}
</style>
<g>
	<path class="st0" d="M114.9,128.9c1.4,1,3.3,1,4.6-0.1c1-0.8,2.3-2,3.9-3.5c1.5-1.5,2.9-2.8,3.9-4c1.5-1.6,1.2-4.2-0.5-5.5
		l-10.2-7.5c0,0-1.8,2.5-5.7,6.1s-6.8,6-6.8,6L114.9,128.9L114.9,128.9z"/>
	<path class="st0" d="M225.6,95.4c0,25.9-18.6,38.1-39.6,38.1c-21.1,0-39.6-12.2-39.6-38.1v-49c0-2,1.6-3.6,3.6-3.6h10.1v51.3
		c0,18,10.9,26.5,25.8,26.5c14.9,0,25.8-8.5,25.8-26.5V42.8h10.2c2,0,3.5,1.6,3.5,3.5v49.1H225.6z"/>
	<path class="st0" d="M254.2,81.7h55.9c-1.7-16.3-12.4-26.8-27.2-26.8C266.8,54.9,256.4,66,254.2,81.7L254.2,81.7z M324.1,87.7
		c0,0.5,0,0.9,0,1.4c-0.1,2.1-1.8,3.8-3.9,3.8H254c1.9,18.8,15.1,28.4,30.8,28.4c9.6,0,18-3.3,25-8.8c1.5-1.1,3.6-0.8,4.7,0.6
		l5.2,6.6c-10.9,10.4-23,13.6-35.8,13.6c-25.8,0-44.1-18.3-44.1-45.3c0-26.7,18.4-45.3,43.2-45.3C306.8,42.8,324,61.2,324.1,87.7
		L324.1,87.7z"/>
	<path class="st0" d="M402.5,59.7c-1,1.7-3.1,2.3-4.9,1.4c-6.1-3.3-15.6-6.3-25.5-6.3c-12.4,0-20.6,5.2-20.6,13.7
		c0,7.3,6.3,10.9,17.8,12.2l10.3,1.3c18.5,2.4,29.3,10,29.3,24.3c0,16.6-14.9,27-38.4,27c-11.2,0-25.3-2.8-36.3-11.1l4.1-6.7
		c1.2-1.9,3.6-2.5,5.5-1.3c6.2,4.1,14.5,7.1,26.9,7.1c14.7,0,24-4.9,24-14.1c0-7-5.9-11.2-18.2-12.7l-10.4-1.2
		c-19.6-2.4-28.8-11.1-28.8-24.1c0-16.5,13.9-26.4,34.8-26.4c12.1,0,23.3,3,31.5,7.6c1.7,1,2.4,3.2,1.4,4.9L402.5,59.7L402.5,59.7z"
		/>
	<path class="st0" d="M479.3,117.5c-1.1-1.7-3.3-2.2-5-1.3c-4.5,2.6-9.8,4.2-15.3,4.2c-10.1,0-17.3-6-17.3-19.6V55.2H465
		c1.9,0,3.5-1.6,3.5-3.5v-8.9h-26.8V20.4c0-2-1.7-3.7-3.7-3.7h-10v26h-5.5c-2.2,0-4.1,1.8-4.1,4.1v8.3h9.6V101
		c0,21.9,11.1,32.2,29.9,32.2c10.7,0,19.3-3.7,25.8-8.6l0,0L479.3,117.5L479.3,117.5z"/>
	<path class="st0" d="M130.7,65.7C129.4,29.8,99.1,1.6,63.1,2.9c-2,0.1-4,0.2-5.9,0.5C24.1,7.6-0.9,36.6,0.3,70.5
		c1.3,35.9,31.6,64.1,67.6,62.8c13.1-0.5,25.5-4.9,36.1-12.7l-10-7.3c-1.1-0.8-2.6-0.9-3.8-0.2c-7.7,4.3-16.6,6.8-26.1,6.5
		c-26.3-0.7-48-21.9-49.2-48.2C13.5,40.9,39.2,16,70,18.7c24.5,2.1,44.1,22.2,45.9,46.7c0.8,11.9-2.5,23-8.6,32
		c-1.1,1.6-0.8,3.8,0.8,5l8.5,6.2C126.3,96.4,131.3,81.4,130.7,65.7L130.7,65.7z"/>
	<path class="st0" d="M482.5,18.5l-3.4,8.3h-0.4l-3.4-8.3v8.3H474V16.7h2l2.9,7.3l2.9-7.3h2v10.1h-1.3L482.5,18.5L482.5,18.5z
		 M469.5,26.8h-1.3v-8.9h-2.8v-1.2h7v1.2h-2.8v8.9H469.5z"/>
</g>
</svg>
