<?xml version="1.0" encoding="utf-8"?>
<!-- Generator: Adobe Illustrator 28.3.0, SVG Export Plug-In . SVG Version: 6.00 Build 0)  -->
<svg version="1.1" id="Layer_1" xmlns="http://www.w3.org/2000/svg" xmlns:xlink="http://www.w3.org/1999/xlink" x="0px" y="0px"
	 viewBox="0 0 425.3 92" style="enable-background:new 0 0 425.3 92;" xml:space="preserve">
<style type="text/css">
	.st0{fill:#939598;}
</style>
<g>
	<g>
		<g>
			<path class="st0" d="M14.2,17.5l0.3,0.2c4-9.3,11.8-14.4,24.4-14.4c2.1,0,4.3,0.3,6.6,1l0.8,8.6c-3.3-1-6.5-1.6-9.8-1.6
				c-15.1,0-22.3,14.1-22.3,27.7v48h-10V5.2h10V17.5z"/>
			<path class="st0" d="M16.6,89.3H1.9V2.8h14.7v7.1C21.6,4,29.1,1,38.9,1c2.3,0,4.7,0.3,7.2,1.1l1.5,0.4l1.3,13.6l-3.3-1
				c-3.6-1.1-6.4-1.5-9.1-1.5c-13.7,0-20,13.1-20,25.3v50.4H16.6z M6.6,84.6h5.3V38.9c0-14.5,7.7-30,24.7-30c2.3,0,4.5,0.3,7.1,0.8
				l-0.3-3.6c-1.5-0.3-3-0.5-4.4-0.5c-11.2,0-18.5,4.3-22.2,13l-1,2.4L12,18.8V7.4H6.7L6.6,84.6L6.6,84.6z"/>
		</g>
		<g>
			<path class="st0" d="M109.1,36.5h-0.3c-10.1,12.6-49.3,8.6-49.3,31c0,6.4,5.3,14.7,21,14.7c6.4,0,12.8-1.3,18.6-3.5l-1.8,7.9
				c-5.5,1.4-11.3,2-21,2c-18.9,0-26.7-11.7-26.7-21.8c0-19.7,23.7-24.2,40.7-28.5c7.9-2,18.9-5.5,18.9-15.6
				c0-11.3-13.1-13.1-21.5-13.1c-10.1,0-20.2,2-29.8,6.8l1.5-9.1c9.3-2.5,18.7-4.1,28.5-4.1c18.8,0,31.3,5.8,31.3,20.7v62.9h-9.9
				L109.1,36.5L109.1,36.5z"/>
			<path class="st0" d="M76.2,91.1c-19.9,0-29-12.5-29-24.2c0-20.3,22.6-25.8,39.1-29.9l3.4-0.9c8.5-2.1,17.1-5.3,17.1-13.3
				c0-8.9-10.4-10.8-19.2-10.8c-10.4,0-20,2.2-28.8,6.6l-4.1,2.1l2.5-15.1l1.5-0.4C69.3,2.4,78.8,1,87.8,1
				c27.8,0,33.6,12.5,33.6,23.1v65.3h-14.6V41.6c-4.9,3.3-11.8,5.2-19,7.2c-13.4,3.7-26,7.2-26,18.9c0,5.7,4.9,12.4,18.7,12.4
				c5.8,0,11.9-1.2,17.7-3.3l4.1-1.5l-3.1,13.6l-1.4,0.3C91.8,90.5,85.8,91.1,76.2,91.1z M87.6,7.3c15.4,0,23.9,5.5,23.9,15.5
				c0,12.7-14.5,16.3-20.7,17.8l-3.5,0.9c-16.6,4.1-35.5,8.8-35.5,25.4c0,9.7,7.5,19.5,24.3,19.5c8.4,0,13.9-0.5,19-1.6l0.6-2.4
				c-5.1,1.5-10.2,2.3-15.3,2.3C64.2,84.7,57,76.1,57,67.6C57,52.3,72.7,48,86.5,44.2c8.7-2.4,16.9-4.7,20.4-9.1l0.7-0.9h3.8v50.4
				h5.2V24c0-12.4-9.5-18.4-28.9-18.4c-8.2,0-16.8,1.2-26.4,3.7l-0.5,3.2C69.1,9.1,78,7.3,87.6,7.3z"/>
		</g>
		<g>
			<path class="st0" d="M148.1,19.6l0.3,0.4c3.8-9.9,14.2-16.7,26.5-16.7c12,0,22.5,5.3,25.5,17.5h0.3C205.8,9.1,215.9,3.3,229,3.3
				c14.4,0,26,7.1,26,22.4V87h-9.9V29c0-8.8-5.2-17.7-19-17.7c-19.9,0-24.5,19.4-24.5,29.3V87h-9.9V29c0-8.8-5.2-17.7-19.1-17.7
				c-19.9,0-24.5,19.4-24.5,29.3V87h-10V5.2h10V19.6z"/>
			<path class="st0" d="M257.4,89.3h-14.6V29c0-3.6-1.2-15.4-16.7-15.4c-21.9,0-22.2,25.9-22.2,27v48.7h-14.6V29
				c0-3.6-1.2-15.4-16.7-15.4c-7.9,0-13.8,3.3-17.7,9.8c-4.1,6.9-4.5,14.9-4.5,17.2v48.7h-14.7V2.8h14.7V12C156,5.2,165,1,174.8,1
				c12.4,0,21.8,5.3,26.1,14.4C206.8,6.1,216.6,1,229,1c17.5,0,28.3,9.5,28.3,24.7L257.4,89.3L257.4,89.3z M247.4,84.6h5.2V25.7
				c0-12.5-8.8-20-23.6-20c-12.5,0-21.6,5.6-26.2,16.1l-0.6,1.4h-3.7l-0.4-1.8c-3.5-14.2-17.4-15.7-23.2-15.7
				c-11,0-20.8,6.1-24.2,15.2l-0.5,1.3c3.9-7.3,10.9-13.3,22.4-13.3C188.4,8.9,194,19.7,194,29v55.6h5.2v-44
				c0-11.8,5.7-31.7,26.9-31.7c15.8,0,21.4,10.8,21.4,20.1L247.4,84.6L247.4,84.6z M140.5,84.6h5.2v-44c0-4.7,0.9-10.8,3.4-16.3
				l-3.4-3.6V7.6h-5.2V84.6z"/>
		</g>
		<g>
			<path class="st0" d="M330.9,86.4c-6.3,1.5-13.1,2.3-20,2.3c-24.7,0-40.4-16-40.4-42.7c0-34.8,23.7-42.7,40.4-42.7
				c6.3,0,13.9,1,21.4,3.3l1.3,8.8c-7.6-2.8-15.2-4.8-22.7-4.8c-20.7,0-30.4,13.1-30.4,35.5c0,18.2,7.9,35.5,30.4,35.5
				c9,0,15.2-2,21.7-4L330.9,86.4z"/>
			<path class="st0" d="M310.8,91.1c-26.4,0-42.7-17.3-42.7-45.1c0-41.8,32.7-45.1,42.7-45.1c7.2,0,15,1.2,22.1,3.4l1.4,0.4
				l2.1,14.1l-3.7-1.4c-8.7-3.2-15.6-4.6-21.9-4.6c-18.6,0-28.1,11.1-28.1,33.1c0,10,2.7,33.1,28.1,33.1c8.6,0,14.6-1.9,20.9-3.9
				l3.7-1.2l-0.6,3.8l-1.9,10.5l-1.5,0.4C324.8,90.3,317.9,91.1,310.8,91.1z M310.8,5.6c-11.4,0-38,3.9-38,40.4
				c0,24.9,14.6,40.4,38,40.4c6.1,0,12.2-0.6,18-1.9l0.7-3.6c-5.4,1.6-11.1,3-18.7,3c-20.5,0-32.8-14.1-32.8-37.8
				c0-24.4,11.6-37.8,32.8-37.8c5.9,0,12.3,1.2,19.8,3.6l-0.5-3.4C323.9,6.6,317.1,5.6,310.8,5.6z"/>
		</g>
		<g>
			<path class="st0" d="M421,46c0,26.7-15.7,42.7-40.4,42.7c-24.7,0-40.4-16-40.4-42.7c0-34.8,23.7-42.7,40.4-42.7
				C397.3,3.2,421,11.2,421,46 M350.1,46c0,18.2,8,35.5,30.4,35.5c22.5,0,30.4-17.3,30.4-35.5c0-22.4-9.7-35.5-30.4-35.5
				C359.9,10.5,350.1,23.6,350.1,46"/>
			<path class="st0" d="M380.6,91.1c-26.4,0-42.8-17.3-42.8-45.1c0-41.8,32.7-45.1,42.8-45.1c10,0,42.8,3.2,42.8,45.1
				C423.4,73.8,407,91.1,380.6,91.1z M380.6,5.6c-11.4,0-38.1,3.9-38.1,40.4c0,25.3,14.2,40.4,38.1,40.4c23.8,0,38.1-15.1,38.1-40.4
				C418.7,9.5,392,5.6,380.6,5.6z M380.6,83.8c-20.5,0-32.8-14.1-32.8-37.8c0-24.4,11.7-37.8,32.8-37.8c21.2,0,32.8,13.4,32.8,37.8
				C413.4,69.7,401.1,83.8,380.6,83.8z M380.6,12.9C362,12.9,352.5,24,352.5,46c0,10,2.7,33.1,28.1,33.1s28.1-23.2,28.1-33.1
				C408.7,24,399.2,12.9,380.6,12.9z"/>
		</g>
	</g>
</g>
</svg>
