<?xml version="1.0" encoding="utf-8"?>
<!-- Generator: Adobe Illustrator 28.3.0, SVG Export Plug-In . SVG Version: 6.00 Build 0)  -->
<svg version="1.1" id="Layer_1" xmlns="http://www.w3.org/2000/svg" xmlns:xlink="http://www.w3.org/1999/xlink" x="0px" y="0px"
	 viewBox="0 0 458.3 121.6" style="enable-background:new 0 0 458.3 121.6;" xml:space="preserve">
<style type="text/css">
	.st0{fill:#939598;}
	.st1{fill:#BBBBBC;}
</style>
<path class="st0" d="M70.3,56.5c0,7.7,0,15.5,0,23.2c0,5.3,0,10.7,0,16c0,0.7-0.1,1.2-0.8,1.5c-14.3,7.5-28.5,15-42.8,22.5
	c-0.2,0.1-0.4,0.2-0.6,0.3c-0.3-0.4-0.2-0.8-0.2-1.2c0-12.6,0-25.3,0-37.9c0-1,0.3-1.4,1.1-1.9c8.6-4.5,17.1-9,25.6-13.4
	c0.2-0.5,0.6-0.7,1-0.9c5-2.6,9.9-5.2,14.8-7.8C69.1,56.6,69.6,56.1,70.3,56.5z"/>
<path class="st0" d="M2.9,63.3c0-7.1,0-14.1,0-21.2c0-6,0-12.1,0-18.1c0-0.7,0.1-1.2,0.9-1.5C16.8,15.7,29.9,8.8,42.9,2
	c0.2-0.1,0.4-0.2,0.6-0.3c0.3,0.3,0.2,0.7,0.2,1c0,12.8,0,25.5,0,38.3c0,0.8-0.3,1.2-1,1.6c-7.4,3.9-14.8,7.7-22.1,11.6
	c-0.7,0.9-1.8,1.3-2.8,1.8c-4.5,2.3-8.9,4.8-13.5,7C3.8,63.2,3.4,63.7,2.9,63.3z"/>
<path class="st1" d="M70.3,56.5c-2.6,1-5,2.5-7.4,3.7c-3.4,1.7-6.8,3.6-10.1,5.4c-0.3-0.4-0.8-0.6-1.2-0.8
	c-6.2-3.3-12.4-6.5-18.7-9.8c-0.4-0.2-0.8-0.3-1.1-0.8c1.9-1,3.8-2,5.8-3c4.1-2.2,8.3-4.4,12.4-6.5c0.8-0.4,1-0.8,1-1.7
	c0-5.9,0-11.8,0-17.7c0-0.5,0-0.9,0-1.6c1.5,0.8,2.8,1.5,4.2,2.2c4.8,2.6,9.5,5.2,14.3,7.7c0.7,0.4,1,0.8,1,1.6
	C70.3,42.3,70.3,49.4,70.3,56.5z"/>
<path class="st0" d="M260.4,57.5c2-2.4,4.2-4.4,7-5.4c5.6-2,11.1-1.8,16.2,1.4c3.6,2.3,4.9,5.9,5.2,9.9c0.4,5.3,0.2,10.7,0.2,16
	c0,4.9,0,9.9,0,14.8c0,0.9-0.3,1.2-1.2,1.2c-1.7-0.1-3.3-0.1-5,0c-1,0-1.2-0.2-1.2-1.2c0-8.1,0-16.3,0-24.4c0-1.9,0-3.8-0.4-5.7
	c-0.7-4.1-3.6-6.7-7.8-6.8c-6.8-0.2-11.8,3.3-12.2,11.1c-0.4,8.5-0.1,17-0.2,25.6c0,1.1-0.3,1.5-1.4,1.4c-1.5-0.1-3.1-0.1-4.6,0
	c-1.1,0.1-1.4-0.3-1.4-1.4c0-12.7,0-25.3,0-38c0-1.1,0-2.2,0-3.3c0-0.7,0.2-1,0.9-1c1.6,0.1,3.2,0,4.9,0c0.7,0,0.9,0.3,0.9,0.9
	C260.4,54.3,260.4,55.9,260.4,57.5z"/>
<path class="st0" d="M427.5,58c2.5-3.5,5.3-5.7,9.1-6.6c4.6-1.1,9-0.8,13.2,1.5c3.8,2,5.5,5.5,6,9.6c0.3,2,0.3,4,0.3,6
	c0,8.6,0,17.1,0,25.7c0,1-0.3,1.3-1.2,1.2c-1.6-0.1-3.2-0.1-4.9,0c-1,0.1-1.3-0.2-1.3-1.3c0-8.2,0-16.3,0-24.5
	c0-1.9-0.1-3.8-0.4-5.6c-0.8-4.1-3.7-6.7-7.9-6.8c-6.8-0.1-11.8,3.4-12.1,11.6c-0.3,8.3-0.1,16.6-0.1,24.9c0,1.3-0.2,1.8-1.6,1.7
	c-1.6-0.1-3.1-0.1-4.7,0c-0.8,0-1.1-0.2-1.1-1c0-13.9,0-27.8,0-41.7c0-0.7,0.2-1,1-1c1.6,0.1,3.2,0.1,4.7,0c0.8,0,1,0.2,1,1
	C427.4,54.4,427.5,56,427.5,58z"/>
<path class="st1" d="M2.9,63.3c5.7-3,11.3-5.9,17-8.9c0.2-0.1,0.4-0.2,0.6-0.3c2.4,1.6,5.1,2.8,7.7,4.2c4.4,2.3,8.8,4.6,13.2,7
	c-0.2,0.6-0.7,0.6-1.1,0.9c-6.9,3.6-13.8,7.3-20.7,10.8c-0.9,0.5-1.2,1-1.2,2c0.1,4.5,0,8.9,0,13.4c0,1.1-0.2,1.3-1.2,0.7
	c-4.5-2.4-9-4.7-13.5-7.1c-0.5-0.3-0.9-0.5-0.9-1.2C2.9,77.6,2.9,70.4,2.9,63.3z"/>
<path class="st0" d="M355.9,36.6c0,4.8,0,9.3,0,13.8c0,1.2,0.3,1.5,1.4,1.4c1.7-0.1,3.4,0,5.1,0c0.7,0,0.9,0.2,0.9,0.9
	c0,1.3-0.1,2.6,0,3.9c0,0.8-0.2,1-1,1c-1.8,0-3.7,0-5.5,0c-0.7,0-1,0.2-1,1c0.1,8.9-0.2,17.8,0.1,26.7c0.1,2.7,1.3,3.8,4,3.8
	c0.4,0,0.8,0,1.2-0.1c2.1-0.1,2.1-0.1,2.4,2.1c0.2,1.2,0.4,2.3,0.6,3.5c0.1,0.5,0.1,0.8-0.5,0.9c-2.8,0.5-5.6,0.8-8.5,0.2
	c-4.3-1-6.3-3.5-6.5-8.4c-0.3-6-0.1-12.1-0.1-18.1c0-3.4,0-6.9,0-10.3c0-0.9-0.2-1.3-1.2-1.3c-1.4,0-3.2,0.6-4-0.2
	c-0.7-0.8-0.1-2.6-0.2-3.9c-0.1-1.2,0.2-1.7,1.5-1.6c0.9,0.1,1.9,0,2.9,0c0.8,0.1,1-0.2,1-1c0-2.9,0-5.8,0-8.6
	c0-0.8,0.2-1.3,0.9-1.7C351.6,39.3,353.6,38,355.9,36.6z"/>
<path class="st0" d="M239,73.6c0,6.9,0,13.7,0,20.6c0,1.1-0.3,1.3-1.3,1.3c-1.7-0.1-3.4-0.1-5.1,0c-0.7,0-1-0.2-1-1
	c0-13.9,0-27.8,0-41.7c0-0.8,0.3-1,1.1-1c1.7,0.1,3.4,0.1,5.1,0c1-0.1,1.2,0.3,1.2,1.2C239,59.9,239,66.7,239,73.6z"/>
<path class="st0" d="M239,39.6c0,1.1,0,2.3,0,3.4c0,0.6-0.2,0.8-0.7,0.8c-1.9,0-3.8,0-5.8,0c-0.6,0-0.9-0.2-0.9-0.8
	c0-2.3,0-4.6,0-6.9c0-0.6,0.2-0.7,0.8-0.7c1.9,0,3.8,0,5.8,0c0.8,0,0.9,0.3,0.8,0.9C239,37.3,239,38.4,239,39.6z"/>
<path class="st0" d="M125.5,111.3c-0.9,2.5-1.8,5.1-2.6,7.6c-0.2,0.5-0.2,1.1-1,1.1c-0.9,0-0.8-0.6-1-1.1c-0.9-2.5-1.7-5-2.8-7.4
	c0,2.5,0,4.9,0,7.4c0,0.6,0.2,1.1-0.8,1.1c-0.9,0-0.6-0.7-0.6-1.1c0-3,0-5.9,0-8.9c0-0.4-0.3-1.1,0.6-1c0.7,0.1,1.6-0.5,1.9,0.7
	c0.8,2.6,1.7,5.2,2.6,7.8c0.1,0.2,0.2,0.4,0.3,0.8c1-2.9,1.9-5.6,2.8-8.3c0.3-0.9,0.8-1.1,1.6-1c0.6,0,0.7,0.2,0.7,0.8
	c0,3.2,0,6.4,0,9.6c0,0.6-0.2,0.7-0.7,0.7c-0.7,0-0.6-0.4-0.6-0.8c0-2.6,0-5.2,0-7.7C125.7,111.4,125.6,111.3,125.5,111.3z"/>
<path class="st0" d="M214,111.7c0,2.4,0,4.8,0,7.2c0,0.5,0.2,1.1-0.7,1.1c-0.9,0-0.7-0.5-0.7-1c0-3,0-5.9,0-8.9c0-0.4-0.3-1,0.3-1.1
	c0.6-0.1,1.1-0.1,1.6,0.6c1.5,2.4,3.1,4.7,4.7,7.1c0.1,0.2,0.3,0.4,0.6,0.9c0-2.7,0-5.1,0-7.4c0-0.5-0.4-1.2,0.7-1.2
	c1,0,0.7,0.7,0.7,1.2c0,2.9,0,5.9,0,8.8c0,0.4,0.3,1-0.3,1.1c-0.6,0.1-1.1,0.1-1.6-0.6c-1.6-2.6-3.4-5.1-5-7.6
	C214.1,111.7,214,111.7,214,111.7z"/>
<path class="st0" d="M263.9,114.4c0,1.6,0,3.1,0,4.7c0,0.5,0,0.8-0.7,0.8c-0.6,0-0.9-0.2-0.8-0.8c0-1.2,0-2.4,0-3.5
	c0-0.7-0.2-0.9-0.9-0.9c-1.3,0-2.6,0.1-3.9,0c-0.7,0-0.9,0.3-0.9,0.9c0,1.2,0,2.4,0,3.5c0,0.7-0.3,0.8-0.9,0.8
	c-0.7,0-0.7-0.3-0.7-0.8c0-3.1,0-6.3,0-9.4c0-0.5,0-0.8,0.7-0.8c0.6,0,0.9,0.1,0.8,0.8c-0.1,1,0,2,0,3c0,0.6,0.2,0.7,0.8,0.7
	c1.4,0,2.8,0,4.2,0c0.6,0,0.8-0.2,0.7-0.7c0-1,0-2,0-3c0-0.7,0.3-0.8,0.9-0.8c0.7,0,0.6,0.4,0.6,0.8
	C263.9,111.3,263.9,112.9,263.9,114.4z"/>
<path class="st0" d="M89.9,120.1c-2.2-0.1-3.8-1-4.2-2.7c-0.1-0.4-0.5-1,0.3-1.1c0.6-0.1,0.8,0,1,0.6c0.7,1.8,3.6,2.5,5.1,1.3
	c1.1-0.8,0.8-2.3-0.5-2.8c-1.1-0.4-2.2-0.7-3.4-1c-1.6-0.5-2.4-1.5-2.4-2.7c0.1-1.4,1.1-2.5,2.7-2.8c2.1-0.4,4.1,0.2,4.9,1.6
	c0.2,0.5,0.7,1.1,0.1,1.5c-0.6,0.4-1.1,0.1-1.4-0.7c-0.6-1.4-3.4-1.7-4.5-0.5c-0.6,0.7-0.5,1.7,0.5,2.1c0.9,0.4,1.9,0.6,2.9,0.9
	c2.4,0.7,3.4,1.8,3.1,3.5C93.9,119.1,92.1,120.2,89.9,120.1z"/>
<path class="st0" d="M284.8,120.1c-2.2-0.1-3.8-1.1-4.2-2.7c-0.1-0.4-0.4-0.9,0.2-1.1c0.5-0.2,0.9-0.1,1.1,0.6
	c0.7,1.8,3.6,2.5,5.1,1.3c1.1-0.8,0.8-2.3-0.5-2.8c-1.1-0.4-2.2-0.7-3.4-1c-1.6-0.5-2.4-1.5-2.3-2.8c0.1-1.4,1.1-2.5,2.7-2.8
	c2.3-0.5,4.3,0.3,5,1.9c0.2,0.4,0.6,1,0,1.2c-0.5,0.3-1,0.2-1.4-0.6c-0.6-1.5-3.3-1.8-4.4-0.7c-0.7,0.7-0.6,1.8,0.4,2.2
	c0.9,0.4,1.9,0.6,2.9,0.9c2.4,0.7,3.4,1.8,3.1,3.5C288.7,119.1,287,120.2,284.8,120.1z"/>
<path class="st0" d="M156.1,112c-0.8,0.2-1.3,0.2-1.7-0.8c-0.6-1.4-3.5-1.6-4.5-0.4c-0.7,0.8-0.4,1.8,0.7,2.2c1.1,0.4,2.2,0.7,3.3,1
	c1.8,0.5,2.6,1.5,2.6,3s-1.1,2.6-2.7,3.1c-2.6,0.7-5-0.3-5.7-2.4c-0.1-0.4-0.5-0.9,0.1-1.2c0.7-0.3,0.9,0,1.2,0.7
	c0.7,1.8,3.7,2.4,5.1,1.1c1-0.9,0.7-2.2-0.6-2.7c-1.1-0.4-2.3-0.7-3.5-1.1c-1.5-0.5-2.3-1.4-2.2-2.7c0-1.4,1-2.4,2.5-2.8
	C153.2,108.3,156.2,109.3,156.1,112z"/>
<path class="st0" d="M166.4,112c-0.8,0.2-1.3,0.2-1.7-0.7c-0.6-1.4-3.4-1.7-4.5-0.5c-0.7,0.8-0.5,1.8,0.6,2.2c1.1,0.4,2.2,0.7,3.2,1
	c1.9,0.5,2.7,1.5,2.7,3.1c-0.1,1.5-1.2,2.7-2.9,3c-2.5,0.6-4.9-0.5-5.6-2.5c-0.1-0.4-0.5-0.9,0.2-1.2c0.6-0.2,0.9,0.1,1.1,0.7
	c0.7,1.8,3.6,2.4,5.1,1.2c1-0.9,0.8-2.2-0.5-2.7c-1.1-0.4-2.3-0.7-3.5-1.1c-1.6-0.5-2.4-1.5-2.3-2.8c0.1-1.4,1-2.4,2.6-2.7
	C163.9,108.2,166,109.4,166.4,112z"/>
<path class="st0" d="M223.7,114.4c0-1.5,0-3.1,0-4.6c0-0.6,0.1-0.9,0.8-0.9c2.1,0.1,4.2,0,6.3,0c0.5,0,0.8-0.1,0.8,0.6
	c0,0.6-0.3,0.7-0.8,0.7c-1.6,0-3.2,0-4.9,0c-0.7,0-0.9,0.2-0.9,0.9c-0.1,2.5-0.1,2.5,2.4,2.5c0.8,0,1.7-0.1,2.5,0
	c0.4,0,1.2-0.5,1.3,0.6c0,1-0.7,0.7-1.2,0.7c-1.4,0-2.7,0-4.1,0c-0.6,0-0.8,0.1-0.9,0.8c-0.1,2.9-0.2,2.9,2.8,2.9c1.1,0,2.2,0,3.3,0
	c0.6,0,0.8,0.1,0.8,0.7s-0.3,0.6-0.7,0.6c-2.2,0-4.5,0-6.7,0c-0.7,0-0.8-0.2-0.8-0.8C223.7,117.5,223.7,116,223.7,114.4z"/>
<path class="st0" d="M138.1,114.3c0-1.5,0-3.1,0-4.6c0-0.6,0.1-0.8,0.8-0.8c2.1,0,4.3,0,6.4,0c0.4,0,0.7,0,0.7,0.6s-0.2,0.7-0.8,0.7
	c-1.6,0-3.2,0-4.9,0c-0.8,0-0.9,0.2-0.9,1c0,2.4,0,2.4,2.3,2.4c1.1,0,2.1,0,3.2,0c0.4,0,0.6,0.1,0.6,0.6s-0.1,0.7-0.6,0.7
	c-1.5,0-3.1,0-4.6,0c-0.7,0-0.9,0.2-0.9,0.9c-0.1,2.8-0.1,2.8,2.7,2.8c1.1,0,2.3,0,3.4,0c0.5,0,0.7,0.2,0.7,0.7
	c0,0.6-0.2,0.6-0.7,0.6c-2.3,0-4.6,0-6.8,0c-0.6,0-0.7-0.3-0.7-0.8C138.1,117.5,138.1,115.9,138.1,114.3z"/>
<path class="st0" d="M96.2,114.3c0-1.5,0-3,0-4.5c0-0.7,0.1-1,0.9-1c2.1,0.1,4.1,0,6.2,0c0.5,0,0.9-0.1,0.9,0.7c0,0.8-0.6,0.6-1,0.6
	c-1.5,0-3,0-4.5,0c-0.8,0-1.1,0.1-1.1,1c0,2.4,0,2.4,2.4,2.4c1,0,2,0,3,0c0.5,0,0.7,0.1,0.7,0.6s-0.2,0.7-0.7,0.7
	c-1.5,0-3.1,0-4.6,0c-0.6,0-0.8,0.1-0.8,0.8c-0.1,2.9-0.1,2.9,2.7,2.9c1.1,0,2.2,0,3.3,0c0.5,0,0.8,0.1,0.8,0.7s-0.3,0.6-0.7,0.6
	c-2.3,0-4.5,0-6.8,0c-0.6,0-0.7-0.3-0.7-0.8C96.3,117.5,96.2,115.9,96.2,114.3z"/>
<path class="st0" d="M248.9,120.1c-2.3-0.1-3.9-1.1-4.3-2.9c-0.1-0.4-0.3-0.8,0.4-0.9c0.4-0.1,0.8-0.1,1,0.5
	c0.8,1.8,2.7,2.5,4.5,1.8c0.7-0.3,1.3-0.8,1.3-1.6c0-0.8-0.5-1.3-1.3-1.5c-1.2-0.4-2.3-0.7-3.5-1.1c-1.4-0.5-2.1-1.4-2.1-2.6
	c0-1.3,0.8-2.3,2.2-2.8c2.3-0.7,4.7,0.1,5.5,1.8c0.2,0.4,0.6,0.9,0,1.2c-0.5,0.2-1.1,0.3-1.3-0.6c-0.4-1.7-3.6-1.7-4.5-0.8
	c-0.8,0.8-0.6,1.8,0.4,2.2c0.9,0.4,1.9,0.6,2.9,0.9c2.5,0.7,3.4,1.8,3.1,3.6C252.9,119.1,251.1,120.2,248.9,120.1z"/>
<path class="st0" d="M205.9,115c0-1.3,0-2.6,0-3.9c0-0.7-0.2-0.9-0.9-0.9c-0.7,0.1-1.3,0-2,0c-0.5,0-0.8-0.1-0.8-0.7
	s0.3-0.6,0.7-0.6c2.4,0,4.9,0,7.3,0c0.5,0,0.7,0.1,0.7,0.7c0,0.5-0.2,0.7-0.7,0.7c-0.1,0-0.2,0-0.3,0c-2.7,0.1-2.7,0.1-2.7,2.8
	c0,2,0,4.1,0,6.1c0,0.5,0,0.8-0.7,0.8c-0.6,0-0.9-0.1-0.8-0.8C206,117.8,205.9,116.4,205.9,115z"/>
<path class="st0" d="M129.4,114.4c0-1.6,0-3.1,0-4.7c0-0.5,0-0.8,0.7-0.8s0.8,0.2,0.8,0.8c0,2.5,0.1,5.1,0,7.6
	c0,1.1,0.3,1.4,1.4,1.3c1-0.1,2.1,0,3.1,0c0.5,0,0.9-0.1,0.9,0.7c0,0.7-0.4,0.6-0.8,0.6c-1.8,0-3.5,0-5.2,0c-0.7,0-0.8-0.2-0.8-0.8
	C129.5,117.6,129.4,116,129.4,114.4z"/>
<path class="st0" d="M268,114.4c0,1.6,0,3.1,0,4.7c0,0.6-0.1,0.8-0.8,0.8c-0.7,0-0.7-0.4-0.7-0.9c0-3.1,0-6.2,0-9.3
	c0-0.5-0.1-0.9,0.7-0.9c0.8,0,0.8,0.4,0.8,1C268,111.4,268,112.9,268,114.4z"/>
<path class="st0" d="M129.7,80.3c-3.1-4.8-6.4-9.5-12.2-12.2c1.2-0.3,2.1-0.5,3-0.6c9.4-1.8,14.8-8.7,13.7-18.2
	c-0.6-5.8-4.3-11.6-11.2-13.1c-2.4-0.6-4.9-0.9-7.4-0.9c-9.4-0.1-18.7-0.1-28-0.1c-0.8,0-1.1,0.2-1.1,1.1c0,19.4,0,38.7,0,58.1
	c0,0.9,0.3,1.1,1.1,1.1c1.8-0.1,3.7-0.1,5.5,0c1.2,0.1,1.4-0.3,1.4-1.4c0-8,0-16.1,0-24.1c0-0.9,0.2-1.2,1.2-1.2
	c3.4,0.1,6.7,0.1,10.1,0.1c1,0,2,0.1,3,0.4c3.2,1,5.4,3.3,7.3,5.9c4.6,6.2,8.5,12.8,12.6,19.3c0.5,0.7,1,1,1.9,1c2.5,0,5.1,0,7.6,0
	c0.3,0,0.7,0.1,1-0.3C136,90.2,132.9,85.2,129.7,80.3z M113.8,61.8c-6.1,0.1-12.2,0-18.4,0.1c-0.9,0-1.1-0.3-1.1-1.1
	c0-5.9,0-11.7,0-17.6c0-1,0.2-1.3,1.2-1.3c3.5,0,6.9,0,10.2,0c3.4,0,6.8-0.1,10.2,0.2c2.9,0.3,5.7,0.9,7.8,3.3
	c4.6,5.1,2.5,13.2-4,15.4C117.8,61.5,115.8,61.8,113.8,61.8z"/>
<path class="st0" d="M336.8,75.6c0-7.5,0-15,0-22.5c0-0.9-0.1-1.3-1.1-1.2c-1.5,0.1-3,0.1-4.5,0c-1,0-1.3,0.4-1.2,1.3
	c0.1,1.2,0,2.4,0,3.7c-0.2-0.1-0.3-0.1-0.3-0.1c-0.2-0.2-0.4-0.3-0.5-0.5c-3.1-3.5-6.9-5.3-11.5-5.4c-6.1-0.1-11.4,1.9-14.7,7.2
	c-6,9.4-6.2,19.2-0.8,29c5,8.9,15.2,9.6,21.2,7.1c2.3-0.9,4.1-2.4,5.9-4.4c-0.1,3.3,0.2,6.4-0.6,9.5c-0.8,3.5-3,6-6.5,7.1
	c-2.6,0.8-5.3,0.9-8,0.4c-3.5-0.6-6.3-2.2-6.9-6.1c-0.1-0.4-0.3-0.5-0.7-0.6c-1.9-0.2-3.8-0.5-5.7-0.8c-0.8-0.1-0.9,0.1-0.9,0.8
	c0.2,4.9,2.1,8.7,6.6,10.8c6.6,3.1,13.3,3.2,20,0.6c4.4-1.7,7.5-4.9,8.9-9.5c0.8-2.7,1.1-5.5,1.2-8.3
	C336.9,87.7,336.8,81.6,336.8,75.6z M328.3,82c-1.8,4.9-6.5,7.6-11.6,7.1c-5.1-0.5-9-4.3-10.1-9.7c-0.3-2.1-0.5-4.2-0.5-6.1
	c0-3,0.2-5.5,1-8.1c1.6-4.9,5.6-8.1,10.3-8.3c4.7-0.2,9.1,2.7,10.9,7.5C330.4,70.2,330.4,76.2,328.3,82z"/>
<path class="st0" d="M219.5,35.3c-1.7,0-3.3,0.1-5,0c-1.1,0-1.5,0.2-1.5,1.5c0,6.1,0,12.2,0,18.3c0,0.4,0,0.9,0,1.5
	c-0.3-0.3-0.4-0.3-0.5-0.4c-6.7-8.3-20.2-6.3-25.6,1.9c-3.2,4.8-4.2,10.2-4.2,15.8c0,6.6,1.7,12.7,6.6,17.6
	c4.8,4.8,12.7,6.3,18.6,3.5c2.3-1.1,3.9-2.7,5.6-5c0,1.7,0.1,3,0,4.4c-0.1,0.9,0.1,1.3,1.1,1.2c1.4-0.1,2.8-0.1,4.2,0
	c1.1,0.1,1.5-0.3,1.5-1.5c0-19.1,0-38.2,0-57.3c0-0.3,0-0.5,0-0.7C220.4,35.5,220.1,35.3,219.5,35.3z M212.4,82.7
	c-2.1,5.9-8.1,9.1-13.6,7.1c-3.5-1.3-5.9-3.8-7.1-7.2c-2.1-6.2-2.2-12.6,0.3-18.7c3.1-7.6,11.4-8.5,16.2-4.6c3,2.4,4.4,5.6,5,9.2
	c0.3,1.4,0.3,2.9,0.5,5.1C213.7,76.2,213.6,79.5,212.4,82.7z"/>
<path class="st0" d="M146.6,75.5c5,0,10,0,15,0c4.9,0,9.7,0,14.6,0c1.4,0,1.7-0.4,1.6-1.7c-0.1-1.7-0.1-3.3-0.3-5
	c-1.3-10.8-8.8-17.9-19-18.1c-8.2-0.1-15.2,3.9-18.5,11.2c-2.2,4.9-2.6,10.1-2.1,15.4c0.4,4.3,1.6,8.4,4.3,11.8
	c4.1,5.2,9.6,7.2,16,7.2c9.7,0.1,16.1-4.3,19-13c0.3-0.9,0.1-1.1-0.8-1.2c-1.9-0.2-3.7-0.4-5.5-0.7c-0.8-0.1-1.1,0-1.4,0.8
	c-0.7,1.9-1.7,3.6-3.1,5c-5.4,5.2-15,3.6-18.8-3.2c-1.2-2.2-1.7-4.7-2.1-7.2C145.3,75.8,145.5,75.5,146.6,75.5z M146,68.1
	c0.7-4.8,3-8.6,7.7-10.3c4.4-1.7,8.7-1.1,12.4,2.1c2.6,2.3,3.5,5.4,3.9,8.7c0.1,0.9-0.4,0.8-0.9,0.8c-3.8,0-7.5,0-11.3,0
	c-3.6,0-7.2,0-10.7,0C146,69.4,145.8,69.1,146,68.1z"/>
<path class="st0" d="M413.4,68.9c-0.5-4.9-2.3-9.3-5.9-12.8c-4.7-4.6-10.5-5.8-16.9-5.2c-7.7,0.8-13.9,5.9-16.2,13.3
	c-1.4,4.7-1.6,9.6-0.9,14.5c0.7,4.6,2.3,8.8,5.7,12.1c5.3,5.2,11.8,6.4,18.8,5c6.8-1.3,11.7-5.2,14.2-11.8c1.2-3.2,1.5-6.5,1.6-9.8
	C413.9,72.4,413.8,70.7,413.4,68.9z M404.7,82.4c-1.9,5.3-6.7,8.2-12.3,7.8c-5.1-0.3-9.4-4.1-10.8-9.6c-0.7-2.2-0.8-4.6-0.9-6.7
	c0-3.4,0.3-6.4,1.4-9.2c2-4.9,6.3-7.8,11.5-7.7c5,0,9.5,3.1,11.2,8C406.8,70.8,406.8,76.7,404.7,82.4z"/>
<path class="st0" d="M198.3,115c2.3-0.9,3.1-1.9,2.9-3.5c-0.3-1.7-1.4-2.5-3.9-2.5c-1.4,0-2.7,0-4.1,0c-0.6,0-0.8,0.2-0.8,0.8
	c0,3.1,0,6.3,0,9.4c0,0.6,0.1,0.8,0.8,0.8c0.6,0,0.6-0.3,0.6-0.8c0-0.7-0.1-1.4,0-2.1c0.1-0.7-0.4-1.6,0.3-1.9
	c0.8-0.4,1.8-0.2,2.6,0.1c0.5,0.2,0.9,0.6,1.2,1.1c0.6,0.8,1.2,1.6,1.6,2.4c0.6,1.1,1.3,1.4,2.5,1C200.9,118.1,200,116.3,198.3,115z
	 M196.4,113.8c-2.7,0.1-2.7,0.1-2.7-2.6c0-0.8,0.2-1.1,1-1c0.6,0,1,0,1.5-0.1c0.7,0,1.3,0,1.9,0.1c0.9,0.2,1.5,0.7,1.5,1.7
	s-0.5,1.5-1.5,1.7C197.5,113.7,197,113.8,196.4,113.8z"/>
<path class="st0" d="M239.7,114.8c2.3-0.8,3.1-1.9,2.8-3.6c-0.2-1.6-1.3-2.4-3.6-2.4c-1.4,0-2.9,0-4.3,0c-0.5-0.1-0.7,0.1-0.7,0.7
	c0,3.2,0,6.4,0,9.6c0,0.6,0.1,0.8,0.7,0.8c0.6,0,0.7-0.3,0.7-0.8c0-0.7-0.1-1.5,0-2.2c0.1-0.6-0.3-1.6,0.3-1.8
	c0.9-0.3,2.1-0.3,3,0.4c0.4,0.3,0.6,0.6,0.9,1c0.5,0.8,1.1,1.5,1.5,2.3c0.5,1,1.2,1.3,2.5,1C242.4,118.1,241.4,116.3,239.7,114.8z
	 M237.7,113.8c-2.4,0-2.3,0-2.4-2.4c0-1.1,0.4-1.4,1.3-1.2c0.4,0,0.7,0,1.1-0.1c0.7,0,1.4,0,2.1,0.1c0.9,0.2,1.4,0.8,1.4,1.8
	c-0.1,0.9-0.6,1.4-1.5,1.6C239.1,113.7,238.4,113.8,237.7,113.8z"/>
<path class="st0" d="M275.8,108.9c-1.4-0.1-2.9,0-4.3-0.1c-0.7,0-0.9,0.3-0.9,1c0,1.5,0,3.1,0,4.6c0,1.6,0,3.2,0,4.8
	c0,0.6,0.2,0.8,0.8,0.8c0.7,0,0.7-0.3,0.7-0.8c0-0.8,0.1-1.6,0-2.4c-0.1-1.1,0.1-1.5,1.3-1.4c0.9,0.1,1.8,0,2.7-0.1
	c1.9-0.3,2.9-1.6,2.8-3.6C278.8,110,277.8,109,275.8,108.9z M276,114c-1.2,0.3-2.4,0.1-3.6,0.2c-0.4,0-0.4-0.2-0.4-0.5
	c0-0.6,0-1.1,0-1.6c0-1.9,0-1.9,1.8-1.8c0.6,0,1.2,0,1.8,0c1,0.1,1.6,0.6,1.7,1.6C277.4,112.9,277,113.7,276,114z"/>
<path class="st0" d="M178.3,109c-1.4-0.1-2.9,0-4.4-0.1c-0.8,0-0.9,0.3-0.9,1c0,1.4,0,2.9,0,4.4c0,1.6,0,3.2-0.1,4.9
	c0,0.4-0.1,0.8,0.6,0.8c0.6,0,0.8-0.2,0.8-0.8c0-0.9,0.1-1.8,0-2.7c-0.1-0.8,0.1-1,0.9-1c1.1,0.1,2.2,0.1,3.3-0.1
	c1.8-0.3,2.8-1.6,2.8-3.4C181.3,110.3,180.2,109.1,178.3,109z M178.7,113.9c-1.2,0.4-2.5,0.2-3.8,0.2c-0.8,0-0.4-0.9-0.4-1.3
	c0.1-0.9-0.5-2,0.4-2.6c0.4-0.2,1.1,0,1.7,0.1c0.6,0,1.1,0,1.7,0c0.9,0.1,1.5,0.7,1.6,1.6C180,112.9,179.7,113.6,178.7,113.9z"/>
<path class="st0" d="M186.9,109.4c-0.2-0.5-0.5-0.5-1-0.5s-0.8,0.1-1,0.6c-1.3,3.5-2.6,6.9-3.9,10.4c1,0.3,1.6,0,1.9-1.1
	c0.7-2.2,0.7-2.2,3.1-2.2c2.3,0,2.3-0.1,3,2c0.3,1.1,0.9,1.6,2.1,1.2C189.7,116.4,188.3,112.9,186.9,109.4z M184.2,115.4
	c0.4-1.7,1.2-3.2,1.8-4.9c0.6,1.6,1.2,3.2,1.8,4.9C186.6,115.4,185.5,115.4,184.2,115.4z"/>
<path class="st0" d="M111.5,109.8c-0.2-0.6-0.4-0.9-1.1-0.9s-1,0.3-1.2,0.9c-0.7,1.7-1.3,3.4-2,5.1c-0.7,1.6-1.3,3.3-1.9,4.9
	c1.1,0.3,1.6,0,1.9-1c0.7-2.2,0.8-2.2,3.1-2.2c2.3,0,2.4,0,3.1,2.1c0.3,1.1,0.9,1.4,2.1,1.1C114.1,116.4,112.7,113.1,111.5,109.8z
	 M108.5,115.3c0.4-1.6,1.3-3.1,1.8-4.9c0.6,1.6,1.2,3.2,1.8,4.9C110.9,115.3,109.7,115.3,108.5,115.3z"/>
</svg>
