<?xml version="1.0" encoding="utf-8"?>
<!-- Generator: Adobe Illustrator 28.3.0, SVG Export Plug-In . SVG Version: 6.00 Build 0)  -->
<svg version="1.1" id="Layer_1" xmlns="http://www.w3.org/2000/svg" xmlns:xlink="http://www.w3.org/1999/xlink" x="0px" y="0px"
	 viewBox="0 0 229.4 161.2" style="enable-background:new 0 0 229.4 161.2;" xml:space="preserve">
<style type="text/css">
	.st0{fill:#939598;}
	.st1{fill:#FFFFFF;}
</style>
<g>
	<path class="st0" d="M95.6,17.9c7.3-7.7,17.6-12.4,28.9-12.4c15,0,28.2,8.4,35.2,20.8c6.1-2.7,12.8-4.2,19.9-4.2
		c27.1,0,49.1,22.2,49.1,49.5c0,27.4-22,49.6-49.1,49.6c-3.3,0-6.5-0.3-9.7-1c-6.2,11-17.9,18.4-31.3,18.4c-5.6,0-11-1.3-15.7-3.6
		c-6.2,14.7-20.8,25-37.7,25c-17.6,0-32.7-11.2-38.4-26.8c-2.5,0.5-5.1,0.8-7.8,0.8c-21,0-38-17.2-38-38.4C1,81.4,8.7,69,20,62.3
		c-2.3-5.4-3.6-11.3-3.6-17.6c0-24.4,19.8-44.2,44.3-44.2C74.8,0.5,87.5,7.3,95.6,17.9"/>
	<path class="st1" d="M33.8,83.2c-0.1,0.4,0.1,0.5,0.1,0.5c0.4,0.3,0.9,0.5,1.3,0.8c2.3,1.2,4.5,1.6,6.8,1.6c4.7,0,7.6-2.5,7.6-6.5
		v-0.1c0-3.7-3.3-5-6.3-6l-0.4-0.1c-2.3-0.8-4.3-1.4-4.3-2.9v-0.1c0-1.3,1.2-2.3,3-2.3c2,0,4.4,0.7,5.9,1.5c0,0,0.5,0.3,0.6-0.1
		c0.1-0.2,0.9-2.3,1-2.6c0.1-0.2-0.1-0.4-0.2-0.5c-1.8-1.1-4.2-1.8-6.7-1.8h-0.5c-4.3,0-7.3,2.6-7.3,6.3V71c0,3.9,3.3,5.2,6.4,6.1
		l0.5,0.2c2.2,0.7,4.2,1.3,4.2,2.9v0.1c0,1.4-1.3,2.5-3.3,2.5c-0.8,0-3.3,0-6-1.7c-0.3-0.2-0.5-0.3-0.8-0.5
		c-0.1-0.1-0.5-0.2-0.6,0.2L33.8,83.2L33.8,83.2z"/>
	<path class="st1" d="M102.2,83.2c-0.1,0.4,0.1,0.5,0.1,0.5c0.4,0.3,0.9,0.5,1.3,0.8c2.3,1.2,4.5,1.6,6.8,1.6c4.7,0,7.6-2.5,7.6-6.5
		v-0.1c0-3.7-3.3-5-6.3-6l-0.4-0.1c-2.3-0.8-4.3-1.4-4.3-2.9v-0.1c0-1.3,1.2-2.3,3-2.3c2,0,4.4,0.7,5.9,1.5c0,0,0.5,0.3,0.6-0.1
		c0.1-0.2,0.9-2.3,1-2.6c0.1-0.2-0.1-0.4-0.2-0.5c-1.8-1.1-4.2-1.8-6.7-1.8h-0.5c-4.3,0-7.3,2.6-7.3,6.3V71c0,3.9,3.3,5.2,6.4,6.1
		l0.5,0.2c2.2,0.7,4.2,1.3,4.2,2.9v0.1c0,1.4-1.3,2.5-3.3,2.5c-0.8,0-3.3,0-6-1.7c-0.3-0.2-0.5-0.3-0.8-0.5
		c-0.1-0.1-0.5-0.2-0.6,0.2L102.2,83.2L102.2,83.2z"/>
	<path class="st1" d="M148.9,75.4c0,2.3-0.4,4-1.3,5.3c-0.8,1.2-2.1,1.9-3.8,1.9s-3-0.6-3.8-1.9s-1.2-3-1.2-5.3s0.4-4,1.2-5.3
		c0.8-1.2,2-1.8,3.8-1.8c1.7,0,3,0.6,3.8,1.8C148.5,71.3,148.9,73.1,148.9,75.4 M152.8,71.2c-0.4-1.3-1-2.4-1.8-3.4s-1.8-1.7-3-2.3
		c-1.2-0.6-2.6-0.8-4.2-0.8c-1.6,0-3,0.3-4.2,0.8c-1.2,0.6-2.2,1.3-3,2.3s-1.4,2.1-1.8,3.4c-0.4,1.3-0.6,2.7-0.6,4.2
		s0.2,2.9,0.6,4.2c0.4,1.3,1,2.4,1.8,3.4s1.8,1.7,3,2.3c1.2,0.5,2.6,0.8,4.2,0.8c1.6,0,3-0.3,4.2-0.8s2.2-1.3,3-2.3s1.4-2.1,1.8-3.4
		c0.4-1.3,0.6-2.7,0.6-4.2C153.4,73.9,153.2,72.4,152.8,71.2"/>
	<path class="st1" d="M184.8,81.9c-0.1-0.4-0.5-0.2-0.5-0.2c-0.6,0.2-1.2,0.4-1.8,0.5c-0.7,0.1-1.4,0.2-2.1,0.2
		c-1.9,0-3.4-0.6-4.5-1.7s-1.7-2.9-1.7-5.3c0-2.2,0.5-3.9,1.5-5.1c1-1.3,2.4-1.9,4.3-1.9c1.6,0,2.8,0.2,4.1,0.6c0,0,0.3,0.1,0.5-0.3
		c0.3-0.9,0.6-1.6,1-2.7c0.1-0.3-0.1-0.4-0.2-0.5c-0.5-0.2-1.7-0.5-2.6-0.7c-0.8-0.1-1.8-0.2-2.9-0.2c-1.6,0-3.1,0.3-4.3,0.8
		c-1.2,0.6-2.3,1.3-3.1,2.3s-1.5,2.1-1.9,3.4s-0.6,2.7-0.6,4.2c0,3.2,0.9,5.9,2.6,7.8c1.7,1.9,4.3,2.9,7.7,2.9c2,0,4.1-0.4,5.5-1
		c0,0,0.3-0.1,0.2-0.5L184.8,81.9L184.8,81.9z"/>
	<path class="st1" d="M191.7,73.2c0.2-1.3,0.5-2.3,1.1-3.1c0.8-1.2,2-1.9,3.8-1.9c1.7,0,2.9,0.7,3.7,1.9c0.5,0.8,0.8,1.9,0.9,3.1
		H191.7L191.7,73.2z M204.8,70.4c-0.3-1.2-1.2-2.5-1.7-3.1c-0.9-0.9-1.7-1.6-2.5-1.9c-1.1-0.5-2.4-0.8-3.8-0.8
		c-1.6,0-3.1,0.3-4.4,0.8c-1.2,0.6-2.2,1.4-3,2.3c-0.8,1-1.4,2.1-1.8,3.4c-0.4,1.3-0.6,2.7-0.6,4.2s0.2,2.9,0.6,4.2
		c0.4,1.3,1,2.4,1.9,3.4c0.9,0.9,2,1.7,3.3,2.2s2.9,0.8,4.8,0.8c3.8,0,5.8-0.9,6.7-1.3c0.1-0.1,0.3-0.2,0.1-0.6l-0.9-2.4
		c-0.1-0.4-0.5-0.2-0.5-0.2c-0.9,0.4-2.3,1-5.4,1c-2,0-3.6-0.6-4.5-1.6c-1-1-1.5-2.4-1.5-4.4h13.2c0,0,0.3,0,0.4-0.3
		C205.2,76,205.7,73.4,204.8,70.4L204.8,70.4z"/>
	<path class="st1" d="M85.9,73.2c0.2-1.3,0.5-2.3,1.1-3.1c0.8-1.2,2-1.9,3.8-1.9c1.7,0,2.9,0.7,3.7,1.9c0.5,0.8,0.8,1.9,0.9,3.1
		H85.9L85.9,73.2z M99,70.4c-0.3-1.2-1.1-2.5-1.7-3.1c-0.9-0.9-1.7-1.6-2.5-1.9c-1.1-0.5-2.4-0.8-3.8-0.8c-1.6,0-3.1,0.3-4.4,0.8
		c-1.2,0.6-2.2,1.4-3,2.3c-0.8,1-1.4,2.1-1.8,3.4s-0.6,2.7-0.6,4.2s0.2,2.9,0.6,4.2c0.4,1.3,1,2.4,1.9,3.4c0.9,0.9,2,1.7,3.3,2.2
		s2.9,0.8,4.8,0.8c3.8,0,5.8-0.9,6.7-1.3c0.1-0.1,0.3-0.2,0.1-0.6l-0.9-2.4c-0.1-0.4-0.5-0.2-0.5-0.2c-0.9,0.4-2.3,1-5.4,1
		c-2,0-3.6-0.6-4.5-1.6c-1-1-1.5-2.4-1.5-4.4H99c0,0,0.3,0,0.4-0.3C99.4,76,99.9,73.4,99,70.4L99,70.4z"/>
	<path class="st1" d="M57.4,81.8c-0.5-0.4-0.6-0.5-0.8-0.8c-0.3-0.4-0.4-1-0.4-1.7c0-1.2,0.4-2,1.2-2.6c0,0,1.1-1,3.8-1
		c1.9,0,3.6,0.3,3.6,0.3v6l0,0c0,0-1.7,0.4-3.6,0.5C58.5,82.8,57.4,81.8,57.4,81.8 M62.6,72.6c-0.5,0-1.2-0.1-2.1-0.1
		c-1.1,0-2.2,0.1-3.3,0.4c-1,0.3-2,0.7-2.8,1.3c-0.8,0.6-1.4,1.3-1.9,2.2s-0.7,1.9-0.7,3c0,1.2,0.2,2.2,0.6,3s1,1.5,1.7,2.1
		c0.7,0.5,1.6,0.9,2.7,1.2c1,0.2,2.2,0.4,3.5,0.4c1.4,0,2.7-0.1,4-0.3c1.3-0.2,2.9-0.5,3.3-0.6s0.9-0.2,0.9-0.2
		c0.3-0.1,0.3-0.4,0.3-0.4V72.5c0-2.6-0.7-4.6-2.1-5.8c-1.4-1.2-3.4-1.8-6.1-1.8c-1,0-2.6,0.1-3.5,0.3c0,0-2.9,0.6-4.1,1.5
		c0,0-0.3,0.2-0.1,0.5l0.9,2.5c0.1,0.3,0.4,0.2,0.4,0.2s0.1,0,0.2-0.1c2.5-1.4,5.8-1.3,5.8-1.3c1.4,0,2.5,0.3,3.3,0.9
		c0.7,0.6,1.1,1.4,1.1,3.1v0.6C63.7,72.6,62.6,72.6,62.6,72.6"/>
	<path class="st1" d="M169.1,65.8c0.1-0.3-0.1-0.4-0.2-0.5c-0.2-0.1-1.3-0.3-2.2-0.4c-1.7-0.1-2.6,0.2-3.4,0.5
		c-0.8,0.4-1.7,1-2.2,1.6v-1.6c0-0.2-0.2-0.4-0.4-0.4h-3.4c-0.2,0-0.4,0.2-0.4,0.4v19.7c0,0.2,0.2,0.4,0.4,0.4h3.5
		c0.2,0,0.4-0.2,0.4-0.4v-9.8c0-1.3,0.1-2.6,0.4-3.5c0.3-0.8,0.7-1.5,1.2-1.9c0.5-0.5,1-0.8,1.6-1s1.3-0.2,1.8-0.2
		c0.7,0,1.5,0.2,1.5,0.2c0.3,0,0.4-0.1,0.5-0.4C168.4,67.9,169,66.1,169.1,65.8"/>
	<path class="st1" d="M136.6,56.6c-0.4-0.1-0.8-0.2-1.3-0.3c-0.5-0.1-1.1-0.1-1.8-0.1c-2.4,0-4.3,0.7-5.6,2c-1.3,1.3-2.2,3.3-2.7,6
		l-0.2,0.9h-3c0,0-0.4,0-0.4,0.4l-0.5,2.7c0,0.3,0.1,0.4,0.4,0.4h2.9l-3,16.5c-0.2,1.3-0.5,2.4-0.8,3.3c-0.3,0.8-0.6,1.4-0.9,1.9
		c-0.3,0.4-0.7,0.7-1.2,0.9c-0.5,0.2-1,0.2-1.6,0.2c-0.3,0-0.7-0.1-1.1-0.1c-0.3-0.1-0.5-0.1-0.7-0.2c0,0-0.3-0.1-0.5,0.2
		c-0.1,0.3-0.9,2.4-1,2.7c-0.1,0.3,0,0.5,0.2,0.5c0.4,0.1,0.7,0.2,1.2,0.4c0.7,0.2,1.4,0.2,1.9,0.2c1.2,0,2.3-0.2,3.2-0.5
		s1.7-0.9,2.4-1.7c0.8-0.9,1.3-1.7,1.7-3c0.5-1.2,0.9-2.7,1.2-4.4l3-16.8h4.3c0,0,0.4,0,0.4-0.4l0.5-2.7c0-0.3-0.1-0.4-0.4-0.4H129
		c0-0.1,0.2-1.6,0.7-3c0.2-0.6,0.6-1.1,0.9-1.4c0.3-0.3,0.7-0.6,1.1-0.7c0.4-0.1,0.9-0.2,1.4-0.2c0.4,0,0.8,0,1.1,0.1
		c0.4,0.1,0.6,0.1,0.7,0.2c0.4,0.1,0.5,0,0.6-0.2l1-2.8C136.9,56.8,136.7,56.7,136.6,56.6"/>
	<path class="st1" d="M77.6,85.2c0,0.2-0.2,0.4-0.4,0.4h-3.5c-0.2,0-0.4-0.2-0.4-0.4V57c0-0.2,0.2-0.4,0.4-0.4h3.5
		c0.2,0,0.4,0.2,0.4,0.4V85.2L77.6,85.2z"/>
</g>
</svg>
