<?xml version="1.0" encoding="utf-8"?>
<!-- Generator: Adobe Illustrator 28.3.0, SVG Export Plug-In . SVG Version: 6.00 Build 0)  -->
<svg version="1.1" id="Layer_1" xmlns="http://www.w3.org/2000/svg" xmlns:xlink="http://www.w3.org/1999/xlink" x="0px" y="0px"
	 viewBox="0 0 515.3 75.9" style="enable-background:new 0 0 515.3 75.9;" xml:space="preserve">
<style type="text/css">
	.st0{fill-rule:evenodd;clip-rule:evenodd;fill:#939598;}
</style>
<g>
	<path class="st0" d="M282.6,35c0,0-5-3.1-8.1-4.3c0,0-9.6-4.4-11.5-6.5c0,0-3.7-3.5-1.5-7.6c0,0,0.9-2.7,4.9-2.7
		c0,0,5.1,0.3,5.1,4.5v6h18.4v-8.8c0,0,1.4-14.4-21.7-15c0,0-18.1-1.2-23.4,8.6c0,0-2,2.2-2,9.8v5.5c0,0-0.2,6.3,3,10.4
		c0,0,1.8,2.7,6.3,5.6c0,0,9.1,4.9,14.6,7.7c0,0,5.5,3.2,4.8,8.2c0,0-0.4,5.2-5.8,5c0,0-4.9-0.2-4.9-5.3v-5.9h-19.6v8.6
		c0,0-0.6,16.5,24.6,16.5c0,0,24.1,0.5,25.2-17v-7C291.1,51.3,292,40.6,282.6,35L282.6,35z"/>
	<polygon class="st0" points="188.6,2.6 182.3,41.2 180.9,41.2 175.1,3 144.3,3 142.8,72.9 160.9,72.9 161.1,20.2 162.6,20.2 
		172.2,72.9 191.4,72.9 200.9,20.2 202.1,20.2 202.6,72.9 220.9,72.9 218.9,2.6 	"/>
	<polygon class="st0" points="80.2,2.9 68.1,72.8 87.8,72.8 94.9,18.6 96.6,18.6 103.6,72.8 123.2,72.8 111.1,2.9 	"/>
	<path class="st0" d="M491.1,34v10.3h5v11.1c0,5.4-4.6,5.5-4.6,5.5c-5.6,0-5.4-5.1-5.4-5.1V17.5c0-3.9,5-4.2,5-4.2
		c4.8,0,4.8,4.7,4.8,4.7v5.8h18.4c0.6-11.4-1.7-14.1-1.7-14.1C508.1-0.6,490.7,0,490.7,0c-26.6,0-23.6,20.4-23.6,20.4v37
		c0.6,19.1,26.8,17.2,27.2,17.2c11.7-1.3,15.2-5,15.2-5c3.2-2.4,4.1-5.7,4.1-5.7c0.9-1.9,1.2-8.1,1.2-8.1V34.1L491.1,34L491.1,34z"
		/>
	<polygon class="st0" points="430,45.4 429.2,45.4 410.4,2.7 388.1,2.7 388.1,72.9 406.3,72.9 405.2,30.2 406,30.2 425.4,72.9 
		447.1,72.9 447.1,2.7 428.6,2.7 	"/>
	<path class="st0" d="M343.6,55.4c0,0,0.3,5.8-5.1,5.8c0,0-5.6,0.3-5.6-5.6l-0.1-52.8h-20v52.4c0,0-2,19.8,25.9,19.8
		c0,0,24.3,0.3,24.3-18.9V2.8h-19.5v52.6H343.6z"/>
	<path class="st0" d="M42.1,35c0,0-5-3.1-8.1-4.3c0,0-9.6-4.4-11.5-6.5c0,0-3.7-3.5-1.5-7.6c0,0,0.9-2.7,4.8-2.7
		c0,0,5.1,0.3,5.1,4.5v6h18.5v-8.8c0,0,1.4-14.4-21.7-15c0,0-1.7-0.1-4.3,0c0,0-14,0.8-19,8.4c0,0.1-0.1,0.1-0.1,0.1s-2,2.2-2,9.8
		v5.5c0,0-0.2,6.3,3,10.4c0,0,1.8,2.7,6.3,5.6c0,0,9.1,4.9,14.6,7.7c0,0,5.5,3.2,4.8,8.2c0,0-0.5,5.2-5.8,5c0,0-4.9-0.2-4.9-5.3
		v-5.9H0.8v8.6c0,0-0.5,16.5,24.6,16.5c0,0,24.1,0.5,25.2-17v-7C50.6,51.3,51.5,40.6,42.1,35L42.1,35z"/>
</g>
</svg>
