<?xml version="1.0" encoding="utf-8"?>
<!-- Generator: Adobe Illustrator 28.3.0, SVG Export Plug-In . SVG Version: 6.00 Build 0)  -->
<svg version="1.1" id="Layer_1" xmlns="http://www.w3.org/2000/svg" xmlns:xlink="http://www.w3.org/1999/xlink" x="0px" y="0px"
	 viewBox="0 0 337.2 169.4" style="enable-background:new 0 0 337.2 169.4;" xml:space="preserve">
<style type="text/css">
	.st0{fill-rule:evenodd;clip-rule:evenodd;fill:#939598;}
	.st1{fill-rule:evenodd;clip-rule:evenodd;fill:#FFFFFF;}
	.st2{fill:#939598;}
</style>
<g>
	<polyline class="st0" points="3.1,166.4 170.9,166.4 335,2.2 3.1,2.2 3.1,166.4 	"/>
</g>
<path class="st1" d="M200.1,33.1h-32.7v77.6l-28.5-77.6h-28.3L86.2,98c-2.6-16.4-19.5-22-32.9-26.2c-8.8-2.8-18.1-7-18-11.6
	c0.1-3.8,5-7.3,14.8-6.7c6.5,0.3,12.3,0.9,23.9,6.4l11.4-19.8c-10.6-5.3-25.1-8.7-37-8.7h-0.1c-13.9,0-25.5,4.5-32.7,11.9
	c-5,5.2-7.7,11.8-7.8,19c-0.2,10,3.5,17.1,11.2,22.8c6.5,4.8,14.8,7.9,22.2,10.2c9.1,2.8,16.5,5.2,16.4,10.5c0,1.9-0.8,3.7-2.1,5.1
	c-2.3,2.3-5.7,3.2-10.5,3.3c-9.3,0.2-16.1-1.3-27.1-7.7l-10.1,20c10.9,6.2,23.8,9.9,37,9.9h1.7c11.4-0.2,20.7-3.5,28.1-9.4
	c0.4-0.3,0.8-0.7,1.2-1l-3.3,8.7h29.7l5-15.1c5.2,1.7,11.1,2.7,17.4,2.7c6.1,0,11.9-1,17-2.6l4.8,15h48.4v-31.5h10.5
	c25.5,0,40.6-13,40.6-34.8C246,44.2,231.3,33.1,200.1,33.1z M124.6,99.5c-3.8,0-7.4-0.7-10.5-1.9l10.4-32.7h0.2l10.2,32.8
	C131.8,98.9,128.3,99.5,124.6,99.5z M202,80.8h-7.2V54.5h7.2c9.6,0,17.2,3.2,17.2,13C219.3,77.6,211.6,80.8,202,80.8z"/>
<path class="st2" d="M211.2,155.6c0-5,3.8-8.8,8.7-8.8c4.8,0,8.6,3.8,8.6,8.8c0,5.2-3.8,9-8.6,9
	C215.1,164.6,211.2,160.8,211.2,155.6 M220,166.4c5.8,0,10.7-4.5,10.7-10.7c0-6.1-5-10.6-10.7-10.6c-5.9,0-10.8,4.5-10.8,10.6
	C209.1,161.8,214.1,166.4,220,166.4z M217.7,156.5h2.1l3.3,5.3h2.1l-3.5-5.4c1.8-0.2,3.2-1.2,3.2-3.4c0-2.4-1.4-3.5-4.3-3.5H216
	v12.3h1.8L217.7,156.5L217.7,156.5z M217.7,154.9v-3.8h2.5c1.3,0,2.6,0.3,2.6,1.8c0,1.9-1.4,2-2.9,2H217.7z"/>
</svg>
