<?xml version="1.0" encoding="utf-8"?>
<!-- Generator: Adobe Illustrator 28.3.0, SVG Export Plug-In . SVG Version: 6.00 Build 0)  -->
<svg version="1.1" id="Layer_1" xmlns="http://www.w3.org/2000/svg" xmlns:xlink="http://www.w3.org/1999/xlink" x="0px" y="0px"
	 viewBox="0 0 596 248" style="enable-background:new 0 0 596 248;" xml:space="preserve">
<style type="text/css">
	.st0{display:none;fill:url(#SVGID_1_);}
	.st1{fill:#939598;}
</style>
<g>
	<g>
		
			<linearGradient id="SVGID_1_" gradientUnits="userSpaceOnUse" x1="170" y1="509.0001" x2="170" y2="433.0001" gradientTransform="matrix(1 0 0 1 0 -242.0001)">
			<stop  offset="0" style="stop-color:#6F0C01"/>
			<stop  offset="1" style="stop-color:#C11500"/>
		</linearGradient>
		<path class="st0" d="M203,267h-65.3c-3,0-5.7-2.7-5.7-5.7v-64.8c0-3,2.7-5.5,5.7-5.5h64.7c3,0,5.6,2.5,5.6,5.5V262
			C208,265,206,267,203,267z M137.7,192c-2.8,0-4.7,1.7-4.7,4.5v64.8c0,2.8,2,4.7,4.7,4.7H202c3,0,5-2,5-5v-64.5
			c0-2.8-1.8-4.5-4.6-4.5H137.7z"/>
	</g>
</g>
<g>
	<path class="st1" d="M210.7,142.1c0.9,23.7,20,31.2,40.3,31.2c15.4,0,36.3-3.7,36.3-24c0-20.6-24.4-24-49-29.9
		c-24.4-5.9-49-14.6-49-45.5c0-32.4,29.9-45.8,56-45.8c33.1,0,59.4,11.2,61.5,50.5H282c-1.7-20.6-18.6-27.1-34.8-27.1
		c-14.8,0-31.9,4.4-31.9,20.6c0,19,26.1,22.1,49,28.1c24.6,5.9,49,14.6,49,45.8c0,38.4-33.3,50.8-63.8,50.8
		c-33.6,0-62.1-14.7-63.5-54.6L210.7,142.1L210.7,142.1z"/>
	<path class="st1" d="M418.9,136.8c0,14.6-13.3,36.5-45.8,36.5c-15.1,0-29-6.2-29-23.7c0-19.6,13.9-25.9,30.2-29
		c16.5-3.1,35.1-3.4,44.7-10.9v27.1H418.9z M458.9,171.7c-3.2,1.2-5.5,1.6-7.5,1.6c-7.8,0-7.8-5.6-7.8-18.1V72.3
		c0-37.7-29.3-44.3-56.2-44.3c-33.4,0-62.1,14-63.5,53.9h24.6c1.2-23.7,16.5-30.6,37.4-30.6c15.7,0,33.3,3.8,33.3,26.8
		c0,20-23.2,18.1-50.4,23.7c-25.5,5.3-50.7,13.1-50.7,49.6c0,32.1,22.3,45.2,49.6,45.2c20.9,0,39.1-7.8,52.8-24.9
		c0,17.5,8.1,24.9,20.9,24.9c7.8,0,13.3-1.6,17.7-4.4v-20.5L458.9,171.7L458.9,171.7z"/>
	<path class="st1" d="M481.8,142.1c0.9,23.7,20,31.2,40.3,31.2c15.4,0,36.2-3.7,36.2-24c0-20.6-24.4-24-49-29.9
		c-24.4-5.9-49-14.6-49-45.5c0-32.4,29.9-45.8,56-45.8c33.1,0,59.4,11.2,61.5,50.5h-24.6c-1.7-20.6-18.6-27.1-34.8-27.1
		c-14.8,0-31.9,4.4-31.9,20.6c0,19,26.1,22.1,49,28.1c24.6,5.9,49,14.6,49,45.8c0,38.4-33.4,50.8-63.8,50.8
		c-33.6,0-62.1-14.7-63.5-54.6L481.8,142.1L481.8,142.1z"/>
	<path class="st1" d="M106.8,75.8l-4.1-4.9c-5.7-6.8-15-6.7-21.8-1.1C74,75.5,72,84.9,77.7,91.7c0,0,0.7,0.8,1.9,2.3"/>
	<path class="st1" d="M79.4,93.8c13,15.7,30.6,36.8,30.6,36.8c21.9,26.5,12.1,59.3-17.6,77.9c-26.1,16.4-74.1,10.6-90.7-16.4
		c12.8,37.8,55.8,62.5,103.3,50.6c41.2-10.3,87.3-63.3,36.9-124.4l-37.4-45.2"/>
	<path class="st1" d="M83.4,150.6c-12.7-15.3-28.2-33.9-28.2-33.9C33.3,90.2,43.1,57.4,72.8,38.8c26.1-16.4,74.1-10.6,90.7,16.4
		C150.7,17.4,107.7-7.3,60.2,4.5C19,14.8-27.1,67.8,23.3,128.9L59,172"/>
	<path class="st1" d="M53.2,165.4l8.5,10.3c5.7,6.8,15,6.7,21.8,1.1c6.9-5.7,8.9-15.1,3.2-22c0,0-3.4-4-8.2-9.8"/>
	<path class="st1" d="M574.3,192.5c0-4.5,3.4-7.9,7.8-7.9c4.3,0,7.7,3.4,7.7,7.9c0,4.6-3.4,8-7.7,8
		C577.6,200.5,574.3,197.1,574.3,192.5 M582,202c5.2,0,9.6-4,9.6-9.5s-4.5-9.5-9.6-9.5c-5.2,0-9.7,4-9.7,9.5S576.8,202,582,202
		 M580,193.2h1.9l2.9,4.8h1.9l-3.1-4.8c1.6-0.2,2.9-1.1,2.9-3c0-2.2-1.3-3.1-3.9-3.1h-4.2v11h1.7v-4.9H580z M580,191.9v-3.4h2.3
		c1.2,0,2.4,0.2,2.4,1.6c0,1.7-1.2,1.8-2.7,1.8H580z"/>
	<path class="st1" d="M169.5,192.5c0-4.5,3.4-7.9,7.8-7.9c4.3,0,7.7,3.4,7.7,7.9c0,4.6-3.4,8-7.7,8
		C172.9,200.5,169.5,197.1,169.5,192.5 M177.3,202c5.2,0,9.6-4,9.6-9.5s-4.5-9.5-9.6-9.5c-5.2,0-9.7,4-9.7,9.5
		C167.6,198,172.1,202,177.3,202 M175.3,193.2h1.9l2.9,4.8h1.9l-3.1-4.8c1.6-0.2,2.9-1.1,2.9-3c0-2.2-1.3-3.1-3.9-3.1h-4.2v11h1.7
		L175.3,193.2L175.3,193.2z M175.3,191.9v-3.4h2.3c1.2,0,2.4,0.2,2.4,1.6c0,1.7-1.2,1.8-2.7,1.8H175.3z"/>
</g>
</svg>
