<?xml version="1.0" encoding="utf-8"?>
<!-- Generator: Adobe Illustrator 28.3.0, SVG Export Plug-In . SVG Version: 6.00 Build 0)  -->
<svg version="1.1" id="Layer_1" xmlns="http://www.w3.org/2000/svg" xmlns:xlink="http://www.w3.org/1999/xlink" x="0px" y="0px"
	 viewBox="0 0 531.3 80" style="enable-background:new 0 0 531.3 80;" xml:space="preserve">
<style type="text/css">
	.st0{fill-rule:evenodd;clip-rule:evenodd;fill:#939598;}
	.st1{fill-rule:evenodd;clip-rule:evenodd;fill:#BEBDBE;}
	.st2{fill:#939598;}
</style>
<path class="st0" d="M129,24.9c-5.7,0-10.6,2-14.5,5.2v-4.7h-13.2v51.5H115V44c1.9-2.7,6.7-6.4,12.5-6.4c2.1,0,4,0.2,5.5,0.8V25.2
	C131.7,25,130.4,24.9,129,24.9"/>
<path class="st0" d="M9.1,61.2c3.5,3.2,8.9,5.1,14.1,5.1c3.7,0,6.6-1.8,6.6-4.4c0-7.7-24.9-5-24.9-21.6c0-9.9,9.5-16,19.7-16
	c6.7,0,14,2.5,17.3,5.2l-6.5,10c-2.6-1.9-6.1-3.5-9.8-3.5c-3.8,0-7,1.5-7,4.1c0,6.7,24.9,4,24.9,21.9c0,9.9-9.6,15.9-20.4,15.9
	C16,77.9,8.5,75.5,2.5,71L9.1,61.2z"/>
<path class="st0" d="M95.4,50.7c0-14.3-10-26.3-24.2-26.3c-15.2,0-25,12.5-25,26.9c0,16.1,11.5,26.8,26.9,26.8
	c7.9,0,16.1-3.3,21-9.2L86.3,61c-2.4,2.7-7.1,5.9-12.9,5.9c-7.3,0-13.1-5-13.9-12.2H95C95.3,53.4,95.4,52,95.4,50.7z M60.2,44.5
	c0.6-4.7,5.3-9,11-9c5.6,0,9.7,4.5,10.2,9H60.2z"/>
<polygon class="st0" points="165.8,56.8 179.9,25.4 194.1,25.4 170.5,76.9 161,76.9 137.4,25.4 151.7,25.4 "/>
<g>
	<path class="st0" d="M205.7,1.2c5,0,9,3.8,9,8.8s-4,8.8-9,8.8s-9-3.8-9-8.8C196.7,5,200.7,1.2,205.7,1.2"/>
	<rect x="198.8" y="25.4" class="st0" width="13.7" height="51.5"/>
</g>
<path class="st0" d="M269.4,66.4c-6,8.1-13.6,11.6-23.3,11.6c-15.9,0-27.5-11.9-27.5-26.8c0-15,12-26.9,27.6-26.9
	c8.9,0,16.8,4.1,21.6,10.3l-9.7,8.6c-2.7-3.6-6.9-6.2-11.8-6.2c-7.9,0-13.9,6.3-13.9,14.1c0,8.1,5.8,14,14.2,14
	c5.6,0,10-3.4,12.3-6.8L269.4,66.4z"/>
<path class="st0" d="M319.3,68.7c-5,5.9-13.1,9.2-21,9.2c-15.3,0-26.9-10.6-26.9-26.8c0-14.3,9.7-26.9,25-26.9
	c14.2,0,24.2,12,24.2,26.3c0,1.4-0.1,2.8-0.3,3.9h-35.5c0.7,7.2,6.6,12.2,13.9,12.2c5.8,0,10.5-3.3,12.9-5.9L319.3,68.7z
	 M306.5,44.5c-0.4-4.6-4.5-9-10.2-9s-10.4,4.4-11,9H306.5z"/>
<path class="st0" d="M326.1,76.9V25.4h13.2v4.1c3.9-3.2,8.8-5.2,14.5-5.2c7.1,0,13.5,3.2,17.8,8.3c3.4,4,5.3,9.2,5.3,18v26.2h-13.7
	V49.5c0-5.1-1.2-7.7-3.1-9.7c-1.8-1.8-4.5-2.9-7.7-2.9c-5.8,0-10.6,3.7-12.5,6.4v33.4h-13.8L326.1,76.9L326.1,76.9z"/>
<path class="st1" d="M412.2,24.3c-16.4-0.1-30,13.3-30.2,29.8c-0.1,8.7,3.6,16.6,9.4,22.2c2.1,2,5.4,2.2,7.7,0.4
	c3.4-2.7,7.8-4.3,12.8-4.3s9.4,1.6,12.8,4.3c2.3,1.8,5.6,1.6,7.8-0.5c5.8-5.5,9.4-13.2,9.4-21.9C442,37.9,428.7,24.4,412.2,24.3
	 M412,69.5c-8.9,0-15-6.7-15-15s6.1-15.1,15-15.1s15,6.8,15,15.1C427,62.8,421,69.5,412,69.5"/>
<g>
	<polygon class="st0" points="469.2,76.9 459,76.9 438.6,25.4 452.3,25.4 463.5,54.8 474.5,25.4 485.9,25.4 496.8,54.8 508.1,25.4 
		521.8,25.4 501.4,76.9 491.2,76.9 480.2,47.6 	"/>
</g>
<g>
	<g>
		<path class="st2" d="M522,71.1h-1.2v2.2h-1v-6h2.4c1.1,0,1.9,0.9,1.9,1.9c0,0.8-0.5,1.5-1.2,1.7l1.4,2.3h-1.1L522,71.1z
			 M520.8,70.2h1.4c0.5,0,0.9-0.4,0.9-1s-0.4-1-0.9-1h-1.4V70.2z"/>
	</g>
	<path class="st2" d="M521.9,64.8c3.1,0,5.5,2.5,5.5,5.5s-2.5,5.5-5.5,5.5s-5.5-2.5-5.5-5.5S518.8,64.8,521.9,64.8 M521.9,64
		c-3.5,0-6.4,2.9-6.4,6.4s2.9,6.4,6.4,6.4s6.4-2.9,6.4-6.4C528.3,66.8,525.4,64,521.9,64L521.9,64z"/>
</g>
</svg>
