<?xml version="1.0" encoding="utf-8"?>
<!-- Generator: Adobe Illustrator 28.3.0, SVG Export Plug-In . SVG Version: 6.00 Build 0)  -->
<svg version="1.1" id="Layer_1" xmlns="http://www.w3.org/2000/svg" xmlns:xlink="http://www.w3.org/1999/xlink" x="0px" y="0px"
	 viewBox="0 0 507.3 355.9" style="enable-background:new 0 0 507.3 355.9;" xml:space="preserve">
<style type="text/css">
	.st0{fill:#939598;}
	.st1{fill:#FFFFFF;}
</style>
<g>
	<path class="st0" d="M7.4,142v9.9h491.7v-10V3H69.2C58.5,3,14.3,1.6,7.4,3.5C7.4,3.5,7.4,142,7.4,142z"/>
	<path class="st0" d="M499.1,141.8v10H7.4v-9.9l-4.3-0.3v157.5h500.1l0.2-157.4L499.1,141.8z M15.8,154.4h475v132.1H460v-36.4h18
		v-86.4l-30.6-0.2v122.9c-7.2,0-25.5,0.6-31.5-0.3v-35.8l5.9-0.2v-86.4h-24.4v86.4l5.9,0.2v36.1l-31.7,0.1V163.6l-30.6,0.2v86.4h18
		l-0.2,36.4h-32V163.9l-12.7-0.2v122.9c-7.2,0-25.5,0.6-31.5-0.3v-35.8l5.9-0.2v-86.6H264v86.6l5.9,0.2v36.1l-32.4,0.1V163.8
		l-30.6,0.2v86.4h18v36.4h-31.5v-123l-12.7-0.2v122.9c-7.3,0-26.2,0.6-32.2-0.3v-35.8l18-0.2v-86.4l-30.7-0.2v122.8l-32.4,0.1v-36.4
		l5.9-0.2v-86.2l-24.4-0.1v86.6h5.9v36.4H59.3V163.7l-30.6,0.1V250l18,0.2v36.4H15.8V154.4z"/>
	<path class="st1" d="M15.8,286.5h30.7v-36.4l-18-0.2v-86.1l30.6-0.1v122.8h31.5v-36.4h-5.9v-86.6l24.4,0.1v86.2l-5.9,0.2v36.4
		l32.4-0.1V163.5l30.7,0.2v86.4l-18,0.3v35.8c6,0.9,24.9,0.4,32.2,0.3V163.6l12.7,0.2v122.7h31.5v-36.4h-18v-86.4l30.6-0.2v122.9
		l32.4-0.1v-36.1l-5.9-0.2v-86.5h24.4V250l-5.9,0.3v35.8c6,0.9,24.3,0.4,31.5,0.3V163.6l12.7,0.2v122.7h32l0.2-36.4h-18v-86.4
		l30.6-0.2v122.9l31.7-0.1v-36.1l-5.9-0.2v-86.4h24.4V250l-5.9,0.3v35.8c6,0.9,24.3,0.4,31.5,0.3V163.6l30.6,0.2v86.4h-18v36.4h30.8
		V154.5h-475v132H15.8z"/>
	<path class="st1" d="M183.8,39.1c1.9,2.1,0.3,0.6,4.9,1.7c3.8,0.9,9.6,4.4,10.4,8.4l0.1,50.5c0,10.2,0,13.6-11,13.6v2.3h27.3v-2.3
		c-9.1,0-11-1.4-11-10.6V55.3c2.8,2.5,21.2,27.5,25,32.6c4,5.4,8.1,10.8,12.3,16.5c10.5,14,7.3,12.5,15.9,12.5
		c1.2-12.4,0.2-30.7,0.2-43.8c0-26.5-3.2-33,11-33v-2.2h-27.3v2.2c8.2,0,11,1.7,11,10.2v44.9c-3.6-3-34.3-41.8-41.2-49.9
		c-1.9-2.2-4.3-4.7-5.6-7.4l-19.2-0.1C183,37.9,184.5,38.4,183.8,39.1"/>
	<path class="st1" d="M96.9,84.5c7.2,50.3,88.5,41.9,81.5-15.1C172.2,19.1,88.8,28.4,96.9,84.5 M131,41.2
		c20.4-4.3,31.8,11.3,34.6,28.7c3.2,20.3-3.6,39.4-21.1,42.8C103,121,96.5,48.5,131,41.2"/>
	<path class="st1" d="M292.1,85.4c4.8-1,10-1.4,15.1-1.2c2,0.1,5.5,0.2,7.4,0.6c3.3,0.6,3,0.7,4.1,3.5c1.6,4.1,7.7,19.1,7.4,22.7
		c-8.3,3.1-8.2-0.8-8.6,4.7h29.3c-0.4-6.6-5.1-0.1-8.6-6.7c-4.5-8.2-25.3-68.4-28.7-72.3c-3.6,0.9-3,0.4-4.3,3.5l-28.4,68.6
		c-3.7,6.4-7.3,0.9-7.8,7h24.8c-0.2-3.6,0.5-2.7-3.7-3.3c-2.2-0.3-3.7-0.4-5.8-1C283.3,105.8,290.2,91.6,292.1,85.4 M294,80.2
		c2.9-5,7.7-23,11.1-26.7l10.1,26.7H294z"/>
	<path class="st1" d="M408.5,111.3c-0.6-4.5,4.4-16.4,6.7-22.5c0.9-2.6,0.6-2.7,2.5-3.6c2.8-1.3,20.1-1.3,22.9,0
		c2.9,1.4,9.9,23.4,9.7,25.8c-8.5,3.1-8.2-0.7-8.6,4.7h29.5c-0.5-6.6-5.2-0.1-8.8-6.7l-28.7-72.3c-3.7,1-2.9,0.4-4.2,3.5l-23.9,58
		c-1.3,3.2-2.9,7.6-4.6,10.6c-3.7,6.6-7.4,0.7-7.9,6.9H418C417.6,110.1,417.3,113.9,408.5,111.3 M429.5,53.6l10,26.7l-21.3,0.2
		L429.5,53.6z"/>
	<path class="st1" d="M38.9,91.3c-3.2,0.4-3.7,0.1-3.6,3.4c0.1,4.4,1.7,16.1,4.5,18.4c4.8,4.1,18.7,4.9,25.8,3.5
		c21.3-4.5,23.3-24.6,14.5-35.4c-8.4-10.4-32.3-14.2-32-28.4c0.3-13.9,19.5-16.6,26.2-5.1c4.4,7.5-0.8,8.6,6.1,8.9L79,40
		c-14.2-5.8-33.7-4.2-39.2,8.4c-7.1,16.3,6.7,26,18.3,32.1c6.9,3.6,12,5.8,15.2,12.1c8,15.7-11.8,28.1-25.5,16.4
		C40.4,102.4,41.4,95.8,38.9,91.3"/>
	<path class="st1" d="M336.7,56.9c3.5-0.6,1.6,1.3,2.8-2.9c0.3-1.2,0.5-2.9,0.9-4.4c0.9-3.3,2-5.1,4.3-6.3
		c4.2-2.2,13.8-1.5,19.2-1.6c0.8,6.5,0.3,49.5,0.3,59.5c0,3.9,0.3,8.9-2.6,10.5c-4.6,2.5-7.9-1.9-8.2,3.9h32.7c-0.4-6.7-6-0.5-9.5-5
		c-2.4-3.1-1.9-64.2-0.9-68.9c5.3,0,14.8-0.6,19,1.5c2.3,1.2,3.4,3,4.3,6.3c2.5,8.9-0.2,6.6,3.7,7.4c2.7-3.8,0.4-14.8,0-18.7
		l-66,0.1C336.2,43.3,334.4,53.4,336.7,56.9"/>
	<path class="st0" d="M498.2,353.9h-20.4v-38.4h19.5v4.1h-15v12.8h13.9v4h-13.9v13.5h15.9V353.9z M449.1,319.5v13.9h6.1
		c1.1,0,2.2-0.2,3.1-0.5s1.8-0.8,2.5-1.5c0.7-0.6,1.3-1.4,1.6-2.3c0.4-0.9,0.6-2,0.6-3.1c0-2.1-0.7-3.7-2-4.8
		c-1.3-1.2-3.3-1.7-5.8-1.7L449.1,319.5L449.1,319.5z M472.2,353.9h-5.4l-6.4-10.8c-0.6-1-1.2-1.8-1.7-2.6c-0.6-0.7-1.1-1.3-1.7-1.7
		c-0.6-0.5-1.2-0.8-1.9-1c-0.7-0.2-1.4-0.3-2.3-0.3h-3.7v16.4h-4.5v-38.4h11.5c1.7,0,3.2,0.2,4.6,0.6c1.4,0.4,2.7,1.1,3.7,1.9
		c1.1,0.9,1.9,1.9,2.4,3.2c0.6,1.3,0.9,2.8,0.9,4.5c0,1.3-0.2,2.6-0.6,3.7c-0.4,1.1-1,2.1-1.7,3s-1.6,1.6-2.7,2.2
		c-1.1,0.6-2.2,1.1-3.5,1.4v0.1c0.6,0.3,1.2,0.6,1.7,1s0.9,0.8,1.3,1.3s0.9,1.1,1.3,1.7c0.4,0.6,0.9,1.4,1.4,2.2L472.2,353.9z
		 M428.1,339.1l-6-16.4c-0.2-0.5-0.4-1.4-0.6-2.6h-0.1c-0.2,1.1-0.4,1.9-0.6,2.6l-6,16.4H428.1z M438.6,353.9h-5l-4.1-10.8h-16.3
		l-3.8,10.8h-5l14.8-38.4h4.7L438.6,353.9z M404.8,315.4L394,353.9h-5.3l-7.9-28.1c-0.3-1.2-0.5-2.5-0.6-3.9h-0.1
		c-0.1,1.3-0.3,2.6-0.7,3.9l-8,28.1h-5.2l-11.3-38.4h5l8.2,29.5c0.3,1.2,0.5,2.5,0.6,3.9h0.1c0.1-0.9,0.4-2.2,0.8-3.9l8.5-29.5h4.3
		l8.1,29.7c0.3,1,0.5,2.2,0.6,3.6h0.1c0.1-0.9,0.3-2.2,0.7-3.7l7.8-29.6L404.8,315.4L404.8,315.4z M351.8,319.5h-11.1v34.4h-4.5
		v-34.4h-11.1v-4.1h26.7V319.5z M321.1,319.5h-15v13.3H320v4.1h-13.9v17h-4.5v-38.4h19.5V319.5z M275.7,318.9c-4,0-7.3,1.4-9.8,4.4
		c-2.5,2.9-3.8,6.7-3.8,11.5c0,4.7,1.2,8.5,3.7,11.4c2.4,2.9,5.7,4.3,9.6,4.3c4.2,0,7.5-1.4,10-4.1c2.4-2.8,3.6-6.6,3.6-11.6
		c0-5.1-1.2-9-3.5-11.8C283.1,320.3,279.8,318.9,275.7,318.9 M275.4,354.5c-5.4,0-9.8-1.8-13.1-5.4c-3.3-3.6-4.9-8.3-4.9-14
		c0-6.2,1.7-11.1,5-14.8s7.9-5.5,13.6-5.5c5.3,0,9.6,1.8,12.8,5.3c3.2,3.6,4.9,8.3,4.9,14c0,6.3-1.7,11.2-5,14.9
		S281,354.5,275.4,354.5 M228.6,352.3V347c0.6,0.5,1.3,1,2.2,1.4c0.9,0.4,1.8,0.8,2.7,1.1c0.9,0.3,1.9,0.5,2.8,0.7s1.8,0.2,2.6,0.2
		c2.8,0,4.8-0.5,6.2-1.5c1.4-1,2.1-2.5,2.1-4.4c0-1.1-0.2-1.9-0.7-2.7s-1.1-1.5-1.9-2.1s-1.8-1.2-2.9-1.8s-2.3-1.2-3.6-1.8
		c-1.3-0.7-2.6-1.4-3.8-2.1c-1.2-0.7-2.2-1.5-3-2.3c-0.9-0.8-1.5-1.8-2-2.9c-0.5-1.1-0.7-2.3-0.7-3.7c0-1.8,0.4-3.3,1.2-4.6
		c0.8-1.3,1.8-2.4,3-3.2c1.3-0.8,2.7-1.5,4.3-1.9c1.6-0.4,3.2-0.6,4.9-0.6c3.8,0,6.6,0.5,8.3,1.4v5.1c-2.3-1.6-5.2-2.4-8.7-2.4
		c-1,0-2,0.1-3,0.3s-1.9,0.5-2.6,1c-0.8,0.5-1.4,1.1-1.9,1.8s-0.7,1.6-0.7,2.7c0,1,0.2,1.9,0.5,2.6c0.4,0.7,0.9,1.4,1.6,2
		s1.6,1.2,2.6,1.7c1,0.6,2.2,1.2,3.5,1.8c1.4,0.7,2.7,1.4,3.9,2.1c1.2,0.7,2.3,1.6,3.2,2.5c0.9,0.9,1.7,1.9,2.2,3
		c0.6,1.1,0.8,2.4,0.8,3.8c0,1.9-0.4,3.5-1.1,4.8s-1.7,2.4-3,3.2s-2.7,1.4-4.4,1.8c-1.6,0.4-3.4,0.5-5.2,0.5c-0.6,0-1.4,0-2.2-0.1
		c-0.9-0.1-1.8-0.2-2.7-0.4c-0.9-0.2-1.8-0.4-2.6-0.7C229.8,353,229.1,352.7,228.6,352.3 M198.8,339.1l-6-16.4
		c-0.2-0.5-0.4-1.4-0.6-2.6h-0.1c-0.2,1.1-0.4,1.9-0.6,2.6l-6,16.4H198.8z M209.3,353.9h-5l-4.1-10.8H184l-3.8,10.8h-5l14.8-38.4
		h4.7L209.3,353.9z M177.3,319.5h-11.1v34.4h-4.5v-34.4h-11.1v-4.1h26.7L177.3,319.5L177.3,319.5z M142,339.1l-6-16.4
		c-0.2-0.5-0.4-1.4-0.6-2.6h-0.1c-0.2,1.1-0.4,1.9-0.6,2.6l-6,16.4H142z M152.6,353.9h-5l-4.1-10.8h-16.3l-3.8,10.8h-5l14.7-38.4
		h4.7L152.6,353.9z M112.4,353.9h-5.5l-19.8-30.6c-0.5-0.8-0.9-1.6-1.2-2.4h-0.2c0.1,0.8,0.2,2.6,0.2,5.3V354h-4.5v-38.4h5.8
		l19.2,30.2c0.8,1.2,1.3,2.1,1.6,2.6h0.1c-0.2-1.1-0.3-3-0.3-5.7v-27.1h4.5L112.4,353.9L112.4,353.9z M55.5,318.9
		c-4,0-7.3,1.4-9.8,4.4c-2.5,2.9-3.8,6.7-3.8,11.5c0,4.7,1.2,8.5,3.7,11.4c2.4,2.9,5.7,4.3,9.6,4.3c4.2,0,7.5-1.4,10-4.1
		c2.4-2.8,3.6-6.6,3.6-11.6c0-5.1-1.2-9-3.5-11.8C62.9,320.3,59.7,318.9,55.5,318.9 M55.2,354.5c-5.5,0-9.8-1.8-13.1-5.4
		c-3.3-3.6-4.9-8.3-4.9-14c0-6.2,1.7-11.1,5-14.8s7.9-5.5,13.6-5.5c5.3,0,9.6,1.8,12.8,5.3c3.2,3.6,4.9,8.3,4.9,14
		c0,6.3-1.7,11.2-5,14.9S60.8,354.5,55.2,354.5 M8.4,352.3V347c0.6,0.5,1.3,1,2.2,1.4s1.7,0.8,2.7,1.1c0.9,0.3,1.9,0.5,2.8,0.7
		c0.9,0.2,1.8,0.2,2.6,0.2c2.8,0,4.8-0.5,6.2-1.5s2.1-2.5,2.1-4.4c0-1.1-0.2-1.9-0.7-2.7s-1.1-1.5-1.9-2.1s-1.8-1.2-2.9-1.8
		s-2.3-1.2-3.6-1.8c-1.3-0.7-2.6-1.4-3.7-2.1c-1.2-0.7-2.2-1.5-3-2.3c-0.9-0.8-1.5-1.8-2-2.9c-0.5-1.1-0.7-2.3-0.7-3.7
		c0-1.8,0.4-3.3,1.2-4.6s1.8-2.4,3-3.2s2.7-1.5,4.3-1.9s3.2-0.6,4.9-0.6c3.8,0,6.5,0.5,8.3,1.4v5.1c-2.3-1.6-5.2-2.4-8.7-2.4
		c-1,0-2,0.1-3,0.3s-1.9,0.5-2.6,1c-0.8,0.5-1.4,1.1-1.9,1.8s-0.7,1.6-0.7,2.7c0,1,0.2,1.9,0.6,2.6c0.4,0.7,0.9,1.4,1.6,2
		c0.7,0.6,1.6,1.2,2.6,1.7c1,0.6,2.2,1.2,3.6,1.8c1.4,0.7,2.7,1.4,3.9,2.1c1.2,0.7,2.3,1.6,3.2,2.5c0.9,0.9,1.7,1.9,2.2,3
		c0.6,1.1,0.8,2.4,0.8,3.8c0,1.9-0.4,3.5-1.1,4.8s-1.7,2.4-3,3.2s-2.7,1.4-4.4,1.8c-1.6,0.4-3.4,0.5-5.2,0.5c-0.6,0-1.4,0-2.2-0.1
		c-0.9-0.1-1.8-0.2-2.7-0.4s-1.8-0.4-2.6-0.7C9.6,353,8.9,352.7,8.4,352.3"/>
</g>
</svg>
