<?xml version="1.0" encoding="utf-8"?>
<!-- Generator: Adobe Illustrator 28.3.0, SVG Export Plug-In . SVG Version: 6.00 Build 0)  -->
<svg version="1.1" id="Layer_1" xmlns="http://www.w3.org/2000/svg" xmlns:xlink="http://www.w3.org/1999/xlink" x="0px" y="0px"
	 viewBox="0 0 503.3 203.9" style="enable-background:new 0 0 503.3 203.9;" xml:space="preserve">
<style type="text/css">
	.st0{fill-rule:evenodd;clip-rule:evenodd;fill:#939598;}
	.st1{fill:#5C5C5C;}
</style>
<g>
	<g>
		<path class="st0" d="M10,173.9H2V202h5.5v-11.3H10c7,0,10.3-3.1,10.3-8.4C20.4,176.9,17,173.9,10,173.9z M10.6,186.2H7.5v-8h3.1
			c2.8,0,4.2,1.4,4.2,4.1C14.8,184.9,13.4,186.2,10.6,186.2z"/>
		<path class="st0" d="M40.3,173c-5.4,0-9.2,2.5-9.2,9.4v10.1c0,7,3.8,9.5,9.2,9.5c5.5,0,9.3-2.5,9.3-9.5v-10.1
			C49.7,175.5,45.9,173,40.3,173z M44,193.2c0,3.2-1.3,4.1-3.6,4.1c-2.2,0-3.6-0.8-3.6-4.1v-11.5c0-3.1,1.5-3.9,3.6-3.9
			c2.3,0,3.6,0.8,3.6,3.9V193.2z"/>
		<polygon class="st0" points="82.7,192.2 82.6,192.2 78.5,173.9 73.1,173.9 69.2,192.2 69,192.2 65.1,173.9 59.9,173.9 66,202 
			71.4,202 75.9,182.7 80,202 85.4,202 91.9,173.9 86.7,173.9 		"/>
		<polygon class="st0" points="108.2,189.8 115.7,189.8 115.7,185.1 108.2,185.1 108.2,178.6 118,178.6 118,173.9 102.7,173.9 
			102.7,202 118.4,202 118.4,197.2 108.2,197.2 		"/>
		<path class="st0" d="M148.3,182.3c0-5.3-3.2-8.4-9.9-8.4h-8.2V202h5.7v-11.5h2.6l5,11.5h6l-5.5-12.6
			C147.1,188.3,148.3,185.8,148.3,182.3z M138.8,186h-2.9v-7.8h2.9c2.5,0,3.9,1.3,3.9,3.9C142.8,184.9,141.3,186,138.8,186z"/>
		<path class="st0" d="M187.5,173c-5.4,0-9.2,2.5-9.2,9.4v10.1c0,7,3.8,9.5,9.2,9.5c5.5,0,9.3-2.5,9.3-9.5v-10.1
			C196.8,175.5,193,173,187.5,173z M191.3,193.2c0,3.2-1.5,4.1-3.8,4.1c-2.2,0-3.6-0.8-3.6-4.1v-11.5c0-3.1,1.5-3.9,3.6-3.9
			c2.3,0,3.8,0.8,3.8,3.9V193.2z"/>
		<polygon class="st0" points="208.6,202 214.3,202 214.3,189.8 221.3,189.8 221.3,185.1 214.3,185.1 214.3,178.6 223.4,178.6 
			223.4,173.9 208.6,173.9 		"/>
		<path class="st0" d="M257.9,180.6c0-2,1-3.1,3.1-3.1c1.9,0,3.2,1.1,4.1,3.8l5.1-1.4c-1-4.1-4.1-6.9-9-6.9c-5.8,0-8.9,3.1-8.9,7.8
			c0,8,12.5,8,12.5,13.3c0,2.1-1.5,3.4-3.4,3.4c-1.7,0-3.8-1.3-4.4-4.6l-5.5,1.1c1.5,5.6,5,8,9.6,8c5.8,0,9.3-3.2,9.3-8.1
			C270.4,185.1,257.9,184.8,257.9,180.6z"/>
		<rect x="281.6" y="173.9" class="st0" width="5.7" height="28.1"/>
		<polygon class="st0" points="311.7,192.3 311.5,192.3 306.6,173.9 298.7,173.9 298.7,202 303.5,202 303.5,179.9 309.5,202 
			313.7,202 319.7,179.9 319.8,179.9 319.8,202 324.6,202 324.6,173.9 316.8,173.9 		"/>
		<path class="st0" d="M343.6,173.9h-8V202h5.5v-11.3h2.5c7,0,10.3-3.1,10.3-8.4C353.9,176.9,350.6,173.9,343.6,173.9z M344.2,186.2
			h-3.1v-8h3.1c2.8,0,4.2,1.4,4.2,4.1C348.4,184.9,346.9,186.2,344.2,186.2z"/>
		<polygon class="st0" points="368.8,173.9 363.1,173.9 363.1,202 377.7,202 377.7,197.2 368.8,197.2 		"/>
		<rect x="387.6" y="173.9" class="st0" width="5.5" height="28.1"/>
		<path class="st0" d="M412.9,173c-5.4,0-9.2,2.5-9.2,9.4v10.1c0,7,3.8,9.5,9.2,9.5c5.5,0,9.3-2.5,9.3-9.5v-1.1h-5.5v1.8
			c0,3.2-1.5,4.1-3.8,4.1c-2.2,0-3.6-0.8-3.6-4.1v-11.5c0-3.1,1.5-3.9,3.6-3.9c2.3,0,3.8,0.8,3.8,3.9v0.8h5.5v-0.1
			C422.3,175.5,418.5,173,412.9,173z"/>
		<rect x="434.5" y="173.9" class="st0" width="5.5" height="28.1"/>
		<polygon class="st0" points="450.2,178.6 456.8,178.6 456.8,202 462.3,202 462.3,178.6 468.9,178.6 468.9,173.9 450.2,173.9 		"/>
		<polygon class="st0" points="492.8,173.9 488,185.2 483,173.9 477.1,173.9 485.1,190.7 485.1,202 490.8,202 490.8,190.7 
			498.8,173.9 		"/>
	</g>
	<g>
		<path class="st1" d="M229.9,61.7c0.5,2.4,0.6,5.6-1.7,8.1c-3.4,3.8-13.3,13.1-13.3,13.1s-4,2.4-2.1,5.1c0.4,0.6,1,0.8,1.8,0.8
			c0.8-1,1.9-1.7,1.9-1.7s9.9-9.2,13.4-13.1c3.4-3.8,1.3-9.5,0.7-11.1C230.5,62.8,230.2,62.3,229.9,61.7z"/>
		<path class="st1" d="M209.1,60.4c-2.1,1-11.5,8.2-15.1,10.9c-3.4,2.7-12.1,10.4-12.1,10.4s-4.7,4.1-3.1,6.2
			c0.6,0.8,1.2,1.2,1.9,1.3c1-1.7,2.8-3.3,2.8-3.3s8.7-7.7,12.1-10.4c3.5-2.8,13-9.9,15.1-10.9c1.6-0.8,2.9-1.5,4.2-1
			c0.6-0.9,1-2.2-0.3-3.5C212.6,58.4,211.2,59.4,209.1,60.4z"/>
		<path class="st1" d="M244.6,93.5c-2.1-3.5-2.2-6.1-4.6-4.4c-2.4,1.6-14.6,8.8-21.1,10.6c-6.7,1.8-8.3,2.7-12,2.1
			c-3.8-0.7-8-2.3-9.3-4.5c-1.5-2.3-1.8-2.8-3.4-1.4c-1.6,1.3-6.4,5-9.9,4.5c-3.7-0.4-12.9-2.6-17.9-11.9c-0.1-0.2-0.2-0.3-0.3-0.5
			c0.4,1.4,1,3,2,4.8c5,9.2,14.2,11.5,17.7,11.9c3.5,0.3,8.3-3.3,9.9-4.7c1.8-1.3,1.9-0.7,3.4,1.6c1.5,2.3,5.5,3.8,9.3,4.4
			c3.7,0.7,5.3-0.1,12-2.1c6.5-1.8,18.8-8.9,21.1-10.6c2.4-1.6,2.7,1,4.6,4.5c2.1,3.5,6.9,4.8,11.2,5.1c4.4,0.4,6.5-0.7,9.3-1.8
			c2.8-1.3,10.3-5,12.6-6.4c2.2-1.4,2.7-1.6,3.5,0.6c0.9,2.3,1,4,7.8,8.7c6.7,4.5,17.9,2,20.5,1c2.5-0.9,7.4-3.1,8.6-3.8
			c1.2-0.9,2.4,1.3,4.9,3.8c1.7,1.5,4.4,2,6.9,1.7c1.9-2.5,4.1-5.3,4.1-5.3s1.6-2.4-1.6-0.3c-3.3,2-8.4,2.1-10.9-0.3
			c-2.7-2.6-3.7-4.5-4.9-3.8c-1.2,0.7-6.1,3.1-8.7,4c-2.5,0.9-13.7,3.4-20.4-1.1c-6.8-4.5-6.9-6.4-7.8-8.5c-0.9-2.3-1.3-2.1-3.5-0.7
			c-2.2,1.6-9.8,5.1-12.6,6.4c-2.8,1.3-4.9,2.3-9.3,2C251.5,98.3,246.6,97,244.6,93.5z"/>
		<path class="st1" d="M393.1,67.6c-3.4,3.1-14.9,13.3-19.4,17.6c-4.4,4.1-17.9,17.9-20.2,20.6c-2.4,2.8-8.7,8.8-6.1,9.1
			c0.5,0.1,1.5,0.2,2.9,0.5c1.5-1.9,3.6-4,4.8-5.3c2.4-2.7,15.8-16.5,20.2-20.7c4.4-4.1,16-14.5,19.4-17.6c2.8-2.5-0.3-3.9-1.4-4.3
			C393.2,67.5,393.1,67.6,393.1,67.6z"/>
		<path class="st1" d="M357,58.8c-3.5,3.4-11.8,11.9-13.6,14.1c-1.8,2.1-8.9,9.9-10.2,12.3c-1.3,2.3-3.1,5-1.3,6
			c0.4,0.3,1,0.4,1.7,0.4c0.4-0.7,0.8-1.5,1.2-2.2c1.3-2.3,8.4-10.1,10.2-12.2c1.8-2.1,10-10.6,13.6-14.2
			C360.7,60.8,359.2,59.6,357,58.8C357.1,58.8,357,58.8,357,58.8z"/>
		<path class="st1" d="M116.7,18.1c0,0,3.7,3.8,5.3,5.3c1.5,1.6,4.1,5.1,7.8,3.5c3.8-1.6,23.2-3.5,29.6-4.3c2.7-0.3,5.2-0.3,7.3-0.2
			c1.8-2.3,2.9-3.9,2.9-3.9s-5.5-0.9-11.8-0.1c-6.4,0.9-25.7,2.7-29.6,4.4c-3.7,1.6-6.4-2.1-7.8-3.5c-0.9-0.9-2.5-2.4-3.6-3.7
			C115.4,16.6,116.7,18.1,116.7,18.1z"/>
		<path class="st1" d="M318.4,124.3c2.5-2.3-1.5-1.7-2.8-2c-1.3-0.1-26.7-1.6-34.3-1.4c-7.5,0.1-34,0.1-43.4,0.7
			c-9.5,0.7-44.2,3.8-53.3,5.4c-9.2,1.4-46,6.8-51,7.8s-14.9,2.7-14.9,2.7s-5,1.3-9.9-1c-1.8-0.8-4-1.8-5.7-2.8
			c-4.2,2.1,2.8,4.9,7.3,7c5,2.1,9.9,1,9.9,1s9.9-1.8,14.9-2.8s42-6.2,51.1-7.8c9.2-1.4,43.7-4.7,53.2-5.3
			c9.5-0.6,36.1-0.6,43.4-0.7c7.1-0.1,30.3,1,33.9,1.4C317.4,125.5,318,124.7,318.4,124.3z"/>
		<path class="st1" d="M400.3,132.8c-0.8,1.6-2.7,5.5-3.7,6c-1.2,0.4-3.3,0.4-7.8-1.4c-4.6-1.8-25.7-7.2-31.5-8.2
			c-5.6-1.1-18.6-3.4-18.6-3.4s-1.6-1-4.3,3.3c-2.8,4.1-11.1,16.2-11.1,16.2s-0.6,1.7-2.1,1.7c-1.6,0-8.4-0.4-10.9-1.8l0,0
			c-0.1,0.1-0.1,0.2-0.2,0.3c-1.5,2.7-0.9,2.6,1.8,4c2.5,1.4,9.3,1.8,10.9,1.8c1.5,0,2.1-1.7,2.1-1.7s8.4-12.1,11.1-16.3
			c2.7-4.1,4.3-3.1,4.3-3.1s13,2.1,18.6,3.3c5.8,1.1,26.9,6.5,31.5,8.4c4.7,1.8,6.8,1.8,8,1.3c1-0.4,4-6.5,4-6.5
			C402.5,134.5,401.5,133.4,400.3,132.8z"/>
		<path class="st1" d="M345.3,32.1c-3.7,2.7-22.8,17.7-27.9,23.3c-5,5.5-15.4,17-19.4,22.1c-3.8,5.3-6.4,7.7-3.4,11.1
			c0.1,0.2,0.3,0.3,0.4,0.5c0.4-2,2.4-4.1,4.7-7.3c3.8-5.3,14.2-16.6,19.4-22.1c5.2-5.5,24.1-20.6,27.8-23.3
			c3.7-2.7,1.5-3.7,1.5-3.7s-1-0.6-2.2-1.2C345.9,31.7,345.7,31.9,345.3,32.1z"/>
		<path class="st1" d="M308.2,27.3c-4,3.3-17.9,14.9-21.3,18.5c-3.5,3.5-13.6,13.6-16.8,17.3c-3.3,3.7-12.4,14.6-13.7,16.7
			c-1.5,2.1-2.2,4.5,0,6c0.2,0.1,0.3,0.2,0.5,0.3c0.3-0.7,0.6-1.3,1.1-2c1.5-2.1,10.5-13.1,13.7-16.7c3.3-3.7,13.3-13.8,16.8-17.3
			c3.4-3.7,17.3-15.3,21.4-18.5c3.6-2.8,0.1-4.7-0.8-5.2C308.9,26.7,308.6,27,308.2,27.3z"/>
		<path class="st1" d="M237.2,17.4c0,0,1.5,2.7-3.7,2.3c-5.2-0.4-13.4-0.7-19.2-1.1c-5.6-0.4-19.4-1.4-21.4-1.3
			c-2.1,0.1-2.5,0-3.7,1.7c-1.2,1.6-6.7,8.7-8,10.4c-1.3,1.7-7.1,9.2-12,15.8c-4.9,6.5-11.1,14.9-16.6,23.6S142.3,85.4,140.2,89
			c-2.1,3.5-3,5.8-3.4,6.7c-0.3,0.9-0.7,2.4-3.1,2.6c-2.5,0-14-0.3-14-0.3s-0.3,0-0.7,0c-2,4.5,2.3,4.2,2.3,4.2s11.5,0.4,14,0.3
			c2.4-0.1,2.8-1.6,3.3-2.4c0.3-0.9,1.2-3.1,3.3-6.7c2.1-3.7,7.1-11.6,12.4-20.3c5.5-8.7,11.7-16.9,16.6-23.4
			c4.9-6.7,10.6-14.1,12-15.8c1.3-1.8,6.8-8.8,8-10.5c1.2-1.6,1.8-1.4,3.7-1.6c2.1-0.1,15.8,0.9,21.4,1.3c5.8,0.3,14.2,0.7,19.2,1.1
			c5.2,0.3,3.7-2.3,3.7-2.3s0.3-3.3-1.2-7c-0.3-0.6-0.5-1.1-0.8-1.5C237.3,15.6,237.2,17.4,237.2,17.4z"/>
	</g>
	<path class="st0" d="M201.7,78c3.8-2.7,12.1-12.6,12.6-13.5c0.6-0.9,2.2-2.6,0.3-4.4c-1.9-1.7-3.4-0.7-5.5,0.3s-11.5,8.2-15.1,10.9
		c-3.4,2.7-12.1,10.4-12.1,10.4s-4.7,4.1-3.1,6.2c1.6,2.1,3.3,1.3,5.8,0.6C187.2,87.8,197.7,80.7,201.7,78L201.7,78z M190.2,3.9
		h-2.4C177.4,4,151.7,5.5,146.1,6c-6.2,0.6-25.9,4-29.4,4.8c-3.5,0.9-1.5,3-1.5,3s3.7,3.8,5.3,5.4c1.5,1.4,4.1,5.1,7.8,3.5
		c3.8-1.7,23.2-3.5,29.6-4.4c6.4-0.7,11.8,0.1,11.8,0.1s-16.8,22.1-19.5,25.8c-2.8,3.5-17.1,23.4-20,27.5
		c-2.8,4.3-9.5,15.3-12.6,20.7c-3,5.4,2.1,5.1,2.1,5.1s11.5,0.3,14,0.3c2.4-0.1,2.8-1.7,3.1-2.6c0.4-0.9,1.3-3.1,3.4-6.7
		c2.1-3.5,6.9-11.5,12.4-20.2s11.7-17,16.6-23.6c4.9-6.5,10.6-14.1,12-15.8c1.3-1.7,6.8-8.8,8-10.4c1.2-1.7,1.6-1.6,3.7-1.7
		c2.1-0.1,15.8,0.9,21.4,1.3c5.8,0.4,14,0.7,19.2,1.1s3.7-2.3,3.7-2.3s0.3-3.3-1.2-6.8c-1.6-3.7-3-3.1-3-3.1
		C225.6,5.3,198,3.9,190.2,3.9L190.2,3.9z M396.5,127.5c1.2,0.7,4.6,1.6,4.1,4.5c0,0-2.8,6.1-4,6.7c-1.2,0.4-3.3,0.4-7.8-1.4
		c-4.6-1.8-25.7-7.2-31.5-8.2c-5.6-1.1-18.6-3.4-18.6-3.4s-1.6-1-4.3,3.3c-2.8,4.1-11.1,16.2-11.1,16.2s-0.6,1.7-2.1,1.7
		c-1.6,0-8.4-0.4-10.9-1.8c-2.7-1.3-3.3-1.1-1.8-4c1.6-2.7,7.5-14.3,9.9-16.8c2.5-2.3-1.5-1.7-2.8-2c-1.3-0.1-26.7-1.6-34.3-1.4
		c-7.5,0.1-34,0.1-43.4,0.7c-9.5,0.7-44.2,3.8-53.3,5.4c-9.2,1.4-46,6.8-51,7.8s-14.9,2.7-14.9,2.7s-5,1.3-9.9-1s-12.7-5.4-6.1-7.4
		c6.8-2.1,39.5-8.7,49.7-10.2c10.2-1.4,42-6.1,55.4-6.8c13.3-0.7,49.4-2.7,63-2.6c13.4,0.1,32.2,1,40.2,1.6s13.3,1,14.8,1.3
		c1.6,0.3,1.8-0.9,3.3-2.7c1.6-1.8,6.7-8.5,6.7-8.5s1.6-2.4-1.6-0.3c-3.3,2-8.4,2.1-10.9-0.3c-2.7-2.6-3.7-4.5-4.9-3.8
		c-1.2,0.7-6.1,3.1-8.7,4c-2.5,0.9-13.7,3.4-20.4-1.1c-6.8-4.5-6.9-6.4-7.8-8.5c-0.9-2.3-1.3-2.1-3.5-0.7c-2.2,1.6-9.8,5.1-12.6,6.4
		c-2.8,1.3-4.9,2.3-9.3,2c-4.3-0.4-9.2-1.7-11.2-5.3c-2.1-3.5-2.2-6.1-4.6-4.4c-2.4,1.6-14.6,8.8-21.1,10.6c-6.7,1.8-8.3,2.7-12,2.1
		c-3.8-0.7-8-2.3-9.3-4.5c-1.5-2.3-1.8-2.8-3.4-1.4c-1.6,1.3-6.4,5-9.9,4.5c-3.7-0.4-12.9-2.6-17.9-11.9c-5-9.2-1.3-13.2,3.1-17.7
		c4.6-4.7,12.6-11.5,12.6-11.5s9.9-7.2,13.3-8.9c3.4-1.6,8.6-4.7,12.1-5c3.4-0.1,8.4,0.1,13.3,4c4.9,3.8,7.5,8.1,8.3,9.7
		c0.6,1.4,2.7,7.1-0.9,10.9c-3.4,3.8-13.3,13.1-13.3,13.1s-4,2.4-2.1,5.1c1.8,2.7,8.3-1.7,10.3-3.3c2.2-1.4,13.6-11.2,17.1-14.5
		c3.4-3.4,25.6-25,27.5-26.8c1.9-2,20.2-20.4,23.1-22.1c2.7-1.7,3.7-3,8.6-2s7.8,2.7,7.8,2.7s5.2,2,1,5.3
		c-4,3.3-17.9,14.9-21.3,18.5c-3.5,3.5-13.6,13.6-16.8,17.3c-3.3,3.7-12.4,14.6-13.7,16.7c-1.5,2.1-2.2,4.5,0,6
		c2.2,1.6,6.1-0.1,10.2-3.4c4.1-3.4,16.1-13.8,20.4-18c4.1-4.3,27.2-26.1,29.3-27.8c2.1-1.8,12.7-10.4,12.7-10.4s1.3-1.8,4.4-1.8
		s6.2,0.6,8.1,1.4c1.9,0.7,5.3,2.8,5.3,2.8s2.2,0.9-1.5,3.5c-3.7,2.7-22.8,17.7-27.9,23.3c-5,5.5-15.4,17-19.4,22.1
		c-3.8,5.3-6.4,7.7-3.4,11.1c3,3.5,6.5,2.7,8.3,2.1s7.7-4.8,12-9.2c4.3-4.3,17.7-18.6,19.1-20.4c1.5-1.7,6.4-6.7,6.4-6.7s1-2,3.8-2
		s4.6,0.4,7.4,1c2.8,0.7,8.9,1.8,5.5,5.4c-3.5,3.4-11.8,11.9-13.6,14.1c-1.8,2.1-8.9,9.9-10.2,12.3c-1.3,2.3-3.1,5-1.3,6
		c1.8,1.1,6.4-0.4,10.8-3c4.6-2.4,11.2-6.7,17-11.8c5.8-5.3,15.1-13.6,15.1-13.6s1.5-3.5,8.3-2c6.7,1.4,8.3,2.3,8.3,2.3
		s5.2,1.4,1.8,4.5c-3.4,3.1-14.9,13.3-19.4,17.6c-4.4,4.1-17.9,17.9-20.2,20.6c-2.4,2.8-8.7,8.8-6.1,9.1c2.7,0.3,22.6,4.3,27.3,5.5
		C379.5,121.6,395.1,127,396.5,127.5L396.5,127.5z"/>
</g>
</svg>
