<?xml version="1.0" encoding="utf-8"?>
<!-- Generator: Adobe Illustrator 28.3.0, SVG Export Plug-In . SVG Version: 6.00 Build 0)  -->
<svg version="1.1" id="Layer_1" xmlns="http://www.w3.org/2000/svg" xmlns:xlink="http://www.w3.org/1999/xlink" x="0px" y="0px"
	 viewBox="0 0 450 32" style="enable-background:new 0 0 450 32;" xml:space="preserve">
<style type="text/css">
	.st0{fill:#939598;}
</style>
<g id="layer1" transform="translate(-3.7898265,-61.694679)">
	<g id="g3592" transform="matrix(2.1430485,0,0,2.1430485,-111.60262,-157.19158)">
		<g id="g3185" transform="matrix(1.25,0,0,-1.25,150.77125,119.97155)">
			<path id="path3187" class="st0" d="M-23.7,3.7c-0.4-0.2-1.4-0.5-2.5-0.5c-3.1,0-5,2-5,4.9c0,3.2,2.2,5.2,5.2,5.2
				c1.2,0,2-0.2,2.4-0.4l-0.4-1.4c-0.5,0.2-1.1,0.4-1.9,0.4c-2,0-3.4-1.2-3.4-3.6c0-2.2,1.3-3.5,3.4-3.5c0.7,0,1.5,0.1,1.9,0.4"/>
		</g>
		<g id="g3189" transform="matrix(1.25,0,0,-1.25,155.4375,111.55155)">
			<path id="path3191" class="st0" d="M-24.9,1.5c0-2,1-3.6,2.7-3.6c1.7,0,2.7,1.6,2.7,3.7c0,1.8-0.9,3.6-2.7,3.6
				C-24,5.2-24.9,3.5-24.9,1.5 M-17.6,1.6c0-3.3-2-5.2-4.7-5.2c-2.8,0-4.5,2.1-4.5,5c0,3,1.9,5.1,4.7,5.1
				C-19.3,6.6-17.6,4.4-17.6,1.6"/>
		</g>
		<g id="g3193" transform="matrix(1.25,0,0,-1.25,187.02375,113.1328)">
			<path id="path3195" class="st0" d="M-33.1,1.9c-0.1,1.3-0.1,2.8-0.1,4.1l0,0c-0.3-1.2-0.7-2.5-1.2-3.8L-35.8-2h-1.4l-1.3,4.2
				c-0.4,1.2-0.7,2.6-1,3.8l0,0c0-1.3-0.1-2.9-0.2-4.2l-0.2-3.9h-1.7l0.7,9.8h2.4l1.3-3.9c0.3-1.1,0.7-2.3,0.9-3.4l0,0
				c0.3,1.1,0.6,2.3,1,3.4l1.4,3.9h2.3l0.6-9.8h-1.7"/>
		</g>
		<g id="g3197" transform="matrix(1.25,0,0,-1.25,209.20125,113.1328)">
			<path id="path3199" class="st0" d="M-38.8,1.9c-0.1,1.3-0.1,2.8-0.1,4.1l0,0c-0.3-1.2-0.7-2.5-1.2-3.8L-41.5-2h-1.4l-1.3,4.2
				c-0.4,1.2-0.7,2.6-1,3.8l0,0c0-1.3-0.1-2.9-0.2-4.2l-0.2-3.9h-1.7l0.7,9.8h2.3l1.3-3.9c0.3-1.1,0.7-2.3,0.9-3.4l0,0
				c0.3,1.1,0.6,2.3,1,3.4l1.4,3.9h2.3l0.6-9.8h-1.7"/>
		</g>
		<g id="g3201" transform="matrix(1.25,0,0,-1.25,219.39,102.4328)">
			<path id="path3203" class="st0" d="M-41.4-0.9v-5.7c0-1.9,0.8-2.8,2-2.8c1.3,0,2.1,0.9,2.1,2.8v5.7h1.8v-5.6c0-3-1.6-4.4-3.9-4.4
				s-3.7,1.3-3.7,4.3V-1"/>
		</g>
		<g id="g3205" transform="matrix(1.25,0,0,-1.25,233.97875,120.50655)">
			<path id="path3207" class="st0" d="M-45.2,3.8v9.8h2l2.5-4.2c0.7-1.1,1.2-2.2,1.7-3.3l0,0c-0.1,1.3-0.2,2.6-0.2,4.1v3.4h1.7V3.8
				h-1.8l-2.6,4.3c-0.6,1.1-1.3,2.3-1.8,3.4l0,0c0.1-1.3,0.1-2.6,0.1-4.2V3.8"/>
		</g>
		<path id="path3209" class="st0" d="M189.7,115.7h2.2v-12.2h-2.2V115.7z"/>
		<g id="g3211" transform="matrix(1.25,0,0,-1.25,272.13625,119.97155)">
			<path id="path3213" class="st0" d="M-55,3.7c-0.4-0.2-1.4-0.5-2.5-0.5c-3.1,0-5,2-5,4.9c0,3.2,2.2,5.2,5.2,5.2
				c1.2,0,2-0.2,2.4-0.4l-0.4-1.4c-0.5,0.2-1.1,0.4-1.9,0.4c-2,0-3.4-1.2-3.4-3.6c0-2.2,1.3-3.5,3.4-3.5c0.7,0,1.5,0.1,1.9,0.4"/>
		</g>
		<g id="g3215" transform="matrix(1.25,0,0,-1.25,283.93375,112.89155)">
			<path id="path3217" class="st0" d="M-58.1,1.8l-0.8,2.4c-0.2,0.6-0.3,1.3-0.5,1.8l0,0c-0.1-0.6-0.3-1.2-0.5-1.8l-0.8-2.4H-58.1z
				 M-60.9,0.5l-0.8-2.8h-1.9l3.1,9.8h2.3l3.2-9.8h-1.9l-0.9,2.8"/>
		</g>
		<g id="g3219" transform="matrix(1.25,0,0,-1.25,293.47875,105.1953)">
			<path id="path3221" class="st0" d="M-60.5-0.1h-2.8v1.5h7.4v-1.5h-2.8v-8.3h-1.8"/>
		</g>
		<path id="path3223" class="st0" d="M224.9,115.7h2.2v-12.2h-2.2V115.7z"/>
		<g id="g3225" transform="matrix(1.25,0,0,-1.25,313.7225,111.55155)">
			<path id="path3227" class="st0" d="M-65.7,1.5c0-2,1-3.6,2.7-3.6c1.7,0,2.7,1.6,2.7,3.7c0,1.8-0.9,3.6-2.7,3.6
				C-64.8,5.2-65.7,3.5-65.7,1.5 M-58.4,1.6c0-3.3-2-5.2-4.7-5.2c-2.8,0-4.5,2.1-4.5,5c0,3,1.9,5.1,4.7,5.1
				C-60.1,6.6-58.4,4.4-58.4,1.6"/>
		</g>
		<g id="g3229" transform="matrix(1.25,0,0,-1.25,330.05125,120.50655)">
			<path id="path3231" class="st0" d="M-70,3.8v9.8h2l2.5-4.2c0.7-1.1,1.2-2.2,1.7-3.3l0,0c-0.1,1.3-0.2,2.6-0.2,4.1v3.4h1.7V3.8
				H-64l-2.6,4.3c-0.6,1.1-1.3,2.3-1.8,3.4l0,0c0.1-1.3,0.1-2.6,0.1-4.2V3.8"/>
		</g>
		<g id="g3233" transform="matrix(1.25,0,0,-1.25,348.0975,116.9128)">
			<path id="path3235" class="st0" d="M-74.6,2.9c0.6-0.3,1.5-0.6,2.4-0.6c1.1,0,1.8,0.5,1.8,1.3c0,0.7-0.5,1.2-1.7,1.6
				c-1.6,0.6-2.6,1.4-2.6,2.8c0,1.6,1.3,2.8,3.5,2.8c1.1,0,1.8-0.2,2.4-0.5L-69.5,9c-0.3,0.2-1,0.5-1.9,0.5c-1.1,0-1.6-0.6-1.6-1.2
				c0-0.8,0.6-1.1,1.9-1.6c1.7-0.6,2.5-1.5,2.5-2.9c0-1.6-1.2-3-3.7-3c-1,0-2.1,0.3-2.6,0.6"/>
		</g>
		<g id="g3237" transform="matrix(1.25,0,0,-1.25,59.00375,120.43155)">
			<path id="path3239" class="st0" d="M-0.1,3.8v6.9h-2.8v2.9h9.6v-2.9H4V3.8"/>
		</g>
		<g id="g3241" transform="matrix(1.25,0,0,-1.25,94.01875,120.43155)">
			<path id="path3243" class="st0" d="M-9.1,3.8v6.9h-2.8v2.9h9.5v-2.9h-2.7V3.8"/>
		</g>
		<g id="g3245" transform="matrix(1.25,0,0,-1.25,69.7175,120.45405)">
			<path id="path3247" class="st0" d="M-2.8,3.8l3.6,9.8h4.1l3.8-9.8H4.8l-2,5.9l-2-5.9"/>
		</g>
		<g id="g3249" transform="matrix(1.25,0,0,-1.25,104.71875,120.4503)">
			<path id="path3251" class="st0" d="M-11.8,3.8l3.6,9.8h4.1l3.9-9.8h-3.9L-6,9.7l-2-5.9"/>
		</g>
	</g>
</g>
</svg>
