<?xml version="1.0" encoding="utf-8"?>
<!-- Generator: Adobe Illustrator 28.3.0, SVG Export Plug-In . SVG Version: 6.00 Build 0)  -->
<svg version="1.1" id="图层_1" xmlns="http://www.w3.org/2000/svg" xmlns:xlink="http://www.w3.org/1999/xlink" x="0px" y="0px"
	 viewBox="0 0 632 204.8" style="enable-background:new 0 0 632 204.8;" xml:space="preserve">
<style type="text/css">
	.st0{fill:#939598;}
	.st1{clip-path:url(#SVGID_00000097484388332581970630000011134654757163897997_);fill:#939598;}
	.st2{fill:#FFFFFF;}
</style>
<g>
	<polygon id="XMLID_20_" class="st0" points="241.1,40.2 299.2,40.2 299.2,52.2 277.8,52.2 277.8,112.4 262.5,112.4 262.5,52.2 
		241.1,52.2 	"/>
	<g id="XMLID_22_">
		<path class="st0" d="M329.5,52.2h19c6.7,0.1,10.7,2.8,10.7,9.1c0,6.4-3.9,9.8-10.7,9.8h-19V52.2 M329.5,83.7h16.3
			c0,0,10.1,22.3,11.4,28.7h19l-14.6-29.7c10.3-2.7,12.9-15,12.9-24.3c0-14.7-16.2-18.7-29.9-18.2h-30.5v72.2h15.4L329.5,83.7"/>
		<polygon id="XMLID_17_" class="st0" points="395.2,40.2 446.7,40.2 446.7,52.2 410.6,52.2 410.6,69.2 443.8,69.2 443.8,81.2 
			410.6,81.2 410.6,100.4 447.8,100.4 447.8,112.4 395.2,112.4 		"/>
		<polygon id="XMLID_16_" class="st0" points="509.7,112.4 483.3,64.4 483.1,64.6 483.1,112.4 468.7,112.4 468.7,40.2 487.8,40.2 
			514,87.4 514.2,87.2 514.2,40.2 528.6,40.2 528.6,112.4 		"/>
		<path class="st0" d="M566.4,52.8h8c18.3-0.2,21,12,21,23.6s-2.7,24.3-21,24.1h-8V52.8 M551,112.4h24.4c22.4,0.2,36.3-11,36.3-36.1
			S597.8,40,575.4,40.2H551V112.4z"/>
		<polygon id="XMLID_13_" class="st0" points="289.2,171.8 281.8,171.8 281.8,140.2 273.9,171.8 266.2,171.8 258.3,140.2 
			258.2,171.8 250.8,171.8 250.8,131.7 262.8,131.7 270,159 277.2,131.7 289.2,131.7 		"/>
		<rect id="XMLID_12_" x="341.9" y="131.7" class="st0" width="8" height="40.1"/>
		<path class="st0" d="M508.3,145.9c-0.5,1.1-1.3,1.8-2.6,2.2c-0.6,0.2-1.4,0.4-2.3,0.4c-0.9,0.1-2.3,0.1-4,0.1h-6.9v-10.2h6.3
			c2.9,0,4.7,0,5.6,0.1c0.8,0.1,1.6,0.4,2.3,0.8c0.8,0.4,1.3,1,1.6,1.7s0.5,1.5,0.5,2.4C508.8,144.4,508.6,145.2,508.3,145.9
			 M509,155.1c0,0,1.8-0.4,2.5-0.7c1.9-0.8,3.4-2.2,4.5-3.9c1.1-1.8,1.4-4.9,1.4-7.1c0-2.1-0.8-4.4-1.8-6.3
			c-1.2-2.1-2.8-3.5-4.9-4.3c-1-0.4-1.9-0.5-2.8-0.7c-1.5-0.2-3.7-0.3-6.4-0.3h-16.9v40.1h8.1V156l7.7-0.1l8.5,15.9h9.6L509,155.1z"
			/>
		<path class="st0" d="M588.1,162.9c-1.9,1.7-4.2,2.6-7,2.6c-2.2,0-4.2-0.6-5.9-1.6c-1.3-0.8-2.4-2-3.2-3.4
			c-0.6-1.1-1.1-2.2-1.4-3.3c-0.4-1.5-0.6-3.3-0.6-5.4c0-3.7,0.7-6.8,2.1-9.1c1.9-3.1,4.8-4.6,8.9-4.6c4.3,0,7.4,1.7,9.2,5.1
			c1.2,2.2,1.8,5.1,1.8,8.5C592,156.8,590.7,160.5,588.1,162.9 M595.5,137c-3.4-4-8.3-6-14.5-6c-6.1,0-10.9,1.9-14.3,5.6
			c-3.3,3.7-5,8.9-5,15.3c0,5.5,1.4,10.1,4.1,13.7c3.4,4.5,8.5,6.8,15.3,6.8c6.5,0,11.5-2.2,14.9-6.4c2.9-3.7,4.3-8.4,4.3-14.3
			C600.3,145.7,598.7,140.7,595.5,137"/>
		<path id="XMLID_7_" class="st0" d="M427.9,144.9c-0.7-2.4-1.9-6.9-8.8-6.9c-3.9,0-9.8,2.7-9.8,13.9c0,7.2,2.8,13.6,9.8,13.6
			c4.6,0,7.8-2.6,8.8-7.5h8.3c-1.6,8.7-7.3,14.7-17.2,14.7c-10.5,0-18.1-7.1-18.1-20.9c0-13.9,8-21,18.2-21
			c11.8,0,16.7,8.2,17.1,14.1L427.9,144.9"/>
		<polygon id="XMLID_6_" class="st0" points="614.9,117 610.6,117 610.6,128.5 608.9,128.5 608.9,117 604.7,117 604.7,115.5 
			614.9,115.5 		"/>
		<path id="XMLID_5_" class="st0" d="M629,128.5h-1.6v-10.9l-3.8,10.9h-1.5l-3.7-11.1l-0.1,11.1h-1.6v-13.1h2.6l3,9.2
			c0,0.1,0.1,0.4,0.3,1.1l0.3,0.9l0.7-2.1l3.1-9.1h2.3V128.5"/>
	</g>
	<g>
		<g>
			<g>
				<defs>
					<path id="SVGID_1_" d="M5.4,104c0,54.8,44.4,99.3,99.3,99.3c54.8,0,99.3-44.5,99.3-99.3S159.6,4.7,104.7,4.7
						C49.8,4.7,5.4,49.1,5.4,104"/>
				</defs>
				<use xlink:href="#SVGID_1_"  style="overflow:visible;fill:#939598;"/>
				<clipPath id="SVGID_00000108309064691867771430000013419932648947920520_">
					<use xlink:href="#SVGID_1_"  style="overflow:visible;"/>
				</clipPath>
				
					<rect id="XMLID_4_" x="5.4" y="4.7" style="clip-path:url(#SVGID_00000108309064691867771430000013419932648947920520_);fill:#939598;" width="198.5" height="198.5"/>
			</g>
		</g>
	</g>
	<g id="XMLID_21_">
		<path id="XMLID_1_" class="st2" d="M65.6,108.8c-14.1,27.6-12.2,36.4-9.8,43.2c6.5,18.4,41.9,13.2,76.8-14s50.8-65,35.7-84.4
			c-13.2-16.9-46.1-13.9-77.1,5c38.7-24.8,79.4-29.4,95.2-9.1c17.8,22.7-2.4,68.2-45.2,101.6c-42.7,33.4-91.7,42-109.5,19.3
			c-11.2-14.3-8.4-37.5,6.6-61.2H26.9l2.7-6.3c0,0,20.4-4.1,40.9-22.7l8.2-0.1l-10.2,22.1h16.8l-3.2,6.7L65.6,108.8"/>
	</g>
</g>
</svg>
