<?xml version="1.0" encoding="utf-8"?>
<!-- Generator: Adobe Illustrator 28.3.0, SVG Export Plug-In . SVG Version: 6.00 Build 0)  -->
<svg version="1.1" id="Layer_1" xmlns="http://www.w3.org/2000/svg" xmlns:xlink="http://www.w3.org/1999/xlink" x="0px" y="0px"
	 viewBox="0 0 337.3 115.9" style="enable-background:new 0 0 337.3 115.9;" xml:space="preserve">
<style type="text/css">
	.st0{fill:#939598;}
</style>
<g id="hEO1Rm_00000029026670169914178300000014546850842326286260_">
	<g>
		<path class="st0" d="M4.4,2.6c37.2,0,74.3,0,111.5,0c0,37.1,0,74.1,0,111.3c-37.2,0-74.3,0-111.5,0C4.4,76.8,4.4,39.7,4.4,2.6z
			 M15.9,13.8c0,29.7,0,59.2,0,88.6c29.7,0,59.3,0,88.8,0c0-29.6,0-59.1,0-88.6C75,13.8,45.5,13.8,15.9,13.8z"/>
		<path class="st0" d="M211.7,50.6c0-2.4,0-4.6,0-6.9c3.8,0,7.5,0,11.2,0c0,15,0,30,0,45.1c-3.7,0-7.3,0-11.2,0c0-2.1,0-4,0-5.9
			c-2.1,1.6-3.8,3.4-5.9,4.5c-8.9,4.5-23.1,2-28-11c-3.3-8.7-2.8-17.2,2.6-25.1c5.7-8.2,18.5-10.9,26.3-5.4
			C208.4,47.1,209.8,48.8,211.7,50.6z M187.4,66.1c-0.1,10.6,7.5,14.9,15.9,12.6c5.7-1.5,8.8-7,8.3-13.8c-0.7-9.7-10-15.2-18.2-10.6
			C188.7,56.9,187.4,61.2,187.4,66.1z"/>
		<path class="st0" d="M140.4,70.6c0,5.6-0.1,11,0,16.5c0,1.5-0.3,2.1-2,2.1c-2.6-0.1-5.2-0.1-7.8,0c-1.2,0-1.7-0.2-1.7-1.6
			c0-18.2,0-36.3,0-54.5c0-1.3,0.4-1.6,1.7-1.6c7.3,0.1,14.6,0,22,0.1c8.2,0.1,15.1,4.6,17.5,11.7c2.7,7.8,2,15.2-4,21.4
			c-3.6,3.7-8.2,5.1-13.3,5.4C148.8,70.2,144.7,70.4,140.4,70.6z M140.4,61.1c3.8,0,7.5,0.3,11.1-0.1c4.8-0.5,7.4-3.3,8.3-8.1
			c1.1-6.2-1.7-11.4-7.2-12.1c-4-0.6-8.1-0.1-12.3-0.1C140.4,47.4,140.4,54.2,140.4,61.1z"/>
		<path class="st0" d="M307.4,88.7c-3.3,0-6.6,0-10,0c-1.4,0-1-1.1-1-1.8c0-7.7,0.1-15.4-0.1-23.1c0-1.9-0.3-4-1-5.7
			c-1.5-4-5-6-9.5-5.9s-8.2,1.7-9.8,6.1c-0.8,2.1-1.2,4.6-1.2,6.9c-0.2,7.1-0.1,14.2-0.1,21.4c0,0.7,0,1.4,0,2.2
			c-3.8,0-7.4,0-11.1,0c0-20,0-39.9,0-60c3.7,0,7.3,0,11.2,0c0,7,0,14,0,21c0.4-0.1,0.5-0.1,0.6-0.1c4.5-6.9,13.2-7.3,19-5.5
			c7.8,2.5,12.5,8,13,16.1c0.6,9.3,0.2,18.7,0.3,28C307.6,88.3,307.5,88.4,307.4,88.7z"/>
		<path class="st0" d="M246.5,53.2c0,7.4-0.1,14.5,0,21.6c0.1,3,1.7,4.2,4.7,4.3c1.7,0.1,3.4,0,5.3,0c0,3.2,0,6.2,0,9.5
			c-4.3,0-8.6,0.5-12.8-1c-4.1-1.4-6.8-4.1-7.8-8.4c-0.5-2-0.7-4-0.8-6c-0.1-6.6,0-13.2,0-20.1c-1.3,0-2.6-0.1-3.8,0
			c-1.1,0.1-1.6-0.3-1.6-1.5c0.1-2.6,0-5.2,0-8c1.8,0,3.4,0,5.3,0c0-4.3,0-8.3,0-12.5c3.8,0,7.5,0,11.3,0c0,4.1,0,8.1,0,12.4
			c3.5,0,6.7,0,10.2,0c0,3,0.1,5.8-0.1,8.5c0,0.4-0.9,1-1.5,1.1C252.3,53.3,249.5,53.2,246.5,53.2z"/>
		<path class="st0" d="M326.8,38.7c1.3-2.9,2.7-5.8,3.9-8.8c0.5-1.3,1.2-1.8,2.8-1.3c0,3.9,0,8-0.1,12c0,0.3-0.7,0.7-1.1,1
			c-0.1-0.1-0.3-0.3-0.4-0.4c0-3,0-5.9,0-8.9c-0.1-0.1-0.3-0.1-0.4-0.2c-0.3,0.4-0.7,0.9-0.9,1.3c-1,2.3-1.9,4.6-2.9,6.8
			c-0.2,0.4-0.7,1-1.1,1s-0.9-0.6-1.1-1c-1-2.2-2-4.5-3-6.8c-0.2-0.5-0.6-1-1.3-1.3c0,3,0,6,0,9.1c-0.6,0-1.1,0-1.7,0
			c0-4.3,0-8.5,0-12.7c1.6-0.6,2.4-0.1,3,1.5c1.1,2.9,2.4,5.8,3.6,8.6C326.4,38.8,326.6,38.8,326.8,38.7z"/>
		<path class="st0" d="M310.9,30c-1.1,0-1.9,0.1-2.8,0c-0.3,0-0.6-0.4-0.9-0.7c0.3-0.3,0.5-0.8,0.8-0.8c2.5-0.1,5.1-0.1,7.6,0
			c0.3,0,0.6,0.5,0.7,0.8c0,0.1-0.4,0.6-0.7,0.6c-0.9,0.1-1.8,0-2.8,0c0,3.9,0,7.6,0,11.3c-1.6,0.5-2,0-2-1.4
			C311,36.6,310.9,33.4,310.9,30z"/>
		<path class="st0" d="M60.6,31.3c3.9,0,7.5,0,11.3,0c0,0.5,0.1,0.8,0.1,1.2c0,11.6,0.2,23.1-0.1,34.7c-0.2,8.3-3.2,15.4-11,19.6
			s-22.3,4.1-29.3-4.3c-3.2-3.8-5.1-8.2-5.2-13c-0.3-12.6-0.1-25.3-0.1-38.1c3.5,0,7.1,0,11,0c0,0.7,0,1.4,0,2.1
			c0,10.4-0.1,20.7,0.1,31.1c0,2.6,0.4,5.2,1.2,7.6c1.2,3.7,4.1,6,8.1,6.3c2.1,0.2,4.2,0.2,6.2-0.3c4.8-1.2,7.5-5.1,7.6-11.2
			c0.2-8.7,0.1-17.4,0.1-26.1C60.6,37.7,60.6,34.6,60.6,31.3z"/>
		<path class="st0" d="M92.7,88.7c-3.8,0-7.4,0-11.1,0c0-15,0-29.9,0-45c3.7,0,7.4,0,11.1,0C92.7,58.7,92.7,73.5,92.7,88.7z"/>
		<path class="st0" d="M87.1,37.9c-4,0-7-2.9-7-6.9c0-3.9,3-7,7-7c4.1,0,7.1,3,7.1,7.1C94.2,34.9,91.1,37.9,87.1,37.9z"/>
	</g>
</g>
</svg>
